;TYPE=PLATED
;Layer: PTH_Through
;EasyEDA Pro Client v3.2.149.88089769, 2026-09-20 21:47:13
;Gerber Generator version 0.3
M48
METRIC,LZ,0000.00000
;Hole size 1 = 0.30480 METRIC
T01C0.30480
;Hole size 2 = 0.30500 METRIC
T02C0.30500
;Hole size 3 = 0.91399 METRIC
T03C0.91399
;Hole size 4 = 1.00000 METRIC
T04C1.00000
;Hole size 5 = 1.10002 METRIC
T05C1.10002
%
G05
G90
T01
X23.876Y29.718
X8.382Y2.286
X17.78Y1.27
X25.654Y2.286
X4.318Y10.16
X29.718Y9.652
X4.318Y16.51
X29.718Y16.51
X16.51Y11.938
X16.51Y18.542
X4.572Y29.972
X10.922Y25.654
X24.13Y43.434
X32.766Y38.354
X5.588Y43.434
T02
X24.89205Y30.73404
X18.21266Y26.97535
X14.91067Y37.46552
X20.24466Y25.78155
X25.39995Y14.78427
X14.65667Y28.49935
X10.08468Y23.92736
X13.89467Y32.79703
X19.73666Y26.95505
X25.65395Y10.87778
X12.37068Y32.95454
X17.70466Y21.77856
X17.70466Y19.77626
X21.58996Y18.68496
X13.38667Y34.47853
X19.22866Y28.63655
X11.92198Y22.73295
X13.19197Y21.71696
X17.87627Y22.59126
X20.41626Y21.82926
X25.90795Y20.17696
X25.90795Y17.63696
X20.57396Y11.54098
X13.89467Y28.24535
X6.60399Y19.55806
X6.60399Y8.63608
X25.39995Y18.54196
X10.08468Y29.76934
T03
X26.71001Y41.27501
X29.21Y41.27501
X31.71Y41.27501
T04
X6.35Y23.622
X21.59Y23.622
X6.35Y26.162
X21.59Y26.162
X6.35Y28.702
X21.59Y28.702
X6.35Y31.242
X21.59Y31.242
X6.35Y33.782
X21.59Y33.782
X6.35Y36.322
X21.59Y36.322
X6.35Y38.862
X21.59Y38.862
X6.35Y41.402
X21.59Y41.402
T05
X2.032Y23.622
X2.032Y21.082
X2.032Y17.272
X2.032Y14.732
X2.032Y10.922
X2.032Y8.382
X2.032Y4.572
X2.032Y2.032
X32.258Y23.622
X32.258Y21.082
X32.258Y17.272
X32.258Y14.732
X32.258Y10.922
X32.258Y8.382
X32.258Y4.572
X32.258Y2.032
X31.8008Y35.56
X31.8008Y33.02
M30