;TYPE=PLATED
;Layer: PTH_Through_Via
;EasyEDA Pro Client v3.2.149.88089769, 2026-09-20 21:47:13
;Gerber Generator version 0.3
M48
METRIC,LZ,0000.00000
;Hole size 1 = 0.30480 METRIC
T01C0.30480
;Hole size 2 = 0.30500 METRIC
T02C0.30500
%
G05
G90
T01
X23.876Y29.718
X8.382Y2.286
X17.78Y1.27
X25.654Y2.286
X4.318Y10.16
X29.718Y9.652
X4.318Y16.51
X29.718Y16.51
X16.51Y11.938
X16.51Y18.542
X4.572Y29.972
X10.922Y25.654
X24.13Y43.434
X32.766Y38.354
X5.588Y43.434
T02
X24.89205Y30.73404
X18.21266Y26.97535
X14.91067Y37.46552
X20.24466Y25.78155
X25.39995Y14.78427
X14.65667Y28.49935
X10.08468Y23.92736
X13.89467Y32.79703
X19.73666Y26.95505
X25.65395Y10.87778
X12.37068Y32.95454
X17.70466Y21.77856
X17.70466Y19.77626
X21.58996Y18.68496
X13.38667Y34.47853
X19.22866Y28.63655
X11.92198Y22.73295
X13.19197Y21.71696
X17.87627Y22.59126
X20.41626Y21.82926
X25.90795Y20.17696
X25.90795Y17.63696
X20.57396Y11.54098
X13.89467Y28.24535
X6.60399Y19.55806
X6.60399Y8.63608
X25.39995Y18.54196
X10.08468Y29.76934
M30