G04 Layer: TopSilkscreenLayer*
G04 EasyEDA Pro v3.2.149.88089769, 2026-09-20 21:47:13*
G04 Gerber Generator version 0.3*
G04 Scale: 100 percent, Rotated: No, Reflected: No*
G04 Dimensions in millimeters*
G04 Leading zeros omitted, absolute positions, 4 integers and 5 decimals*
G04 Generated by one-click*
G04 Object Configs: Pad,Via,Track,Text,Image,Dimension,BoardOutline,BoardCutout,CopperFilled,SolidRegion,FPCStiffener,Line,PlaneZone,ComponentProperty,ComponentSilkscreen,TearDrop*
G04 Layer Configs: 1,2,3,4,5,6,7,8,9,10,11,13,14,56*
G04 Copper Areas: 0*
%FSLAX45Y45*%
%MOMM*%
%ADD10C,0.1524*%
%ADD11C,0.254*%
%ADD12C,0.0590*%
G75*


G04 Text Start*
G54D10*
G01X71120Y2549398D02*
G01X71120Y2506218D01*
G01X71120Y2549398D02*
G01X98044Y2549398D01*
G01X71120Y2528824D02*
G01X87630Y2528824D01*
G01X152146Y2543302D02*
G01X148082Y2547366D01*
G01X141732Y2549398D01*
G01X133604Y2549398D01*
G01X127254Y2547366D01*
G01X123190Y2543302D01*
G01X123190Y2539238D01*
G01X125222Y2535174D01*
G01X127254Y2532888D01*
G01X131572Y2530856D01*
G01X143764Y2526792D01*
G01X148082Y2524760D01*
G01X150114Y2522728D01*
G01X152146Y2518664D01*
G01X152146Y2512314D01*
G01X148082Y2508250D01*
G01X141732Y2506218D01*
G01X133604Y2506218D01*
G01X127254Y2508250D01*
G01X123190Y2512314D01*
G01X177292Y2549398D02*
G01X177292Y2506218D01*
G01X177292Y2549398D02*
G01X195834Y2549398D01*
G01X202184Y2547366D01*
G01X204216Y2545334D01*
G01X206248Y2541270D01*
G01X206248Y2537206D01*
G01X204216Y2532888D01*
G01X202184Y2530856D01*
G01X195834Y2528824D01*
G01X177292Y2528824D01*
G01X191770Y2528824D02*
G01X206248Y2506218D01*
G01X243840Y2549398D02*
G01X237490Y2547366D01*
G01X233426Y2541270D01*
G01X231394Y2530856D01*
G01X231394Y2524760D01*
G01X233426Y2514346D01*
G01X237490Y2508250D01*
G01X243840Y2506218D01*
G01X247904Y2506218D01*
G01X254000Y2508250D01*
G01X258318Y2514346D01*
G01X260350Y2524760D01*
G01X260350Y2530856D01*
G01X258318Y2541270D01*
G01X254000Y2547366D01*
G01X247904Y2549398D01*
G01X243840Y2549398D01*
G01X71120Y1914398D02*
G01X71120Y1871218D01*
G01X71120Y1914398D02*
G01X98044Y1914398D01*
G01X71120Y1893824D02*
G01X87630Y1893824D01*
G01X152146Y1908302D02*
G01X148082Y1912366D01*
G01X141732Y1914398D01*
G01X133604Y1914398D01*
G01X127254Y1912366D01*
G01X123190Y1908302D01*
G01X123190Y1904238D01*
G01X125222Y1900174D01*
G01X127254Y1897888D01*
G01X131572Y1895856D01*
G01X143764Y1891792D01*
G01X148082Y1889760D01*
G01X150114Y1887728D01*
G01X152146Y1883664D01*
G01X152146Y1877314D01*
G01X148082Y1873250D01*
G01X141732Y1871218D01*
G01X133604Y1871218D01*
G01X127254Y1873250D01*
G01X123190Y1877314D01*
G01X177292Y1914398D02*
G01X177292Y1871218D01*
G01X177292Y1914398D02*
G01X195834Y1914398D01*
G01X202184Y1912366D01*
G01X204216Y1910334D01*
G01X206248Y1906270D01*
G01X206248Y1902206D01*
G01X204216Y1897888D01*
G01X202184Y1895856D01*
G01X195834Y1893824D01*
G01X177292Y1893824D01*
G01X191770Y1893824D02*
G01X206248Y1871218D01*
G01X231394Y1906270D02*
G01X235458Y1908302D01*
G01X241808Y1914398D01*
G01X241808Y1871218D01*
G01X71120Y1279398D02*
G01X71120Y1236218D01*
G01X71120Y1279398D02*
G01X98044Y1279398D01*
G01X71120Y1258824D02*
G01X87630Y1258824D01*
G01X152146Y1273302D02*
G01X148082Y1277366D01*
G01X141732Y1279398D01*
G01X133604Y1279398D01*
G01X127254Y1277366D01*
G01X123190Y1273302D01*
G01X123190Y1269238D01*
G01X125222Y1265174D01*
G01X127254Y1262888D01*
G01X131572Y1260856D01*
G01X143764Y1256792D01*
G01X148082Y1254760D01*
G01X150114Y1252728D01*
G01X152146Y1248664D01*
G01X152146Y1242314D01*
G01X148082Y1238250D01*
G01X141732Y1236218D01*
G01X133604Y1236218D01*
G01X127254Y1238250D01*
G01X123190Y1242314D01*
G01X177292Y1279398D02*
G01X177292Y1236218D01*
G01X177292Y1279398D02*
G01X195834Y1279398D01*
G01X202184Y1277366D01*
G01X204216Y1275334D01*
G01X206248Y1271270D01*
G01X206248Y1267206D01*
G01X204216Y1262888D01*
G01X202184Y1260856D01*
G01X195834Y1258824D01*
G01X177292Y1258824D01*
G01X191770Y1258824D02*
G01X206248Y1236218D01*
G01X233426Y1269238D02*
G01X233426Y1271270D01*
G01X235458Y1275334D01*
G01X237490Y1277366D01*
G01X241808Y1279398D01*
G01X249936Y1279398D01*
G01X254000Y1277366D01*
G01X256286Y1275334D01*
G01X258318Y1271270D01*
G01X258318Y1267206D01*
G01X256286Y1262888D01*
G01X251968Y1256792D01*
G01X231394Y1236218D01*
G01X260350Y1236218D01*
G01X71120Y644398D02*
G01X71120Y601218D01*
G01X71120Y644398D02*
G01X98044Y644398D01*
G01X71120Y623824D02*
G01X87630Y623824D01*
G01X152146Y638302D02*
G01X148082Y642366D01*
G01X141732Y644398D01*
G01X133604Y644398D01*
G01X127254Y642366D01*
G01X123190Y638302D01*
G01X123190Y634238D01*
G01X125222Y630174D01*
G01X127254Y627888D01*
G01X131572Y625856D01*
G01X143764Y621792D01*
G01X148082Y619760D01*
G01X150114Y617728D01*
G01X152146Y613664D01*
G01X152146Y607314D01*
G01X148082Y603250D01*
G01X141732Y601218D01*
G01X133604Y601218D01*
G01X127254Y603250D01*
G01X123190Y607314D01*
G01X177292Y644398D02*
G01X177292Y601218D01*
G01X177292Y644398D02*
G01X195834Y644398D01*
G01X202184Y642366D01*
G01X204216Y640334D01*
G01X206248Y636270D01*
G01X206248Y632206D01*
G01X204216Y627888D01*
G01X202184Y625856D01*
G01X195834Y623824D01*
G01X177292Y623824D01*
G01X191770Y623824D02*
G01X206248Y601218D01*
G01X235458Y644398D02*
G01X258318Y644398D01*
G01X245872Y627888D01*
G01X251968Y627888D01*
G01X256286Y625856D01*
G01X258318Y623824D01*
G01X260350Y617728D01*
G01X260350Y613664D01*
G01X258318Y607314D01*
G01X254000Y603250D01*
G01X247904Y601218D01*
G01X241808Y601218D01*
G01X235458Y603250D01*
G01X233426Y605282D01*
G01X231394Y609346D01*
G01X3030220Y2549398D02*
G01X3030220Y2506218D01*
G01X3030220Y2549398D02*
G01X3057144Y2549398D01*
G01X3030220Y2528824D02*
G01X3046730Y2528824D01*
G01X3111246Y2543302D02*
G01X3107182Y2547366D01*
G01X3100832Y2549398D01*
G01X3092704Y2549398D01*
G01X3086354Y2547366D01*
G01X3082290Y2543302D01*
G01X3082290Y2539238D01*
G01X3084322Y2535174D01*
G01X3086354Y2532888D01*
G01X3090672Y2530856D01*
G01X3102864Y2526792D01*
G01X3107182Y2524760D01*
G01X3109214Y2522728D01*
G01X3111246Y2518664D01*
G01X3111246Y2512314D01*
G01X3107182Y2508250D01*
G01X3100832Y2506218D01*
G01X3092704Y2506218D01*
G01X3086354Y2508250D01*
G01X3082290Y2512314D01*
G01X3136392Y2549398D02*
G01X3136392Y2506218D01*
G01X3136392Y2549398D02*
G01X3154934Y2549398D01*
G01X3161284Y2547366D01*
G01X3163316Y2545334D01*
G01X3165348Y2541270D01*
G01X3165348Y2537206D01*
G01X3163316Y2532888D01*
G01X3161284Y2530856D01*
G01X3154934Y2528824D01*
G01X3136392Y2528824D01*
G01X3150870Y2528824D02*
G01X3165348Y2506218D01*
G01X3211068Y2549398D02*
G01X3190494Y2520696D01*
G01X3221482Y2520696D01*
G01X3211068Y2549398D02*
G01X3211068Y2506218D01*
G01X3030220Y1914398D02*
G01X3030220Y1871218D01*
G01X3030220Y1914398D02*
G01X3057144Y1914398D01*
G01X3030220Y1893824D02*
G01X3046730Y1893824D01*
G01X3111246Y1908302D02*
G01X3107182Y1912366D01*
G01X3100832Y1914398D01*
G01X3092704Y1914398D01*
G01X3086354Y1912366D01*
G01X3082290Y1908302D01*
G01X3082290Y1904238D01*
G01X3084322Y1900174D01*
G01X3086354Y1897888D01*
G01X3090672Y1895856D01*
G01X3102864Y1891792D01*
G01X3107182Y1889760D01*
G01X3109214Y1887728D01*
G01X3111246Y1883664D01*
G01X3111246Y1877314D01*
G01X3107182Y1873250D01*
G01X3100832Y1871218D01*
G01X3092704Y1871218D01*
G01X3086354Y1873250D01*
G01X3082290Y1877314D01*
G01X3136392Y1914398D02*
G01X3136392Y1871218D01*
G01X3136392Y1914398D02*
G01X3154934Y1914398D01*
G01X3161284Y1912366D01*
G01X3163316Y1910334D01*
G01X3165348Y1906270D01*
G01X3165348Y1902206D01*
G01X3163316Y1897888D01*
G01X3161284Y1895856D01*
G01X3154934Y1893824D01*
G01X3136392Y1893824D01*
G01X3150870Y1893824D02*
G01X3165348Y1871218D01*
G01X3215386Y1914398D02*
G01X3194558Y1914398D01*
G01X3192526Y1895856D01*
G01X3194558Y1897888D01*
G01X3200908Y1900174D01*
G01X3207004Y1900174D01*
G01X3213100Y1897888D01*
G01X3217418Y1893824D01*
G01X3219450Y1887728D01*
G01X3219450Y1883664D01*
G01X3217418Y1877314D01*
G01X3213100Y1873250D01*
G01X3207004Y1871218D01*
G01X3200908Y1871218D01*
G01X3194558Y1873250D01*
G01X3192526Y1875282D01*
G01X3190494Y1879346D01*
G01X3030220Y1279398D02*
G01X3030220Y1236218D01*
G01X3030220Y1279398D02*
G01X3057144Y1279398D01*
G01X3030220Y1258824D02*
G01X3046730Y1258824D01*
G01X3111246Y1273302D02*
G01X3107182Y1277366D01*
G01X3100832Y1279398D01*
G01X3092704Y1279398D01*
G01X3086354Y1277366D01*
G01X3082290Y1273302D01*
G01X3082290Y1269238D01*
G01X3084322Y1265174D01*
G01X3086354Y1262888D01*
G01X3090672Y1260856D01*
G01X3102864Y1256792D01*
G01X3107182Y1254760D01*
G01X3109214Y1252728D01*
G01X3111246Y1248664D01*
G01X3111246Y1242314D01*
G01X3107182Y1238250D01*
G01X3100832Y1236218D01*
G01X3092704Y1236218D01*
G01X3086354Y1238250D01*
G01X3082290Y1242314D01*
G01X3136392Y1279398D02*
G01X3136392Y1236218D01*
G01X3136392Y1279398D02*
G01X3154934Y1279398D01*
G01X3161284Y1277366D01*
G01X3163316Y1275334D01*
G01X3165348Y1271270D01*
G01X3165348Y1267206D01*
G01X3163316Y1262888D01*
G01X3161284Y1260856D01*
G01X3154934Y1258824D01*
G01X3136392Y1258824D01*
G01X3150870Y1258824D02*
G01X3165348Y1236218D01*
G01X3215386Y1273302D02*
G01X3213100Y1277366D01*
G01X3207004Y1279398D01*
G01X3202940Y1279398D01*
G01X3196590Y1277366D01*
G01X3192526Y1271270D01*
G01X3190494Y1260856D01*
G01X3190494Y1250696D01*
G01X3192526Y1242314D01*
G01X3196590Y1238250D01*
G01X3202940Y1236218D01*
G01X3204972Y1236218D01*
G01X3211068Y1238250D01*
G01X3215386Y1242314D01*
G01X3217418Y1248664D01*
G01X3217418Y1250696D01*
G01X3215386Y1256792D01*
G01X3211068Y1260856D01*
G01X3204972Y1262888D01*
G01X3202940Y1262888D01*
G01X3196590Y1260856D01*
G01X3192526Y1256792D01*
G01X3190494Y1250696D01*
G01X3030220Y644398D02*
G01X3030220Y601218D01*
G01X3030220Y644398D02*
G01X3057144Y644398D01*
G01X3030220Y623824D02*
G01X3046730Y623824D01*
G01X3111246Y638302D02*
G01X3107182Y642366D01*
G01X3100832Y644398D01*
G01X3092704Y644398D01*
G01X3086354Y642366D01*
G01X3082290Y638302D01*
G01X3082290Y634238D01*
G01X3084322Y630174D01*
G01X3086354Y627888D01*
G01X3090672Y625856D01*
G01X3102864Y621792D01*
G01X3107182Y619760D01*
G01X3109214Y617728D01*
G01X3111246Y613664D01*
G01X3111246Y607314D01*
G01X3107182Y603250D01*
G01X3100832Y601218D01*
G01X3092704Y601218D01*
G01X3086354Y603250D01*
G01X3082290Y607314D01*
G01X3136392Y644398D02*
G01X3136392Y601218D01*
G01X3136392Y644398D02*
G01X3154934Y644398D01*
G01X3161284Y642366D01*
G01X3163316Y640334D01*
G01X3165348Y636270D01*
G01X3165348Y632206D01*
G01X3163316Y627888D01*
G01X3161284Y625856D01*
G01X3154934Y623824D01*
G01X3136392Y623824D01*
G01X3150870Y623824D02*
G01X3165348Y601218D01*
G01X3219450Y644398D02*
G01X3198876Y601218D01*
G01X3190494Y644398D02*
G01X3219450Y644398D01*
G01X2978912Y3590798D02*
G01X2958084Y3590798D01*
G01X2956052Y3572256D01*
G01X2958084Y3574288D01*
G01X2964434Y3576574D01*
G01X2970530Y3576574D01*
G01X2976626Y3574288D01*
G01X2980944Y3570224D01*
G01X2982976Y3564128D01*
G01X2982976Y3560064D01*
G01X2980944Y3553714D01*
G01X2976626Y3549650D01*
G01X2970530Y3547618D01*
G01X2964434Y3547618D01*
G01X2958084Y3549650D01*
G01X2956052Y3551682D01*
G01X2954020Y3555746D01*
G01X3008122Y3590798D02*
G01X3024632Y3547618D01*
G01X3041142Y3590798D02*
G01X3024632Y3547618D01*
G01X3010408Y3148838D02*
G01X3008376Y3152902D01*
G01X3004312Y3156966D01*
G01X2999994Y3158998D01*
G01X2991866Y3158998D01*
G01X2987802Y3156966D01*
G01X2983484Y3152902D01*
G01X2981452Y3148838D01*
G01X2979420Y3142488D01*
G01X2979420Y3132328D01*
G01X2981452Y3125978D01*
G01X2983484Y3121914D01*
G01X2987802Y3117850D01*
G01X2991866Y3115818D01*
G01X2999994Y3115818D01*
G01X3004312Y3117850D01*
G01X3008376Y3121914D01*
G01X3010408Y3125978D01*
G01X3010408Y3132328D01*
G01X2999994Y3132328D02*
G01X3010408Y3132328D01*
G01X3035554Y3158998D02*
G01X3035554Y3115818D01*
G01X3035554Y3158998D02*
G01X3064510Y3115818D01*
G01X3064510Y3158998D02*
G01X3064510Y3115818D01*
G01X3089656Y3158998D02*
G01X3089656Y3115818D01*
G01X3089656Y3158998D02*
G01X3104134Y3158998D01*
G01X3110230Y3156966D01*
G01X3114548Y3152902D01*
G01X3116580Y3148838D01*
G01X3118612Y3142488D01*
G01X3118612Y3132328D01*
G01X3116580Y3125978D01*
G01X3114548Y3121914D01*
G01X3110230Y3117850D01*
G01X3104134Y3115818D01*
G01X3089656Y3115818D01*
G01X2547366Y4352798D02*
G01X2543302Y4350766D01*
G01X2538984Y4346702D01*
G01X2536952Y4342638D01*
G01X2534920Y4336288D01*
G01X2534920Y4326128D01*
G01X2536952Y4319778D01*
G01X2538984Y4315714D01*
G01X2543302Y4311650D01*
G01X2547366Y4309618D01*
G01X2555494Y4309618D01*
G01X2559812Y4311650D01*
G01X2563876Y4315714D01*
G01X2565908Y4319778D01*
G01X2567940Y4326128D01*
G01X2567940Y4336288D01*
G01X2565908Y4342638D01*
G01X2563876Y4346702D01*
G01X2559812Y4350766D01*
G01X2555494Y4352798D01*
G01X2547366Y4352798D01*
G01X2593086Y4352798D02*
G01X2593086Y4309618D01*
G01X2593086Y4352798D02*
G01X2620010Y4352798D01*
G01X2593086Y4332224D02*
G01X2609596Y4332224D01*
G01X2645156Y4352798D02*
G01X2645156Y4309618D01*
G01X2645156Y4352798D02*
G01X2672080Y4352798D01*
G01X2645156Y4332224D02*
G01X2661666Y4332224D01*
G01X2848356Y4352798D02*
G01X2844292Y4350766D01*
G01X2839974Y4346702D01*
G01X2837942Y4342638D01*
G01X2835910Y4336288D01*
G01X2835910Y4326128D01*
G01X2837942Y4319778D01*
G01X2839974Y4315714D01*
G01X2844292Y4311650D01*
G01X2848356Y4309618D01*
G01X2856484Y4309618D01*
G01X2860802Y4311650D01*
G01X2864866Y4315714D01*
G01X2866898Y4319778D01*
G01X2868930Y4326128D01*
G01X2868930Y4336288D01*
G01X2866898Y4342638D01*
G01X2864866Y4346702D01*
G01X2860802Y4350766D01*
G01X2856484Y4352798D01*
G01X2848356Y4352798D01*
G01X2894076Y4352798D02*
G01X2894076Y4309618D01*
G01X2894076Y4352798D02*
G01X2923032Y4309618D01*
G01X2923032Y4352798D02*
G01X2923032Y4309618D01*
G01X1226820Y1952498D02*
G01X1226820Y1921764D01*
G01X1228852Y1915414D01*
G01X1232916Y1911350D01*
G01X1239266Y1909318D01*
G01X1243330Y1909318D01*
G01X1249426Y1911350D01*
G01X1253744Y1915414D01*
G01X1255776Y1921764D01*
G01X1255776Y1952498D01*
G01X1309878Y1946402D02*
G01X1305814Y1950466D01*
G01X1299464Y1952498D01*
G01X1291336Y1952498D01*
G01X1284986Y1950466D01*
G01X1280922Y1946402D01*
G01X1280922Y1942338D01*
G01X1282954Y1938274D01*
G01X1284986Y1935988D01*
G01X1289304Y1933956D01*
G01X1301496Y1929892D01*
G01X1305814Y1927860D01*
G01X1307846Y1925828D01*
G01X1309878Y1921764D01*
G01X1309878Y1915414D01*
G01X1305814Y1911350D01*
G01X1299464Y1909318D01*
G01X1291336Y1909318D01*
G01X1284986Y1911350D01*
G01X1280922Y1915414D01*
G01X1335024Y1952498D02*
G01X1335024Y1909318D01*
G01X1335024Y1952498D02*
G01X1353566Y1952498D01*
G01X1359916Y1950466D01*
G01X1361948Y1948434D01*
G01X1363980Y1944370D01*
G01X1363980Y1940306D01*
G01X1361948Y1935988D01*
G01X1359916Y1933956D01*
G01X1353566Y1931924D01*
G01X1335024Y1931924D02*
G01X1353566Y1931924D01*
G01X1359916Y1929892D01*
G01X1361948Y1927860D01*
G01X1363980Y1923796D01*
G01X1363980Y1917446D01*
G01X1361948Y1913382D01*
G01X1359916Y1911350D01*
G01X1353566Y1909318D01*
G01X1335024Y1909318D01*
G01X1268730Y4276598D02*
G01X1252220Y4233418D01*
G01X1268730Y4276598D02*
G01X1285240Y4233418D01*
G01X1258316Y4247896D02*
G01X1279144Y4247896D01*
G01X1310386Y4276598D02*
G01X1310386Y4233418D01*
G01X1310386Y4276598D02*
G01X1339342Y4233418D01*
G01X1339342Y4276598D02*
G01X1339342Y4233418D01*
G01X1378966Y4276598D02*
G01X1378966Y4233418D01*
G01X1364488Y4276598D02*
G01X1393444Y4276598D01*
G01X1023620Y995934D02*
G01X1023620Y930910D01*
G01X1023620Y995934D02*
G01X1051560Y995934D01*
G01X1060704Y992886D01*
G01X1063752Y989838D01*
G01X1067054Y983488D01*
G01X1067054Y977392D01*
G01X1063752Y971296D01*
G01X1060704Y968248D01*
G01X1051560Y964946D01*
G01X1023620Y964946D02*
G01X1051560Y964946D01*
G01X1060704Y961898D01*
G01X1063752Y958850D01*
G01X1067054Y952754D01*
G01X1067054Y943356D01*
G01X1063752Y937260D01*
G01X1060704Y933958D01*
G01X1051560Y930910D01*
G01X1023620Y930910D01*
G01X1097280Y995934D02*
G01X1121918Y964946D01*
G01X1121918Y930910D01*
G01X1146810Y995934D02*
G01X1121918Y964946D01*
G01X1292606Y980440D02*
G01X1289558Y986790D01*
G01X1283462Y992886D01*
G01X1277112Y995934D01*
G01X1264920Y995934D01*
G01X1258570Y992886D01*
G01X1252474Y986790D01*
G01X1249426Y980440D01*
G01X1246378Y971296D01*
G01X1246378Y955802D01*
G01X1249426Y946404D01*
G01X1252474Y940308D01*
G01X1258570Y933958D01*
G01X1264920Y930910D01*
G01X1277112Y930910D01*
G01X1283462Y933958D01*
G01X1289558Y940308D01*
G01X1292606Y946404D01*
G01X1322832Y995934D02*
G01X1322832Y930910D01*
G01X1366012Y995934D02*
G01X1366012Y930910D01*
G01X1322832Y964946D02*
G01X1366012Y964946D01*
G01X1396238Y995934D02*
G01X1396238Y930910D01*
G01X1396238Y995934D02*
G01X1436370Y995934D01*
G01X1396238Y964946D02*
G01X1420876Y964946D01*
G01X1396238Y930910D02*
G01X1436370Y930910D01*
G01X1466596Y995934D02*
G01X1466596Y930910D01*
G01X1466596Y995934D02*
G01X1494282Y995934D01*
G01X1503680Y992886D01*
G01X1506728Y989838D01*
G01X1509776Y983488D01*
G01X1509776Y977392D01*
G01X1506728Y971296D01*
G01X1503680Y968248D01*
G01X1494282Y964946D01*
G01X1466596Y964946D01*
G01X1488186Y964946D02*
G01X1509776Y930910D01*
G01X1540002Y995934D02*
G01X1540002Y930910D01*
G01X1540002Y995934D02*
G01X1567688Y995934D01*
G01X1577086Y992886D01*
G01X1580134Y989838D01*
G01X1583182Y983488D01*
G01X1583182Y977392D01*
G01X1580134Y971296D01*
G01X1577086Y968248D01*
G01X1567688Y964946D01*
G01X1540002Y964946D01*
G01X1561592Y964946D02*
G01X1583182Y930910D01*
G01X1613408Y995934D02*
G01X1638046Y964946D01*
G01X1638046Y930910D01*
G01X1662938Y995934D02*
G01X1638046Y964946D01*
G01X1787144Y995934D02*
G01X1762506Y930910D01*
G01X1787144Y995934D02*
G01X1812036Y930910D01*
G01X1771650Y952754D02*
G01X1802638Y952754D01*
G01X1842262Y995934D02*
G01X1842262Y930910D01*
G01X1872488Y909320D02*
G01X1928114Y909320D01*
G01X1958340Y995934D02*
G01X1958340Y930910D01*
G01X1958340Y995934D02*
G01X1979930Y995934D01*
G01X1989074Y992886D01*
G01X1995424Y986790D01*
G01X1998472Y980440D01*
G01X2001520Y971296D01*
G01X2001520Y955802D01*
G01X1998472Y946404D01*
G01X1995424Y940308D01*
G01X1989074Y933958D01*
G01X1979930Y930910D01*
G01X1958340Y930910D01*
G01X2050288Y995934D02*
G01X2043938Y992886D01*
G01X2037842Y986790D01*
G01X2034794Y980440D01*
G01X2031746Y971296D01*
G01X2031746Y955802D01*
G01X2034794Y946404D01*
G01X2037842Y940308D01*
G01X2043938Y933958D01*
G01X2050288Y930910D01*
G01X2062480Y930910D01*
G01X2068830Y933958D01*
G01X2074926Y940308D01*
G01X2077974Y946404D01*
G01X2081276Y955802D01*
G01X2081276Y971296D01*
G01X2077974Y980440D01*
G01X2074926Y986790D01*
G01X2068830Y992886D01*
G01X2062480Y995934D01*
G01X2050288Y995934D01*
G01X2111502Y995934D02*
G01X2111502Y930910D01*
G01X2111502Y930910D02*
G01X2148586Y930910D01*
G01X2178812Y995934D02*
G01X2178812Y930910D01*
G01X2178812Y930910D02*
G01X2215896Y930910D01*
G01X2297684Y1634998D02*
G01X2320544Y1634998D01*
G01X2308098Y1618488D01*
G01X2314194Y1618488D01*
G01X2318512Y1616456D01*
G01X2320544Y1614424D01*
G01X2322576Y1608328D01*
G01X2322576Y1604264D01*
G01X2320544Y1597914D01*
G01X2316226Y1593850D01*
G01X2310130Y1591818D01*
G01X2304034Y1591818D01*
G01X2297684Y1593850D01*
G01X2295652Y1595882D01*
G01X2293620Y1599946D01*
G01X2347722Y1634998D02*
G01X2364232Y1591818D01*
G01X2380742Y1634998D02*
G01X2364232Y1591818D01*
G01X2409952Y1634998D02*
G01X2432812Y1634998D01*
G01X2420366Y1618488D01*
G01X2426462Y1618488D01*
G01X2430780Y1616456D01*
G01X2432812Y1614424D01*
G01X2434844Y1608328D01*
G01X2434844Y1604264D01*
G01X2432812Y1597914D01*
G01X2428494Y1593850D01*
G01X2422398Y1591818D01*
G01X2416302Y1591818D01*
G01X2409952Y1593850D01*
G01X2407920Y1595882D01*
G01X2405888Y1599946D01*
G01X2781808Y1726438D02*
G01X2779776Y1730502D01*
G01X2775712Y1734566D01*
G01X2771394Y1736598D01*
G01X2763266Y1736598D01*
G01X2759202Y1734566D01*
G01X2754884Y1730502D01*
G01X2752852Y1726438D01*
G01X2750820Y1720088D01*
G01X2750820Y1709928D01*
G01X2752852Y1703578D01*
G01X2754884Y1699514D01*
G01X2759202Y1695450D01*
G01X2763266Y1693418D01*
G01X2771394Y1693418D01*
G01X2775712Y1695450D01*
G01X2779776Y1699514D01*
G01X2781808Y1703578D01*
G01X2781808Y1709928D01*
G01X2771394Y1709928D02*
G01X2781808Y1709928D01*
G01X2806954Y1736598D02*
G01X2806954Y1693418D01*
G01X2806954Y1736598D02*
G01X2835910Y1693418D01*
G01X2835910Y1736598D02*
G01X2835910Y1693418D01*
G01X2861056Y1736598D02*
G01X2861056Y1693418D01*
G01X2861056Y1736598D02*
G01X2875534Y1736598D01*
G01X2881630Y1734566D01*
G01X2885948Y1730502D01*
G01X2887980Y1726438D01*
G01X2890012Y1720088D01*
G01X2890012Y1709928D01*
G01X2887980Y1703578D01*
G01X2885948Y1699514D01*
G01X2881630Y1695450D01*
G01X2875534Y1693418D01*
G01X2861056Y1693418D01*
G01X138430Y4060698D02*
G01X121920Y4017518D01*
G01X138430Y4060698D02*
G01X154940Y4017518D01*
G01X128016Y4031996D02*
G01X148844Y4031996D01*
G01X180086Y4060698D02*
G01X180086Y4017518D01*
G01X180086Y4060698D02*
G01X194564Y4060698D01*
G01X200660Y4058666D01*
G01X204978Y4054602D01*
G01X207010Y4050538D01*
G01X209042Y4044188D01*
G01X209042Y4034028D01*
G01X207010Y4027678D01*
G01X204978Y4023614D01*
G01X200660Y4019550D01*
G01X194564Y4017518D01*
G01X180086Y4017518D01*
G01X265176Y4050538D02*
G01X263144Y4054602D01*
G01X259080Y4058666D01*
G01X254762Y4060698D01*
G01X246634Y4060698D01*
G01X242570Y4058666D01*
G01X238252Y4054602D01*
G01X236220Y4050538D01*
G01X234188Y4044188D01*
G01X234188Y4034028D01*
G01X236220Y4027678D01*
G01X238252Y4023614D01*
G01X242570Y4019550D01*
G01X246634Y4017518D01*
G01X254762Y4017518D01*
G01X259080Y4019550D01*
G01X263144Y4023614D01*
G01X265176Y4027678D01*
G01X2014220Y2193798D02*
G01X2014220Y2150618D01*
G01X2014220Y2193798D02*
G01X2032762Y2193798D01*
G01X2039112Y2191766D01*
G01X2041144Y2189734D01*
G01X2043176Y2185670D01*
G01X2043176Y2179574D01*
G01X2041144Y2175256D01*
G01X2039112Y2173224D01*
G01X2032762Y2171192D01*
G01X2014220Y2171192D01*
G01X2068322Y2193798D02*
G01X2068322Y2150618D01*
G01X2093468Y2193798D02*
G01X2093468Y2150618D01*
G01X2093468Y2193798D02*
G01X2122424Y2150618D01*
G01X2122424Y2193798D02*
G01X2122424Y2150618D01*
G01X2147570Y2185670D02*
G01X2151634Y2187702D01*
G01X2157984Y2193798D01*
G01X2157984Y2150618D01*
G01X2723134Y2362899D02*
G01X2721102Y2366963D01*
G01X2717038Y2371027D01*
G01X2712720Y2373059D01*
G01X2704592Y2373059D01*
G01X2700528Y2371027D01*
G01X2696210Y2366963D01*
G01X2694178Y2362899D01*
G01X2692146Y2356549D01*
G01X2692146Y2346389D01*
G01X2694178Y2340039D01*
G01X2696210Y2335975D01*
G01X2700528Y2331911D01*
G01X2704592Y2329879D01*
G01X2712720Y2329879D01*
G01X2717038Y2331911D01*
G01X2721102Y2335975D01*
G01X2723134Y2340039D01*
G01X2748280Y2364931D02*
G01X2752344Y2366963D01*
G01X2758694Y2373059D01*
G01X2758694Y2329879D01*
G01X2783840Y2364931D02*
G01X2787904Y2366963D01*
G01X2794254Y2373059D01*
G01X2794254Y2329879D01*
G01X2374834Y2306638D02*
G01X2372802Y2310702D01*
G01X2368738Y2314766D01*
G01X2364420Y2316798D01*
G01X2356292Y2316798D01*
G01X2352228Y2314766D01*
G01X2347910Y2310702D01*
G01X2345878Y2306638D01*
G01X2343846Y2300288D01*
G01X2343846Y2290128D01*
G01X2345878Y2283778D01*
G01X2347910Y2279714D01*
G01X2352228Y2275650D01*
G01X2356292Y2273618D01*
G01X2364420Y2273618D01*
G01X2368738Y2275650D01*
G01X2372802Y2279714D01*
G01X2374834Y2283778D01*
G01X2399980Y2308670D02*
G01X2404044Y2310702D01*
G01X2410394Y2316798D01*
G01X2410394Y2273618D01*
G01X2437572Y2306638D02*
G01X2437572Y2308670D01*
G01X2439604Y2312734D01*
G01X2441636Y2314766D01*
G01X2445954Y2316798D01*
G01X2454082Y2316798D01*
G01X2458146Y2314766D01*
G01X2460432Y2312734D01*
G01X2462464Y2308670D01*
G01X2462464Y2304606D01*
G01X2460432Y2300288D01*
G01X2456114Y2294192D01*
G01X2435540Y2273618D01*
G01X2464496Y2273618D01*
G01X2691511Y3042197D02*
G01X2689479Y3046261D01*
G01X2685415Y3050325D01*
G01X2681097Y3052357D01*
G01X2672969Y3052357D01*
G01X2668905Y3050325D01*
G01X2664587Y3046261D01*
G01X2662555Y3042197D01*
G01X2660523Y3035847D01*
G01X2660523Y3025687D01*
G01X2662555Y3019337D01*
G01X2664587Y3015273D01*
G01X2668905Y3011209D01*
G01X2672969Y3009177D01*
G01X2681097Y3009177D01*
G01X2685415Y3011209D01*
G01X2689479Y3015273D01*
G01X2691511Y3019337D01*
G01X2716657Y3044229D02*
G01X2720721Y3046261D01*
G01X2727071Y3052357D01*
G01X2727071Y3009177D01*
G01X2756281Y3052357D02*
G01X2779141Y3052357D01*
G01X2766695Y3035847D01*
G01X2772791Y3035847D01*
G01X2777109Y3033815D01*
G01X2779141Y3031783D01*
G01X2781173Y3025687D01*
G01X2781173Y3021623D01*
G01X2779141Y3015273D01*
G01X2774823Y3011209D01*
G01X2768727Y3009177D01*
G01X2762631Y3009177D01*
G01X2756281Y3011209D01*
G01X2754249Y3013241D01*
G01X2752217Y3017305D01*
G01X2641727Y3499399D02*
G01X2639695Y3503463D01*
G01X2635631Y3507527D01*
G01X2631313Y3509559D01*
G01X2623185Y3509559D01*
G01X2619121Y3507527D01*
G01X2614803Y3503463D01*
G01X2612771Y3499399D01*
G01X2610739Y3493049D01*
G01X2610739Y3482889D01*
G01X2612771Y3476539D01*
G01X2614803Y3472475D01*
G01X2619121Y3468411D01*
G01X2623185Y3466379D01*
G01X2631313Y3466379D01*
G01X2635631Y3468411D01*
G01X2639695Y3472475D01*
G01X2641727Y3476539D01*
G01X2666873Y3501431D02*
G01X2670937Y3503463D01*
G01X2677287Y3509559D01*
G01X2677287Y3466379D01*
G01X2723007Y3509559D02*
G01X2702433Y3480857D01*
G01X2733421Y3480857D01*
G01X2723007Y3509559D02*
G01X2723007Y3466379D01*
G01X396494Y2259838D02*
G01X396494Y2226818D01*
G01X394462Y2220722D01*
G01X392430Y2218690D01*
G01X388366Y2216658D01*
G01X384302Y2216658D01*
G01X379984Y2218690D01*
G01X377952Y2220722D01*
G01X375920Y2226818D01*
G01X375920Y2231136D01*
G01X421640Y2251710D02*
G01X425704Y2253742D01*
G01X432054Y2259838D01*
G01X432054Y2216658D01*
G01X491574Y1605661D02*
G01X491574Y1572641D01*
G01X489542Y1566545D01*
G01X487510Y1564513D01*
G01X483446Y1562481D01*
G01X479382Y1562481D01*
G01X475064Y1564513D01*
G01X473032Y1566545D01*
G01X471000Y1572641D01*
G01X471000Y1576959D01*
G01X518752Y1595501D02*
G01X518752Y1597533D01*
G01X520784Y1601597D01*
G01X522816Y1603629D01*
G01X527134Y1605661D01*
G01X535262Y1605661D01*
G01X539326Y1603629D01*
G01X541612Y1601597D01*
G01X543644Y1597533D01*
G01X543644Y1593469D01*
G01X541612Y1589151D01*
G01X537294Y1583055D01*
G01X516720Y1562481D01*
G01X545676Y1562481D01*
G01X491574Y970661D02*
G01X491574Y937641D01*
G01X489542Y931545D01*
G01X487510Y929513D01*
G01X483446Y927481D01*
G01X479382Y927481D01*
G01X475064Y929513D01*
G01X473032Y931545D01*
G01X471000Y937641D01*
G01X471000Y941959D01*
G01X520784Y970661D02*
G01X543644Y970661D01*
G01X531198Y954151D01*
G01X537294Y954151D01*
G01X541612Y952119D01*
G01X543644Y950087D01*
G01X545676Y943991D01*
G01X545676Y939927D01*
G01X543644Y933577D01*
G01X539326Y929513D01*
G01X533230Y927481D01*
G01X527134Y927481D01*
G01X520784Y929513D01*
G01X518752Y931545D01*
G01X516720Y935609D01*
G01X491574Y334137D02*
G01X491574Y301117D01*
G01X489542Y295021D01*
G01X487510Y292989D01*
G01X483446Y290957D01*
G01X479382Y290957D01*
G01X475064Y292989D01*
G01X473032Y295021D01*
G01X471000Y301117D01*
G01X471000Y305435D01*
G01X537294Y334137D02*
G01X516720Y305435D01*
G01X547708Y305435D01*
G01X537294Y334137D02*
G01X537294Y290957D01*
G01X2998978Y2259838D02*
G01X2998978Y2226818D01*
G01X2996946Y2220722D01*
G01X2994914Y2218690D01*
G01X2990850Y2216658D01*
G01X2986786Y2216658D01*
G01X2982468Y2218690D01*
G01X2980436Y2220722D01*
G01X2978404Y2226818D01*
G01X2978404Y2231136D01*
G01X3049016Y2259838D02*
G01X3028188Y2259838D01*
G01X3026156Y2241296D01*
G01X3028188Y2243328D01*
G01X3034538Y2245614D01*
G01X3040634Y2245614D01*
G01X3046730Y2243328D01*
G01X3051048Y2239264D01*
G01X3053080Y2233168D01*
G01X3053080Y2229104D01*
G01X3051048Y2222754D01*
G01X3046730Y2218690D01*
G01X3040634Y2216658D01*
G01X3034538Y2216658D01*
G01X3028188Y2218690D01*
G01X3026156Y2220722D01*
G01X3024124Y2224786D01*
G01X3001010Y1624838D02*
G01X3001010Y1591818D01*
G01X2998978Y1585722D01*
G01X2996946Y1583690D01*
G01X2992882Y1581658D01*
G01X2988818Y1581658D01*
G01X2984500Y1583690D01*
G01X2982468Y1585722D01*
G01X2980436Y1591818D01*
G01X2980436Y1596136D01*
G01X3051048Y1618742D02*
G01X3048762Y1622806D01*
G01X3042666Y1624838D01*
G01X3038602Y1624838D01*
G01X3032252Y1622806D01*
G01X3028188Y1616710D01*
G01X3026156Y1606296D01*
G01X3026156Y1596136D01*
G01X3028188Y1587754D01*
G01X3032252Y1583690D01*
G01X3038602Y1581658D01*
G01X3040634Y1581658D01*
G01X3046730Y1583690D01*
G01X3051048Y1587754D01*
G01X3053080Y1594104D01*
G01X3053080Y1596136D01*
G01X3051048Y1602232D01*
G01X3046730Y1606296D01*
G01X3040634Y1608328D01*
G01X3038602Y1608328D01*
G01X3032252Y1606296D01*
G01X3028188Y1602232D01*
G01X3026156Y1596136D01*
G01X2998978Y989838D02*
G01X2998978Y956818D01*
G01X2996946Y950722D01*
G01X2994914Y948690D01*
G01X2990850Y946658D01*
G01X2986786Y946658D01*
G01X2982468Y948690D01*
G01X2980436Y950722D01*
G01X2978404Y956818D01*
G01X2978404Y961136D01*
G01X3053080Y989838D02*
G01X3032506Y946658D01*
G01X3024124Y989838D02*
G01X3053080Y989838D01*
G01X2998978Y354838D02*
G01X2998978Y321818D01*
G01X2996946Y315722D01*
G01X2994914Y313690D01*
G01X2990850Y311658D01*
G01X2986786Y311658D01*
G01X2982468Y313690D01*
G01X2980436Y315722D01*
G01X2978404Y321818D01*
G01X2978404Y326136D01*
G01X3034538Y354838D02*
G01X3028188Y352806D01*
G01X3026156Y348742D01*
G01X3026156Y344678D01*
G01X3028188Y340614D01*
G01X3032506Y338328D01*
G01X3040634Y336296D01*
G01X3046730Y334264D01*
G01X3051048Y330200D01*
G01X3053080Y326136D01*
G01X3053080Y319786D01*
G01X3051048Y315722D01*
G01X3049016Y313690D01*
G01X3042666Y311658D01*
G01X3034538Y311658D01*
G01X3028188Y313690D01*
G01X3026156Y315722D01*
G01X3024124Y319786D01*
G01X3024124Y326136D01*
G01X3026156Y330200D01*
G01X3030220Y334264D01*
G01X3036570Y336296D01*
G01X3044698Y338328D01*
G01X3049016Y340614D01*
G01X3051048Y344678D01*
G01X3051048Y348742D01*
G01X3049016Y352806D01*
G01X3042666Y354838D01*
G01X3034538Y354838D01*
G01X3265424Y3767158D02*
G01X3265424Y3734138D01*
G01X3263392Y3728042D01*
G01X3261360Y3726010D01*
G01X3257296Y3723978D01*
G01X3253232Y3723978D01*
G01X3248914Y3726010D01*
G01X3246882Y3728042D01*
G01X3244850Y3734138D01*
G01X3244850Y3738456D01*
G01X3317494Y3752934D02*
G01X3315462Y3746584D01*
G01X3311144Y3742520D01*
G01X3305048Y3740488D01*
G01X3303016Y3740488D01*
G01X3296666Y3742520D01*
G01X3292602Y3746584D01*
G01X3290570Y3752934D01*
G01X3290570Y3754966D01*
G01X3292602Y3761062D01*
G01X3296666Y3765126D01*
G01X3303016Y3767158D01*
G01X3305048Y3767158D01*
G01X3311144Y3765126D01*
G01X3315462Y3761062D01*
G01X3317494Y3752934D01*
G01X3317494Y3742520D01*
G01X3315462Y3732106D01*
G01X3311144Y3726010D01*
G01X3305048Y3723978D01*
G01X3300984Y3723978D01*
G01X3294634Y3726010D01*
G01X3292602Y3730074D01*
G01X2379421Y4129533D02*
G01X2375357Y4133597D01*
G01X2369007Y4135629D01*
G01X2360879Y4135629D01*
G01X2354529Y4133597D01*
G01X2350465Y4129533D01*
G01X2350465Y4125469D01*
G01X2352497Y4121405D01*
G01X2354529Y4119119D01*
G01X2358847Y4117087D01*
G01X2371039Y4113023D01*
G01X2375357Y4110991D01*
G01X2377389Y4108959D01*
G01X2379421Y4104895D01*
G01X2379421Y4098545D01*
G01X2375357Y4094481D01*
G01X2369007Y4092449D01*
G01X2360879Y4092449D01*
G01X2354529Y4094481D01*
G01X2350465Y4098545D01*
G01X2404567Y4135629D02*
G01X2414981Y4092449D01*
G01X2425141Y4135629D02*
G01X2414981Y4092449D01*
G01X2425141Y4135629D02*
G01X2435555Y4092449D01*
G01X2445969Y4135629D02*
G01X2435555Y4092449D01*
G01X2471115Y4127501D02*
G01X2475179Y4129533D01*
G01X2481529Y4135629D01*
G01X2481529Y4092449D01*
G01X2358898Y1968678D02*
G01X2358898Y1925498D01*
G01X2344420Y1968678D02*
G01X2373376Y1968678D01*
G01X2398522Y1968678D02*
G01X2398522Y1925498D01*
G01X2398522Y1968678D02*
G01X2417064Y1968678D01*
G01X2423414Y1966646D01*
G01X2425446Y1964614D01*
G01X2427478Y1960550D01*
G01X2427478Y1954454D01*
G01X2425446Y1950136D01*
G01X2423414Y1948104D01*
G01X2417064Y1946072D01*
G01X2398522Y1946072D01*
G01X2454656Y1958518D02*
G01X2454656Y1960550D01*
G01X2456688Y1964614D01*
G01X2458720Y1966646D01*
G01X2463038Y1968678D01*
G01X2471166Y1968678D01*
G01X2475230Y1966646D01*
G01X2477516Y1964614D01*
G01X2479548Y1960550D01*
G01X2479548Y1956486D01*
G01X2477516Y1952168D01*
G01X2473198Y1946072D01*
G01X2452624Y1925498D01*
G01X2481580Y1925498D01*
G01X2739898Y2070278D02*
G01X2739898Y2027098D01*
G01X2725420Y2070278D02*
G01X2754376Y2070278D01*
G01X2779522Y2070278D02*
G01X2779522Y2027098D01*
G01X2779522Y2070278D02*
G01X2798064Y2070278D01*
G01X2804414Y2068246D01*
G01X2806446Y2066214D01*
G01X2808478Y2062150D01*
G01X2808478Y2056054D01*
G01X2806446Y2051736D01*
G01X2804414Y2049704D01*
G01X2798064Y2047672D01*
G01X2779522Y2047672D01*
G01X2837688Y2070278D02*
G01X2860548Y2070278D01*
G01X2848102Y2053768D01*
G01X2854198Y2053768D01*
G01X2858516Y2051736D01*
G01X2860548Y2049704D01*
G01X2862580Y2043608D01*
G01X2862580Y2039544D01*
G01X2860548Y2033194D01*
G01X2856230Y2029130D01*
G01X2850134Y2027098D01*
G01X2844038Y2027098D01*
G01X2837688Y2029130D01*
G01X2835656Y2031162D01*
G01X2833624Y2035226D01*
G01X376098Y4291838D02*
G01X376098Y4248658D01*
G01X361620Y4291838D02*
G01X390576Y4291838D01*
G01X415722Y4291838D02*
G01X415722Y4248658D01*
G01X415722Y4291838D02*
G01X434264Y4291838D01*
G01X440614Y4289806D01*
G01X442646Y4287774D01*
G01X444678Y4283710D01*
G01X444678Y4277614D01*
G01X442646Y4273296D01*
G01X440614Y4271264D01*
G01X434264Y4269232D01*
G01X415722Y4269232D01*
G01X490398Y4291838D02*
G01X469824Y4263136D01*
G01X500812Y4263136D01*
G01X490398Y4291838D02*
G01X490398Y4248658D01*
G01X2480132Y3716528D02*
G01X2480132Y3673348D01*
G01X2465654Y3716528D02*
G01X2494610Y3716528D01*
G01X2519756Y3716528D02*
G01X2519756Y3673348D01*
G01X2519756Y3716528D02*
G01X2538298Y3716528D01*
G01X2544648Y3714496D01*
G01X2546680Y3712464D01*
G01X2548712Y3708400D01*
G01X2548712Y3702304D01*
G01X2546680Y3697986D01*
G01X2544648Y3695954D01*
G01X2538298Y3693922D01*
G01X2519756Y3693922D01*
G01X2598750Y3716528D02*
G01X2577922Y3716528D01*
G01X2575890Y3697986D01*
G01X2577922Y3700018D01*
G01X2584272Y3702304D01*
G01X2590368Y3702304D01*
G01X2596464Y3700018D01*
G01X2600782Y3695954D01*
G01X2602814Y3689858D01*
G01X2602814Y3685794D01*
G01X2600782Y3679444D01*
G01X2596464Y3675380D01*
G01X2590368Y3673348D01*
G01X2584272Y3673348D01*
G01X2577922Y3675380D01*
G01X2575890Y3677412D01*
G01X2573858Y3681476D01*
G01X2337638Y3235588D02*
G01X2337638Y3204854D01*
G01X2339670Y3198504D01*
G01X2343734Y3194440D01*
G01X2350084Y3192408D01*
G01X2354148Y3192408D01*
G01X2360244Y3194440D01*
G01X2364562Y3198504D01*
G01X2366594Y3204854D01*
G01X2366594Y3235588D01*
G01X2391740Y3227460D02*
G01X2395804Y3229492D01*
G01X2402154Y3235588D01*
G01X2402154Y3192408D01*
G04 Text End*

G04 PolygonModel Start*
G01X2924320Y2274761D02*
G01X2783319Y2274761D01*
G01X2783319Y2094040D02*
G01X2924320Y2094040D01*
G01X2939560Y2109280D02*
G01X2939560Y2259521D01*
G01X2562080Y2274761D02*
G01X2703081Y2274761D01*
G01X2703081Y2094040D02*
G01X2562080Y2094040D01*
G01X2546840Y2109280D02*
G01X2546840Y2259521D01*
G01X2924320Y2094040D02*
G03X2939560Y2109280I0J15240D01*
G01X2939560Y2259521D02*
G03X2924320Y2274761I-15240J0D01*
G01X2562080Y2094040D02*
G02X2546840Y2109280I0J15240D01*
G01X2546840Y2259521D02*
G02X2562080Y2274761I15240J0D01*
G01X2924320Y2579561D02*
G01X2783319Y2579561D01*
G01X2783319Y2398840D02*
G01X2924320Y2398840D01*
G01X2939560Y2414080D02*
G01X2939560Y2564321D01*
G01X2562080Y2579561D02*
G01X2703081Y2579561D01*
G01X2703081Y2398840D02*
G01X2562080Y2398840D01*
G01X2546840Y2414080D02*
G01X2546840Y2564321D01*
G01X2924320Y2398840D02*
G03X2939560Y2414080I0J15240D01*
G01X2939560Y2564321D02*
G03X2924320Y2579561I-15240J0D01*
G01X2562080Y2398840D02*
G02X2546840Y2414080I0J15240D01*
G01X2546840Y2564321D02*
G02X2562080Y2579561I15240J0D01*
G01X2984320Y2954061D02*
G01X2835821Y2954061D01*
G01X2835821Y2735539D02*
G01X2984320Y2735539D01*
G01X2999560Y2750779D02*
G01X2999560Y2938821D01*
G01X2502080Y2954061D02*
G01X2650579Y2954061D01*
G01X2650579Y2735539D02*
G01X2502080Y2735539D01*
G01X2486840Y2750779D02*
G01X2486840Y2938821D01*
G01X2984320Y2735539D02*
G03X2999560Y2750779I0J15240D01*
G01X2999560Y2938821D02*
G03X2984320Y2954061I-15240J0D01*
G01X2502080Y2735539D02*
G02X2486840Y2750779I0J15240D01*
G01X2486840Y2938821D02*
G02X2502080Y2954061I15240J0D01*
G01X2913200Y3411261D02*
G01X2764701Y3411261D01*
G01X2764701Y3192739D02*
G01X2913200Y3192739D01*
G01X2928440Y3207979D02*
G01X2928440Y3396021D01*
G01X2430960Y3411261D02*
G01X2579459Y3411261D01*
G01X2579459Y3192739D02*
G01X2430960Y3192739D01*
G01X2415720Y3207979D02*
G01X2415720Y3396021D01*
G01X2913200Y3192739D02*
G03X2928440Y3207979I0J15240D01*
G01X2928440Y3396021D02*
G03X2913200Y3411261I-15240J0D01*
G01X2430960Y3192739D02*
G02X2415720Y3207979I0J15240D01*
G01X2415720Y3396021D02*
G02X2430960Y3411261I15240J0D01*
G54D11*
G01X76200Y1981200D02*
G01X76200Y2489200D01*
G01X330200Y2489200D01*
G01X330200Y1981200D01*
G01X76200Y1981200D01*
G01X76200Y1346200D02*
G01X76200Y1854200D01*
G01X330200Y1854200D01*
G01X330200Y1346200D01*
G01X76200Y1346200D01*
G01X76200Y711200D02*
G01X76200Y1219200D01*
G01X330200Y1219200D01*
G01X330200Y711200D01*
G01X76200Y711200D01*
G01X76200Y76200D02*
G01X76200Y584200D01*
G01X330200Y584200D01*
G01X330200Y76200D01*
G01X76200Y76200D01*
G01X3098800Y1981200D02*
G01X3098800Y2489200D01*
G01X3352800Y2489200D01*
G01X3352800Y1981200D01*
G01X3098800Y1981200D01*
G01X3098800Y1346200D02*
G01X3098800Y1854200D01*
G01X3352800Y1854200D01*
G01X3352800Y1346200D01*
G01X3098800Y1346200D01*
G01X3098800Y711200D02*
G01X3098800Y1219200D01*
G01X3352800Y1219200D01*
G01X3352800Y711200D01*
G01X3098800Y711200D01*
G01X3098800Y76200D02*
G01X3098800Y584200D01*
G01X3352800Y584200D01*
G01X3352800Y76200D01*
G01X3098800Y76200D01*
G01X3053080Y3175000D02*
G01X3053080Y3683000D01*
G01X3307080Y3683000D01*
G01X3307080Y3175000D01*
G01X3053080Y3175000D01*
G01X2489200Y3952500D02*
G01X3352800Y3952500D01*
G01X2489200Y4302500D02*
G01X3352800Y4302500D01*
G01X2489200Y4302500D02*
G01X2489200Y3952500D01*
G01X3352800Y4302500D02*
G01X3352800Y3952500D01*
G54D10*
G01X497002Y4377200D02*
G01X2296998Y4377200D01*
G01X2296998Y4377200D02*
G01X2296998Y2125200D01*
G01X2296998Y2125200D02*
G01X1803400Y2125200D01*
G01X1803400Y2125200D02*
G01X1803400Y2044700D01*
G01X1803400Y2044700D02*
G01X990600Y2044700D01*
G01X990600Y2044700D02*
G01X990600Y2125200D01*
G01X990600Y2125200D02*
G01X497002Y2125200D01*
G01X497002Y2125200D02*
G01X497002Y4377200D01*

M02*

