G04 Layer: BottomPasteMaskLayer*
G04 EasyEDA Pro v3.2.149.88089769, 2026-09-20 21:47:13*
G04 Gerber Generator version 0.3*
G04 Scale: 100 percent, Rotated: No, Reflected: No*
G04 Dimensions in millimeters*
G04 Leading zeros omitted, absolute positions, 4 integers and 5 decimals*
G04 Generated by one-click*
G04 Object Configs: Pad,Via,Track,Text,Image,Dimension,BoardOutline,BoardCutout,CopperFilled,SolidRegion,FPCStiffener,Line,PlaneZone,ComponentProperty,ComponentSilkscreen,TearDrop*
G04 Layer Configs: 1,2,3,4,5,6,7,8,9,10,11,13,14,56*
G04 Copper Areas: 0*
%FSLAX45Y45*%
%MOMM*%
%ADD10C,2.0*%
%ADD11O,0.60201X1.97099*%
%ADD12C,0.7503*%
G75*


G04 PolygonModel Start*
G36*
G01X1256800Y1798003D02*
G01X1251798Y1803004D01*
G01X1251798Y1918005D01*
G01X1256800Y1923004D01*
G01X1298796Y1922506D01*
G01X1298796Y1878505D01*
G01X1343795Y1878505D01*
G01X1343795Y1923506D01*
G01X1384798Y1923004D01*
G01X1389799Y1918005D01*
G01X1389799Y1803004D01*
G01X1384798Y1798003D01*
G01X1256800Y1798003D01*
G37*
G36*
G01X1384800Y2138998D02*
G01X1389802Y2133996D01*
G01X1389802Y2018995D01*
G01X1384800Y2013996D01*
G01X1342804Y2014494D01*
G01X1342804Y2058495D01*
G01X1297805Y2058495D01*
G01X1297805Y2013494D01*
G01X1256802Y2013996D01*
G01X1251801Y2018995D01*
G01X1251801Y2133996D01*
G01X1256802Y2138998D01*
G01X1384800Y2138998D01*
G37*
G36*
G01X1256800Y1251903D02*
G01X1251798Y1256904D01*
G01X1251798Y1371905D01*
G01X1256800Y1376904D01*
G01X1298796Y1376406D01*
G01X1298796Y1332405D01*
G01X1343795Y1332405D01*
G01X1343795Y1377406D01*
G01X1384798Y1376904D01*
G01X1389799Y1371905D01*
G01X1389799Y1256904D01*
G01X1384798Y1251903D01*
G01X1256800Y1251903D01*
G37*
G36*
G01X1384800Y1592898D02*
G01X1389802Y1587896D01*
G01X1389802Y1472895D01*
G01X1384800Y1467896D01*
G01X1342804Y1468394D01*
G01X1342804Y1512395D01*
G01X1297805Y1512395D01*
G01X1297805Y1467394D01*
G01X1256802Y1467896D01*
G01X1251801Y1472895D01*
G01X1251801Y1587896D01*
G01X1256802Y1592898D01*
G01X1384800Y1592898D01*
G37*
G36*
G01X1256800Y705803D02*
G01X1251798Y710804D01*
G01X1251798Y825805D01*
G01X1256800Y830804D01*
G01X1298796Y830306D01*
G01X1298796Y786305D01*
G01X1343795Y786305D01*
G01X1343795Y831306D01*
G01X1384798Y830804D01*
G01X1389799Y825805D01*
G01X1389799Y710804D01*
G01X1384798Y705803D01*
G01X1256800Y705803D01*
G37*
G36*
G01X1384800Y1046798D02*
G01X1389802Y1041796D01*
G01X1389802Y926795D01*
G01X1384800Y921796D01*
G01X1342804Y922294D01*
G01X1342804Y966295D01*
G01X1297805Y966295D01*
G01X1297805Y921294D01*
G01X1256802Y921796D01*
G01X1251801Y926795D01*
G01X1251801Y1041796D01*
G01X1256802Y1046798D01*
G01X1384800Y1046798D01*
G37*
G36*
G01X1256800Y159703D02*
G01X1251798Y164704D01*
G01X1251798Y279705D01*
G01X1256800Y284704D01*
G01X1298796Y284206D01*
G01X1298796Y240205D01*
G01X1343795Y240205D01*
G01X1343795Y285206D01*
G01X1384798Y284704D01*
G01X1389799Y279705D01*
G01X1389799Y164704D01*
G01X1384798Y159703D01*
G01X1256800Y159703D01*
G37*
G36*
G01X1384800Y500698D02*
G01X1389802Y495696D01*
G01X1389802Y380695D01*
G01X1384800Y375696D01*
G01X1342804Y376194D01*
G01X1342804Y420195D01*
G01X1297805Y420195D01*
G01X1297805Y375194D01*
G01X1256802Y375696D01*
G01X1251801Y380695D01*
G01X1251801Y495696D01*
G01X1256802Y500698D01*
G01X1384800Y500698D01*
G37*
G36*
G01X1993400Y1798003D02*
G01X1988398Y1803004D01*
G01X1988398Y1918005D01*
G01X1993400Y1923004D01*
G01X2035396Y1922506D01*
G01X2035396Y1878505D01*
G01X2080395Y1878505D01*
G01X2080395Y1923506D01*
G01X2121398Y1923004D01*
G01X2126399Y1918005D01*
G01X2126399Y1803004D01*
G01X2121398Y1798003D01*
G01X1993400Y1798003D01*
G37*
G36*
G01X2121400Y2138998D02*
G01X2126402Y2133996D01*
G01X2126402Y2018995D01*
G01X2121400Y2013996D01*
G01X2079404Y2014494D01*
G01X2079404Y2058495D01*
G01X2034405Y2058495D01*
G01X2034405Y2013494D01*
G01X1993402Y2013996D01*
G01X1988401Y2018995D01*
G01X1988401Y2133996D01*
G01X1993402Y2138998D01*
G01X2121400Y2138998D01*
G37*
G36*
G01X1993400Y1251903D02*
G01X1988398Y1256904D01*
G01X1988398Y1371905D01*
G01X1993400Y1376904D01*
G01X2035396Y1376406D01*
G01X2035396Y1332405D01*
G01X2080395Y1332405D01*
G01X2080395Y1377406D01*
G01X2121398Y1376904D01*
G01X2126399Y1371905D01*
G01X2126399Y1256904D01*
G01X2121398Y1251903D01*
G01X1993400Y1251903D01*
G37*
G36*
G01X2121400Y1592898D02*
G01X2126402Y1587896D01*
G01X2126402Y1472895D01*
G01X2121400Y1467896D01*
G01X2079404Y1468394D01*
G01X2079404Y1512395D01*
G01X2034405Y1512395D01*
G01X2034405Y1467394D01*
G01X1993402Y1467896D01*
G01X1988401Y1472895D01*
G01X1988401Y1587896D01*
G01X1993402Y1592898D01*
G01X2121400Y1592898D01*
G37*
G36*
G01X1993400Y705803D02*
G01X1988398Y710804D01*
G01X1988398Y825805D01*
G01X1993400Y830804D01*
G01X2035396Y830306D01*
G01X2035396Y786305D01*
G01X2080395Y786305D01*
G01X2080395Y831306D01*
G01X2121398Y830804D01*
G01X2126399Y825805D01*
G01X2126399Y710804D01*
G01X2121398Y705803D01*
G01X1993400Y705803D01*
G37*
G36*
G01X2121400Y1046798D02*
G01X2126402Y1041796D01*
G01X2126402Y926795D01*
G01X2121400Y921796D01*
G01X2079404Y922294D01*
G01X2079404Y966295D01*
G01X2034405Y966295D01*
G01X2034405Y921294D01*
G01X1993402Y921796D01*
G01X1988401Y926795D01*
G01X1988401Y1041796D01*
G01X1993402Y1046798D01*
G01X2121400Y1046798D01*
G37*
G36*
G01X1993400Y159703D02*
G01X1988398Y164704D01*
G01X1988398Y279705D01*
G01X1993400Y284704D01*
G01X2035396Y284206D01*
G01X2035396Y240205D01*
G01X2080395Y240205D01*
G01X2080395Y285206D01*
G01X2121398Y284704D01*
G01X2126399Y279705D01*
G01X2126399Y164704D01*
G01X2121398Y159703D01*
G01X1993400Y159703D01*
G37*
G36*
G01X2121400Y500698D02*
G01X2126402Y495696D01*
G01X2126402Y380695D01*
G01X2121400Y375696D01*
G01X2079404Y376194D01*
G01X2079404Y420195D01*
G01X2034405Y420195D01*
G01X2034405Y375194D01*
G01X1993402Y375696D01*
G01X1988401Y380695D01*
G01X1988401Y495696D01*
G01X1993402Y500698D01*
G01X2121400Y500698D01*
G37*
G36*
G01X462598Y4203200D02*
G01X457596Y4198198D01*
G01X342595Y4198198D01*
G01X337596Y4203200D01*
G01X338094Y4245196D01*
G01X382095Y4245196D01*
G01X382095Y4290195D01*
G01X337094Y4290195D01*
G01X337596Y4331198D01*
G01X342595Y4336199D01*
G01X457596Y4336199D01*
G01X462598Y4331198D01*
G01X462598Y4203200D01*
G37*
G36*
G01X121603Y4331200D02*
G01X126604Y4336202D01*
G01X241605Y4336202D01*
G01X246604Y4331200D01*
G01X246106Y4289204D01*
G01X202105Y4289204D01*
G01X202105Y4244205D01*
G01X247106Y4244205D01*
G01X246604Y4203202D01*
G01X241605Y4198201D01*
G01X126604Y4198201D01*
G01X121603Y4203202D01*
G01X121603Y4331200D01*
G37*
G36*
G01X761683Y2832600D02*
G01X766684Y2837602D01*
G01X881685Y2837602D01*
G01X886684Y2832600D01*
G01X886186Y2790604D01*
G01X842185Y2790604D01*
G01X842185Y2745605D01*
G01X887186Y2745605D01*
G01X886684Y2704602D01*
G01X881685Y2699601D01*
G01X766684Y2699601D01*
G01X761683Y2704602D01*
G01X761683Y2832600D01*
G37*
G36*
G01X1102678Y2704600D02*
G01X1097676Y2699598D01*
G01X982675Y2699598D01*
G01X977676Y2704600D01*
G01X978174Y2746596D01*
G01X1022175Y2746596D01*
G01X1022175Y2791595D01*
G01X977174Y2791595D01*
G01X977676Y2832598D01*
G01X982675Y2837599D01*
G01X1097676Y2837599D01*
G01X1102678Y2832598D01*
G01X1102678Y2704600D01*
G37*
G36*
G01X596400Y1798498D02*
G01X591398Y1803499D01*
G01X591398Y1918500D01*
G01X596400Y1923499D01*
G01X638396Y1923001D01*
G01X638396Y1879001D01*
G01X683395Y1879001D01*
G01X683395Y1924002D01*
G01X724398Y1923499D01*
G01X729399Y1918500D01*
G01X729399Y1803499D01*
G01X724398Y1798498D01*
G01X596400Y1798498D01*
G37*
G36*
G01X596400Y2013499D02*
G01X591398Y2018500D01*
G01X591398Y2133498D01*
G01X596400Y2138500D01*
G01X724398Y2138500D01*
G01X729399Y2133498D01*
G01X729399Y2018500D01*
G01X724398Y2013499D01*
G01X683395Y2014002D01*
G01X683395Y2057999D01*
G01X638396Y2057999D01*
G01X638396Y2013501D01*
G01X596400Y2013499D01*
G37*
G36*
G01X596400Y1252398D02*
G01X591398Y1257399D01*
G01X591398Y1372400D01*
G01X596400Y1377399D01*
G01X638396Y1376901D01*
G01X638396Y1332901D01*
G01X683395Y1332901D01*
G01X683395Y1377902D01*
G01X724398Y1377399D01*
G01X729399Y1372400D01*
G01X729399Y1257399D01*
G01X724398Y1252398D01*
G01X596400Y1252398D01*
G37*
G36*
G01X596400Y1467399D02*
G01X591398Y1472400D01*
G01X591398Y1587398D01*
G01X596400Y1592400D01*
G01X724398Y1592400D01*
G01X729399Y1587398D01*
G01X729399Y1472400D01*
G01X724398Y1467399D01*
G01X683395Y1467902D01*
G01X683395Y1511899D01*
G01X638396Y1511899D01*
G01X638396Y1467401D01*
G01X596400Y1467399D01*
G37*
G36*
G01X596400Y706298D02*
G01X591398Y711299D01*
G01X591398Y826300D01*
G01X596400Y831299D01*
G01X638396Y830801D01*
G01X638396Y786801D01*
G01X683395Y786801D01*
G01X683395Y831802D01*
G01X724398Y831299D01*
G01X729399Y826300D01*
G01X729399Y711299D01*
G01X724398Y706298D01*
G01X596400Y706298D01*
G37*
G36*
G01X596400Y921299D02*
G01X591398Y926300D01*
G01X591398Y1041298D01*
G01X596400Y1046300D01*
G01X724398Y1046300D01*
G01X729399Y1041298D01*
G01X729399Y926300D01*
G01X724398Y921299D01*
G01X683395Y921802D01*
G01X683395Y965799D01*
G01X638396Y965799D01*
G01X638396Y921301D01*
G01X596400Y921299D01*
G37*
G36*
G01X596400Y160198D02*
G01X591398Y165199D01*
G01X591398Y280200D01*
G01X596400Y285199D01*
G01X638396Y284701D01*
G01X638396Y240701D01*
G01X683395Y240701D01*
G01X683395Y285702D01*
G01X724398Y285199D01*
G01X729399Y280200D01*
G01X729399Y165199D01*
G01X724398Y160198D01*
G01X596400Y160198D01*
G37*
G36*
G01X596400Y375199D02*
G01X591398Y380200D01*
G01X591398Y495198D01*
G01X596400Y500200D01*
G01X724398Y500200D01*
G01X729399Y495198D01*
G01X729399Y380200D01*
G01X724398Y375199D01*
G01X683395Y375702D01*
G01X683395Y419699D01*
G01X638396Y419699D01*
G01X638396Y375201D01*
G01X596400Y375199D01*
G37*
G36*
G01X2653800Y1798498D02*
G01X2648798Y1803499D01*
G01X2648798Y1918500D01*
G01X2653800Y1923499D01*
G01X2695796Y1923001D01*
G01X2695796Y1879001D01*
G01X2740795Y1879001D01*
G01X2740795Y1924002D01*
G01X2781798Y1923499D01*
G01X2786799Y1918500D01*
G01X2786799Y1803499D01*
G01X2781798Y1798498D01*
G01X2653800Y1798498D01*
G37*
G36*
G01X2653800Y2013499D02*
G01X2648798Y2018500D01*
G01X2648798Y2133498D01*
G01X2653800Y2138500D01*
G01X2781798Y2138500D01*
G01X2786799Y2133498D01*
G01X2786799Y2018500D01*
G01X2781798Y2013499D01*
G01X2740795Y2014002D01*
G01X2740795Y2057999D01*
G01X2695796Y2057999D01*
G01X2695796Y2013501D01*
G01X2653800Y2013499D01*
G37*
G36*
G01X2653800Y1252398D02*
G01X2648798Y1257399D01*
G01X2648798Y1372400D01*
G01X2653800Y1377399D01*
G01X2695796Y1376901D01*
G01X2695796Y1332901D01*
G01X2740795Y1332901D01*
G01X2740795Y1377902D01*
G01X2781798Y1377399D01*
G01X2786799Y1372400D01*
G01X2786799Y1257399D01*
G01X2781798Y1252398D01*
G01X2653800Y1252398D01*
G37*
G36*
G01X2653800Y1467399D02*
G01X2648798Y1472400D01*
G01X2648798Y1587398D01*
G01X2653800Y1592400D01*
G01X2781798Y1592400D01*
G01X2786799Y1587398D01*
G01X2786799Y1472400D01*
G01X2781798Y1467399D01*
G01X2740795Y1467902D01*
G01X2740795Y1511899D01*
G01X2695796Y1511899D01*
G01X2695796Y1467401D01*
G01X2653800Y1467399D01*
G37*
G36*
G01X2653800Y706298D02*
G01X2648798Y711299D01*
G01X2648798Y826300D01*
G01X2653800Y831299D01*
G01X2695796Y830801D01*
G01X2695796Y786801D01*
G01X2740795Y786801D01*
G01X2740795Y831802D01*
G01X2781798Y831299D01*
G01X2786799Y826300D01*
G01X2786799Y711299D01*
G01X2781798Y706298D01*
G01X2653800Y706298D01*
G37*
G36*
G01X2653800Y921299D02*
G01X2648798Y926300D01*
G01X2648798Y1041298D01*
G01X2653800Y1046300D01*
G01X2781798Y1046300D01*
G01X2786799Y1041298D01*
G01X2786799Y926300D01*
G01X2781798Y921299D01*
G01X2740795Y921802D01*
G01X2740795Y965799D01*
G01X2695796Y965799D01*
G01X2695796Y921301D01*
G01X2653800Y921299D01*
G37*
G36*
G01X2653800Y160198D02*
G01X2648798Y165199D01*
G01X2648798Y280200D01*
G01X2653800Y285199D01*
G01X2695796Y284701D01*
G01X2695796Y240701D01*
G01X2740795Y240701D01*
G01X2740795Y285702D01*
G01X2781798Y285199D01*
G01X2786799Y280200D01*
G01X2786799Y165199D01*
G01X2781798Y160198D01*
G01X2653800Y160198D01*
G37*
G36*
G01X2653800Y375199D02*
G01X2648798Y380200D01*
G01X2648798Y495198D01*
G01X2653800Y500200D01*
G01X2781798Y500200D01*
G01X2786799Y495198D01*
G01X2786799Y380200D01*
G01X2781798Y375199D01*
G01X2740795Y375702D01*
G01X2740795Y419699D01*
G01X2695796Y419699D01*
G01X2695796Y375201D01*
G01X2653800Y375199D01*
G37*
G36*
G01X926600Y1798498D02*
G01X921598Y1803499D01*
G01X921598Y1918500D01*
G01X926600Y1923499D01*
G01X968596Y1923001D01*
G01X968596Y1879001D01*
G01X1013595Y1879001D01*
G01X1013595Y1924002D01*
G01X1054598Y1923499D01*
G01X1059599Y1918500D01*
G01X1059599Y1803499D01*
G01X1054598Y1798498D01*
G01X926600Y1798498D01*
G37*
G36*
G01X926600Y2013499D02*
G01X921598Y2018500D01*
G01X921598Y2133498D01*
G01X926600Y2138500D01*
G01X1054598Y2138500D01*
G01X1059599Y2133498D01*
G01X1059599Y2018500D01*
G01X1054598Y2013499D01*
G01X1013595Y2014002D01*
G01X1013595Y2057999D01*
G01X968596Y2057999D01*
G01X968596Y2013501D01*
G01X926600Y2013499D01*
G37*
G36*
G01X926600Y1252398D02*
G01X921598Y1257399D01*
G01X921598Y1372400D01*
G01X926600Y1377399D01*
G01X968596Y1376901D01*
G01X968596Y1332901D01*
G01X1013595Y1332901D01*
G01X1013595Y1377902D01*
G01X1054598Y1377399D01*
G01X1059599Y1372400D01*
G01X1059599Y1257399D01*
G01X1054598Y1252398D01*
G01X926600Y1252398D01*
G37*
G36*
G01X926600Y1467399D02*
G01X921598Y1472400D01*
G01X921598Y1587398D01*
G01X926600Y1592400D01*
G01X1054598Y1592400D01*
G01X1059599Y1587398D01*
G01X1059599Y1472400D01*
G01X1054598Y1467399D01*
G01X1013595Y1467902D01*
G01X1013595Y1511899D01*
G01X968596Y1511899D01*
G01X968596Y1467401D01*
G01X926600Y1467399D01*
G37*
G36*
G01X926600Y706298D02*
G01X921598Y711299D01*
G01X921598Y826300D01*
G01X926600Y831299D01*
G01X968596Y830801D01*
G01X968596Y786801D01*
G01X1013595Y786801D01*
G01X1013595Y831802D01*
G01X1054598Y831299D01*
G01X1059599Y826300D01*
G01X1059599Y711299D01*
G01X1054598Y706298D01*
G01X926600Y706298D01*
G37*
G36*
G01X926600Y921299D02*
G01X921598Y926300D01*
G01X921598Y1041298D01*
G01X926600Y1046300D01*
G01X1054598Y1046300D01*
G01X1059599Y1041298D01*
G01X1059599Y926300D01*
G01X1054598Y921299D01*
G01X1013595Y921802D01*
G01X1013595Y965799D01*
G01X968596Y965799D01*
G01X968596Y921301D01*
G01X926600Y921299D01*
G37*
G36*
G01X926600Y160198D02*
G01X921598Y165199D01*
G01X921598Y280200D01*
G01X926600Y285199D01*
G01X968596Y284701D01*
G01X968596Y240701D01*
G01X1013595Y240701D01*
G01X1013595Y285702D01*
G01X1054598Y285199D01*
G01X1059599Y280200D01*
G01X1059599Y165199D01*
G01X1054598Y160198D01*
G01X926600Y160198D01*
G37*
G36*
G01X926600Y375199D02*
G01X921598Y380200D01*
G01X921598Y495198D01*
G01X926600Y500200D01*
G01X1054598Y500200D01*
G01X1059599Y495198D01*
G01X1059599Y380200D01*
G01X1054598Y375199D01*
G01X1013595Y375702D01*
G01X1013595Y419699D01*
G01X968596Y419699D01*
G01X968596Y375201D01*
G01X926600Y375199D01*
G37*
G36*
G01X2323600Y1798498D02*
G01X2318598Y1803499D01*
G01X2318598Y1918500D01*
G01X2323600Y1923499D01*
G01X2365596Y1923001D01*
G01X2365596Y1879001D01*
G01X2410595Y1879001D01*
G01X2410595Y1924002D01*
G01X2451598Y1923499D01*
G01X2456599Y1918500D01*
G01X2456599Y1803499D01*
G01X2451598Y1798498D01*
G01X2323600Y1798498D01*
G37*
G36*
G01X2323600Y2013499D02*
G01X2318598Y2018500D01*
G01X2318598Y2133498D01*
G01X2323600Y2138500D01*
G01X2451598Y2138500D01*
G01X2456599Y2133498D01*
G01X2456599Y2018500D01*
G01X2451598Y2013499D01*
G01X2410595Y2014002D01*
G01X2410595Y2057999D01*
G01X2365596Y2057999D01*
G01X2365596Y2013501D01*
G01X2323600Y2013499D01*
G37*
G36*
G01X2323600Y1252398D02*
G01X2318598Y1257399D01*
G01X2318598Y1372400D01*
G01X2323600Y1377399D01*
G01X2365596Y1376901D01*
G01X2365596Y1332901D01*
G01X2410595Y1332901D01*
G01X2410595Y1377902D01*
G01X2451598Y1377399D01*
G01X2456599Y1372400D01*
G01X2456599Y1257399D01*
G01X2451598Y1252398D01*
G01X2323600Y1252398D01*
G37*
G36*
G01X2323600Y1467399D02*
G01X2318598Y1472400D01*
G01X2318598Y1587398D01*
G01X2323600Y1592400D01*
G01X2451598Y1592400D01*
G01X2456599Y1587398D01*
G01X2456599Y1472400D01*
G01X2451598Y1467399D01*
G01X2410595Y1467902D01*
G01X2410595Y1511899D01*
G01X2365596Y1511899D01*
G01X2365596Y1467401D01*
G01X2323600Y1467399D01*
G37*
G36*
G01X2323600Y706298D02*
G01X2318598Y711299D01*
G01X2318598Y826300D01*
G01X2323600Y831299D01*
G01X2365596Y830801D01*
G01X2365596Y786801D01*
G01X2410595Y786801D01*
G01X2410595Y831802D01*
G01X2451598Y831299D01*
G01X2456599Y826300D01*
G01X2456599Y711299D01*
G01X2451598Y706298D01*
G01X2323600Y706298D01*
G37*
G36*
G01X2323600Y921299D02*
G01X2318598Y926300D01*
G01X2318598Y1041298D01*
G01X2323600Y1046300D01*
G01X2451598Y1046300D01*
G01X2456599Y1041298D01*
G01X2456599Y926300D01*
G01X2451598Y921299D01*
G01X2410595Y921802D01*
G01X2410595Y965799D01*
G01X2365596Y965799D01*
G01X2365596Y921301D01*
G01X2323600Y921299D01*
G37*
G36*
G01X2323600Y160198D02*
G01X2318598Y165199D01*
G01X2318598Y280200D01*
G01X2323600Y285199D01*
G01X2365596Y284701D01*
G01X2365596Y240701D01*
G01X2410595Y240701D01*
G01X2410595Y285702D01*
G01X2451598Y285199D01*
G01X2456599Y280200D01*
G01X2456599Y165199D01*
G01X2451598Y160198D01*
G01X2323600Y160198D01*
G37*
G36*
G01X2323600Y375199D02*
G01X2318598Y380200D01*
G01X2318598Y495198D01*
G01X2323600Y500200D01*
G01X2451598Y500200D01*
G01X2456599Y495198D01*
G01X2456599Y380200D01*
G01X2451598Y375199D01*
G01X2410595Y375702D01*
G01X2410595Y419699D01*
G01X2365596Y419699D01*
G01X2365596Y375201D01*
G01X2323600Y375199D01*
G37*
G36*
G01X228100Y3639998D02*
G01X223098Y3644999D01*
G01X223098Y3760000D01*
G01X228100Y3764999D01*
G01X270096Y3764501D01*
G01X270096Y3720501D01*
G01X315095Y3720501D01*
G01X315095Y3765502D01*
G01X356098Y3764999D01*
G01X361099Y3760000D01*
G01X361099Y3644999D01*
G01X356098Y3639998D01*
G01X228100Y3639998D01*
G37*
G36*
G01X228100Y3854999D02*
G01X223098Y3860000D01*
G01X223098Y3974998D01*
G01X228100Y3980000D01*
G01X356098Y3980000D01*
G01X361099Y3974998D01*
G01X361099Y3860000D01*
G01X356098Y3854999D01*
G01X315095Y3855502D01*
G01X315095Y3899499D01*
G01X270096Y3899499D01*
G01X270096Y3855001D01*
G01X228100Y3854999D01*
G37*
G36*
G01X845998Y2438900D02*
G01X850999Y2443902D01*
G01X966000Y2443902D01*
G01X970999Y2438900D01*
G01X970501Y2396904D01*
G01X926501Y2396904D01*
G01X926501Y2351905D01*
G01X971502Y2351905D01*
G01X970999Y2310902D01*
G01X966000Y2305901D01*
G01X850999Y2305901D01*
G01X845998Y2310902D01*
G01X845998Y2438900D01*
G37*
G36*
G01X1060999Y2438900D02*
G01X1066000Y2443902D01*
G01X1180998Y2443902D01*
G01X1186000Y2438900D01*
G01X1186000Y2310902D01*
G01X1180998Y2305901D01*
G01X1066000Y2305901D01*
G01X1060999Y2310902D01*
G01X1061502Y2351905D01*
G01X1105499Y2351905D01*
G01X1105499Y2396904D01*
G01X1061001Y2396904D01*
G01X1060999Y2438900D01*
G37*
G36*
G01X1379398Y2438900D02*
G01X1384399Y2443902D01*
G01X1499400Y2443902D01*
G01X1504399Y2438900D01*
G01X1503901Y2396904D01*
G01X1459901Y2396904D01*
G01X1459901Y2351905D01*
G01X1504902Y2351905D01*
G01X1504399Y2310902D01*
G01X1499400Y2305901D01*
G01X1384399Y2305901D01*
G01X1379398Y2310902D01*
G01X1379398Y2438900D01*
G37*
G36*
G01X1594399Y2438900D02*
G01X1599400Y2443902D01*
G01X1714398Y2443902D01*
G01X1719400Y2438900D01*
G01X1719400Y2310902D01*
G01X1714398Y2305901D01*
G01X1599400Y2305901D01*
G01X1594399Y2310902D01*
G01X1594902Y2351905D01*
G01X1638899Y2351905D01*
G01X1638899Y2396904D01*
G01X1594401Y2396904D01*
G01X1594399Y2438900D01*
G37*
G36*
G01X2446198Y2680200D02*
G01X2451199Y2685202D01*
G01X2566200Y2685202D01*
G01X2571199Y2680200D01*
G01X2570701Y2638204D01*
G01X2526701Y2638204D01*
G01X2526701Y2593205D01*
G01X2571702Y2593205D01*
G01X2571199Y2552202D01*
G01X2566200Y2547201D01*
G01X2451199Y2547201D01*
G01X2446198Y2552202D01*
G01X2446198Y2680200D01*
G37*
G36*
G01X2661199Y2680200D02*
G01X2666200Y2685202D01*
G01X2781198Y2685202D01*
G01X2786200Y2680200D01*
G01X2786200Y2552202D01*
G01X2781198Y2547201D01*
G01X2666200Y2547201D01*
G01X2661199Y2552202D01*
G01X2661702Y2593205D01*
G01X2705699Y2593205D01*
G01X2705699Y2638204D01*
G01X2661201Y2638204D01*
G01X2661199Y2680200D01*
G37*

G04 Pad Start*
G54D10*
G01X3175000Y2971800D03*
G54D11*
G01X932264Y3635303D03*
G01X1059264Y3635303D03*
G01X1186264Y3635303D03*
G01X1313264Y3635303D03*
G01X1440264Y3635303D03*
G01X1567264Y3635303D03*
G01X1694264Y3635303D03*
G01X1821264Y3635303D03*
G01X932264Y3088187D03*
G01X1059264Y3088187D03*
G01X1186264Y3088187D03*
G01X1313264Y3088187D03*
G01X1440264Y3088187D03*
G01X1567264Y3088187D03*
G01X1694264Y3088187D03*
G01X1821264Y3088187D03*
G04 Pad End*

M02*

