G04 Layer: BottomSilkscreenLayer*
G04 EasyEDA Pro v3.2.149.88089769, 2026-09-20 21:47:13*
G04 Gerber Generator version 0.3*
G04 Scale: 100 percent, Rotated: No, Reflected: No*
G04 Dimensions in millimeters*
G04 Leading zeros omitted, absolute positions, 4 integers and 5 decimals*
G04 Generated by one-click*
G04 Object Configs: Pad,Via,Track,Text,Image,Dimension,BoardOutline,BoardCutout,CopperFilled,SolidRegion,FPCStiffener,Line,PlaneZone,ComponentProperty,ComponentSilkscreen,TearDrop*
G04 Layer Configs: 1,2,3,4,5,6,7,8,9,10,11,13,14,56*
G04 Copper Areas: 0*
%FSLAX45Y45*%
%MOMM*%
%ADD10C,0.1524*%
%ADD11C,0.3*%
%ADD12C,0.5023*%
G75*


G04 Text Start*
G54D10*
G01X2689098Y3057398D02*
G01X2689098Y3014218D01*
G01X2674620Y3057398D02*
G01X2703576Y3057398D01*
G01X2728722Y3057398D02*
G01X2728722Y3014218D01*
G01X2728722Y3057398D02*
G01X2747264Y3057398D01*
G01X2753614Y3055366D01*
G01X2755646Y3053334D01*
G01X2757678Y3049270D01*
G01X2757678Y3043174D01*
G01X2755646Y3038856D01*
G01X2753614Y3036824D01*
G01X2747264Y3034792D01*
G01X2728722Y3034792D01*
G01X2782824Y2999740D02*
G01X2819908Y2999740D01*
G01X2869946Y3057398D02*
G01X2849118Y3057398D01*
G01X2847086Y3038856D01*
G01X2849118Y3040888D01*
G01X2855468Y3043174D01*
G01X2861564Y3043174D01*
G01X2867660Y3040888D01*
G01X2871978Y3036824D01*
G01X2874010Y3030728D01*
G01X2874010Y3026664D01*
G01X2871978Y3020314D01*
G01X2867660Y3016250D01*
G01X2861564Y3014218D01*
G01X2855468Y3014218D01*
G01X2849118Y3016250D01*
G01X2847086Y3018282D01*
G01X2845054Y3022346D01*
G01X2899156Y3057398D02*
G01X2915666Y3014218D01*
G01X2932176Y3057398D02*
G01X2915666Y3014218D01*
G01X1482789Y1970024D02*
G01X1480757Y1974088D01*
G01X1476693Y1978152D01*
G01X1472375Y1980184D01*
G01X1464247Y1980184D01*
G01X1460183Y1978152D01*
G01X1455865Y1974088D01*
G01X1453833Y1970024D01*
G01X1451801Y1963674D01*
G01X1451801Y1953514D01*
G01X1453833Y1947164D01*
G01X1455865Y1943100D01*
G01X1460183Y1939036D01*
G01X1464247Y1937004D01*
G01X1472375Y1937004D01*
G01X1476693Y1939036D01*
G01X1480757Y1943100D01*
G01X1482789Y1947164D01*
G01X1507935Y1972056D02*
G01X1511999Y1974088D01*
G01X1518349Y1980184D01*
G01X1518349Y1937004D01*
G01X1482789Y1409954D02*
G01X1480757Y1414018D01*
G01X1476693Y1418082D01*
G01X1472375Y1420114D01*
G01X1464247Y1420114D01*
G01X1460183Y1418082D01*
G01X1455865Y1414018D01*
G01X1453833Y1409954D01*
G01X1451801Y1403604D01*
G01X1451801Y1393444D01*
G01X1453833Y1387094D01*
G01X1455865Y1383030D01*
G01X1460183Y1378966D01*
G01X1464247Y1376934D01*
G01X1472375Y1376934D01*
G01X1476693Y1378966D01*
G01X1480757Y1383030D01*
G01X1482789Y1387094D01*
G01X1509967Y1409954D02*
G01X1509967Y1411986D01*
G01X1511999Y1416050D01*
G01X1514031Y1418082D01*
G01X1518349Y1420114D01*
G01X1526477Y1420114D01*
G01X1530541Y1418082D01*
G01X1532827Y1416050D01*
G01X1534859Y1411986D01*
G01X1534859Y1407922D01*
G01X1532827Y1403604D01*
G01X1528509Y1397508D01*
G01X1507935Y1376934D01*
G01X1536891Y1376934D01*
G01X1482789Y863854D02*
G01X1480757Y867918D01*
G01X1476693Y871982D01*
G01X1472375Y874014D01*
G01X1464247Y874014D01*
G01X1460183Y871982D01*
G01X1455865Y867918D01*
G01X1453833Y863854D01*
G01X1451801Y857504D01*
G01X1451801Y847344D01*
G01X1453833Y840994D01*
G01X1455865Y836930D01*
G01X1460183Y832866D01*
G01X1464247Y830834D01*
G01X1472375Y830834D01*
G01X1476693Y832866D01*
G01X1480757Y836930D01*
G01X1482789Y840994D01*
G01X1511999Y874014D02*
G01X1534859Y874014D01*
G01X1522413Y857504D01*
G01X1528509Y857504D01*
G01X1532827Y855472D01*
G01X1534859Y853440D01*
G01X1536891Y847344D01*
G01X1536891Y843280D01*
G01X1534859Y836930D01*
G01X1530541Y832866D01*
G01X1524445Y830834D01*
G01X1518349Y830834D01*
G01X1511999Y832866D01*
G01X1509967Y834898D01*
G01X1507935Y838962D01*
G01X1482789Y316230D02*
G01X1480757Y320294D01*
G01X1476693Y324358D01*
G01X1472375Y326390D01*
G01X1464247Y326390D01*
G01X1460183Y324358D01*
G01X1455865Y320294D01*
G01X1453833Y316230D01*
G01X1451801Y309880D01*
G01X1451801Y299720D01*
G01X1453833Y293370D01*
G01X1455865Y289306D01*
G01X1460183Y285242D01*
G01X1464247Y283210D01*
G01X1472375Y283210D01*
G01X1476693Y285242D01*
G01X1480757Y289306D01*
G01X1482789Y293370D01*
G01X1528509Y326390D02*
G01X1507935Y297688D01*
G01X1538923Y297688D01*
G01X1528509Y326390D02*
G01X1528509Y283210D01*
G01X1858328Y1956054D02*
G01X1856296Y1960118D01*
G01X1852232Y1964182D01*
G01X1847914Y1966214D01*
G01X1839786Y1966214D01*
G01X1835722Y1964182D01*
G01X1831404Y1960118D01*
G01X1829372Y1956054D01*
G01X1827340Y1949704D01*
G01X1827340Y1939544D01*
G01X1829372Y1933194D01*
G01X1831404Y1929130D01*
G01X1835722Y1925066D01*
G01X1839786Y1923034D01*
G01X1847914Y1923034D01*
G01X1852232Y1925066D01*
G01X1856296Y1929130D01*
G01X1858328Y1933194D01*
G01X1908366Y1966214D02*
G01X1887538Y1966214D01*
G01X1885506Y1947672D01*
G01X1887538Y1949704D01*
G01X1893888Y1951990D01*
G01X1899984Y1951990D01*
G01X1906080Y1949704D01*
G01X1910398Y1945640D01*
G01X1912430Y1939544D01*
G01X1912430Y1935480D01*
G01X1910398Y1929130D01*
G01X1906080Y1925066D01*
G01X1899984Y1923034D01*
G01X1893888Y1923034D01*
G01X1887538Y1925066D01*
G01X1885506Y1927098D01*
G01X1883474Y1931162D01*
G01X1858328Y1411478D02*
G01X1856296Y1415542D01*
G01X1852232Y1419606D01*
G01X1847914Y1421638D01*
G01X1839786Y1421638D01*
G01X1835722Y1419606D01*
G01X1831404Y1415542D01*
G01X1829372Y1411478D01*
G01X1827340Y1405128D01*
G01X1827340Y1394968D01*
G01X1829372Y1388618D01*
G01X1831404Y1384554D01*
G01X1835722Y1380490D01*
G01X1839786Y1378458D01*
G01X1847914Y1378458D01*
G01X1852232Y1380490D01*
G01X1856296Y1384554D01*
G01X1858328Y1388618D01*
G01X1908366Y1415542D02*
G01X1906080Y1419606D01*
G01X1899984Y1421638D01*
G01X1895920Y1421638D01*
G01X1889570Y1419606D01*
G01X1885506Y1413510D01*
G01X1883474Y1403096D01*
G01X1883474Y1392936D01*
G01X1885506Y1384554D01*
G01X1889570Y1380490D01*
G01X1895920Y1378458D01*
G01X1897952Y1378458D01*
G01X1904048Y1380490D01*
G01X1908366Y1384554D01*
G01X1910398Y1390904D01*
G01X1910398Y1392936D01*
G01X1908366Y1399032D01*
G01X1904048Y1403096D01*
G01X1897952Y1405128D01*
G01X1895920Y1405128D01*
G01X1889570Y1403096D01*
G01X1885506Y1399032D01*
G01X1883474Y1392936D01*
G01X1858328Y863854D02*
G01X1856296Y867918D01*
G01X1852232Y871982D01*
G01X1847914Y874014D01*
G01X1839786Y874014D01*
G01X1835722Y871982D01*
G01X1831404Y867918D01*
G01X1829372Y863854D01*
G01X1827340Y857504D01*
G01X1827340Y847344D01*
G01X1829372Y840994D01*
G01X1831404Y836930D01*
G01X1835722Y832866D01*
G01X1839786Y830834D01*
G01X1847914Y830834D01*
G01X1852232Y832866D01*
G01X1856296Y836930D01*
G01X1858328Y840994D01*
G01X1912430Y874014D02*
G01X1891856Y830834D01*
G01X1883474Y874014D02*
G01X1912430Y874014D01*
G01X1858328Y317754D02*
G01X1856296Y321818D01*
G01X1852232Y325882D01*
G01X1847914Y327914D01*
G01X1839786Y327914D01*
G01X1835722Y325882D01*
G01X1831404Y321818D01*
G01X1829372Y317754D01*
G01X1827340Y311404D01*
G01X1827340Y301244D01*
G01X1829372Y294894D01*
G01X1831404Y290830D01*
G01X1835722Y286766D01*
G01X1839786Y284734D01*
G01X1847914Y284734D01*
G01X1852232Y286766D01*
G01X1856296Y290830D01*
G01X1858328Y294894D01*
G01X1893888Y327914D02*
G01X1887538Y325882D01*
G01X1885506Y321818D01*
G01X1885506Y317754D01*
G01X1887538Y313690D01*
G01X1891856Y311404D01*
G01X1899984Y309372D01*
G01X1906080Y307340D01*
G01X1910398Y303276D01*
G01X1912430Y299212D01*
G01X1912430Y292862D01*
G01X1910398Y288798D01*
G01X1908366Y286766D01*
G01X1902016Y284734D01*
G01X1893888Y284734D01*
G01X1887538Y286766D01*
G01X1885506Y288798D01*
G01X1883474Y292862D01*
G01X1883474Y299212D01*
G01X1885506Y303276D01*
G01X1889570Y307340D01*
G01X1895920Y309372D01*
G01X1904048Y311404D01*
G01X1908366Y313690D01*
G01X1910398Y317754D01*
G01X1910398Y321818D01*
G01X1908366Y325882D01*
G01X1902016Y327914D01*
G01X1893888Y327914D01*
G01X968568Y4265168D02*
G01X966536Y4269232D01*
G01X962472Y4273296D01*
G01X958154Y4275328D01*
G01X950026Y4275328D01*
G01X945962Y4273296D01*
G01X941644Y4269232D01*
G01X939612Y4265168D01*
G01X937580Y4258818D01*
G01X937580Y4248658D01*
G01X939612Y4242308D01*
G01X941644Y4238244D01*
G01X945962Y4234180D01*
G01X950026Y4232148D01*
G01X958154Y4232148D01*
G01X962472Y4234180D01*
G01X966536Y4238244D01*
G01X968568Y4242308D01*
G01X1020638Y4261104D02*
G01X1018606Y4254754D01*
G01X1014288Y4250690D01*
G01X1008192Y4248658D01*
G01X1006160Y4248658D01*
G01X999810Y4250690D01*
G01X995746Y4254754D01*
G01X993714Y4261104D01*
G01X993714Y4263136D01*
G01X995746Y4269232D01*
G01X999810Y4273296D01*
G01X1006160Y4275328D01*
G01X1008192Y4275328D01*
G01X1014288Y4273296D01*
G01X1018606Y4269232D01*
G01X1020638Y4261104D01*
G01X1020638Y4250690D01*
G01X1018606Y4240276D01*
G01X1014288Y4234180D01*
G01X1008192Y4232148D01*
G01X1004128Y4232148D01*
G01X997778Y4234180D01*
G01X995746Y4238244D01*
G01X1197168Y2880868D02*
G01X1195136Y2884932D01*
G01X1191072Y2888996D01*
G01X1186754Y2891028D01*
G01X1178626Y2891028D01*
G01X1174562Y2888996D01*
G01X1170244Y2884932D01*
G01X1168212Y2880868D01*
G01X1166180Y2874518D01*
G01X1166180Y2864358D01*
G01X1168212Y2858008D01*
G01X1170244Y2853944D01*
G01X1174562Y2849880D01*
G01X1178626Y2847848D01*
G01X1186754Y2847848D01*
G01X1191072Y2849880D01*
G01X1195136Y2853944D01*
G01X1197168Y2858008D01*
G01X1222314Y2882900D02*
G01X1226378Y2884932D01*
G01X1232728Y2891028D01*
G01X1232728Y2847848D01*
G01X1270320Y2891028D02*
G01X1263970Y2888996D01*
G01X1259906Y2882900D01*
G01X1257874Y2872486D01*
G01X1257874Y2866390D01*
G01X1259906Y2855976D01*
G01X1263970Y2849880D01*
G01X1270320Y2847848D01*
G01X1274384Y2847848D01*
G01X1280480Y2849880D01*
G01X1284798Y2855976D01*
G01X1286830Y2866390D01*
G01X1286830Y2872486D01*
G01X1284798Y2882900D01*
G01X1280480Y2888996D01*
G01X1274384Y2891028D01*
G01X1270320Y2891028D01*
G01X610870Y1717131D02*
G01X610870Y1673951D01*
G01X610870Y1717131D02*
G01X629412Y1717131D01*
G01X635762Y1715099D01*
G01X637794Y1713067D01*
G01X639826Y1709003D01*
G01X639826Y1704939D01*
G01X637794Y1700621D01*
G01X635762Y1698589D01*
G01X629412Y1696557D01*
G01X610870Y1696557D01*
G01X625348Y1696557D02*
G01X639826Y1673951D01*
G01X664972Y1709003D02*
G01X669036Y1711035D01*
G01X675386Y1717131D01*
G01X675386Y1673951D01*
G01X618871Y1197265D02*
G01X618871Y1154085D01*
G01X618871Y1197265D02*
G01X637413Y1197265D01*
G01X643763Y1195233D01*
G01X645795Y1193201D01*
G01X647827Y1189137D01*
G01X647827Y1185073D01*
G01X645795Y1180755D01*
G01X643763Y1178723D01*
G01X637413Y1176691D01*
G01X618871Y1176691D01*
G01X633349Y1176691D02*
G01X647827Y1154085D01*
G01X675005Y1187105D02*
G01X675005Y1189137D01*
G01X677037Y1193201D01*
G01X679069Y1195233D01*
G01X683387Y1197265D01*
G01X691515Y1197265D01*
G01X695579Y1195233D01*
G01X697865Y1193201D01*
G01X699897Y1189137D01*
G01X699897Y1185073D01*
G01X697865Y1180755D01*
G01X693547Y1174659D01*
G01X672973Y1154085D01*
G01X701929Y1154085D01*
G01X618871Y651165D02*
G01X618871Y607985D01*
G01X618871Y651165D02*
G01X637413Y651165D01*
G01X643763Y649133D01*
G01X645795Y647101D01*
G01X647827Y643037D01*
G01X647827Y638973D01*
G01X645795Y634655D01*
G01X643763Y632623D01*
G01X637413Y630591D01*
G01X618871Y630591D01*
G01X633349Y630591D02*
G01X647827Y607985D01*
G01X677037Y651165D02*
G01X699897Y651165D01*
G01X687451Y634655D01*
G01X693547Y634655D01*
G01X697865Y632623D01*
G01X699897Y630591D01*
G01X701929Y624495D01*
G01X701929Y620431D01*
G01X699897Y614081D01*
G01X695579Y610017D01*
G01X689483Y607985D01*
G01X683387Y607985D01*
G01X677037Y610017D01*
G01X675005Y612049D01*
G01X672973Y616113D01*
G01X617855Y105065D02*
G01X617855Y61885D01*
G01X617855Y105065D02*
G01X636397Y105065D01*
G01X642747Y103033D01*
G01X644779Y101001D01*
G01X646811Y96937D01*
G01X646811Y92873D01*
G01X644779Y88555D01*
G01X642747Y86523D01*
G01X636397Y84491D01*
G01X617855Y84491D01*
G01X632333Y84491D02*
G01X646811Y61885D01*
G01X692531Y105065D02*
G01X671957Y76363D01*
G01X702945Y76363D01*
G01X692531Y105065D02*
G01X692531Y61885D01*
G01X2687320Y2249678D02*
G01X2687320Y2206498D01*
G01X2687320Y2249678D02*
G01X2705862Y2249678D01*
G01X2712212Y2247646D01*
G01X2714244Y2245614D01*
G01X2716276Y2241550D01*
G01X2716276Y2237486D01*
G01X2714244Y2233168D01*
G01X2712212Y2231136D01*
G01X2705862Y2229104D01*
G01X2687320Y2229104D01*
G01X2701798Y2229104D02*
G01X2716276Y2206498D01*
G01X2766314Y2249678D02*
G01X2745486Y2249678D01*
G01X2743454Y2231136D01*
G01X2745486Y2233168D01*
G01X2751836Y2235454D01*
G01X2757932Y2235454D01*
G01X2764028Y2233168D01*
G01X2768346Y2229104D01*
G01X2770378Y2223008D01*
G01X2770378Y2218944D01*
G01X2768346Y2212594D01*
G01X2764028Y2208530D01*
G01X2757932Y2206498D01*
G01X2751836Y2206498D01*
G01X2745486Y2208530D01*
G01X2743454Y2210562D01*
G01X2741422Y2214626D01*
G01X2850151Y1423162D02*
G01X2850151Y1379982D01*
G01X2850151Y1423162D02*
G01X2868693Y1423162D01*
G01X2875043Y1421130D01*
G01X2877075Y1419098D01*
G01X2879107Y1415034D01*
G01X2879107Y1410970D01*
G01X2877075Y1406652D01*
G01X2875043Y1404620D01*
G01X2868693Y1402588D01*
G01X2850151Y1402588D01*
G01X2864629Y1402588D02*
G01X2879107Y1379982D01*
G01X2929145Y1417066D02*
G01X2926859Y1421130D01*
G01X2920763Y1423162D01*
G01X2916699Y1423162D01*
G01X2910349Y1421130D01*
G01X2906285Y1415034D01*
G01X2904253Y1404620D01*
G01X2904253Y1394460D01*
G01X2906285Y1386078D01*
G01X2910349Y1382014D01*
G01X2916699Y1379982D01*
G01X2918731Y1379982D01*
G01X2924827Y1382014D01*
G01X2929145Y1386078D01*
G01X2931177Y1392428D01*
G01X2931177Y1394460D01*
G01X2929145Y1400556D01*
G01X2924827Y1404620D01*
G01X2918731Y1406652D01*
G01X2916699Y1406652D01*
G01X2910349Y1404620D01*
G01X2906285Y1400556D01*
G01X2904253Y1394460D01*
G01X2668270Y1154085D02*
G01X2668270Y1110905D01*
G01X2668270Y1154085D02*
G01X2686812Y1154085D01*
G01X2693162Y1152053D01*
G01X2695194Y1150021D01*
G01X2697226Y1145957D01*
G01X2697226Y1141893D01*
G01X2695194Y1137575D01*
G01X2693162Y1135543D01*
G01X2686812Y1133511D01*
G01X2668270Y1133511D01*
G01X2682748Y1133511D02*
G01X2697226Y1110905D01*
G01X2751328Y1154085D02*
G01X2730754Y1110905D01*
G01X2722372Y1154085D02*
G01X2751328Y1154085D01*
G01X950087Y2242911D02*
G01X950087Y2199731D01*
G01X950087Y2242911D02*
G01X968629Y2242911D01*
G01X974979Y2240879D01*
G01X977011Y2238847D01*
G01X979043Y2234783D01*
G01X979043Y2230719D01*
G01X977011Y2226401D01*
G01X974979Y2224369D01*
G01X968629Y2222337D01*
G01X950087Y2222337D01*
G01X964565Y2222337D02*
G01X979043Y2199731D01*
G01X1031113Y2228687D02*
G01X1029081Y2222337D01*
G01X1024763Y2218273D01*
G01X1018667Y2216241D01*
G01X1016635Y2216241D01*
G01X1010285Y2218273D01*
G01X1006221Y2222337D01*
G01X1004189Y2228687D01*
G01X1004189Y2230719D01*
G01X1006221Y2236815D01*
G01X1010285Y2240879D01*
G01X1016635Y2242911D01*
G01X1018667Y2242911D01*
G01X1024763Y2240879D01*
G01X1029081Y2236815D01*
G01X1031113Y2228687D01*
G01X1031113Y2218273D01*
G01X1029081Y2207859D01*
G01X1024763Y2201763D01*
G01X1018667Y2199731D01*
G01X1014603Y2199731D01*
G01X1008253Y2201763D01*
G01X1006221Y2205827D01*
G01X934720Y1703578D02*
G01X934720Y1660398D01*
G01X934720Y1703578D02*
G01X953262Y1703578D01*
G01X959612Y1701546D01*
G01X961644Y1699514D01*
G01X963676Y1695450D01*
G01X963676Y1691386D01*
G01X961644Y1687068D01*
G01X959612Y1685036D01*
G01X953262Y1683004D01*
G01X934720Y1683004D01*
G01X949198Y1683004D02*
G01X963676Y1660398D01*
G01X988822Y1695450D02*
G01X992886Y1697482D01*
G01X999236Y1703578D01*
G01X999236Y1660398D01*
G01X1036828Y1703578D02*
G01X1030478Y1701546D01*
G01X1026414Y1695450D01*
G01X1024382Y1685036D01*
G01X1024382Y1678940D01*
G01X1026414Y1668526D01*
G01X1030478Y1662430D01*
G01X1036828Y1660398D01*
G01X1040892Y1660398D01*
G01X1046988Y1662430D01*
G01X1051306Y1668526D01*
G01X1053338Y1678940D01*
G01X1053338Y1685036D01*
G01X1051306Y1695450D01*
G01X1046988Y1701546D01*
G01X1040892Y1703578D01*
G01X1036828Y1703578D01*
G01X960120Y1157478D02*
G01X960120Y1114298D01*
G01X960120Y1157478D02*
G01X978662Y1157478D01*
G01X985012Y1155446D01*
G01X987044Y1153414D01*
G01X989076Y1149350D01*
G01X989076Y1145286D01*
G01X987044Y1140968D01*
G01X985012Y1138936D01*
G01X978662Y1136904D01*
G01X960120Y1136904D01*
G01X974598Y1136904D02*
G01X989076Y1114298D01*
G01X1014222Y1149350D02*
G01X1018286Y1151382D01*
G01X1024636Y1157478D01*
G01X1024636Y1114298D01*
G01X1049782Y1149350D02*
G01X1053846Y1151382D01*
G01X1060196Y1157478D01*
G01X1060196Y1114298D01*
G01X909320Y649478D02*
G01X909320Y606298D01*
G01X909320Y649478D02*
G01X927862Y649478D01*
G01X934212Y647446D01*
G01X936244Y645414D01*
G01X938276Y641350D01*
G01X938276Y637286D01*
G01X936244Y632968D01*
G01X934212Y630936D01*
G01X927862Y628904D01*
G01X909320Y628904D01*
G01X923798Y628904D02*
G01X938276Y606298D01*
G01X963422Y641350D02*
G01X967486Y643382D01*
G01X973836Y649478D01*
G01X973836Y606298D01*
G01X1001014Y639318D02*
G01X1001014Y641350D01*
G01X1003046Y645414D01*
G01X1005078Y647446D01*
G01X1009396Y649478D01*
G01X1017524Y649478D01*
G01X1021588Y647446D01*
G01X1023874Y645414D01*
G01X1025906Y641350D01*
G01X1025906Y637286D01*
G01X1023874Y632968D01*
G01X1019556Y626872D01*
G01X998982Y606298D01*
G01X1027938Y606298D01*
G01X2338070Y2246285D02*
G01X2338070Y2203105D01*
G01X2338070Y2246285D02*
G01X2356612Y2246285D01*
G01X2362962Y2244253D01*
G01X2364994Y2242221D01*
G01X2367026Y2238157D01*
G01X2367026Y2234093D01*
G01X2364994Y2229775D01*
G01X2362962Y2227743D01*
G01X2356612Y2225711D01*
G01X2338070Y2225711D01*
G01X2352548Y2225711D02*
G01X2367026Y2203105D01*
G01X2392172Y2238157D02*
G01X2396236Y2240189D01*
G01X2402586Y2246285D01*
G01X2402586Y2203105D01*
G01X2431796Y2246285D02*
G01X2454656Y2246285D01*
G01X2442210Y2229775D01*
G01X2448306Y2229775D01*
G01X2452624Y2227743D01*
G01X2454656Y2225711D01*
G01X2456688Y2219615D01*
G01X2456688Y2215551D01*
G01X2454656Y2209201D01*
G01X2450338Y2205137D01*
G01X2444242Y2203105D01*
G01X2438146Y2203105D01*
G01X2431796Y2205137D01*
G01X2429764Y2207169D01*
G01X2427732Y2211233D01*
G01X242570Y3485225D02*
G01X242570Y3442045D01*
G01X242570Y3485225D02*
G01X261112Y3485225D01*
G01X267462Y3483193D01*
G01X269494Y3481161D01*
G01X271526Y3477097D01*
G01X271526Y3473033D01*
G01X269494Y3468715D01*
G01X267462Y3466683D01*
G01X261112Y3464651D01*
G01X242570Y3464651D01*
G01X257048Y3464651D02*
G01X271526Y3442045D01*
G01X296672Y3477097D02*
G01X300736Y3479129D01*
G01X307086Y3485225D01*
G01X307086Y3442045D01*
G01X361188Y3485225D02*
G01X340614Y3442045D01*
G01X332232Y3485225D02*
G01X361188Y3485225D01*
G01X956691Y2564907D02*
G01X956691Y2521727D01*
G01X956691Y2564907D02*
G01X975233Y2564907D01*
G01X981583Y2562875D01*
G01X983615Y2560843D01*
G01X985647Y2556779D01*
G01X985647Y2552715D01*
G01X983615Y2548397D01*
G01X981583Y2546365D01*
G01X975233Y2544333D01*
G01X956691Y2544333D01*
G01X971169Y2544333D02*
G01X985647Y2521727D01*
G01X1010793Y2556779D02*
G01X1014857Y2558811D01*
G01X1021207Y2564907D01*
G01X1021207Y2521727D01*
G01X1056767Y2564907D02*
G01X1050417Y2562875D01*
G01X1048385Y2558811D01*
G01X1048385Y2554747D01*
G01X1050417Y2550683D01*
G01X1054735Y2548397D01*
G01X1062863Y2546365D01*
G01X1068959Y2544333D01*
G01X1073277Y2540269D01*
G01X1075309Y2536205D01*
G01X1075309Y2529855D01*
G01X1073277Y2525791D01*
G01X1071245Y2523759D01*
G01X1064895Y2521727D01*
G01X1056767Y2521727D01*
G01X1050417Y2523759D01*
G01X1048385Y2525791D01*
G01X1046353Y2529855D01*
G01X1046353Y2536205D01*
G01X1048385Y2540269D01*
G01X1052449Y2544333D01*
G01X1058799Y2546365D01*
G01X1066927Y2548397D01*
G01X1071245Y2550683D01*
G01X1073277Y2554747D01*
G01X1073277Y2558811D01*
G01X1071245Y2562875D01*
G01X1064895Y2564907D01*
G01X1056767Y2564907D01*
G01X1769527Y2497328D02*
G01X1769527Y2454148D01*
G01X1769527Y2497328D02*
G01X1788069Y2497328D01*
G01X1794419Y2495296D01*
G01X1796451Y2493264D01*
G01X1798483Y2489200D01*
G01X1798483Y2485136D01*
G01X1796451Y2480818D01*
G01X1794419Y2478786D01*
G01X1788069Y2476754D01*
G01X1769527Y2476754D01*
G01X1784005Y2476754D02*
G01X1798483Y2454148D01*
G01X1823629Y2489200D02*
G01X1827693Y2491232D01*
G01X1834043Y2497328D01*
G01X1834043Y2454148D01*
G01X1886113Y2483104D02*
G01X1884081Y2476754D01*
G01X1879763Y2472690D01*
G01X1873667Y2470658D01*
G01X1871635Y2470658D01*
G01X1865285Y2472690D01*
G01X1861221Y2476754D01*
G01X1859189Y2483104D01*
G01X1859189Y2485136D01*
G01X1861221Y2491232D01*
G01X1865285Y2495296D01*
G01X1871635Y2497328D01*
G01X1873667Y2497328D01*
G01X1879763Y2495296D01*
G01X1884081Y2491232D01*
G01X1886113Y2483104D01*
G01X1886113Y2472690D01*
G01X1884081Y2462276D01*
G01X1879763Y2456180D01*
G01X1873667Y2454148D01*
G01X1869603Y2454148D01*
G01X1863253Y2456180D01*
G01X1861221Y2460244D01*
G01X3003967Y2738628D02*
G01X3003967Y2695448D01*
G01X3003967Y2738628D02*
G01X3022509Y2738628D01*
G01X3028859Y2736596D01*
G01X3030891Y2734564D01*
G01X3032923Y2730500D01*
G01X3032923Y2726436D01*
G01X3030891Y2722118D01*
G01X3028859Y2720086D01*
G01X3022509Y2718054D01*
G01X3003967Y2718054D01*
G01X3018445Y2718054D02*
G01X3032923Y2695448D01*
G01X3060101Y2728468D02*
G01X3060101Y2730500D01*
G01X3062133Y2734564D01*
G01X3064165Y2736596D01*
G01X3068483Y2738628D01*
G01X3076611Y2738628D01*
G01X3080675Y2736596D01*
G01X3082961Y2734564D01*
G01X3084993Y2730500D01*
G01X3084993Y2726436D01*
G01X3082961Y2722118D01*
G01X3078643Y2716022D01*
G01X3058069Y2695448D01*
G01X3087025Y2695448D01*
G01X3124617Y2738628D02*
G01X3118267Y2736596D01*
G01X3114203Y2730500D01*
G01X3112171Y2720086D01*
G01X3112171Y2713990D01*
G01X3114203Y2703576D01*
G01X3118267Y2697480D01*
G01X3124617Y2695448D01*
G01X3128681Y2695448D01*
G01X3134777Y2697480D01*
G01X3139095Y2703576D01*
G01X3141127Y2713990D01*
G01X3141127Y2720086D01*
G01X3139095Y2730500D01*
G01X3134777Y2736596D01*
G01X3128681Y2738628D01*
G01X3124617Y2738628D01*
G01X3130169Y3162478D02*
G01X3130169Y3119298D01*
G01X3115691Y3162478D02*
G01X3144647Y3162478D01*
G01X3169793Y3162478D02*
G01X3169793Y3119298D01*
G01X3169793Y3162478D02*
G01X3188335Y3162478D01*
G01X3194685Y3160446D01*
G01X3196717Y3158414D01*
G01X3198749Y3154350D01*
G01X3198749Y3148254D01*
G01X3196717Y3143936D01*
G01X3194685Y3141904D01*
G01X3188335Y3139872D01*
G01X3169793Y3139872D01*
G01X3223895Y3154350D02*
G01X3227959Y3156382D01*
G01X3234309Y3162478D01*
G01X3234309Y3119298D01*
G01X1318344Y2719636D02*
G01X1318344Y2688902D01*
G01X1320376Y2682552D01*
G01X1324440Y2678488D01*
G01X1330790Y2676456D01*
G01X1334854Y2676456D01*
G01X1340950Y2678488D01*
G01X1345268Y2682552D01*
G01X1347300Y2688902D01*
G01X1347300Y2719636D01*
G01X1374478Y2709476D02*
G01X1374478Y2711508D01*
G01X1376510Y2715572D01*
G01X1378542Y2717604D01*
G01X1382860Y2719636D01*
G01X1390988Y2719636D01*
G01X1395052Y2717604D01*
G01X1397338Y2715572D01*
G01X1399370Y2711508D01*
G01X1399370Y2707444D01*
G01X1397338Y2703126D01*
G01X1393020Y2697030D01*
G01X1372446Y2676456D01*
G01X1401402Y2676456D01*
G01X2344420Y1716278D02*
G01X2344420Y1673098D01*
G01X2344420Y1716278D02*
G01X2362962Y1716278D01*
G01X2369312Y1714246D01*
G01X2371344Y1712214D01*
G01X2373376Y1708150D01*
G01X2373376Y1704086D01*
G01X2371344Y1699768D01*
G01X2369312Y1697736D01*
G01X2362962Y1695704D01*
G01X2344420Y1695704D01*
G01X2358898Y1695704D02*
G01X2373376Y1673098D01*
G01X2398522Y1708150D02*
G01X2402586Y1710182D01*
G01X2408936Y1716278D01*
G01X2408936Y1673098D01*
G01X2454656Y1716278D02*
G01X2434082Y1687576D01*
G01X2465070Y1687576D01*
G01X2454656Y1716278D02*
G01X2454656Y1673098D01*
G01X2344420Y1170178D02*
G01X2344420Y1126998D01*
G01X2344420Y1170178D02*
G01X2362962Y1170178D01*
G01X2369312Y1168146D01*
G01X2371344Y1166114D01*
G01X2373376Y1162050D01*
G01X2373376Y1157986D01*
G01X2371344Y1153668D01*
G01X2369312Y1151636D01*
G01X2362962Y1149604D01*
G01X2344420Y1149604D01*
G01X2358898Y1149604D02*
G01X2373376Y1126998D01*
G01X2398522Y1162050D02*
G01X2402586Y1164082D01*
G01X2408936Y1170178D01*
G01X2408936Y1126998D01*
G01X2458974Y1170178D02*
G01X2438146Y1170178D01*
G01X2436114Y1151636D01*
G01X2438146Y1153668D01*
G01X2444496Y1155954D01*
G01X2450592Y1155954D01*
G01X2456688Y1153668D01*
G01X2461006Y1149604D01*
G01X2463038Y1143508D01*
G01X2463038Y1139444D01*
G01X2461006Y1133094D01*
G01X2456688Y1129030D01*
G01X2450592Y1126998D01*
G01X2444496Y1126998D01*
G01X2438146Y1129030D01*
G01X2436114Y1131062D01*
G01X2434082Y1135126D01*
G01X2668270Y607985D02*
G01X2668270Y564805D01*
G01X2668270Y607985D02*
G01X2686812Y607985D01*
G01X2693162Y605953D01*
G01X2695194Y603921D01*
G01X2697226Y599857D01*
G01X2697226Y595793D01*
G01X2695194Y591475D01*
G01X2693162Y589443D01*
G01X2686812Y587411D01*
G01X2668270Y587411D01*
G01X2682748Y587411D02*
G01X2697226Y564805D01*
G01X2732786Y607985D02*
G01X2726436Y605953D01*
G01X2724404Y601889D01*
G01X2724404Y597825D01*
G01X2726436Y593761D01*
G01X2730754Y591475D01*
G01X2738882Y589443D01*
G01X2744978Y587411D01*
G01X2749296Y583347D01*
G01X2751328Y579283D01*
G01X2751328Y572933D01*
G01X2749296Y568869D01*
G01X2747264Y566837D01*
G01X2740914Y564805D01*
G01X2732786Y564805D01*
G01X2726436Y566837D01*
G01X2724404Y568869D01*
G01X2722372Y572933D01*
G01X2722372Y579283D01*
G01X2724404Y583347D01*
G01X2728468Y587411D01*
G01X2734818Y589443D01*
G01X2742946Y591475D01*
G01X2747264Y593761D01*
G01X2749296Y597825D01*
G01X2749296Y601889D01*
G01X2747264Y605953D01*
G01X2740914Y607985D01*
G01X2732786Y607985D01*
G01X2445893Y604611D02*
G01X2445893Y561431D01*
G01X2445893Y604611D02*
G01X2427351Y604611D01*
G01X2421001Y602579D01*
G01X2418969Y600547D01*
G01X2416937Y596483D01*
G01X2416937Y592419D01*
G01X2418969Y588101D01*
G01X2421001Y586069D01*
G01X2427351Y584037D01*
G01X2445893Y584037D01*
G01X2431415Y584037D02*
G01X2416937Y561431D01*
G01X2391791Y596483D02*
G01X2387727Y598515D01*
G01X2381377Y604611D01*
G01X2381377Y561431D01*
G01X2331339Y598515D02*
G01X2333625Y602579D01*
G01X2339721Y604611D01*
G01X2343785Y604611D01*
G01X2350135Y602579D01*
G01X2354199Y596483D01*
G01X2356231Y586069D01*
G01X2356231Y575909D01*
G01X2354199Y567527D01*
G01X2350135Y563463D01*
G01X2343785Y561431D01*
G01X2341753Y561431D01*
G01X2335657Y563463D01*
G01X2331339Y567527D01*
G01X2329307Y573877D01*
G01X2329307Y575909D01*
G01X2331339Y582005D01*
G01X2335657Y586069D01*
G01X2341753Y588101D01*
G01X2343785Y588101D01*
G01X2350135Y586069D01*
G01X2354199Y582005D01*
G01X2356231Y575909D01*
G04 Text End*

G04 PolygonModel Start*
G01X1411161Y2149620D02*
G01X1411161Y2008619D01*
G01X1230440Y2008619D02*
G01X1230440Y2149620D01*
G01X1245680Y2164860D02*
G01X1395921Y2164860D01*
G01X1411161Y1787380D02*
G01X1411161Y1928381D01*
G01X1230440Y1928381D02*
G01X1230440Y1787380D01*
G01X1245680Y1772140D02*
G01X1395921Y1772140D01*
G01X1230440Y2149620D02*
G02X1245680Y2164860I15240J0D01*
G01X1395921Y2164860D02*
G02X1411161Y2149620I0J-15240D01*
G01X1230440Y1787380D02*
G03X1245680Y1772140I15240J0D01*
G01X1395921Y1772140D02*
G03X1411161Y1787380I0J15240D01*
G01X1411161Y1603520D02*
G01X1411161Y1462519D01*
G01X1230440Y1462519D02*
G01X1230440Y1603520D01*
G01X1245680Y1618760D02*
G01X1395921Y1618760D01*
G01X1411161Y1241280D02*
G01X1411161Y1382281D01*
G01X1230440Y1382281D02*
G01X1230440Y1241280D01*
G01X1245680Y1226040D02*
G01X1395921Y1226040D01*
G01X1230440Y1603520D02*
G02X1245680Y1618760I15240J0D01*
G01X1395921Y1618760D02*
G02X1411161Y1603520I0J-15240D01*
G01X1230440Y1241280D02*
G03X1245680Y1226040I15240J0D01*
G01X1395921Y1226040D02*
G03X1411161Y1241280I0J15240D01*
G01X1411161Y1057420D02*
G01X1411161Y916419D01*
G01X1230440Y916419D02*
G01X1230440Y1057420D01*
G01X1245680Y1072660D02*
G01X1395921Y1072660D01*
G01X1411161Y695180D02*
G01X1411161Y836181D01*
G01X1230440Y836181D02*
G01X1230440Y695180D01*
G01X1245680Y679940D02*
G01X1395921Y679940D01*
G01X1230440Y1057420D02*
G02X1245680Y1072660I15240J0D01*
G01X1395921Y1072660D02*
G02X1411161Y1057420I0J-15240D01*
G01X1230440Y695180D02*
G03X1245680Y679940I15240J0D01*
G01X1395921Y679940D02*
G03X1411161Y695180I0J15240D01*
G01X1411161Y511320D02*
G01X1411161Y370319D01*
G01X1230440Y370319D02*
G01X1230440Y511320D01*
G01X1245680Y526560D02*
G01X1395921Y526560D01*
G01X1411161Y149080D02*
G01X1411161Y290081D01*
G01X1230440Y290081D02*
G01X1230440Y149080D01*
G01X1245680Y133840D02*
G01X1395921Y133840D01*
G01X1230440Y511320D02*
G02X1245680Y526560I15240J0D01*
G01X1395921Y526560D02*
G02X1411161Y511320I0J-15240D01*
G01X1230440Y149080D02*
G03X1245680Y133840I15240J0D01*
G01X1395921Y133840D02*
G03X1411161Y149080I0J15240D01*
G01X2147761Y2149620D02*
G01X2147761Y2008619D01*
G01X1967040Y2008619D02*
G01X1967040Y2149620D01*
G01X1982280Y2164860D02*
G01X2132521Y2164860D01*
G01X2147761Y1787380D02*
G01X2147761Y1928381D01*
G01X1967040Y1928381D02*
G01X1967040Y1787380D01*
G01X1982280Y1772140D02*
G01X2132521Y1772140D01*
G01X1967040Y2149620D02*
G02X1982280Y2164860I15240J0D01*
G01X2132521Y2164860D02*
G02X2147761Y2149620I0J-15240D01*
G01X1967040Y1787380D02*
G03X1982280Y1772140I15240J0D01*
G01X2132521Y1772140D02*
G03X2147761Y1787380I0J15240D01*
G01X2147761Y1603520D02*
G01X2147761Y1462519D01*
G01X1967040Y1462519D02*
G01X1967040Y1603520D01*
G01X1982280Y1618760D02*
G01X2132521Y1618760D01*
G01X2147761Y1241280D02*
G01X2147761Y1382281D01*
G01X1967040Y1382281D02*
G01X1967040Y1241280D01*
G01X1982280Y1226040D02*
G01X2132521Y1226040D01*
G01X1967040Y1603520D02*
G02X1982280Y1618760I15240J0D01*
G01X2132521Y1618760D02*
G02X2147761Y1603520I0J-15240D01*
G01X1967040Y1241280D02*
G03X1982280Y1226040I15240J0D01*
G01X2132521Y1226040D02*
G03X2147761Y1241280I0J15240D01*
G01X2147761Y1057420D02*
G01X2147761Y916419D01*
G01X1967040Y916419D02*
G01X1967040Y1057420D01*
G01X1982280Y1072660D02*
G01X2132521Y1072660D01*
G01X2147761Y695180D02*
G01X2147761Y836181D01*
G01X1967040Y836181D02*
G01X1967040Y695180D01*
G01X1982280Y679940D02*
G01X2132521Y679940D01*
G01X1967040Y1057420D02*
G02X1982280Y1072660I15240J0D01*
G01X2132521Y1072660D02*
G02X2147761Y1057420I0J-15240D01*
G01X1967040Y695180D02*
G03X1982280Y679940I15240J0D01*
G01X2132521Y679940D02*
G03X2147761Y695180I0J15240D01*
G01X2147761Y511320D02*
G01X2147761Y370319D01*
G01X1967040Y370319D02*
G01X1967040Y511320D01*
G01X1982280Y526560D02*
G01X2132521Y526560D01*
G01X2147761Y149080D02*
G01X2147761Y290081D01*
G01X1967040Y290081D02*
G01X1967040Y149080D01*
G01X1982280Y133840D02*
G01X2132521Y133840D01*
G01X1967040Y511320D02*
G02X1982280Y526560I15240J0D01*
G01X2132521Y526560D02*
G02X2147761Y511320I0J-15240D01*
G01X1967040Y149080D02*
G03X1982280Y133840I15240J0D01*
G01X2132521Y133840D02*
G03X2147761Y149080I0J15240D01*
G01X110980Y4357561D02*
G01X251981Y4357561D01*
G01X251981Y4176840D02*
G01X110980Y4176840D01*
G01X95740Y4192080D02*
G01X95740Y4342321D01*
G01X473220Y4357561D02*
G01X332219Y4357561D01*
G01X332219Y4176840D02*
G01X473220Y4176840D01*
G01X488460Y4192080D02*
G01X488460Y4342321D01*
G01X110980Y4176840D02*
G02X95740Y4192080I0J15240D01*
G01X95740Y4342321D02*
G02X110980Y4357561I15240J0D01*
G01X473220Y4176840D02*
G03X488460Y4192080I0J15240D01*
G01X488460Y4342321D02*
G03X473220Y4357561I-15240J0D01*
G01X1113300Y2678240D02*
G01X972299Y2678240D01*
G01X972299Y2858961D02*
G01X1113300Y2858961D01*
G01X1128540Y2843721D02*
G01X1128540Y2693480D01*
G01X751060Y2678240D02*
G01X892061Y2678240D01*
G01X892061Y2858961D02*
G01X751060Y2858961D01*
G01X735820Y2843721D02*
G01X735820Y2693480D01*
G01X1113300Y2858961D02*
G02X1128540Y2843721I0J-15240D01*
G01X1128540Y2693480D02*
G02X1113300Y2678240I-15240J0D01*
G01X751060Y2858961D02*
G03X735820Y2843721I0J-15240D01*
G01X735820Y2693480D02*
G03X751060Y2678240I15240J0D01*
G01X568691Y2016120D02*
G01X568691Y2144613D01*
G01X752109Y2144613D01*
G01X752109Y2016120D01*
G01X568691Y1920880D02*
G01X568691Y1792387D01*
G01X752109Y1792387D01*
G01X752109Y1920880D01*
G01X568691Y1470020D02*
G01X568691Y1598513D01*
G01X752109Y1598513D01*
G01X752109Y1470020D01*
G01X568691Y1374780D02*
G01X568691Y1246287D01*
G01X752109Y1246287D01*
G01X752109Y1374780D01*
G01X568691Y923920D02*
G01X568691Y1052413D01*
G01X752109Y1052413D01*
G01X752109Y923920D01*
G01X568691Y828680D02*
G01X568691Y700187D01*
G01X752109Y700187D01*
G01X752109Y828680D01*
G01X568691Y377820D02*
G01X568691Y506313D01*
G01X752109Y506313D01*
G01X752109Y377820D01*
G01X568691Y282580D02*
G01X568691Y154087D01*
G01X752109Y154087D01*
G01X752109Y282580D01*
G01X2626091Y2016120D02*
G01X2626091Y2144613D01*
G01X2809509Y2144613D01*
G01X2809509Y2016120D01*
G01X2626091Y1920880D02*
G01X2626091Y1792387D01*
G01X2809509Y1792387D01*
G01X2809509Y1920880D01*
G01X2626091Y1470020D02*
G01X2626091Y1598513D01*
G01X2809509Y1598513D01*
G01X2809509Y1470020D01*
G01X2626091Y1374780D02*
G01X2626091Y1246287D01*
G01X2809509Y1246287D01*
G01X2809509Y1374780D01*
G01X2626091Y923920D02*
G01X2626091Y1052413D01*
G01X2809509Y1052413D01*
G01X2809509Y923920D01*
G01X2626091Y828680D02*
G01X2626091Y700187D01*
G01X2809509Y700187D01*
G01X2809509Y828680D01*
G01X2626091Y377820D02*
G01X2626091Y506313D01*
G01X2809509Y506313D01*
G01X2809509Y377820D01*
G01X2626091Y282580D02*
G01X2626091Y154087D01*
G01X2809509Y154087D01*
G01X2809509Y282580D01*
G01X898891Y2016120D02*
G01X898891Y2144613D01*
G01X1082309Y2144613D01*
G01X1082309Y2016120D01*
G01X898891Y1920880D02*
G01X898891Y1792387D01*
G01X1082309Y1792387D01*
G01X1082309Y1920880D01*
G01X898891Y1470020D02*
G01X898891Y1598513D01*
G01X1082309Y1598513D01*
G01X1082309Y1470020D01*
G01X898891Y1374780D02*
G01X898891Y1246287D01*
G01X1082309Y1246287D01*
G01X1082309Y1374780D01*
G01X898891Y923920D02*
G01X898891Y1052413D01*
G01X1082309Y1052413D01*
G01X1082309Y923920D01*
G01X898891Y828680D02*
G01X898891Y700187D01*
G01X1082309Y700187D01*
G01X1082309Y828680D01*
G01X898891Y377820D02*
G01X898891Y506313D01*
G01X1082309Y506313D01*
G01X1082309Y377820D01*
G01X898891Y282580D02*
G01X898891Y154087D01*
G01X1082309Y154087D01*
G01X1082309Y282580D01*
G01X2295891Y2016120D02*
G01X2295891Y2144613D01*
G01X2479309Y2144613D01*
G01X2479309Y2016120D01*
G01X2295891Y1920880D02*
G01X2295891Y1792387D01*
G01X2479309Y1792387D01*
G01X2479309Y1920880D01*
G01X2295891Y1470020D02*
G01X2295891Y1598513D01*
G01X2479309Y1598513D01*
G01X2479309Y1470020D01*
G01X2295891Y1374780D02*
G01X2295891Y1246287D01*
G01X2479309Y1246287D01*
G01X2479309Y1374780D01*
G01X2295891Y923920D02*
G01X2295891Y1052413D01*
G01X2479309Y1052413D01*
G01X2479309Y923920D01*
G01X2295891Y828680D02*
G01X2295891Y700187D01*
G01X2479309Y700187D01*
G01X2479309Y828680D01*
G01X2295891Y377820D02*
G01X2295891Y506313D01*
G01X2479309Y506313D01*
G01X2479309Y377820D01*
G01X2295891Y282580D02*
G01X2295891Y154087D01*
G01X2479309Y154087D01*
G01X2479309Y282580D01*
G01X200391Y3857620D02*
G01X200391Y3986113D01*
G01X383809Y3986113D01*
G01X383809Y3857620D01*
G01X200391Y3762380D02*
G01X200391Y3633887D01*
G01X383809Y3633887D01*
G01X383809Y3762380D01*
G01X1063620Y2466609D02*
G01X1192113Y2466609D01*
G01X1192113Y2283191D01*
G01X1063620Y2283191D01*
G01X968380Y2466609D02*
G01X839887Y2466609D01*
G01X839887Y2283191D01*
G01X968380Y2283191D01*
G01X1597020Y2466609D02*
G01X1725513Y2466609D01*
G01X1725513Y2283191D01*
G01X1597020Y2283191D01*
G01X1501780Y2466609D02*
G01X1373287Y2466609D01*
G01X1373287Y2283191D01*
G01X1501780Y2283191D01*
G01X2663820Y2707909D02*
G01X2792313Y2707909D01*
G01X2792313Y2524491D01*
G01X2663820Y2524491D01*
G01X2568580Y2707909D02*
G01X2440087Y2707909D01*
G01X2440087Y2524491D01*
G01X2568580Y2524491D01*
G01X874144Y3513886D02*
G01X874144Y3209604D01*
G01X874144Y3209604D02*
G01X1879385Y3209604D01*
G01X1879385Y3209604D02*
G01X1879385Y3513886D01*
G01X1879385Y3513886D02*
G01X874144Y3513886D01*

G04 Circle Start*
G54D11*
G01X917253Y3438656D02*
G03X947276Y3438656I15011J0D01*
G03X917253Y3438656I-15011J0D01*
G01X841053Y3628445D02*
G03X871076Y3628445I15011J0D01*
G03X841053Y3628445I-15011J0D01*
G04 Circle End*

M02*

