G04 Layer: BottomLayer*
G04 EasyEDA Pro v3.2.149.88089769, 2026-09-20 21:47:13*
G04 Gerber Generator version 0.3*
G04 Scale: 100 percent, Rotated: No, Reflected: No*
G04 Dimensions in millimeters*
G04 Leading zeros omitted, absolute positions, 4 integers and 5 decimals*
G04 Generated by one-click*
G04 Object Configs: Pad,Via,Track,Text,Image,Dimension,BoardOutline,BoardCutout,CopperFilled,SolidRegion,FPCStiffener,Line,PlaneZone,ComponentProperty,ComponentSilkscreen,TearDrop*
G04 Layer Configs: 1,2,3,4,5,6,7,8,9,10,11,13,14,56*
G04 Copper Areas: 93*
%FSLAX45Y45*%
%MOMM*%
%ADD10C,0.2032*%
%ADD11C,0.254*%
%ADD12R,1.35001X1.41*%
%ADD13R,1.41X1.35001*%
%ADD14C,1.8*%
%ADD15R,1.8083X1.8*%
%ADD16R,1.8X1.8*%
%ADD17R,1.37701X1.13254*%
%ADD18R,1.13254X1.37701*%
%ADD19C,1.524*%
%ADD20C,2.0*%
%ADD21O,0.60201X1.97099*%
%ADD22C,0.6604*%
%ADD23C,0.61*%
%ADD24C,0.508*%
%ADD25C,0.4064*%
G75*


G04 Copper Start*
G36*
G01X35814Y35814D02*
G01X35814Y303318D01*
G01X41895Y295895D01*
G01X77386Y260404D01*
G01X77386Y113200D01*
G01X79139Y102133D01*
G01X84226Y92149D01*
G01X92149Y84226D01*
G01X102133Y79139D01*
G01X113200Y77386D01*
G01X293200Y77386D01*
G01X304267Y79139D01*
G01X314251Y84226D01*
G01X322174Y92149D01*
G01X327261Y102133D01*
G01X329014Y113200D01*
G01X329014Y262776D01*
G01X497494Y94295D01*
G01X507542Y86585D01*
G01X519243Y81739D01*
G01X531799Y80086D01*
G01X888998Y80086D01*
G01X901555Y81739D01*
G01X913255Y86585D01*
G01X923303Y94295D01*
G01X966767Y137759D01*
G01X1059451Y137759D01*
G01X1070518Y139512D01*
G01X1080501Y144599D01*
G01X1088425Y152522D01*
G01X1093512Y162506D01*
G01X1095265Y173573D01*
G01X1095265Y181685D01*
G01X1217486Y181685D01*
G01X1217486Y159700D01*
G01X1219238Y148633D01*
G01X1224325Y138649D01*
G01X1232249Y130726D01*
G01X1242232Y125639D01*
G01X1253300Y123886D01*
G01X1388301Y123886D01*
G01X1399368Y125639D01*
G01X1409351Y130726D01*
G01X1417275Y138649D01*
G01X1422362Y148633D01*
G01X1424115Y159700D01*
G01X1424115Y264907D01*
G01X1507502Y348295D01*
G01X1515211Y358342D01*
G01X1520058Y370043D01*
G01X1521711Y382599D01*
G01X1521711Y2120866D01*
G01X1520058Y2133423D01*
G01X1515211Y2145123D01*
G01X1507502Y2155171D01*
G01X1392435Y2270237D01*
G01X1392773Y2270235D01*
G01X1506027Y2270235D01*
G01X1517094Y2271988D01*
G01X1527078Y2277075D01*
G01X1535001Y2284999D01*
G01X1540088Y2294982D01*
G01X1541841Y2306049D01*
G01X1556959Y2306049D01*
G01X1556959Y2306049D01*
G01X1558712Y2294982D01*
G01X1563799Y2284999D01*
G01X1571722Y2277075D01*
G01X1581706Y2271988D01*
G01X1592773Y2270235D01*
G01X1706027Y2270235D01*
G01X1717094Y2271988D01*
G01X1727078Y2277075D01*
G01X1735001Y2284999D01*
G01X1740088Y2294982D01*
G01X1741841Y2306049D01*
G01X1741841Y2443751D01*
G01X1740088Y2454818D01*
G01X1735001Y2464801D01*
G01X1727078Y2472725D01*
G01X1717094Y2477812D01*
G01X1706027Y2479565D01*
G01X1592773Y2479565D01*
G01X1581706Y2477812D01*
G01X1571722Y2472725D01*
G01X1563799Y2464801D01*
G01X1558712Y2454818D01*
G01X1556959Y2443751D01*
G01X1556959Y2306049D01*
G01X1541841Y2306049D01*
G01X1541841Y2443751D01*
G01X1539847Y2455534D01*
G01X1534087Y2466006D01*
G01X1525201Y2473999D01*
G01X1514181Y2478624D01*
G01X1514181Y2728240D01*
G01X1728571Y2942630D01*
G01X1735968Y2952144D01*
G01X1740792Y2963188D01*
G01X1742745Y2975080D01*
G01X1751857Y2987679D01*
G01X1757764Y3002062D01*
G01X1763660Y2987699D01*
G01X1772752Y2975114D01*
G01X1772752Y2742745D01*
G01X1764422Y2731685D01*
G01X1758569Y2719137D01*
G01X1755450Y2705647D01*
G01X1755201Y2691803D01*
G01X1757831Y2678209D01*
G01X1763227Y2665458D01*
G01X1771153Y2654105D01*
G01X1781264Y2644645D01*
G01X1793119Y2637491D01*
G01X1806200Y2632955D01*
G01X1819939Y2631234D01*
G01X1833736Y2632404D01*
G01X1819892Y2618560D01*
G01X1812182Y2608512D01*
G01X1807335Y2596812D01*
G01X1805682Y2584255D01*
G01X1805682Y2234047D01*
G01X1791312Y2240808D01*
G01X1775746Y2243959D01*
G01X1759878Y2243319D01*
G01X1744616Y2238924D01*
G01X1730838Y2231027D01*
G01X1719332Y2220079D01*
G01X1710759Y2206710D01*
G01X1705611Y2191687D01*
G01X1704182Y2175869D01*
G01X1706555Y2160166D01*
G01X1712594Y2145478D01*
G01X1721952Y2132646D01*
G01X1721952Y2022836D01*
G01X1712594Y2010004D01*
G01X1706555Y1995316D01*
G01X1704182Y1979612D01*
G01X1705611Y1963795D01*
G01X1710759Y1948771D01*
G01X1719332Y1935403D01*
G01X1730838Y1924455D01*
G01X1744616Y1916558D01*
G01X1759878Y1912163D01*
G01X1775746Y1911523D01*
G01X1791312Y1914674D01*
G01X1805682Y1921435D01*
G01X1805682Y433399D01*
G01X1807335Y420843D01*
G01X1812182Y409142D01*
G01X1819892Y399095D01*
G01X1954086Y264901D01*
G01X1954086Y159700D01*
G01X1955838Y148633D01*
G01X1960925Y138649D01*
G01X1968849Y130726D01*
G01X1978832Y125639D01*
G01X1989900Y123886D01*
G01X2124901Y123886D01*
G01X2135968Y125639D01*
G01X2145951Y130726D01*
G01X2153875Y138649D01*
G01X2158962Y148633D01*
G01X2160715Y159700D01*
G01X2160715Y181685D01*
G01X2282935Y181685D01*
G01X2282935Y173573D01*
G01X2284688Y162506D01*
G01X2289775Y152522D01*
G01X2297699Y144599D01*
G01X2307682Y139512D01*
G01X2318749Y137759D01*
G01X2411426Y137759D01*
G01X2454890Y94295D01*
G01X2464938Y86585D01*
G01X2476639Y81739D01*
G01X2489195Y80086D01*
G01X2897204Y80086D01*
G01X2909761Y81739D01*
G01X2921461Y86585D01*
G01X2931509Y94295D01*
G01X3099986Y262772D01*
G01X3099986Y113200D01*
G01X3101739Y102133D01*
G01X3106826Y92149D01*
G01X3114749Y84226D01*
G01X3124733Y79139D01*
G01X3135800Y77386D01*
G01X3315800Y77386D01*
G01X3326867Y79139D01*
G01X3336851Y84226D01*
G01X3344774Y92149D01*
G01X3349861Y102133D01*
G01X3351614Y113200D01*
G01X3351614Y260401D01*
G01X3387108Y295895D01*
G01X3393186Y303313D01*
G01X3393186Y35814D01*
G01X35814Y35814D01*
G37*
G36*
G01X41895Y540704D02*
G01X35814Y533280D01*
G01X35814Y1344716D01*
G01X41895Y1337293D01*
G01X166612Y1212576D01*
G01X147048Y1204788D01*
G01X129058Y1193847D01*
G01X113144Y1180058D01*
G01X99752Y1163808D01*
G01X89259Y1145552D01*
G01X81956Y1125802D01*
G01X78050Y1105111D01*
G01X77650Y1084058D01*
G01X80766Y1063234D01*
G01X87312Y1043220D01*
G01X97104Y1024579D01*
G01X109867Y1007831D01*
G01X125245Y993447D01*
G01X142807Y981829D01*
G01X162060Y973303D01*
G01X182465Y968107D01*
G01X203451Y966386D01*
G01X224431Y968190D01*
G01X244815Y973468D01*
G01X264034Y982071D01*
G01X281549Y993759D01*
G01X296869Y1008205D01*
G01X309566Y1025003D01*
G01X319283Y1043684D01*
G01X557389Y1043684D01*
G01X555735Y1032927D01*
G01X555735Y940244D01*
G01X502204Y886712D01*
G01X329014Y886712D01*
G01X329014Y928200D01*
G01X327261Y939267D01*
G01X322174Y949251D01*
G01X314251Y957174D01*
G01X304267Y962261D01*
G01X293200Y964014D01*
G01X113200Y964014D01*
G01X102133Y962261D01*
G01X92149Y957174D01*
G01X84226Y949251D01*
G01X79139Y939267D01*
G01X77386Y928200D01*
G01X77386Y748200D01*
G01X79139Y737133D01*
G01X84226Y727149D01*
G01X92149Y719226D01*
G01X102133Y714139D01*
G01X113200Y712386D01*
G01X293200Y712386D01*
G01X304267Y714139D01*
G01X314251Y719226D01*
G01X322174Y727149D01*
G01X327261Y737133D01*
G01X329014Y748200D01*
G01X329014Y789684D01*
G01X522299Y789684D01*
G01X534464Y791234D01*
G01X545853Y795786D01*
G01X555735Y803047D01*
G01X555735Y719673D01*
G01X557488Y708606D01*
G01X562575Y698622D01*
G01X570499Y690699D01*
G01X580482Y685612D01*
G01X591549Y683859D01*
G01X684229Y683859D01*
G01X713484Y654604D01*
G01X713484Y522641D01*
G01X636566Y522641D01*
G01X542304Y616903D01*
G01X532256Y624613D01*
G01X520555Y629460D01*
G01X507999Y631113D01*
G01X152400Y631113D01*
G01X139843Y629460D01*
G01X128143Y624613D01*
G01X118095Y616903D01*
G01X41895Y540704D01*
G37*
G36*
G01X41895Y2530069D02*
G01X35814Y2522646D01*
G01X35814Y3378200D01*
G01X509186Y3378200D01*
G01X511098Y3356353D01*
G01X516774Y3335169D01*
G01X526042Y3315293D01*
G01X538621Y3297328D01*
G01X554128Y3281821D01*
G01X572093Y3269242D01*
G01X591969Y3259974D01*
G01X613153Y3254298D01*
G01X635000Y3252386D01*
G01X656847Y3254298D01*
G01X678031Y3259974D01*
G01X697907Y3269242D01*
G01X715872Y3281821D01*
G01X731379Y3297328D01*
G01X743958Y3315293D01*
G01X753226Y3335169D01*
G01X758902Y3356353D01*
G01X760814Y3378200D01*
G01X758902Y3400047D01*
G01X753226Y3421231D01*
G01X743958Y3441107D01*
G01X731379Y3459072D01*
G01X715872Y3474579D01*
G01X697907Y3487158D01*
G01X678031Y3496426D01*
G01X656847Y3502102D01*
G01X635000Y3504014D01*
G01X613153Y3502102D01*
G01X591969Y3496426D01*
G01X572093Y3487158D01*
G01X554128Y3474579D01*
G01X538621Y3459072D01*
G01X526042Y3441107D01*
G01X516774Y3421231D01*
G01X511098Y3400047D01*
G01X509186Y3378200D01*
G01X509186Y3378200D01*
G01X35814Y3378200D01*
G01X35814Y4334701D01*
G01X85786Y4334701D01*
G01X85786Y4199700D01*
G01X87539Y4188632D01*
G01X92626Y4178649D01*
G01X100549Y4170725D01*
G01X110533Y4165638D01*
G01X121600Y4163886D01*
G01X262600Y4163886D01*
G01X273956Y4165733D01*
G01X284139Y4171086D01*
G01X292100Y4179391D01*
G01X300061Y4171086D01*
G01X310244Y4165733D01*
G01X321600Y4163886D01*
G01X321600Y4163886D01*
G01X336076Y4163886D01*
G01X257795Y4085605D01*
G01X250086Y4075557D01*
G01X245239Y4063856D01*
G01X243586Y4051300D01*
G01X243586Y4002441D01*
G01X223249Y4002441D01*
G01X212182Y4000688D01*
G01X202199Y3995601D01*
G01X194275Y3987678D01*
G01X189188Y3977694D01*
G01X187435Y3966627D01*
G01X187435Y3853373D01*
G01X189188Y3842306D01*
G01X194275Y3832322D01*
G01X202199Y3824399D01*
G01X212182Y3819312D01*
G01X223249Y3817559D01*
G01X360951Y3817559D01*
G01X372018Y3819312D01*
G01X382001Y3824399D01*
G01X389925Y3832322D01*
G01X395012Y3842306D01*
G01X396765Y3853373D01*
G01X396765Y3966627D01*
G01X395012Y3977694D01*
G01X389925Y3987678D01*
G01X382001Y3995601D01*
G01X372018Y4000688D01*
G01X360951Y4002441D01*
G01X340614Y4002441D01*
G01X340614Y4031205D01*
G01X401095Y4091686D01*
G01X518916Y4091686D01*
G01X528667Y4072951D01*
G01X541415Y4056111D01*
G01X556801Y4041640D01*
G01X574390Y4029948D01*
G01X593688Y4021362D01*
G01X614149Y4016126D01*
G01X635199Y4014386D01*
G01X656243Y4016192D01*
G01X676688Y4021493D01*
G01X695958Y4030140D01*
G01X713510Y4041888D01*
G01X728850Y4056407D01*
G01X741545Y4073287D01*
G01X751237Y4092053D01*
G01X757653Y4112176D01*
G01X760613Y4133089D01*
G01X760032Y4154202D01*
G01X755928Y4174921D01*
G01X748416Y4194661D01*
G01X737707Y4212866D01*
G01X724104Y4229023D01*
G01X707990Y4242677D01*
G01X689819Y4253443D01*
G01X670103Y4261018D01*
G01X649397Y4265187D01*
G01X628286Y4265835D01*
G01X607364Y4262941D01*
G01X587221Y4256588D01*
G01X542305Y4301505D01*
G01X532257Y4309214D01*
G01X520556Y4314061D01*
G01X508000Y4315714D01*
G01X498414Y4315714D01*
G01X498414Y4334701D01*
G01X496661Y4345768D01*
G01X491574Y4355751D01*
G01X483651Y4363675D01*
G01X473667Y4368762D01*
G01X462600Y4370515D01*
G01X321600Y4370515D01*
G01X310244Y4368667D01*
G01X300061Y4363314D01*
G01X292100Y4355009D01*
G01X284139Y4363314D01*
G01X273956Y4368667D01*
G01X262600Y4370515D01*
G01X121600Y4370515D01*
G01X110533Y4368762D01*
G01X100549Y4363675D01*
G01X92626Y4355751D01*
G01X87539Y4345768D01*
G01X85786Y4334701D01*
G01X35814Y4334701D01*
G01X35814Y4409186D01*
G01X777240Y4409186D01*
G01X777240Y3822954D01*
G01X762000Y3822954D01*
G01X751103Y3821714D01*
G01X740764Y3818059D01*
G01X751186Y3837931D01*
G01X757913Y3859339D01*
G01X760730Y3881602D01*
G01X759547Y3904010D01*
G01X754402Y3925852D01*
G01X745459Y3946433D01*
G01X733001Y3965098D01*
G01X717427Y3981252D01*
G01X699230Y3994383D01*
G01X678990Y4004073D01*
G01X657350Y4010013D01*
G01X635000Y4012014D01*
G01X612650Y4010013D01*
G01X591010Y4004073D01*
G01X570770Y3994383D01*
G01X552573Y3981252D01*
G01X536999Y3965098D01*
G01X524541Y3946433D01*
G01X515598Y3925852D01*
G01X510453Y3904010D01*
G01X509270Y3881602D01*
G01X512087Y3859339D01*
G01X518814Y3837931D01*
G01X529236Y3818059D01*
G01X517894Y3821934D01*
G01X505948Y3822911D01*
G01X494127Y3820928D01*
G01X483153Y3816108D01*
G01X473695Y3808745D01*
G01X423389Y3758438D01*
G01X396765Y3758438D01*
G01X396765Y3766627D01*
G01X395012Y3777694D01*
G01X389925Y3787678D01*
G01X382001Y3795601D01*
G01X372018Y3800688D01*
G01X360951Y3802441D01*
G01X223249Y3802441D01*
G01X212182Y3800688D01*
G01X202199Y3795601D01*
G01X194275Y3787678D01*
G01X189188Y3777694D01*
G01X187435Y3766627D01*
G01X187435Y3653373D01*
G01X189188Y3642306D01*
G01X194275Y3632322D01*
G01X202199Y3624399D01*
G01X212182Y3619312D01*
G01X223249Y3617559D01*
G01X360951Y3617559D01*
G01X372018Y3619312D01*
G01X382001Y3624399D01*
G01X389925Y3632322D01*
G01X395012Y3642306D01*
G01X396765Y3653373D01*
G01X396765Y3661410D01*
G01X443484Y3661410D01*
G01X456040Y3663063D01*
G01X467741Y3667910D01*
G01X477789Y3675619D01*
G01X513785Y3711616D01*
G01X523240Y3710686D01*
G01X536669Y3710686D01*
G01X524647Y3692627D01*
G01X515907Y3672771D01*
G01X510708Y3651708D01*
G01X509204Y3630066D01*
G01X511441Y3608487D01*
G01X517352Y3587613D01*
G01X526760Y3568065D01*
G01X539387Y3550424D01*
G01X554857Y3535214D01*
G01X572710Y3522888D01*
G01X592415Y3513812D01*
G01X613386Y3508257D01*
G01X635000Y3506386D01*
G01X656614Y3508257D01*
G01X677585Y3513812D01*
G01X697290Y3522888D01*
G01X715143Y3535214D01*
G01X730613Y3550424D01*
G01X743240Y3568065D01*
G01X752648Y3587613D01*
G01X758559Y3608487D01*
G01X760796Y3630066D01*
G01X759292Y3651708D01*
G01X754093Y3672771D01*
G01X745353Y3692627D01*
G01X733331Y3710686D01*
G01X746760Y3710686D01*
G01X759316Y3712339D01*
G01X771017Y3717186D01*
G01X781065Y3724895D01*
G01X782095Y3725926D01*
G01X870192Y3725926D01*
G01X867318Y3715004D01*
G01X866350Y3703752D01*
G01X866350Y3566854D01*
G01X868336Y3550795D01*
G01X874175Y3535704D01*
G01X883515Y3522490D01*
G01X895793Y3511949D01*
G01X910268Y3504718D01*
G01X926070Y3501231D01*
G01X942244Y3501700D01*
G01X957818Y3506094D01*
G01X1170795Y3293117D01*
G01X1172966Y3278469D01*
G01X1178333Y3264668D01*
G01X1186628Y3252402D01*
G01X1197439Y3242283D01*
G01X1210226Y3234815D01*
G01X1224351Y3230370D01*
G01X1239110Y3229171D01*
G01X1253768Y3231277D01*
G01X1267593Y3236583D01*
G01X1279895Y3244824D01*
G01X1290062Y3255590D01*
G01X1297587Y3268344D01*
G01X1302094Y3282449D01*
G01X1303358Y3297203D01*
G01X1323194Y3277367D01*
G01X1325509Y3262186D01*
G01X1331253Y3247944D01*
G01X1340119Y3235405D01*
G01X1351632Y3225242D01*
G01X1365173Y3218000D01*
G01X1380018Y3214066D01*
G01X1395369Y3213653D01*
G01X1410403Y3216781D01*
G01X1424315Y3223284D01*
G01X1436358Y3232812D01*
G01X1445887Y3244855D01*
G01X1452389Y3258767D01*
G01X1455518Y3273802D01*
G01X1455104Y3289153D01*
G01X1451171Y3303997D01*
G01X1443928Y3317539D01*
G01X1433765Y3329051D01*
G01X1421227Y3337917D01*
G01X1406985Y3343662D01*
G01X1391804Y3345976D01*
G01X1359580Y3378200D01*
G01X2033186Y3378200D01*
G01X2035098Y3356353D01*
G01X2040774Y3335169D01*
G01X2050042Y3315293D01*
G01X2062621Y3297328D01*
G01X2078128Y3281821D01*
G01X2096093Y3269242D01*
G01X2115969Y3259974D01*
G01X2137153Y3254298D01*
G01X2159000Y3252386D01*
G01X2180847Y3254298D01*
G01X2202031Y3259974D01*
G01X2221907Y3269242D01*
G01X2239872Y3281821D01*
G01X2255379Y3297328D01*
G01X2267958Y3315293D01*
G01X2277226Y3335169D01*
G01X2282902Y3356353D01*
G01X2284814Y3378200D01*
G01X2283606Y3392000D01*
G01X3054266Y3392000D01*
G01X3054266Y3212000D01*
G01X3056019Y3200933D01*
G01X3061106Y3190949D01*
G01X3069029Y3183026D01*
G01X3079013Y3177939D01*
G01X3090080Y3176186D01*
G01X3270080Y3176186D01*
G01X3281147Y3177939D01*
G01X3291131Y3183026D01*
G01X3299054Y3190949D01*
G01X3304141Y3200933D01*
G01X3305894Y3212000D01*
G01X3305894Y3392000D01*
G01X3305894Y3392000D01*
G01X3304141Y3403067D01*
G01X3299054Y3413051D01*
G01X3291131Y3420974D01*
G01X3281147Y3426061D01*
G01X3270080Y3427814D01*
G01X3090080Y3427814D01*
G01X3079013Y3426061D01*
G01X3069029Y3420974D01*
G01X3061106Y3413051D01*
G01X3056019Y3403067D01*
G01X3054266Y3392000D01*
G01X2283606Y3392000D01*
G01X2282902Y3400047D01*
G01X2277226Y3421231D01*
G01X2267958Y3441107D01*
G01X2255379Y3459072D01*
G01X2239872Y3474579D01*
G01X2221907Y3487158D01*
G01X2202031Y3496426D01*
G01X2180847Y3502102D01*
G01X2159000Y3504014D01*
G01X2137153Y3502102D01*
G01X2115969Y3496426D01*
G01X2096093Y3487158D01*
G01X2078128Y3474579D01*
G01X2062621Y3459072D01*
G01X2050042Y3441107D01*
G01X2040774Y3421231D01*
G01X2035098Y3400047D01*
G01X2033186Y3378200D01*
G01X2033186Y3378200D01*
G01X1359580Y3378200D01*
G01X1354357Y3383422D01*
G01X1367577Y3388173D01*
G01X1379499Y3395601D01*
G01X1389589Y3405374D01*
G01X1397394Y3417053D01*
G01X1402565Y3430114D01*
G01X1404868Y3443971D01*
G01X1404200Y3458002D01*
G01X1400592Y3471578D01*
G01X1394206Y3484089D01*
G01X1385327Y3494975D01*
G01X1374355Y3503746D01*
G01X1361781Y3510009D01*
G01X1361781Y3522236D01*
G01X1370870Y3534819D01*
G01X1376764Y3549178D01*
G01X1382665Y3534807D01*
G01X1391765Y3522216D01*
G01X1403560Y3512105D01*
G01X1417393Y3505035D01*
G01X1432497Y3501399D01*
G01X1448032Y3501399D01*
G01X1463136Y3505035D01*
G01X1476969Y3512105D01*
G01X1488763Y3522216D01*
G01X1497864Y3534807D01*
G01X1503764Y3549178D01*
G01X1509665Y3534807D01*
G01X1518765Y3522216D01*
G01X1530560Y3512105D01*
G01X1544393Y3505035D01*
G01X1559497Y3501399D01*
G01X1575032Y3501399D01*
G01X1590136Y3505035D01*
G01X1603969Y3512105D01*
G01X1615763Y3522216D01*
G01X1624864Y3534807D01*
G01X1630764Y3549178D01*
G01X1636665Y3534807D01*
G01X1645765Y3522216D01*
G01X1657560Y3512105D01*
G01X1671393Y3505035D01*
G01X1686497Y3501399D01*
G01X1702032Y3501399D01*
G01X1717136Y3505035D01*
G01X1730969Y3512105D01*
G01X1742763Y3522216D01*
G01X1751864Y3534807D01*
G01X1757764Y3549178D01*
G01X1763759Y3534638D01*
G01X1773028Y3521932D01*
G01X1785044Y3511784D01*
G01X1799121Y3504770D01*
G01X1814459Y3501292D01*
G01X1830184Y3501546D01*
G01X1845402Y3505518D01*
G01X1859245Y3512983D01*
G01X1870926Y3523514D01*
G01X1879780Y3536513D01*
G01X1885302Y3551239D01*
G01X1887179Y3566854D01*
G01X1887179Y3632200D01*
G01X2033186Y3632200D01*
G01X2035098Y3610353D01*
G01X2040774Y3589169D01*
G01X2050042Y3569293D01*
G01X2062621Y3551328D01*
G01X2078128Y3535821D01*
G01X2096093Y3523242D01*
G01X2115969Y3513974D01*
G01X2137153Y3508298D01*
G01X2159000Y3506386D01*
G01X2180847Y3508298D01*
G01X2202031Y3513974D01*
G01X2221907Y3523242D01*
G01X2239872Y3535821D01*
G01X2255379Y3551328D01*
G01X2258650Y3556000D01*
G01X3054266Y3556000D01*
G01X3056178Y3534153D01*
G01X3061854Y3512969D01*
G01X3071122Y3493093D01*
G01X3083701Y3475128D01*
G01X3099208Y3459621D01*
G01X3117173Y3447042D01*
G01X3137049Y3437774D01*
G01X3158233Y3432098D01*
G01X3180080Y3430186D01*
G01X3180080Y3430186D01*
G01X3201927Y3432098D01*
G01X3223111Y3437774D01*
G01X3242987Y3447042D01*
G01X3260952Y3459621D01*
G01X3276459Y3475128D01*
G01X3289038Y3493093D01*
G01X3298306Y3512969D01*
G01X3303982Y3534153D01*
G01X3305894Y3556000D01*
G01X3303982Y3577847D01*
G01X3298306Y3599031D01*
G01X3289038Y3618907D01*
G01X3276459Y3636872D01*
G01X3260952Y3652379D01*
G01X3242987Y3664958D01*
G01X3223111Y3674226D01*
G01X3201927Y3679902D01*
G01X3180080Y3681814D01*
G01X3158233Y3679902D01*
G01X3137049Y3674226D01*
G01X3117173Y3664958D01*
G01X3099208Y3652379D01*
G01X3083701Y3636872D01*
G01X3071122Y3618907D01*
G01X3061854Y3599031D01*
G01X3056178Y3577847D01*
G01X3054266Y3556000D01*
G01X2258650Y3556000D01*
G01X2267958Y3569293D01*
G01X2277226Y3589169D01*
G01X2282902Y3610353D01*
G01X2284814Y3632200D01*
G01X2282902Y3654047D01*
G01X2277226Y3675231D01*
G01X2267958Y3695107D01*
G01X2255379Y3713072D01*
G01X2239872Y3728579D01*
G01X2221907Y3741158D01*
G01X2202031Y3750426D01*
G01X2180847Y3756102D01*
G01X2159000Y3758014D01*
G01X2137153Y3756102D01*
G01X2115969Y3750426D01*
G01X2096093Y3741158D01*
G01X2078128Y3728579D01*
G01X2062621Y3713072D01*
G01X2050042Y3695107D01*
G01X2040774Y3675231D01*
G01X2035098Y3654047D01*
G01X2033186Y3632200D01*
G01X2033186Y3632200D01*
G01X1887179Y3632200D01*
G01X1887179Y3703752D01*
G01X1885302Y3719367D01*
G01X1879780Y3734094D01*
G01X1870926Y3747092D01*
G01X1859245Y3757624D01*
G01X1845402Y3765088D01*
G01X1830184Y3769060D01*
G01X1814459Y3769314D01*
G01X1799121Y3765836D01*
G01X1785044Y3758823D01*
G01X1773028Y3748674D01*
G01X1763759Y3735968D01*
G01X1757764Y3721428D01*
G01X1751864Y3735799D01*
G01X1742763Y3748390D01*
G01X1730969Y3758501D01*
G01X1717136Y3765571D01*
G01X1702032Y3769207D01*
G01X1686497Y3769207D01*
G01X1671393Y3765571D01*
G01X1657560Y3758501D01*
G01X1645765Y3748390D01*
G01X1636665Y3735799D01*
G01X1630764Y3721428D01*
G01X1625526Y3734579D01*
G01X1617601Y3746307D01*
G01X1607354Y3756073D01*
G01X1595259Y3763426D01*
G01X1581872Y3768027D01*
G01X1567812Y3769664D01*
G01X1553727Y3768261D01*
G01X1551232Y3774440D01*
G01X2006600Y3774440D01*
G01X2011680Y3775801D01*
G01X2015399Y3779520D01*
G01X2016760Y3784600D01*
G01X2016760Y3886200D01*
G01X2033186Y3886200D01*
G01X2035098Y3864353D01*
G01X2040774Y3843169D01*
G01X2050042Y3823293D01*
G01X2062621Y3805328D01*
G01X2078128Y3789821D01*
G01X2096093Y3777242D01*
G01X2115969Y3767974D01*
G01X2137153Y3762298D01*
G01X2159000Y3760386D01*
G01X2180847Y3762298D01*
G01X2202031Y3767974D01*
G01X2221907Y3777242D01*
G01X2239872Y3789821D01*
G01X2255379Y3805328D01*
G01X2267958Y3823293D01*
G01X2277226Y3843169D01*
G01X2282902Y3864353D01*
G01X2284814Y3886200D01*
G01X2282902Y3908047D01*
G01X2277226Y3929231D01*
G01X2267958Y3949107D01*
G01X2255379Y3967072D01*
G01X2239872Y3982579D01*
G01X2221907Y3995158D01*
G01X2202031Y4004426D01*
G01X2180847Y4010102D01*
G01X2159000Y4012014D01*
G01X2137153Y4010102D01*
G01X2115969Y4004426D01*
G01X2096093Y3995158D01*
G01X2078128Y3982579D01*
G01X2062621Y3967072D01*
G01X2050042Y3949107D01*
G01X2040774Y3929231D01*
G01X2035098Y3908047D01*
G01X2033186Y3886200D01*
G01X2033186Y3886200D01*
G01X2016760Y3886200D01*
G01X2016760Y4140200D01*
G01X2033186Y4140200D01*
G01X2035098Y4118353D01*
G01X2040774Y4097169D01*
G01X2050042Y4077293D01*
G01X2062621Y4059328D01*
G01X2078128Y4043821D01*
G01X2096093Y4031242D01*
G01X2115969Y4021974D01*
G01X2137153Y4016298D01*
G01X2159000Y4014386D01*
G01X2180847Y4016298D01*
G01X2202031Y4021974D01*
G01X2221907Y4031242D01*
G01X2239872Y4043821D01*
G01X2255379Y4059328D01*
G01X2267958Y4077293D01*
G01X2277226Y4097169D01*
G01X2282902Y4118353D01*
G01X2283703Y4127501D01*
G01X2558999Y4127501D01*
G01X2560906Y4106919D01*
G01X2566563Y4087037D01*
G01X2575777Y4068533D01*
G01X2588234Y4052038D01*
G01X2603510Y4038112D01*
G01X2621084Y4027230D01*
G01X2640359Y4019763D01*
G01X2660678Y4015965D01*
G01X2681349Y4015965D01*
G01X2701667Y4019763D01*
G01X2720942Y4027230D01*
G01X2738517Y4038112D01*
G01X2753793Y4052038D01*
G01X2766249Y4068533D01*
G01X2775463Y4087037D01*
G01X2781120Y4106919D01*
G01X2783027Y4127501D01*
G01X2808986Y4127501D01*
G01X2810893Y4106919D01*
G01X2816550Y4087037D01*
G01X2825764Y4068533D01*
G01X2838221Y4052038D01*
G01X2853496Y4038112D01*
G01X2871071Y4027230D01*
G01X2890346Y4019763D01*
G01X2910665Y4015965D01*
G01X2931335Y4015965D01*
G01X2951654Y4019763D01*
G01X2970929Y4027230D01*
G01X2988504Y4038112D01*
G01X3003779Y4052038D01*
G01X3016236Y4068533D01*
G01X3025450Y4087037D01*
G01X3031107Y4106919D01*
G01X3033014Y4127501D01*
G01X3058998Y4127501D01*
G01X3060905Y4106919D01*
G01X3066562Y4087037D01*
G01X3075776Y4068533D01*
G01X3088233Y4052038D01*
G01X3103509Y4038112D01*
G01X3121083Y4027230D01*
G01X3140358Y4019763D01*
G01X3160677Y4015965D01*
G01X3181348Y4015965D01*
G01X3201666Y4019763D01*
G01X3220941Y4027230D01*
G01X3238516Y4038112D01*
G01X3253792Y4052038D01*
G01X3266248Y4068533D01*
G01X3275462Y4087037D01*
G01X3281119Y4106919D01*
G01X3283026Y4127501D01*
G01X3281119Y4148084D01*
G01X3275462Y4167965D01*
G01X3266248Y4186469D01*
G01X3253792Y4202965D01*
G01X3238516Y4216890D01*
G01X3220941Y4227772D01*
G01X3201666Y4235239D01*
G01X3181348Y4239037D01*
G01X3160677Y4239037D01*
G01X3140358Y4235239D01*
G01X3121083Y4227772D01*
G01X3103509Y4216890D01*
G01X3088233Y4202965D01*
G01X3075776Y4186469D01*
G01X3066562Y4167965D01*
G01X3060905Y4148084D01*
G01X3058998Y4127501D01*
G01X3058998Y4127501D01*
G01X3033014Y4127501D01*
G01X3031107Y4148084D01*
G01X3025450Y4167965D01*
G01X3016236Y4186469D01*
G01X3003779Y4202965D01*
G01X2988504Y4216890D01*
G01X2970929Y4227772D01*
G01X2951654Y4235239D01*
G01X2931335Y4239037D01*
G01X2910665Y4239037D01*
G01X2890346Y4235239D01*
G01X2871071Y4227772D01*
G01X2853496Y4216890D01*
G01X2838221Y4202965D01*
G01X2825764Y4186469D01*
G01X2816550Y4167965D01*
G01X2810893Y4148084D01*
G01X2808986Y4127501D01*
G01X2808986Y4127501D01*
G01X2783027Y4127501D01*
G01X2781120Y4148084D01*
G01X2775463Y4167965D01*
G01X2766249Y4186469D01*
G01X2753793Y4202965D01*
G01X2738517Y4216890D01*
G01X2720942Y4227772D01*
G01X2701667Y4235239D01*
G01X2681349Y4239037D01*
G01X2660678Y4239037D01*
G01X2640359Y4235239D01*
G01X2621084Y4227772D01*
G01X2603510Y4216890D01*
G01X2588234Y4202965D01*
G01X2575777Y4186469D01*
G01X2566563Y4167965D01*
G01X2560906Y4148084D01*
G01X2558999Y4127501D01*
G01X2558999Y4127501D01*
G01X2283703Y4127501D01*
G01X2284814Y4140200D01*
G01X2282902Y4162047D01*
G01X2277226Y4183231D01*
G01X2267958Y4203107D01*
G01X2255379Y4221072D01*
G01X2239872Y4236579D01*
G01X2221907Y4249158D01*
G01X2202031Y4258426D01*
G01X2180847Y4264102D01*
G01X2159000Y4266014D01*
G01X2137153Y4264102D01*
G01X2115969Y4258426D01*
G01X2096093Y4249158D01*
G01X2078128Y4236579D01*
G01X2062621Y4221072D01*
G01X2050042Y4203107D01*
G01X2040774Y4183231D01*
G01X2035098Y4162047D01*
G01X2033186Y4140200D01*
G01X2033186Y4140200D01*
G01X2016760Y4140200D01*
G01X2016760Y4409186D01*
G01X3393186Y4409186D01*
G01X3393186Y2262081D01*
G01X3387108Y2269500D01*
G01X3342188Y2314420D01*
G01X3348638Y2334997D01*
G01X3351479Y2356373D01*
G01X3350628Y2377921D01*
G01X3346110Y2399006D01*
G01X3338057Y2419011D01*
G01X3326707Y2437346D01*
G01X3312392Y2453474D01*
G01X3295534Y2466920D01*
G01X3276627Y2477290D01*
G01X3256227Y2484279D01*
G01X3234932Y2487682D01*
G01X3213370Y2487398D01*
G01X3192173Y2483437D01*
G01X3171964Y2475914D01*
G01X3153336Y2465050D01*
G01X3136837Y2451164D01*
G01X3122951Y2434666D01*
G01X3112087Y2416038D01*
G01X3104564Y2395829D01*
G01X3100602Y2374632D01*
G01X3100318Y2353069D01*
G01X3103720Y2331775D01*
G01X3110709Y2311375D01*
G01X3121079Y2292468D01*
G01X3134525Y2275609D01*
G01X3150653Y2261294D01*
G01X3168988Y2249944D01*
G01X3188992Y2241891D01*
G01X3210077Y2237372D01*
G01X3231625Y2236521D01*
G01X3253001Y2239362D01*
G01X3273578Y2245811D01*
G01X3285376Y2234014D01*
G01X3135800Y2234014D01*
G01X3124733Y2232261D01*
G01X3114749Y2227174D01*
G01X3106826Y2219251D01*
G01X3101739Y2209267D01*
G01X3099986Y2198200D01*
G01X3099986Y2156710D01*
G01X2803537Y2156710D01*
G01X2795355Y2159867D01*
G01X2786651Y2160941D01*
G01X2648949Y2160941D01*
G01X2637882Y2159188D01*
G01X2627899Y2154101D01*
G01X2619975Y2146178D01*
G01X2614888Y2136194D01*
G01X2613135Y2125127D01*
G01X2613135Y2011873D01*
G01X2613965Y2004210D01*
G01X2491435Y2004210D01*
G01X2492265Y2011873D01*
G01X2492265Y2125127D01*
G01X2490512Y2136194D01*
G01X2485425Y2146178D01*
G01X2477501Y2154101D01*
G01X2467518Y2159188D01*
G01X2456451Y2160941D01*
G01X2318749Y2160941D01*
G01X2307682Y2159188D01*
G01X2297699Y2154101D01*
G01X2289775Y2146178D01*
G01X2284688Y2136194D01*
G01X2282935Y2125127D01*
G01X2282935Y2011873D01*
G01X2284688Y2000806D01*
G01X2289775Y1990822D01*
G01X2297699Y1982899D01*
G01X2307682Y1977812D01*
G01X2318749Y1976059D01*
G01X2426549Y1976059D01*
G01X2411431Y1960941D01*
G01X2318749Y1960941D01*
G01X2307682Y1959188D01*
G01X2297699Y1954101D01*
G01X2289775Y1946178D01*
G01X2284688Y1936194D01*
G01X2282935Y1925127D01*
G01X2282935Y1917010D01*
G01X2204206Y1917010D01*
G01X2191296Y1926412D01*
G01X2176513Y1932455D01*
G01X2160715Y1934788D01*
G01X2160715Y1939000D01*
G01X2158867Y1950356D01*
G01X2153514Y1960539D01*
G01X2145209Y1968500D01*
G01X2153514Y1976461D01*
G01X2158867Y1986644D01*
G01X2160715Y1998000D01*
G01X2160715Y2139000D01*
G01X2158962Y2150067D01*
G01X2153875Y2160051D01*
G01X2145951Y2167974D01*
G01X2135968Y2173061D01*
G01X2124901Y2174814D01*
G01X1996780Y2174814D01*
G01X1996780Y2371217D01*
G01X2033510Y2371217D01*
G01X2033885Y2348961D01*
G01X2038176Y2327120D01*
G01X2046249Y2306377D01*
G01X2057851Y2287380D01*
G01X2072619Y2270726D01*
G01X2090091Y2256935D01*
G01X2109720Y2246439D01*
G01X2130891Y2239566D01*
G01X2152942Y2236532D01*
G01X2175183Y2237431D01*
G01X2196917Y2242236D01*
G01X2217465Y2250795D01*
G01X2236182Y2262842D01*
G01X2252484Y2277999D01*
G01X2265859Y2295791D01*
G01X2275890Y2315661D01*
G01X2286968Y2320487D01*
G01X2296510Y2327901D01*
G01X2480145Y2511535D01*
G01X2572827Y2511535D01*
G01X2583894Y2513288D01*
G01X2593878Y2518375D01*
G01X2601801Y2526299D01*
G01X2606888Y2536282D01*
G01X2608641Y2547349D01*
G01X2623759Y2547349D01*
G01X2625512Y2536282D01*
G01X2630599Y2526299D01*
G01X2638522Y2518375D01*
G01X2648506Y2513288D01*
G01X2659573Y2511535D01*
G01X2772827Y2511535D01*
G01X2783894Y2513288D01*
G01X2793878Y2518375D01*
G01X2801801Y2526299D01*
G01X2806888Y2536282D01*
G01X2808641Y2547349D01*
G01X2808641Y2685051D01*
G01X2806888Y2696118D01*
G01X2801801Y2706101D01*
G01X2793878Y2714025D01*
G01X2783894Y2719112D01*
G01X2772827Y2720865D01*
G01X2659573Y2720865D01*
G01X2648506Y2719112D01*
G01X2638522Y2714025D01*
G01X2630599Y2706101D01*
G01X2625512Y2696118D01*
G01X2623759Y2685051D01*
G01X2623759Y2547349D01*
G01X2623759Y2547349D01*
G01X2608641Y2547349D01*
G01X2608641Y2685051D01*
G01X2606888Y2696118D01*
G01X2601801Y2706101D01*
G01X2593878Y2714025D01*
G01X2583894Y2719112D01*
G01X2572827Y2720865D01*
G01X2459573Y2720865D01*
G01X2448506Y2719112D01*
G01X2438522Y2714025D01*
G01X2430599Y2706101D01*
G01X2425512Y2696118D01*
G01X2423759Y2685051D01*
G01X2423759Y2592368D01*
G01X2263562Y2432171D01*
G01X2263562Y2432171D01*
G01X2249595Y2449502D01*
G01X2232792Y2464101D01*
G01X2213679Y2475511D01*
G01X2192855Y2483373D01*
G01X2170972Y2487443D01*
G01X2148713Y2487593D01*
G01X2126777Y2483817D01*
G01X2105849Y2476235D01*
G01X2086585Y2465084D01*
G01X2069587Y2450712D01*
G01X2055388Y2433570D01*
G01X2044432Y2414194D01*
G01X2037063Y2393191D01*
G01X2033510Y2371217D01*
G01X1996780Y2371217D01*
G01X1996780Y2481860D01*
G01X2026802Y2511882D01*
G01X2041921Y2514179D01*
G01X2056111Y2519878D01*
G01X2068619Y2528677D01*
G01X2084995Y2514453D01*
G01X2103571Y2503254D01*
G01X2123794Y2495412D01*
G01X2145064Y2491160D01*
G01X2166747Y2490625D01*
G01X2188201Y2493822D01*
G01X2208787Y2500656D01*
G01X2227893Y2510925D01*
G01X2244951Y2524322D01*
G01X2259455Y2540450D01*
G01X2270972Y2558830D01*
G01X2279162Y2578915D01*
G01X2283780Y2600108D01*
G01X2284690Y2621780D01*
G01X2281864Y2643285D01*
G01X2275386Y2663986D01*
G01X2345710Y2734310D01*
G01X2353420Y2744357D01*
G01X2358266Y2756058D01*
G01X2359919Y2768614D01*
G01X2359919Y2908777D01*
G01X2374489Y2904226D01*
G01X2389704Y2902998D01*
G01X2404815Y2905153D01*
G01X2419080Y2910586D01*
G01X3053763Y2910586D01*
G01X3065636Y2891271D01*
G01X3080555Y2874201D01*
G01X3098107Y2859850D01*
G01X3117801Y2848618D01*
G01X3139089Y2840820D01*
G01X3161378Y2836671D01*
G01X3184047Y2836288D01*
G01X3206463Y2839681D01*
G01X3228003Y2846755D01*
G01X3248065Y2857314D01*
G01X3266092Y2871064D01*
G01X3281580Y2887621D01*
G01X3294098Y2906523D01*
G01X3303298Y2927244D01*
G01X3308922Y2949207D01*
G01X3310814Y2971800D01*
G01X3308922Y2994393D01*
G01X3303298Y3016356D01*
G01X3294098Y3037077D01*
G01X3281580Y3055979D01*
G01X3266092Y3072536D01*
G01X3248065Y3086286D01*
G01X3228003Y3096845D01*
G01X3206463Y3103919D01*
G01X3184047Y3107312D01*
G01X3161378Y3106929D01*
G01X3139089Y3102780D01*
G01X3117801Y3094982D01*
G01X3098107Y3083750D01*
G01X3080555Y3069399D01*
G01X3065636Y3052329D01*
G01X3053763Y3033014D01*
G01X2541800Y3033014D01*
G01X2549137Y3045019D01*
G01X2553776Y3058301D01*
G01X2555509Y3072263D01*
G01X2554258Y3086276D01*
G01X2550078Y3099710D01*
G01X2543158Y3111960D01*
G01X2533810Y3122475D01*
G01X2522454Y3130780D01*
G01X2509602Y3136503D01*
G01X2495831Y3139386D01*
G01X2481762Y3139299D01*
G01X2468028Y3136245D01*
G01X2455247Y3130364D01*
G01X2443995Y3121918D01*
G01X2387605Y3121918D01*
G01X2375049Y3120265D01*
G01X2363348Y3115418D01*
G01X2353301Y3107708D01*
G01X2277101Y3031509D01*
G01X2269391Y3021461D01*
G01X2264544Y3009760D01*
G01X2262891Y2997204D01*
G01X2262891Y2941163D01*
G01X2249433Y2957670D01*
G01X2233383Y2971671D01*
G01X2215201Y2982764D01*
G01X2195408Y2990631D01*
G01X2174573Y2995046D01*
G01X2153291Y2995884D01*
G01X2132172Y2993120D01*
G01X2111823Y2986834D01*
G01X2092825Y2977205D01*
G01X2075724Y2964509D01*
G01X2061009Y2949111D01*
G01X2049103Y2931451D01*
G01X2040346Y2912036D01*
G01X2034989Y2891422D01*
G01X2033186Y2870200D01*
G01X2034989Y2848978D01*
G01X2040346Y2828364D01*
G01X2049103Y2808949D01*
G01X2061009Y2791289D01*
G01X2075724Y2775891D01*
G01X2092825Y2763195D01*
G01X2111823Y2753566D01*
G01X2132172Y2747280D01*
G01X2153291Y2744516D01*
G01X2174573Y2745354D01*
G01X2195408Y2749769D01*
G01X2215201Y2757636D01*
G01X2233383Y2768729D01*
G01X2249433Y2782730D01*
G01X2262891Y2799237D01*
G01X2262891Y2788710D01*
G01X2206773Y2732591D01*
G01X2185875Y2739110D01*
G01X2164164Y2741908D01*
G01X2142296Y2740900D01*
G01X2120934Y2736117D01*
G01X2100725Y2727704D01*
G01X2082279Y2715915D01*
G01X2066157Y2701107D01*
G01X2052845Y2683729D01*
G01X2042747Y2664307D01*
G01X2036168Y2643428D01*
G01X2022179Y2644429D01*
G01X2022180Y2644705D01*
G01X2022180Y2650295D01*
G01X2030848Y2661923D01*
G01X2036781Y2675158D01*
G01X2039695Y2689365D01*
G01X2039451Y2703867D01*
G01X2036059Y2717968D01*
G01X2029684Y2730995D01*
G01X2020628Y2742325D01*
G01X2009326Y2751414D01*
G01X1996319Y2757830D01*
G01X1982227Y2761264D01*
G01X1967727Y2761552D01*
G01X1953510Y2758681D01*
G01X1953510Y2804846D01*
G01X1965825Y2813137D01*
G01X1975987Y2823959D01*
G01X1983486Y2836771D01*
G01X1987948Y2850930D01*
G01X1989148Y2865727D01*
G01X1987026Y2880420D01*
G01X1981688Y2894273D01*
G01X1973403Y2906591D01*
G01X1962585Y2916758D01*
G01X1949776Y2924263D01*
G01X1935619Y2928731D01*
G01X1920823Y2929937D01*
G01X1906129Y2927822D01*
G01X1892274Y2922490D01*
G01X1879952Y2914210D01*
G01X1869780Y2903397D01*
G01X1869780Y2975119D01*
G01X1879244Y2988385D01*
G01X1885164Y3003567D01*
G01X1887179Y3019738D01*
G01X1887179Y3124200D01*
G01X2033186Y3124200D01*
G01X2035098Y3102353D01*
G01X2040774Y3081169D01*
G01X2050042Y3061293D01*
G01X2062621Y3043328D01*
G01X2078128Y3027821D01*
G01X2096093Y3015242D01*
G01X2115969Y3005974D01*
G01X2137153Y3000298D01*
G01X2159000Y2998386D01*
G01X2180847Y3000298D01*
G01X2202031Y3005974D01*
G01X2221907Y3015242D01*
G01X2239872Y3027821D01*
G01X2255379Y3043328D01*
G01X2267958Y3061293D01*
G01X2277226Y3081169D01*
G01X2282902Y3102353D01*
G01X2284814Y3124200D01*
G01X2282902Y3146047D01*
G01X2277226Y3167231D01*
G01X2267958Y3187107D01*
G01X2255379Y3205072D01*
G01X2239872Y3220579D01*
G01X2221907Y3233158D01*
G01X2202031Y3242426D01*
G01X2180847Y3248102D01*
G01X2159000Y3250014D01*
G01X2137153Y3248102D01*
G01X2115969Y3242426D01*
G01X2096093Y3233158D01*
G01X2078128Y3220579D01*
G01X2062621Y3205072D01*
G01X2050042Y3187107D01*
G01X2040774Y3167231D01*
G01X2035098Y3146047D01*
G01X2033186Y3124200D01*
G01X2033186Y3124200D01*
G01X1887179Y3124200D01*
G01X1887179Y3156636D01*
G01X1885302Y3172251D01*
G01X1879780Y3186978D01*
G01X1870926Y3199976D01*
G01X1859245Y3210508D01*
G01X1845402Y3217972D01*
G01X1830184Y3221944D01*
G01X1814459Y3222198D01*
G01X1799121Y3218720D01*
G01X1785044Y3211707D01*
G01X1773028Y3201558D01*
G01X1763759Y3188852D01*
G01X1757764Y3174312D01*
G01X1751864Y3188683D01*
G01X1742763Y3201274D01*
G01X1730969Y3211385D01*
G01X1717136Y3218455D01*
G01X1702032Y3222091D01*
G01X1686497Y3222091D01*
G01X1671393Y3218455D01*
G01X1657560Y3211385D01*
G01X1645765Y3201274D01*
G01X1636665Y3188683D01*
G01X1630764Y3174312D01*
G01X1624864Y3188683D01*
G01X1615763Y3201274D01*
G01X1603969Y3211385D01*
G01X1590136Y3218455D01*
G01X1575032Y3222091D01*
G01X1559497Y3222091D01*
G01X1544393Y3218455D01*
G01X1530560Y3211385D01*
G01X1518765Y3201274D01*
G01X1509665Y3188683D01*
G01X1503764Y3174312D01*
G01X1497864Y3188683D01*
G01X1488763Y3201274D01*
G01X1476969Y3211385D01*
G01X1463136Y3218455D01*
G01X1448032Y3222091D01*
G01X1432497Y3222091D01*
G01X1417393Y3218455D01*
G01X1403560Y3211385D01*
G01X1391765Y3201274D01*
G01X1382665Y3188683D01*
G01X1376764Y3174312D01*
G01X1370864Y3188683D01*
G01X1361763Y3201274D01*
G01X1349969Y3211385D01*
G01X1336136Y3218455D01*
G01X1321032Y3222091D01*
G01X1305497Y3222091D01*
G01X1290393Y3218455D01*
G01X1276560Y3211385D01*
G01X1264765Y3201274D01*
G01X1255665Y3188683D01*
G01X1249764Y3174312D01*
G01X1243662Y3189042D01*
G01X1234202Y3201876D01*
G01X1221937Y3212063D01*
G01X1207585Y3219007D01*
G01X1191985Y3222302D01*
G01X1176050Y3221754D01*
G01X1160713Y3217397D01*
G01X1093572Y3284538D01*
G01X1083525Y3292248D01*
G01X1071824Y3297094D01*
G01X1059268Y3298747D01*
G01X936031Y3298747D01*
G01X923474Y3297094D01*
G01X911774Y3292248D01*
G01X901726Y3284538D01*
G01X759503Y3142315D01*
G01X754553Y3163395D01*
G01X746061Y3183315D01*
G01X734279Y3201483D01*
G01X719557Y3217363D01*
G01X702329Y3230482D01*
G01X683108Y3240453D01*
G01X662461Y3246980D01*
G01X641000Y3249871D01*
G01X619362Y3249038D01*
G01X598187Y3244508D01*
G01X578103Y3236413D01*
G01X559704Y3224995D01*
G01X543536Y3210591D01*
G01X530077Y3193628D01*
G01X519726Y3174608D01*
G01X512789Y3154094D01*
G01X509473Y3132696D01*
G01X509876Y3111045D01*
G01X513985Y3089785D01*
G01X521678Y3069544D01*
G01X532729Y3050921D01*
G01X546809Y3034470D01*
G01X542364Y3030538D01*
G01X41895Y2530069D01*
G37*
G36*
G01X509559Y2860515D02*
G01X512834Y2840123D01*
G01X519401Y2820542D01*
G01X529082Y2802299D01*
G01X541618Y2785886D01*
G01X556670Y2771744D01*
G01X573833Y2760256D01*
G01X592644Y2751730D01*
G01X612596Y2746397D01*
G01X633153Y2744400D01*
G01X653759Y2745792D01*
G01X673859Y2750538D01*
G01X692912Y2758507D01*
G01X710405Y2769487D01*
G01X725866Y2783180D01*
G01X725866Y2703220D01*
G01X709365Y2717683D01*
G01X690603Y2729060D01*
G01X670150Y2737004D01*
G01X648627Y2741274D01*
G01X626690Y2741739D01*
G01X605005Y2738386D01*
G01X584233Y2731317D01*
G01X565005Y2720746D01*
G01X547906Y2706996D01*
G01X533456Y2690483D01*
G01X522095Y2671712D01*
G01X514168Y2651252D01*
G01X509915Y2629726D01*
G01X509468Y2607788D01*
G01X512838Y2586107D01*
G01X519924Y2565340D01*
G01X530511Y2546121D01*
G01X544275Y2529033D01*
G01X560799Y2514596D01*
G01X579580Y2503250D01*
G01X600046Y2495339D01*
G01X621576Y2491104D01*
G01X643513Y2490675D01*
G01X665192Y2494063D01*
G01X685953Y2501166D01*
G01X705164Y2511767D01*
G01X722240Y2525546D01*
G01X736664Y2542081D01*
G01X747995Y2560871D01*
G01X755889Y2581344D01*
G01X760106Y2602877D01*
G01X760519Y2624815D01*
G01X757113Y2646491D01*
G01X749993Y2667246D01*
G01X761680Y2665286D01*
G01X902680Y2665286D01*
G01X914036Y2667133D01*
G01X924219Y2672486D01*
G01X932180Y2680791D01*
G01X940141Y2672486D01*
G01X950324Y2667133D01*
G01X961680Y2665286D01*
G01X1102680Y2665286D01*
G01X1113747Y2667038D01*
G01X1123731Y2672125D01*
G01X1131654Y2680049D01*
G01X1136741Y2690032D01*
G01X1138494Y2701100D01*
G01X1138494Y2836101D01*
G01X1136741Y2847168D01*
G01X1131654Y2857151D01*
G01X1123731Y2865075D01*
G01X1113747Y2870162D01*
G01X1102680Y2871915D01*
G01X961680Y2871915D01*
G01X950324Y2870067D01*
G01X940141Y2864714D01*
G01X932180Y2856409D01*
G01X924219Y2864714D01*
G01X914036Y2870067D01*
G01X902680Y2871915D01*
G01X888238Y2871915D01*
G01X888238Y2964805D01*
G01X891430Y2967996D01*
G01X903632Y2960367D01*
G01X917199Y2955568D01*
G01X931484Y2953828D01*
G01X945806Y2955230D01*
G01X953012Y2940573D01*
G01X963580Y2928122D01*
G01X976872Y2918631D01*
G01X992080Y2912677D01*
G01X1008282Y2910621D01*
G01X1024495Y2912586D01*
G01X1039736Y2918455D01*
G01X1053080Y2927870D01*
G01X1063719Y2940262D01*
G01X1071006Y2954878D01*
G01X1085123Y2959108D01*
G01X1097947Y2966368D01*
G01X1108838Y2976296D01*
G01X1117250Y2988396D01*
G01X1122764Y3002062D01*
G01X1128665Y2987691D01*
G01X1137765Y2975100D01*
G01X1149560Y2964989D01*
G01X1163393Y2957919D01*
G01X1178497Y2954283D01*
G01X1194032Y2954283D01*
G01X1209136Y2957919D01*
G01X1222969Y2964989D01*
G01X1234763Y2975100D01*
G01X1243864Y2987691D01*
G01X1249764Y3002062D01*
G01X1255661Y2987699D01*
G01X1264753Y2975113D01*
G01X1264753Y2931170D01*
G01X1235693Y2902109D01*
G01X1227983Y2892062D01*
G01X1223137Y2880361D01*
G01X1221483Y2867805D01*
G01X1221483Y2252901D01*
G01X1159493Y2190911D01*
G01X1151783Y2180863D01*
G01X1146937Y2169162D01*
G01X1145284Y2156606D01*
G01X1145284Y2077693D01*
G01X1135057Y2075173D01*
G01X1125615Y2070506D01*
G01X1117404Y2063911D01*
G01X1095265Y2041772D01*
G01X1095265Y2125127D01*
G01X1093512Y2136194D01*
G01X1088425Y2146178D01*
G01X1080501Y2154101D01*
G01X1070518Y2159188D01*
G01X1059451Y2160941D01*
G01X921749Y2160941D01*
G01X910682Y2159188D01*
G01X900699Y2154101D01*
G01X892775Y2146178D01*
G01X887688Y2136194D01*
G01X885935Y2125127D01*
G01X885935Y2041768D01*
G01X810512Y2117191D01*
G01X810512Y2147896D01*
G01X808859Y2160452D01*
G01X804013Y2172153D01*
G01X796303Y2182200D01*
G01X739187Y2239316D01*
G01X748022Y2244766D01*
G01X754923Y2252521D01*
G01X759309Y2261929D01*
G01X760814Y2272200D01*
G01X760814Y2443751D01*
G01X823559Y2443751D01*
G01X823559Y2306049D01*
G01X825312Y2294982D01*
G01X830399Y2284999D01*
G01X838322Y2277075D01*
G01X848306Y2271988D01*
G01X859373Y2270235D01*
G01X972627Y2270235D01*
G01X983694Y2271988D01*
G01X993678Y2277075D01*
G01X1001601Y2284999D01*
G01X1006688Y2294982D01*
G01X1008441Y2306049D01*
G01X1008441Y2326422D01*
G01X1023559Y2328162D01*
G01X1023559Y2306049D01*
G01X1025312Y2294982D01*
G01X1030399Y2284999D01*
G01X1038322Y2277075D01*
G01X1048306Y2271988D01*
G01X1059373Y2270235D01*
G01X1172627Y2270235D01*
G01X1183694Y2271988D01*
G01X1193678Y2277075D01*
G01X1201601Y2284999D01*
G01X1206688Y2294982D01*
G01X1208441Y2306049D01*
G01X1208441Y2443751D01*
G01X1206688Y2454818D01*
G01X1201601Y2464801D01*
G01X1193678Y2472725D01*
G01X1183694Y2477812D01*
G01X1172627Y2479565D01*
G01X1059373Y2479565D01*
G01X1048781Y2477962D01*
G01X1039137Y2473299D01*
G01X1031303Y2465992D01*
G01X1025980Y2456695D01*
G01X1015606Y2458664D01*
G01X1005050Y2458961D01*
G01X1005050Y2458961D01*
G01X999512Y2467411D01*
G01X991835Y2473978D01*
G01X982629Y2478140D01*
G01X972627Y2479565D01*
G01X859373Y2479565D01*
G01X848306Y2477812D01*
G01X838322Y2472725D01*
G01X830399Y2464801D01*
G01X825312Y2454818D01*
G01X823559Y2443751D01*
G01X760814Y2443751D01*
G01X760814Y2452200D01*
G01X759061Y2463267D01*
G01X753974Y2473251D01*
G01X746051Y2481174D01*
G01X736067Y2486261D01*
G01X725000Y2488014D01*
G01X545000Y2488014D01*
G01X533933Y2486261D01*
G01X523949Y2481174D01*
G01X516026Y2473251D01*
G01X510939Y2463267D01*
G01X509186Y2452200D01*
G01X509186Y2272610D01*
G01X361394Y2272610D01*
G01X319587Y2314417D01*
G01X325844Y2334137D01*
G01X328785Y2354615D01*
G01X328330Y2375299D01*
G01X324492Y2395629D01*
G01X317373Y2415054D01*
G01X307168Y2433051D01*
G01X294151Y2449131D01*
G01X278675Y2462861D01*
G01X261158Y2473869D01*
G01X242074Y2481858D01*
G01X221938Y2486611D01*
G01X201296Y2487999D01*
G01X180706Y2485987D01*
G01X160723Y2480627D01*
G01X141890Y2472064D01*
G01X124714Y2460531D01*
G01X124714Y2475669D01*
G01X509559Y2860515D01*
G37*
G36*
G01X124714Y1874291D02*
G01X124714Y1982386D01*
G01X293200Y1982386D01*
G01X304267Y1984139D01*
G01X314251Y1989226D01*
G01X322174Y1997149D01*
G01X327261Y2007133D01*
G01X329014Y2018200D01*
G01X329014Y2059682D01*
G01X555735Y2059682D01*
G01X555735Y2011873D01*
G01X557488Y2000806D01*
G01X562575Y1990822D01*
G01X570499Y1982899D01*
G01X580482Y1977812D01*
G01X591549Y1976059D01*
G01X597253Y1976059D01*
G01X594284Y1960941D01*
G01X591549Y1960941D01*
G01X580482Y1959188D01*
G01X570499Y1954101D01*
G01X562575Y1946178D01*
G01X557488Y1936194D01*
G01X555735Y1925127D01*
G01X555735Y1811873D01*
G01X557488Y1800806D01*
G01X562575Y1790822D01*
G01X570499Y1782899D01*
G01X580482Y1777812D01*
G01X591549Y1776059D01*
G01X611885Y1776059D01*
G01X611885Y1701807D01*
G01X613538Y1689250D01*
G01X618384Y1677550D01*
G01X626094Y1667502D01*
G01X678756Y1614841D01*
G01X591549Y1614841D01*
G01X580482Y1613088D01*
G01X570499Y1608001D01*
G01X562575Y1600078D01*
G01X557488Y1590094D01*
G01X555735Y1579027D01*
G01X555735Y1521711D01*
G01X329014Y1521711D01*
G01X329014Y1563200D01*
G01X327261Y1574267D01*
G01X322174Y1584251D01*
G01X314251Y1592174D01*
G01X304267Y1597261D01*
G01X293200Y1599014D01*
G01X143626Y1599014D01*
G01X155423Y1610811D01*
G01X176812Y1604185D01*
G01X199037Y1601455D01*
G01X221394Y1602709D01*
G01X243174Y1607906D01*
G01X263689Y1616881D01*
G01X282287Y1629351D01*
G01X298380Y1644921D01*
G01X311458Y1663097D01*
G01X321107Y1683303D01*
G01X327022Y1704900D01*
G01X329014Y1727203D01*
G01X327021Y1749506D01*
G01X321105Y1771102D01*
G01X311456Y1791308D01*
G01X298376Y1809483D01*
G01X282283Y1825052D01*
G01X263684Y1837521D01*
G01X243169Y1846496D01*
G01X221388Y1851692D01*
G01X199032Y1852945D01*
G01X176807Y1850214D01*
G01X155418Y1843587D01*
G01X124714Y1874291D01*
G37*
G36*
G01X888998Y1172284D02*
G01X901555Y1173937D01*
G01X913255Y1178783D01*
G01X923303Y1186493D01*
G01X966769Y1229959D01*
G01X1059451Y1229959D01*
G01X1070518Y1231712D01*
G01X1080501Y1236799D01*
G01X1088425Y1244722D01*
G01X1093512Y1254706D01*
G01X1095265Y1265773D01*
G01X1095265Y1273883D01*
G01X1217486Y1273883D01*
G01X1217486Y1251900D01*
G01X1219238Y1240833D01*
G01X1224325Y1230849D01*
G01X1232249Y1222926D01*
G01X1242232Y1217839D01*
G01X1253300Y1216086D01*
G01X1388301Y1216086D01*
G01X1399368Y1217839D01*
G01X1409351Y1222926D01*
G01X1417275Y1230849D01*
G01X1422362Y1240833D01*
G01X1424115Y1251900D01*
G01X1424115Y1392900D01*
G01X1422267Y1404256D01*
G01X1416914Y1414439D01*
G01X1408609Y1422400D01*
G01X1416914Y1430361D01*
G01X1422267Y1440544D01*
G01X1424115Y1451900D01*
G01X1424115Y1592900D01*
G01X1422362Y1603967D01*
G01X1417275Y1613951D01*
G01X1409351Y1621874D01*
G01X1399368Y1626961D01*
G01X1388301Y1628714D01*
G01X1253300Y1628714D01*
G01X1242232Y1626961D01*
G01X1232249Y1621874D01*
G01X1224325Y1613951D01*
G01X1219238Y1603967D01*
G01X1217486Y1592900D01*
G01X1217486Y1451900D01*
G01X1219333Y1440544D01*
G01X1224686Y1430361D01*
G01X1232991Y1422400D01*
G01X1224686Y1414439D01*
G01X1219333Y1404256D01*
G01X1217486Y1392900D01*
G01X1217486Y1370911D01*
G01X1095265Y1370911D01*
G01X1095265Y1379027D01*
G01X1093512Y1390094D01*
G01X1088425Y1400078D01*
G01X1080501Y1408001D01*
G01X1070518Y1413088D01*
G01X1059451Y1414841D01*
G01X921749Y1414841D01*
G01X910682Y1413088D01*
G01X900699Y1408001D01*
G01X892775Y1400078D01*
G01X887688Y1390094D01*
G01X885935Y1379027D01*
G01X885935Y1286344D01*
G01X868903Y1269312D01*
G01X765065Y1269312D01*
G01X765065Y1358454D01*
G01X796303Y1389693D01*
G01X804013Y1399740D01*
G01X808859Y1411441D01*
G01X810512Y1423997D01*
G01X810512Y1579027D01*
G01X885935Y1579027D01*
G01X885935Y1465773D01*
G01X887688Y1454706D01*
G01X892775Y1444722D01*
G01X900699Y1436799D01*
G01X910682Y1431712D01*
G01X921749Y1429959D01*
G01X1059451Y1429959D01*
G01X1059451Y1429959D01*
G01X1070518Y1431712D01*
G01X1080501Y1436799D01*
G01X1088425Y1444722D01*
G01X1093512Y1454706D01*
G01X1095265Y1465773D01*
G01X1095265Y1579027D01*
G01X1093512Y1590094D01*
G01X1088425Y1600078D01*
G01X1080501Y1608001D01*
G01X1070518Y1613088D01*
G01X1059451Y1614841D01*
G01X921749Y1614841D01*
G01X910682Y1613088D01*
G01X900699Y1608001D01*
G01X892775Y1600078D01*
G01X887688Y1590094D01*
G01X885935Y1579027D01*
G01X810512Y1579027D01*
G01X810512Y1600207D01*
G01X808859Y1612763D01*
G01X804013Y1624464D01*
G01X796303Y1634511D01*
G01X708913Y1721902D01*
G01X708913Y1776059D01*
G01X729251Y1776059D01*
G01X740318Y1777812D01*
G01X750301Y1782899D01*
G01X758225Y1790822D01*
G01X763312Y1800806D01*
G01X765065Y1811873D01*
G01X765065Y1925127D01*
G01X763312Y1936194D01*
G01X758225Y1946178D01*
G01X750301Y1954101D01*
G01X740318Y1959188D01*
G01X729251Y1960941D01*
G01X726514Y1960941D01*
G01X723544Y1976059D01*
G01X729251Y1976059D01*
G01X740318Y1977812D01*
G01X750301Y1982899D01*
G01X758225Y1990822D01*
G01X763312Y2000806D01*
G01X765065Y2011873D01*
G01X765065Y2025421D01*
G01X885935Y1904550D01*
G01X885935Y1811873D01*
G01X887688Y1800806D01*
G01X892775Y1790822D01*
G01X900699Y1782899D01*
G01X910682Y1777812D01*
G01X921749Y1776059D01*
G01X1059451Y1776059D01*
G01X1070518Y1777812D01*
G01X1080501Y1782899D01*
G01X1088425Y1790822D01*
G01X1093512Y1800806D01*
G01X1095265Y1811873D01*
G01X1095265Y1904554D01*
G01X1155908Y1965197D01*
G01X1159493Y1961191D01*
G01X1217486Y1903199D01*
G01X1217486Y1798000D01*
G01X1219238Y1786933D01*
G01X1224325Y1776949D01*
G01X1232249Y1769026D01*
G01X1242232Y1763939D01*
G01X1253300Y1762186D01*
G01X1388301Y1762186D01*
G01X1399368Y1763939D01*
G01X1409351Y1769026D01*
G01X1417275Y1776949D01*
G01X1422362Y1786933D01*
G01X1424115Y1798000D01*
G01X1424115Y1939000D01*
G01X1422267Y1950356D01*
G01X1416914Y1960539D01*
G01X1408609Y1968500D01*
G01X1416914Y1976461D01*
G01X1422267Y1986644D01*
G01X1424115Y1998000D01*
G01X1424115Y2101340D01*
G01X1424683Y2100771D01*
G01X1424683Y402694D01*
G01X1424115Y402126D01*
G01X1424115Y500700D01*
G01X1422362Y511767D01*
G01X1417275Y521751D01*
G01X1409351Y529674D01*
G01X1399368Y534761D01*
G01X1388301Y536514D01*
G01X1253300Y536514D01*
G01X1242232Y534761D01*
G01X1232249Y529674D01*
G01X1224325Y521751D01*
G01X1219238Y511767D01*
G01X1217486Y500700D01*
G01X1217486Y359700D01*
G01X1219333Y348344D01*
G01X1224686Y338161D01*
G01X1232991Y330200D01*
G01X1224686Y322239D01*
G01X1219333Y312056D01*
G01X1217486Y300700D01*
G01X1217486Y278713D01*
G01X1095265Y278713D01*
G01X1095265Y286827D01*
G01X1093512Y297894D01*
G01X1088425Y307878D01*
G01X1080501Y315801D01*
G01X1070518Y320888D01*
G01X1059451Y322641D01*
G01X921749Y322641D01*
G01X910682Y320888D01*
G01X900699Y315801D01*
G01X892775Y307878D01*
G01X887688Y297894D01*
G01X885935Y286827D01*
G01X885935Y194146D01*
G01X868903Y177114D01*
G01X765065Y177114D01*
G01X765065Y266256D01*
G01X796303Y297495D01*
G01X804013Y307542D01*
G01X808859Y319243D01*
G01X810512Y331799D01*
G01X810512Y486827D01*
G01X885935Y486827D01*
G01X885935Y373573D01*
G01X887688Y362506D01*
G01X892775Y352522D01*
G01X900699Y344599D01*
G01X910682Y339512D01*
G01X921749Y337759D01*
G01X1059451Y337759D01*
G01X1059451Y337759D01*
G01X1070518Y339512D01*
G01X1080501Y344599D01*
G01X1088425Y352522D01*
G01X1093512Y362506D01*
G01X1095265Y373573D01*
G01X1095265Y486827D01*
G01X1093512Y497894D01*
G01X1088425Y507878D01*
G01X1080501Y515801D01*
G01X1070518Y520888D01*
G01X1059451Y522641D01*
G01X921749Y522641D01*
G01X910682Y520888D01*
G01X900699Y515801D01*
G01X892775Y507878D01*
G01X887688Y497894D01*
G01X885935Y486827D01*
G01X810512Y486827D01*
G01X810512Y674699D01*
G01X808859Y687255D01*
G01X804013Y698956D01*
G01X796303Y709003D01*
G01X765065Y740242D01*
G01X765065Y832927D01*
G01X763312Y843994D01*
G01X758225Y853978D01*
G01X750301Y861901D01*
G01X740318Y866988D01*
G01X729251Y868741D01*
G01X726514Y868741D01*
G01X723545Y883859D01*
G01X729251Y883859D01*
G01X740318Y885612D01*
G01X750301Y890699D01*
G01X758225Y898622D01*
G01X763312Y908606D01*
G01X765065Y919673D01*
G01X765065Y969723D01*
G01X840484Y894303D01*
G01X840484Y888998D01*
G01X842137Y876442D01*
G01X846984Y864741D01*
G01X854694Y854694D01*
G01X885935Y823452D01*
G01X885935Y719673D01*
G01X887688Y708606D01*
G01X892775Y698622D01*
G01X900699Y690699D01*
G01X910682Y685612D01*
G01X921749Y683859D01*
G01X1059451Y683859D01*
G01X1070518Y685612D01*
G01X1080501Y690699D01*
G01X1088425Y698622D01*
G01X1093512Y708606D01*
G01X1095265Y719673D01*
G01X1095265Y738884D01*
G01X1217486Y738884D01*
G01X1217486Y705800D01*
G01X1219238Y694733D01*
G01X1224325Y684749D01*
G01X1232249Y676826D01*
G01X1242232Y671739D01*
G01X1253300Y669986D01*
G01X1388301Y669986D01*
G01X1399368Y671739D01*
G01X1409351Y676826D01*
G01X1417275Y684749D01*
G01X1422362Y694733D01*
G01X1424115Y705800D01*
G01X1424115Y846800D01*
G01X1422267Y858156D01*
G01X1416914Y868339D01*
G01X1408609Y876300D01*
G01X1416914Y884261D01*
G01X1422267Y894444D01*
G01X1424115Y905800D01*
G01X1424115Y1046800D01*
G01X1422362Y1057867D01*
G01X1417275Y1067851D01*
G01X1409351Y1075774D01*
G01X1399368Y1080861D01*
G01X1388301Y1082614D01*
G01X1253300Y1082614D01*
G01X1242232Y1080861D01*
G01X1232249Y1075774D01*
G01X1224325Y1067851D01*
G01X1219238Y1057867D01*
G01X1217486Y1046800D01*
G01X1217486Y905800D01*
G01X1219333Y894444D01*
G01X1224686Y884261D01*
G01X1232991Y876300D01*
G01X1224686Y868339D01*
G01X1219333Y858156D01*
G01X1217486Y846800D01*
G01X1217486Y835912D01*
G01X1095140Y835912D01*
G01X1092697Y846242D01*
G01X1087335Y855402D01*
G01X1079523Y862588D01*
G01X1069948Y867168D01*
G01X1059451Y868741D01*
G01X977865Y868741D01*
G01X962747Y883859D01*
G01X1059451Y883859D01*
G01X1070518Y885612D01*
G01X1080501Y890699D01*
G01X1088425Y898622D01*
G01X1093512Y908606D01*
G01X1095265Y919673D01*
G01X1095265Y1032927D01*
G01X1093512Y1043994D01*
G01X1088425Y1053978D01*
G01X1080501Y1061901D01*
G01X1070518Y1066988D01*
G01X1059451Y1068741D01*
G01X921749Y1068741D01*
G01X910682Y1066988D01*
G01X900699Y1061901D01*
G01X892775Y1053978D01*
G01X887688Y1043994D01*
G01X885935Y1032927D01*
G01X885935Y986070D01*
G01X745503Y1126502D01*
G01X735455Y1134212D01*
G01X723755Y1139059D01*
G01X711198Y1140712D01*
G01X319285Y1140712D01*
G01X310923Y1157199D01*
G01X300235Y1172284D01*
G01X888998Y1172284D01*
G37*
G36*
G01X1029552Y1976059D02*
G01X1014434Y1960941D01*
G01X966762Y1960941D01*
G01X951644Y1976059D01*
G01X1029552Y1976059D01*
G37*
G36*
G01X1313704Y2211750D02*
G01X1350640Y2174814D01*
G01X1280615Y2174814D01*
G01X1304302Y2198501D01*
G01X1309562Y2204729D01*
G01X1313704Y2211750D01*
G37*
G36*
G01X1902710Y1224654D02*
G01X1946891Y1180473D01*
G01X1956939Y1172763D01*
G01X1968640Y1167917D01*
G01X1981196Y1166264D01*
G01X2291300Y1166264D01*
G01X2388823Y1068741D01*
G01X2318749Y1068741D01*
G01X2307682Y1066988D01*
G01X2297699Y1061901D01*
G01X2289775Y1053978D01*
G01X2284688Y1043994D01*
G01X2282935Y1032927D01*
G01X2282935Y919673D01*
G01X2284688Y908606D01*
G01X2289775Y898622D01*
G01X2297699Y890699D01*
G01X2307682Y885612D01*
G01X2318749Y883859D01*
G01X2394467Y883859D01*
G01X2379349Y868741D01*
G01X2318749Y868741D01*
G01X2307682Y866988D01*
G01X2297699Y861901D01*
G01X2289775Y853978D01*
G01X2284688Y843994D01*
G01X2282935Y832927D01*
G01X2282935Y831492D01*
G01X2160715Y831492D01*
G01X2160715Y846800D01*
G01X2158867Y858156D01*
G01X2153514Y868339D01*
G01X2145209Y876300D01*
G01X2153514Y884261D01*
G01X2158867Y894444D01*
G01X2160715Y905800D01*
G01X2160715Y1046800D01*
G01X2158962Y1057867D01*
G01X2153875Y1067851D01*
G01X2145951Y1075774D01*
G01X2135968Y1080861D01*
G01X2124901Y1082614D01*
G01X1989900Y1082614D01*
G01X1978832Y1080861D01*
G01X1968849Y1075774D01*
G01X1960925Y1067851D01*
G01X1955838Y1057867D01*
G01X1954086Y1046800D01*
G01X1954086Y905800D01*
G01X1955933Y894444D01*
G01X1961286Y884261D01*
G01X1969591Y876300D01*
G01X1961286Y868339D01*
G01X1955933Y858156D01*
G01X1954086Y846800D01*
G01X1954086Y705800D01*
G01X1955838Y694733D01*
G01X1960925Y684749D01*
G01X1968849Y676826D01*
G01X1978832Y671739D01*
G01X1989900Y669986D01*
G01X2124901Y669986D01*
G01X2135968Y671739D01*
G01X2145951Y676826D01*
G01X2153875Y684749D01*
G01X2158962Y694733D01*
G01X2160715Y705800D01*
G01X2160715Y734464D01*
G01X2282935Y734464D01*
G01X2282935Y719673D01*
G01X2284688Y708606D01*
G01X2289775Y698622D01*
G01X2297699Y690699D01*
G01X2307682Y685612D01*
G01X2318749Y683859D01*
G01X2456451Y683859D01*
G01X2467518Y685612D01*
G01X2477501Y690699D01*
G01X2485425Y698622D01*
G01X2490512Y708606D01*
G01X2492265Y719673D01*
G01X2492265Y832927D01*
G01X2490820Y842994D01*
G01X2523499Y875674D01*
G01X2531209Y885721D01*
G01X2536056Y897422D01*
G01X2537709Y909978D01*
G01X2537709Y1013864D01*
G01X2539995Y1013864D01*
G01X2553576Y1015804D01*
G01X2566071Y1021467D01*
G01X2567691Y1021504D01*
G01X2567691Y877898D01*
G01X2569344Y865342D01*
G01X2574190Y853641D01*
G01X2581900Y843594D01*
G01X2613135Y812358D01*
G01X2613135Y740238D01*
G01X2581900Y709003D01*
G01X2574190Y698956D01*
G01X2569344Y687255D01*
G01X2567691Y674699D01*
G01X2567691Y331799D01*
G01X2569344Y319243D01*
G01X2574190Y307542D01*
G01X2581900Y297495D01*
G01X2613135Y266260D01*
G01X2613135Y177114D01*
G01X2509290Y177114D01*
G01X2492265Y194139D01*
G01X2492265Y286827D01*
G01X2490512Y297894D01*
G01X2485425Y307878D01*
G01X2477501Y315801D01*
G01X2467518Y320888D01*
G01X2456451Y322641D01*
G01X2318749Y322641D01*
G01X2307682Y320888D01*
G01X2297699Y315801D01*
G01X2289775Y307878D01*
G01X2284688Y297894D01*
G01X2282935Y286827D01*
G01X2282935Y278713D01*
G01X2160715Y278713D01*
G01X2160715Y300700D01*
G01X2158867Y312056D01*
G01X2153514Y322239D01*
G01X2145209Y330200D01*
G01X2153514Y338161D01*
G01X2158867Y348344D01*
G01X2160715Y359700D01*
G01X2160715Y486827D01*
G01X2282935Y486827D01*
G01X2282935Y373573D01*
G01X2284688Y362506D01*
G01X2289775Y352522D01*
G01X2297699Y344599D01*
G01X2307682Y339512D01*
G01X2318749Y337759D01*
G01X2456451Y337759D01*
G01X2456451Y337759D01*
G01X2467518Y339512D01*
G01X2477501Y344599D01*
G01X2485425Y352522D01*
G01X2490512Y362506D01*
G01X2492265Y373573D01*
G01X2492265Y486827D01*
G01X2490512Y497894D01*
G01X2485425Y507878D01*
G01X2477501Y515801D01*
G01X2467518Y520888D01*
G01X2456451Y522641D01*
G01X2318749Y522641D01*
G01X2307682Y520888D01*
G01X2297699Y515801D01*
G01X2289775Y507878D01*
G01X2284688Y497894D01*
G01X2282935Y486827D01*
G01X2160715Y486827D01*
G01X2160715Y500700D01*
G01X2158962Y511767D01*
G01X2153875Y521751D01*
G01X2145951Y529674D01*
G01X2135968Y534761D01*
G01X2124901Y536514D01*
G01X1989900Y536514D01*
G01X1978832Y534761D01*
G01X1968849Y529674D01*
G01X1960925Y521751D01*
G01X1955838Y511767D01*
G01X1954086Y500700D01*
G01X1954086Y402119D01*
G01X1902710Y453494D01*
G01X1902710Y1224654D01*
G37*
G36*
G01X2613675Y1805682D02*
G01X2616750Y1796194D01*
G01X2622323Y1787922D01*
G01X2629961Y1781507D01*
G01X2639072Y1777448D01*
G01X2648949Y1776059D01*
G01X2669291Y1776059D01*
G01X2669291Y1710792D01*
G01X2581900Y1623401D01*
G01X2574190Y1613354D01*
G01X2569344Y1601653D01*
G01X2567691Y1589097D01*
G01X2567691Y1538680D01*
G01X2552127Y1543621D01*
G01X2535828Y1544610D01*
G01X2519782Y1541585D01*
G01X2504961Y1534731D01*
G01X2492265Y1524463D01*
G01X2492265Y1579027D01*
G01X2490512Y1590094D01*
G01X2485425Y1600078D01*
G01X2477501Y1608001D01*
G01X2467518Y1613088D01*
G01X2456451Y1614841D01*
G01X2318749Y1614841D01*
G01X2307682Y1613088D01*
G01X2297699Y1608001D01*
G01X2289775Y1600078D01*
G01X2284688Y1590094D01*
G01X2282935Y1579027D01*
G01X2282935Y1465773D01*
G01X2284688Y1454706D01*
G01X2289775Y1444722D01*
G01X2297699Y1436799D01*
G01X2307682Y1431712D01*
G01X2318749Y1429959D01*
G01X2422918Y1429959D01*
G01X2407800Y1414841D01*
G01X2318749Y1414841D01*
G01X2307682Y1413088D01*
G01X2297699Y1408001D01*
G01X2289775Y1400078D01*
G01X2284688Y1390094D01*
G01X2282935Y1379027D01*
G01X2282935Y1374541D01*
G01X2160715Y1374541D01*
G01X2160715Y1392900D01*
G01X2158867Y1404256D01*
G01X2153514Y1414439D01*
G01X2145209Y1422400D01*
G01X2153514Y1430361D01*
G01X2158867Y1440544D01*
G01X2160715Y1451900D01*
G01X2160715Y1592900D01*
G01X2158962Y1603967D01*
G01X2153875Y1613951D01*
G01X2145951Y1621874D01*
G01X2135968Y1626961D01*
G01X2124901Y1628714D01*
G01X1996780Y1628714D01*
G01X1996780Y1762186D01*
G01X2124901Y1762186D01*
G01X2135968Y1763939D01*
G01X2145951Y1769026D01*
G01X2153875Y1776949D01*
G01X2158962Y1786933D01*
G01X2160715Y1798000D01*
G01X2160715Y1802204D01*
G01X2176513Y1804538D01*
G01X2191296Y1810580D01*
G01X2204206Y1819982D01*
G01X2282935Y1819982D01*
G01X2282935Y1811873D01*
G01X2284688Y1800806D01*
G01X2289775Y1790822D01*
G01X2297699Y1782899D01*
G01X2307682Y1777812D01*
G01X2318749Y1776059D01*
G01X2456451Y1776059D01*
G01X2466843Y1777600D01*
G01X2476341Y1782090D01*
G01X2484127Y1789143D01*
G01X2489532Y1798152D01*
G01X2492090Y1808342D01*
G01X2503389Y1798901D01*
G01X2516492Y1792187D01*
G01X2530755Y1788529D01*
G01X2545472Y1788109D01*
G01X2559920Y1790946D01*
G01X2573385Y1796902D01*
G01X2585205Y1805682D01*
G01X2613675Y1805682D01*
G37*
G36*
G01X3387108Y1972291D02*
G01X3393186Y1979710D01*
G01X3393186Y533285D01*
G01X3387108Y540704D01*
G01X3310908Y616903D01*
G01X3300861Y624613D01*
G01X3289160Y629460D01*
G01X3276604Y631113D01*
G01X2870204Y631113D01*
G01X2857648Y629460D01*
G01X2845947Y624613D01*
G01X2835900Y616903D01*
G01X2741637Y522641D01*
G01X2664719Y522641D01*
G01X2664719Y654604D01*
G01X2693975Y683859D01*
G01X2786651Y683859D01*
G01X2797718Y685612D01*
G01X2807701Y690699D01*
G01X2815625Y698622D01*
G01X2820712Y708606D01*
G01X2822465Y719673D01*
G01X2822465Y803050D01*
G01X2832348Y795787D01*
G01X2843737Y791235D01*
G01X2855904Y789684D01*
G01X3099986Y789684D01*
G01X3099986Y748200D01*
G01X3101739Y737133D01*
G01X3106826Y727149D01*
G01X3114749Y719226D01*
G01X3124733Y714139D01*
G01X3135800Y712386D01*
G01X3315800Y712386D01*
G01X3326867Y714139D01*
G01X3336851Y719226D01*
G01X3344774Y727149D01*
G01X3349861Y737133D01*
G01X3351614Y748200D01*
G01X3351614Y928200D01*
G01X3349861Y939267D01*
G01X3344774Y949251D01*
G01X3336851Y957174D01*
G01X3326867Y962261D01*
G01X3315800Y964014D01*
G01X3135800Y964014D01*
G01X3124733Y962261D01*
G01X3114749Y957174D01*
G01X3106826Y949251D01*
G01X3101739Y939267D01*
G01X3099986Y928200D01*
G01X3099986Y886712D01*
G01X2876000Y886712D01*
G01X2822465Y940247D01*
G01X2822465Y1032927D01*
G01X2820712Y1043994D01*
G01X2815625Y1053978D01*
G01X2807701Y1061901D01*
G01X2797718Y1066988D01*
G01X2786651Y1068741D01*
G01X2710557Y1068741D01*
G01X2734016Y1092200D01*
G01X3099986Y1092200D01*
G01X3101898Y1070353D01*
G01X3107574Y1049169D01*
G01X3116842Y1029293D01*
G01X3129421Y1011328D01*
G01X3144928Y995821D01*
G01X3162893Y983242D01*
G01X3182769Y973974D01*
G01X3203953Y968298D01*
G01X3225800Y966386D01*
G01X3225800Y966386D01*
G01X3247647Y968298D01*
G01X3268831Y973974D01*
G01X3288707Y983242D01*
G01X3306672Y995821D01*
G01X3322179Y1011328D01*
G01X3334758Y1029293D01*
G01X3344026Y1049169D01*
G01X3349702Y1070353D01*
G01X3351614Y1092200D01*
G01X3349702Y1114047D01*
G01X3344026Y1135231D01*
G01X3334758Y1155107D01*
G01X3322179Y1173072D01*
G01X3306672Y1188579D01*
G01X3288707Y1201158D01*
G01X3268831Y1210426D01*
G01X3247647Y1216102D01*
G01X3225800Y1218014D01*
G01X3203953Y1216102D01*
G01X3182769Y1210426D01*
G01X3162893Y1201158D01*
G01X3144928Y1188579D01*
G01X3129421Y1173072D01*
G01X3116842Y1155107D01*
G01X3107574Y1135231D01*
G01X3101898Y1114047D01*
G01X3099986Y1092200D01*
G01X2734016Y1092200D01*
G01X2752109Y1110293D01*
G01X2759819Y1120341D01*
G01X2764665Y1132041D01*
G01X2766319Y1144598D01*
G01X2766319Y1229959D01*
G01X2786651Y1229959D01*
G01X2797718Y1231712D01*
G01X2807701Y1236799D01*
G01X2815625Y1244722D01*
G01X2820712Y1254706D01*
G01X2822465Y1265773D01*
G01X2822465Y1379027D01*
G01X2820712Y1390094D01*
G01X2815625Y1400078D01*
G01X2807701Y1408001D01*
G01X2797718Y1413088D01*
G01X2786651Y1414841D01*
G01X2693970Y1414841D01*
G01X2678852Y1429959D01*
G01X2745002Y1429959D01*
G01X2755691Y1426020D01*
G01X2767004Y1424683D01*
G01X3099986Y1424683D01*
G01X3099986Y1383200D01*
G01X3101739Y1372133D01*
G01X3106826Y1362149D01*
G01X3114749Y1354226D01*
G01X3124733Y1349139D01*
G01X3135800Y1347386D01*
G01X3315800Y1347386D01*
G01X3326867Y1349139D01*
G01X3336851Y1354226D01*
G01X3344774Y1362149D01*
G01X3349861Y1372133D01*
G01X3351614Y1383200D01*
G01X3351614Y1563200D01*
G01X3349861Y1574267D01*
G01X3344774Y1584251D01*
G01X3336851Y1592174D01*
G01X3326867Y1597261D01*
G01X3315800Y1599014D01*
G01X3135800Y1599014D01*
G01X3124733Y1597261D01*
G01X3114749Y1592174D01*
G01X3106826Y1584251D01*
G01X3101739Y1574267D01*
G01X3099986Y1563200D01*
G01X3099986Y1521711D01*
G01X2822465Y1521711D01*
G01X2822465Y1579027D01*
G01X2820712Y1590094D01*
G01X2815625Y1600078D01*
G01X2807701Y1608001D01*
G01X2797718Y1613088D01*
G01X2786651Y1614841D01*
G01X2710558Y1614841D01*
G01X2752109Y1656392D01*
G01X2759819Y1666440D01*
G01X2764665Y1678140D01*
G01X2766319Y1690697D01*
G01X2766319Y1727200D01*
G01X3099986Y1727200D01*
G01X3101898Y1705353D01*
G01X3107574Y1684169D01*
G01X3116842Y1664293D01*
G01X3129421Y1646328D01*
G01X3144928Y1630821D01*
G01X3162893Y1618242D01*
G01X3182769Y1608974D01*
G01X3203953Y1603298D01*
G01X3225800Y1601386D01*
G01X3225800Y1601386D01*
G01X3247647Y1603298D01*
G01X3268831Y1608974D01*
G01X3288707Y1618242D01*
G01X3306672Y1630821D01*
G01X3322179Y1646328D01*
G01X3334758Y1664293D01*
G01X3344026Y1684169D01*
G01X3349702Y1705353D01*
G01X3351614Y1727200D01*
G01X3349702Y1749047D01*
G01X3344026Y1770231D01*
G01X3334758Y1790107D01*
G01X3322179Y1808072D01*
G01X3306672Y1823579D01*
G01X3288707Y1836158D01*
G01X3268831Y1845426D01*
G01X3247647Y1851102D01*
G01X3225800Y1853014D01*
G01X3203953Y1851102D01*
G01X3182769Y1845426D01*
G01X3162893Y1836158D01*
G01X3144928Y1823579D01*
G01X3129421Y1808072D01*
G01X3116842Y1790107D01*
G01X3107574Y1770231D01*
G01X3101898Y1749047D01*
G01X3099986Y1727200D01*
G01X2766319Y1727200D01*
G01X2766319Y1776059D01*
G01X2786651Y1776059D01*
G01X2797718Y1777812D01*
G01X2807701Y1782899D01*
G01X2815625Y1790822D01*
G01X2820712Y1800806D01*
G01X2822465Y1811873D01*
G01X2822465Y1907182D01*
G01X3301903Y1907182D01*
G01X3314460Y1908835D01*
G01X3326160Y1913682D01*
G01X3336208Y1921392D01*
G01X3387108Y1972291D01*
G37*
G54D10*
G01X35814Y35814D02*
G01X35814Y303318D01*
G03X41895Y295895I40386J26881D01*
G01X77386Y260404D01*
G01X77386Y113200D01*
G03X113200Y77386I35814J0D01*
G01X293200Y77386D01*
G03X329014Y113200I0J35814D01*
G01X329014Y262776D01*
G01X497494Y94295D01*
G03X531799Y80086I34305J34305D01*
G01X888998Y80086D01*
G03X923303Y94295I0J48514D01*
G01X966767Y137759D01*
G01X1059451Y137759D01*
G03X1095265Y173573I0J35814D01*
G01X1095265Y181685D01*
G01X1217486Y181685D01*
G01X1217486Y159700D01*
G03X1253300Y123886I35814J0D01*
G01X1388301Y123886D01*
G03X1424115Y159700I0J35814D01*
G01X1424115Y264907D01*
G01X1507502Y348295D01*
G03X1521711Y382599I-34305J34305D01*
G01X1521711Y2120866D01*
G03X1507502Y2155171I-48514J0D01*
G01X1392435Y2270237D01*
G01X1392773Y2270235D01*
G01X1506027Y2270235D01*
G03X1541841Y2306049I0J35814D01*
G01X1541841Y2443751D01*
G03X1514181Y2478624I-35814J0D01*
G01X1514181Y2728240D01*
G01X1728571Y2942630D01*
G03X1742745Y2975080I-34305J34305D01*
G03X1757764Y3002062I-48481J44658D01*
G03X1772752Y2975114I63500J17676D01*
G01X1772752Y2742745D01*
G03X1763227Y2665458I48514J-45210D01*
G03X1833736Y2632404I58040J32077D01*
G01X1819892Y2618560D01*
G03X1805682Y2584255I34305J-34305D01*
G01X1805682Y2234047D01*
G03X1719332Y2220079I-35216J-56191D01*
G03X1721952Y2132646I51134J-42223D01*
G01X1721952Y2022836D01*
G03X1719332Y1935403I48514J-45210D01*
G03X1805682Y1921435I51134J42223D01*
G01X1805682Y433399D01*
G03X1819892Y399095I48514J0D01*
G01X1954086Y264901D01*
G01X1954086Y159700D01*
G03X1989900Y123886I35814J0D01*
G01X2124901Y123886D01*
G03X2160715Y159700I0J35814D01*
G01X2160715Y181685D01*
G01X2282935Y181685D01*
G01X2282935Y173573D01*
G03X2318749Y137759I35814J0D01*
G01X2411426Y137759D01*
G01X2454890Y94295D01*
G03X2489195Y80086I34305J34305D01*
G01X2897204Y80086D01*
G03X2931509Y94295I0J48514D01*
G01X3099986Y262772D01*
G01X3099986Y113200D01*
G03X3135800Y77386I35814J0D01*
G01X3315800Y77386D01*
G03X3351614Y113200I0J35814D01*
G01X3351614Y260401D01*
G01X3387108Y295895D01*
G03X3393186Y303313I-34305J34305D01*
G01X3393186Y35814D01*
G01X35814Y35814D01*
G01X1556959Y2306049D02*
G03X1592773Y2270235I35814J0D01*
G01X1706027Y2270235D01*
G03X1741841Y2306049I0J35814D01*
G01X1741841Y2443751D01*
G03X1706027Y2479565I-35814J0D01*
G01X1592773Y2479565D01*
G03X1556959Y2443751I0J-35814D01*
G01X1556959Y2306049D01*
G01X41895Y540704D02*
G03X35814Y533280I34305J-34305D01*
G01X35814Y1344716D01*
G03X41895Y1337293I40386J26881D01*
G01X166612Y1212576D01*
G03X109867Y1007831I36588J-120376D01*
G03X319283Y1043684I93333J84369D01*
G01X557389Y1043684D01*
G03X555735Y1032927I34160J-10757D01*
G01X555735Y940244D01*
G01X502204Y886712D01*
G01X329014Y886712D01*
G01X329014Y928200D01*
G03X293200Y964014I-35814J0D01*
G01X113200Y964014D01*
G03X77386Y928200I0J-35814D01*
G01X77386Y748200D01*
G03X113200Y712386I35814J0D01*
G01X293200Y712386D01*
G03X329014Y748200I0J35814D01*
G01X329014Y789684D01*
G01X522299Y789684D01*
G03X555735Y803047I0J48514D01*
G01X555735Y719673D01*
G03X591549Y683859I35814J0D01*
G01X684229Y683859D01*
G01X713484Y654604D01*
G01X713484Y522641D01*
G01X636566Y522641D01*
G01X542304Y616903D01*
G03X507999Y631113I-34305J-34305D01*
G01X152400Y631113D01*
G03X118095Y616903I0J-48514D01*
G01X41895Y540704D01*
G01X41895Y2530069D02*
G03X35814Y2522646I34305J-34305D01*
G01X35814Y4409186D01*
G01X777240Y4409186D01*
G01X777240Y3822954D01*
G01X762000Y3822954D01*
G03X740764Y3818059I0J-48514D01*
G03X635000Y4012014I-105764J68141D01*
G03X529236Y3818059I0J-125814D01*
G03X473695Y3808745I-21236J-43619D01*
G01X423389Y3758438D01*
G01X396765Y3758438D01*
G01X396765Y3766627D01*
G03X360951Y3802441I-35814J0D01*
G01X223249Y3802441D01*
G03X187435Y3766627I0J-35814D01*
G01X187435Y3653373D01*
G03X223249Y3617559I35814J0D01*
G01X360951Y3617559D01*
G03X396765Y3653373I0J35814D01*
G01X396765Y3661410D01*
G01X443484Y3661410D01*
G03X477789Y3675619I0J48514D01*
G01X513785Y3711616D01*
G03X523240Y3710686I9455J47584D01*
G01X536669Y3710686D01*
G03X635000Y3506386I98331J-78486D01*
G03X733331Y3710686I0J125814D01*
G01X746760Y3710686D01*
G03X781065Y3724895I0J48514D01*
G01X782095Y3725926D01*
G01X870192Y3725926D01*
G03X866350Y3703752I62073J-22174D01*
G01X866350Y3566854D01*
G03X957818Y3506094I65914J0D01*
G01X1170795Y3293117D01*
G03X1239110Y3229171I66273J2336D01*
G03X1303358Y3297203I-2043J66282D01*
G01X1323194Y3277367D01*
G03X1436358Y3232812I66273J2336D01*
G03X1391804Y3345976I-46891J46891D01*
G01X1354357Y3383422D01*
G03X1404868Y3443971I-15690J64431D01*
G03X1361781Y3510009I-66200J3882D01*
G01X1361781Y3522236D01*
G03X1376764Y3549178I-48517J44618D01*
G03X1503764Y3549178I63500J17676D01*
G03X1630764Y3549178I63500J17676D01*
G03X1757764Y3549178I63500J17676D01*
G03X1887179Y3566854I63500J17676D01*
G01X1887179Y3703752D01*
G03X1757764Y3721428I-65914J0D01*
G03X1630764Y3721428I-63500J-17676D01*
G03X1553727Y3768261I-63500J-17676D01*
G03X1551232Y3774440I-62660J-21709D01*
G01X2006600Y3774440D01*
G03X2016760Y3784600I0J10160D01*
G01X2016760Y4409186D01*
G01X3393186Y4409186D01*
G01X3393186Y2262081D01*
G03X3387108Y2269500I-40383J-26886D01*
G01X3342188Y2314420D01*
G03X3136837Y2451164I-116388J47780D01*
G03X3273578Y2245811I88963J-88964D01*
G01X3285376Y2234014D01*
G01X3135800Y2234014D01*
G03X3099986Y2198200I0J-35814D01*
G01X3099986Y2156710D01*
G01X2803537Y2156710D01*
G03X2786651Y2160941I-16886J-31583D01*
G01X2648949Y2160941D01*
G03X2613135Y2125127I0J-35814D01*
G01X2613135Y2011873D01*
G03X2613965Y2004210I35814J0D01*
G01X2491435Y2004210D01*
G03X2492265Y2011873I-34985J7663D01*
G01X2492265Y2125127D01*
G03X2456451Y2160941I-35814J0D01*
G01X2318749Y2160941D01*
G03X2282935Y2125127I0J-35814D01*
G01X2282935Y2011873D01*
G03X2318749Y1976059I35814J0D01*
G01X2426549Y1976059D01*
G01X2411431Y1960941D01*
G01X2318749Y1960941D01*
G03X2282935Y1925127I0J-35814D01*
G01X2282935Y1917010D01*
G01X2204206Y1917010D01*
G03X2160715Y1934788I-45210J-48514D01*
G01X2160715Y1939000D01*
G03X2145209Y1968500I-35814J0D01*
G03X2160715Y1998000I-20308J29500D01*
G01X2160715Y2139000D01*
G03X2124901Y2174814I-35814J0D01*
G01X1996780Y2174814D01*
G01X1996780Y2481860D01*
G01X2026802Y2511882D01*
G03X2068619Y2528677I-2336J66273D01*
G03X2227893Y2510925I90381J87523D01*
G03X2275386Y2663986I-68893J105275D01*
G01X2345710Y2734310D01*
G03X2359919Y2768614I-34305J34305D01*
G01X2359919Y2908777D01*
G03X2419080Y2910586I27681J63023D01*
G01X3053763Y2910586D01*
G03X3310814Y2971800I121237J61214D01*
G03X3053763Y3033014I-135814J0D01*
G01X2541800Y3033014D01*
G03X2533810Y3122475I-52595J40390D01*
G03X2443995Y3121918I-44605J-49071D01*
G01X2387605Y3121918D01*
G03X2353301Y3107708I0J-48514D01*
G01X2277101Y3031509D01*
G03X2262891Y2997204I34305J-34305D01*
G01X2262891Y2941163D01*
G03X2033186Y2870200I-103891J-70963D01*
G03X2262891Y2799237I125814J0D01*
G01X2262891Y2788710D01*
G01X2206773Y2732591D01*
G03X2036168Y2643428I-47773J-116391D01*
G03X2022179Y2644429I-11702J-65273D01*
G01X2022180Y2644705D01*
G01X2022180Y2650295D01*
G03X2029684Y2730995I-48514J45210D01*
G03X1953510Y2758681I-56017J-35491D01*
G01X1953510Y2804846D01*
G03X1973403Y2906591I-30644J58809D01*
G03X1869780Y2903397I-50537J-42937D01*
G01X1869780Y2975119D01*
G03X1887179Y3019738I-48516J44619D01*
G01X1887179Y3156636D01*
G03X1757764Y3174312I-65914J0D01*
G03X1630764Y3174312I-63500J-17676D01*
G03X1503764Y3174312I-63500J-17676D01*
G03X1376764Y3174312I-63500J-17676D01*
G03X1249764Y3174312I-63500J-17676D01*
G03X1160713Y3217397I-63500J-17676D01*
G01X1093572Y3284538D01*
G03X1059268Y3298747I-34305J-34305D01*
G01X936031Y3298747D01*
G03X901726Y3284538I0J-48514D01*
G01X759503Y3142315D01*
G03X578103Y3236413I-124503J-18115D01*
G03X546809Y3034470I56897J-112213D01*
G03X542364Y3030538I29860J-38236D01*
G01X41895Y2530069D01*
G01X321600Y4163886D02*
G01X336076Y4163886D01*
G01X257795Y4085605D01*
G03X243586Y4051300I34305J-34305D01*
G01X243586Y4002441D01*
G01X223249Y4002441D01*
G03X187435Y3966627I0J-35814D01*
G01X187435Y3853373D01*
G03X223249Y3817559I35814J0D01*
G01X360951Y3817559D01*
G03X396765Y3853373I0J35814D01*
G01X396765Y3966627D01*
G03X360951Y4002441I-35814J0D01*
G01X340614Y4002441D01*
G01X340614Y4031205D01*
G01X401095Y4091686D01*
G01X518916Y4091686D01*
G03X751237Y4092053I116084J48514D01*
G03X587221Y4256588I-116237J48147D01*
G01X542305Y4301505D01*
G03X508000Y4315714I-34305J-34305D01*
G01X498414Y4315714D01*
G01X498414Y4334701D01*
G03X462600Y4370515I-35814J0D01*
G01X321600Y4370515D01*
G03X292100Y4355009I0J-35814D01*
G03X262600Y4370515I-29500J-20308D01*
G01X121600Y4370515D01*
G03X85786Y4334701I0J-35814D01*
G01X85786Y4199700D01*
G03X121600Y4163886I35814J0D01*
G01X262600Y4163886D01*
G03X292100Y4179391I0J35814D01*
G03X321600Y4163886I29500J20308D01*
G01X509186Y3378200D02*
G03X760814Y3378200I125814J0D01*
G03X509186Y3378200I-125814J0D01*
G01X2033186Y3632200D02*
G03X2284814Y3632200I125814J0D01*
G03X2033186Y3632200I-125814J0D01*
G01X2033186Y4140200D02*
G03X2284814Y4140200I125814J0D01*
G03X2033186Y4140200I-125814J0D01*
G01X2033186Y3886200D02*
G03X2284814Y3886200I125814J0D01*
G03X2033186Y3886200I-125814J0D01*
G01X2033186Y3378200D02*
G03X2284814Y3378200I125814J0D01*
G03X2033186Y3378200I-125814J0D01*
G01X2033186Y3124200D02*
G03X2284814Y3124200I125814J0D01*
G03X2033186Y3124200I-125814J0D01*
G01X2263562Y2432171D02*
G03X2033885Y2348961I-104562J-69971D01*
G03X2275890Y2315661I125115J13239D01*
G03X2296510Y2327901I-13684J46544D01*
G01X2480145Y2511535D01*
G01X2572827Y2511535D01*
G03X2608641Y2547349I0J35814D01*
G01X2608641Y2685051D01*
G03X2572827Y2720865I-35814J0D01*
G01X2459573Y2720865D01*
G03X2423759Y2685051I0J-35814D01*
G01X2423759Y2592368D01*
G01X2263562Y2432171D01*
G01X2558999Y4127501D02*
G03X2783027Y4127501I112014J0D01*
G03X2558999Y4127501I-112014J0D01*
G01X2623759Y2547349D02*
G03X2659573Y2511535I35814J0D01*
G01X2772827Y2511535D01*
G03X2808641Y2547349I0J35814D01*
G01X2808641Y2685051D01*
G03X2772827Y2720865I-35814J0D01*
G01X2659573Y2720865D01*
G03X2623759Y2685051I0J-35814D01*
G01X2623759Y2547349D01*
G01X2808986Y4127501D02*
G03X3033014Y4127501I112014J0D01*
G03X2808986Y4127501I-112014J0D01*
G01X3180080Y3430186D02*
G03X3180080Y3681814I0J125814D01*
G03X3180080Y3430186I0J-125814D01*
G01X3305894Y3392000D02*
G03X3270080Y3427814I-35814J0D01*
G01X3090080Y3427814D01*
G03X3054266Y3392000I0J-35814D01*
G01X3054266Y3212000D01*
G03X3090080Y3176186I35814J0D01*
G01X3270080Y3176186D01*
G03X3305894Y3212000I0J35814D01*
G01X3305894Y3392000D01*
G01X3058998Y4127501D02*
G03X3283026Y4127501I112014J0D01*
G03X3058998Y4127501I-112014J0D01*
G01X509559Y2860515D02*
G03X592644Y2751730I125441J9685D01*
G03X725866Y2783180I42356J118470D01*
G01X725866Y2703220D01*
G03X530511Y2546121I-90866J-87020D01*
G03X749993Y2667246I104489J70079D01*
G03X761680Y2665286I11687J33854D01*
G01X902680Y2665286D01*
G03X932180Y2680791I0J35814D01*
G03X961680Y2665286I29500J20308D01*
G01X1102680Y2665286D01*
G03X1138494Y2701100I0J35814D01*
G01X1138494Y2836101D01*
G03X1102680Y2871915I-35814J0D01*
G01X961680Y2871915D01*
G03X932180Y2856409I0J-35814D01*
G03X902680Y2871915I-29500J-20308D01*
G01X888238Y2871915D01*
G01X888238Y2964805D01*
G01X891430Y2967996D01*
G03X945806Y2955230I40835J51742D01*
G03X1008282Y2910621I62661J21705D01*
G03X1071006Y2954878I186J66314D01*
G03X1122764Y3002062I-11742J64860D01*
G03X1249764Y3002062I63500J17676D01*
G03X1264753Y2975113I63500J17676D01*
G01X1264753Y2931170D01*
G01X1235693Y2902109D01*
G03X1221483Y2867805I34305J-34305D01*
G01X1221483Y2252901D01*
G01X1159493Y2190911D01*
G03X1145284Y2156606I34305J-34305D01*
G01X1145284Y2077693D01*
G03X1117404Y2063911I6424J-48087D01*
G01X1095265Y2041772D01*
G01X1095265Y2125127D01*
G03X1059451Y2160941I-35814J0D01*
G01X921749Y2160941D01*
G03X885935Y2125127I0J-35814D01*
G01X885935Y2041768D01*
G01X810512Y2117191D01*
G01X810512Y2147896D01*
G03X796303Y2182200I-48514J0D01*
G01X739187Y2239316D01*
G03X760814Y2272200I-14187J32884D01*
G01X760814Y2452200D01*
G03X725000Y2488014I-35814J0D01*
G01X545000Y2488014D01*
G03X509186Y2452200I0J-35814D01*
G01X509186Y2272610D01*
G01X361394Y2272610D01*
G01X319587Y2314417D01*
G03X278675Y2462861I-116387J47783D01*
G03X124714Y2460531I-75475J-100661D01*
G01X124714Y2475669D01*
G01X509559Y2860515D01*
G01X1005050Y2458961D02*
G03X972627Y2479565I-32423J-15211D01*
G01X859373Y2479565D01*
G03X823559Y2443751I0J-35814D01*
G01X823559Y2306049D01*
G03X859373Y2270235I35814J0D01*
G01X972627Y2270235D01*
G03X1008441Y2306049I0J35814D01*
G01X1008441Y2326422D01*
G03X1023559Y2328162I27J66314D01*
G01X1023559Y2306049D01*
G03X1059373Y2270235I35814J0D01*
G01X1172627Y2270235D01*
G03X1208441Y2306049I0J35814D01*
G01X1208441Y2443751D01*
G03X1172627Y2479565I-35814J0D01*
G01X1059373Y2479565D01*
G03X1025980Y2456695I0J-35814D01*
G03X1005050Y2458961I-17512J-63960D01*
G01X124714Y1874291D02*
G01X124714Y1982386D01*
G01X293200Y1982386D01*
G03X329014Y2018200I0J35814D01*
G01X329014Y2059682D01*
G01X555735Y2059682D01*
G01X555735Y2011873D01*
G03X591549Y1976059I35814J0D01*
G01X597253Y1976059D01*
G03X594284Y1960941I63146J-20253D01*
G01X591549Y1960941D01*
G03X555735Y1925127I0J-35814D01*
G01X555735Y1811873D01*
G03X591549Y1776059I35814J0D01*
G01X611885Y1776059D01*
G01X611885Y1701807D01*
G03X626094Y1667502I48514J0D01*
G01X678756Y1614841D01*
G01X591549Y1614841D01*
G03X555735Y1579027I0J-35814D01*
G01X555735Y1521711D01*
G01X329014Y1521711D01*
G01X329014Y1563200D01*
G03X293200Y1599014I-35814J0D01*
G01X143626Y1599014D01*
G01X155423Y1610811D01*
G03X329014Y1727203I47777J116389D01*
G03X155418Y1843587I-125814J-3D01*
G01X124714Y1874291D01*
G01X888998Y1172284D02*
G03X923303Y1186493I0J48514D01*
G01X966769Y1229959D01*
G01X1059451Y1229959D01*
G03X1095265Y1265773I0J35814D01*
G01X1095265Y1273883D01*
G01X1217486Y1273883D01*
G01X1217486Y1251900D01*
G03X1253300Y1216086I35814J0D01*
G01X1388301Y1216086D01*
G03X1424115Y1251900I0J35814D01*
G01X1424115Y1392900D01*
G03X1408609Y1422400I-35814J0D01*
G03X1424115Y1451900I-20308J29500D01*
G01X1424115Y1592900D01*
G03X1388301Y1628714I-35814J0D01*
G01X1253300Y1628714D01*
G03X1217486Y1592900I0J-35814D01*
G01X1217486Y1451900D01*
G03X1232991Y1422400I35814J0D01*
G03X1217486Y1392900I20308J-29500D01*
G01X1217486Y1370911D01*
G01X1095265Y1370911D01*
G01X1095265Y1379027D01*
G03X1059451Y1414841I-35814J0D01*
G01X921749Y1414841D01*
G03X885935Y1379027I0J-35814D01*
G01X885935Y1286344D01*
G01X868903Y1269312D01*
G01X765065Y1269312D01*
G01X765065Y1358454D01*
G01X796303Y1389693D01*
G03X810512Y1423997I-34305J34305D01*
G01X810512Y1600207D01*
G03X796303Y1634511I-48514J0D01*
G01X708913Y1721902D01*
G01X708913Y1776059D01*
G01X729251Y1776059D01*
G03X765065Y1811873I0J35814D01*
G01X765065Y1925127D01*
G03X729251Y1960941I-35814J0D01*
G01X726514Y1960941D01*
G03X723544Y1976059I-66115J-5135D01*
G01X729251Y1976059D01*
G03X765065Y2011873I0J35814D01*
G01X765065Y2025421D01*
G01X885935Y1904550D01*
G01X885935Y1811873D01*
G03X921749Y1776059I35814J0D01*
G01X1059451Y1776059D01*
G03X1095265Y1811873I0J35814D01*
G01X1095265Y1904554D01*
G01X1155908Y1965197D01*
G03X1159493Y1961191I37889J30299D01*
G01X1217486Y1903199D01*
G01X1217486Y1798000D01*
G03X1253300Y1762186I35814J0D01*
G01X1388301Y1762186D01*
G03X1424115Y1798000I0J35814D01*
G01X1424115Y1939000D01*
G03X1408609Y1968500I-35814J0D01*
G03X1424115Y1998000I-20308J29500D01*
G01X1424115Y2101340D01*
G01X1424683Y2100771D01*
G01X1424683Y402694D01*
G01X1424115Y402126D01*
G01X1424115Y500700D01*
G03X1388301Y536514I-35814J0D01*
G01X1253300Y536514D01*
G03X1217486Y500700I0J-35814D01*
G01X1217486Y359700D01*
G03X1232991Y330200I35814J0D01*
G03X1217486Y300700I20308J-29500D01*
G01X1217486Y278713D01*
G01X1095265Y278713D01*
G01X1095265Y286827D01*
G03X1059451Y322641I-35814J0D01*
G01X921749Y322641D01*
G03X885935Y286827I0J-35814D01*
G01X885935Y194146D01*
G01X868903Y177114D01*
G01X765065Y177114D01*
G01X765065Y266256D01*
G01X796303Y297495D01*
G03X810512Y331799I-34305J34305D01*
G01X810512Y674699D01*
G03X796303Y709003I-48514J0D01*
G01X765065Y740242D01*
G01X765065Y832927D01*
G03X729251Y868741I-35814J0D01*
G01X726514Y868741D01*
G03X723545Y883859I-66115J-5133D01*
G01X729251Y883859D01*
G03X765065Y919673I0J35814D01*
G01X765065Y969723D01*
G01X840484Y894303D01*
G01X840484Y888998D01*
G03X854694Y854694I48514J0D01*
G01X885935Y823452D01*
G01X885935Y719673D01*
G03X921749Y683859I35814J0D01*
G01X1059451Y683859D01*
G03X1095265Y719673I0J35814D01*
G01X1095265Y738884D01*
G01X1217486Y738884D01*
G01X1217486Y705800D01*
G03X1253300Y669986I35814J0D01*
G01X1388301Y669986D01*
G03X1424115Y705800I0J35814D01*
G01X1424115Y846800D01*
G03X1408609Y876300I-35814J0D01*
G03X1424115Y905800I-20308J29500D01*
G01X1424115Y1046800D01*
G03X1388301Y1082614I-35814J0D01*
G01X1253300Y1082614D01*
G03X1217486Y1046800I0J-35814D01*
G01X1217486Y905800D01*
G03X1232991Y876300I35814J0D01*
G03X1217486Y846800I20308J-29500D01*
G01X1217486Y835912D01*
G01X1095140Y835912D01*
G03X1059451Y868741I-35689J-2986D01*
G01X977865Y868741D01*
G01X962747Y883859D01*
G01X1059451Y883859D01*
G03X1095265Y919673I0J35814D01*
G01X1095265Y1032927D01*
G03X1059451Y1068741I-35814J0D01*
G01X921749Y1068741D01*
G03X885935Y1032927I0J-35814D01*
G01X885935Y986070D01*
G01X745503Y1126502D01*
G03X711198Y1140712I-34305J-34305D01*
G01X319285Y1140712D01*
G03X300235Y1172284I-116085J-48512D01*
G01X888998Y1172284D01*
G01X1059451Y1429959D02*
G03X1095265Y1465773I0J35814D01*
G01X1095265Y1579027D01*
G03X1059451Y1614841I-35814J0D01*
G01X921749Y1614841D01*
G03X885935Y1579027I0J-35814D01*
G01X885935Y1465773D01*
G03X921749Y1429959I35814J0D01*
G01X1059451Y1429959D01*
G01X1059451Y337759D02*
G03X1095265Y373573I0J35814D01*
G01X1095265Y486827D01*
G03X1059451Y522641I-35814J0D01*
G01X921749Y522641D01*
G03X885935Y486827I0J-35814D01*
G01X885935Y373573D01*
G03X921749Y337759I35814J0D01*
G01X1059451Y337759D01*
G01X1029552Y1976059D02*
G01X1014434Y1960941D01*
G01X966762Y1960941D01*
G01X951644Y1976059D01*
G01X1029552Y1976059D01*
G01X1313704Y2211750D02*
G01X1350640Y2174814D01*
G01X1280615Y2174814D01*
G01X1304302Y2198501D01*
G03X1313704Y2211750I-34305J34305D01*
G01X1902710Y1224654D02*
G01X1946891Y1180473D01*
G03X1981196Y1166264I34305J34305D01*
G01X2291300Y1166264D01*
G01X2388823Y1068741D01*
G01X2318749Y1068741D01*
G03X2282935Y1032927I0J-35814D01*
G01X2282935Y919673D01*
G03X2318749Y883859I35814J0D01*
G01X2394467Y883859D01*
G01X2379349Y868741D01*
G01X2318749Y868741D01*
G03X2282935Y832927I0J-35814D01*
G01X2282935Y831492D01*
G01X2160715Y831492D01*
G01X2160715Y846800D01*
G03X2145209Y876300I-35814J0D01*
G03X2160715Y905800I-20308J29500D01*
G01X2160715Y1046800D01*
G03X2124901Y1082614I-35814J0D01*
G01X1989900Y1082614D01*
G03X1954086Y1046800I0J-35814D01*
G01X1954086Y905800D01*
G03X1969591Y876300I35814J0D01*
G03X1954086Y846800I20308J-29500D01*
G01X1954086Y705800D01*
G03X1989900Y669986I35814J0D01*
G01X2124901Y669986D01*
G03X2160715Y705800I0J35814D01*
G01X2160715Y734464D01*
G01X2282935Y734464D01*
G01X2282935Y719673D01*
G03X2318749Y683859I35814J0D01*
G01X2456451Y683859D01*
G03X2492265Y719673I0J35814D01*
G01X2492265Y832927D01*
G03X2490820Y842994I-35814J0D01*
G01X2523499Y875674D01*
G03X2537709Y909978I-34305J34305D01*
G01X2537709Y1013864D01*
G01X2539995Y1013864D01*
G03X2566071Y1021467I0J48514D01*
G01X2567691Y1021504D01*
G01X2567691Y877898D01*
G03X2581900Y843594I48514J0D01*
G01X2613135Y812358D01*
G01X2613135Y740238D01*
G01X2581900Y709003D01*
G03X2567691Y674699I34305J-34305D01*
G01X2567691Y331799D01*
G03X2581900Y297495I48514J0D01*
G01X2613135Y266260D01*
G01X2613135Y177114D01*
G01X2509290Y177114D01*
G01X2492265Y194139D01*
G01X2492265Y286827D01*
G03X2456451Y322641I-35814J0D01*
G01X2318749Y322641D01*
G03X2282935Y286827I0J-35814D01*
G01X2282935Y278713D01*
G01X2160715Y278713D01*
G01X2160715Y300700D01*
G03X2145209Y330200I-35814J0D01*
G03X2160715Y359700I-20308J29500D01*
G01X2160715Y500700D01*
G03X2124901Y536514I-35814J0D01*
G01X1989900Y536514D01*
G03X1954086Y500700I0J-35814D01*
G01X1954086Y402119D01*
G01X1902710Y453494D01*
G01X1902710Y1224654D01*
G01X2456451Y337759D02*
G03X2492265Y373573I0J35814D01*
G01X2492265Y486827D01*
G03X2456451Y522641I-35814J0D01*
G01X2318749Y522641D01*
G03X2282935Y486827I0J-35814D01*
G01X2282935Y373573D01*
G03X2318749Y337759I35814J0D01*
G01X2456451Y337759D01*
G01X2613675Y1805682D02*
G03X2648949Y1776059I35275J6191D01*
G01X2669291Y1776059D01*
G01X2669291Y1710792D01*
G01X2581900Y1623401D01*
G03X2567691Y1589097I34305J-34305D01*
G01X2567691Y1538680D01*
G03X2492265Y1524463I-27696J-60253D01*
G01X2492265Y1579027D01*
G03X2456451Y1614841I-35814J0D01*
G01X2318749Y1614841D01*
G03X2282935Y1579027I0J-35814D01*
G01X2282935Y1465773D01*
G03X2318749Y1429959I35814J0D01*
G01X2422918Y1429959D01*
G01X2407800Y1414841D01*
G01X2318749Y1414841D01*
G03X2282935Y1379027I0J-35814D01*
G01X2282935Y1374541D01*
G01X2160715Y1374541D01*
G01X2160715Y1392900D01*
G03X2145209Y1422400I-35814J0D01*
G03X2160715Y1451900I-20308J29500D01*
G01X2160715Y1592900D01*
G03X2124901Y1628714I-35814J0D01*
G01X1996780Y1628714D01*
G01X1996780Y1762186D01*
G01X2124901Y1762186D01*
G03X2160715Y1798000I0J35814D01*
G01X2160715Y1802204D01*
G03X2204206Y1819982I-1719J66292D01*
G01X2282935Y1819982D01*
G01X2282935Y1811873D01*
G03X2318749Y1776059I35814J0D01*
G01X2456451Y1776059D01*
G03X2492090Y1808342I0J35814D01*
G03X2585205Y1805682I47905J45855D01*
G01X2613675Y1805682D01*
G01X3387108Y1972291D02*
G03X3393186Y1979710I-34305J34305D01*
G01X3393186Y533285D01*
G03X3387108Y540704I-40383J-26886D01*
G01X3310908Y616903D01*
G03X3276604Y631113I-34305J-34305D01*
G01X2870204Y631113D01*
G03X2835900Y616903I0J-48514D01*
G01X2741637Y522641D01*
G01X2664719Y522641D01*
G01X2664719Y654604D01*
G01X2693975Y683859D01*
G01X2786651Y683859D01*
G03X2822465Y719673I0J35814D01*
G01X2822465Y803050D01*
G03X2855904Y789684I33440J35148D01*
G01X3099986Y789684D01*
G01X3099986Y748200D01*
G03X3135800Y712386I35814J0D01*
G01X3315800Y712386D01*
G03X3351614Y748200I0J35814D01*
G01X3351614Y928200D01*
G03X3315800Y964014I-35814J0D01*
G01X3135800Y964014D01*
G03X3099986Y928200I0J-35814D01*
G01X3099986Y886712D01*
G01X2876000Y886712D01*
G01X2822465Y940247D01*
G01X2822465Y1032927D01*
G03X2786651Y1068741I-35814J0D01*
G01X2710557Y1068741D01*
G01X2752109Y1110293D01*
G03X2766319Y1144598I-34305J34305D01*
G01X2766319Y1229959D01*
G01X2786651Y1229959D01*
G03X2822465Y1265773I0J35814D01*
G01X2822465Y1379027D01*
G03X2786651Y1414841I-35814J0D01*
G01X2693970Y1414841D01*
G01X2678852Y1429959D01*
G01X2745002Y1429959D01*
G03X2767004Y1424683I22002J43238D01*
G01X3099986Y1424683D01*
G01X3099986Y1383200D01*
G03X3135800Y1347386I35814J0D01*
G01X3315800Y1347386D01*
G03X3351614Y1383200I0J35814D01*
G01X3351614Y1563200D01*
G03X3315800Y1599014I-35814J0D01*
G01X3135800Y1599014D01*
G03X3099986Y1563200I0J-35814D01*
G01X3099986Y1521711D01*
G01X2822465Y1521711D01*
G01X2822465Y1579027D01*
G03X2786651Y1614841I-35814J0D01*
G01X2710558Y1614841D01*
G01X2752109Y1656392D01*
G03X2766319Y1690697I-34305J34305D01*
G01X2766319Y1776059D01*
G01X2786651Y1776059D01*
G03X2822465Y1811873I0J35814D01*
G01X2822465Y1907182D01*
G01X3301903Y1907182D01*
G03X3336208Y1921392I0J48514D01*
G01X3387108Y1972291D01*
G01X3225800Y1601386D02*
G03X3225800Y1853014I0J125814D01*
G03X3225800Y1601386I0J-125814D01*
G01X3225800Y966386D02*
G03X3225800Y1218014I0J125814D01*
G03X3225800Y966386I0J-125814D01*
G54D11*
G01X192100Y4267200D02*
G01X95946Y4267200D01*
G01X192100Y4267200D02*
G01X192100Y4174046D01*
G01X192100Y4267200D02*
G01X192100Y4360355D01*
G01X990600Y2068500D02*
G01X990600Y1986219D01*
G01X990600Y2068500D02*
G01X990600Y2150781D01*
G01X990600Y2068500D02*
G01X896095Y2068500D01*
G01X990600Y2068500D02*
G01X1085105Y2068500D01*
G01X990600Y430200D02*
G01X990600Y347919D01*
G01X990600Y430200D02*
G01X990600Y512481D01*
G01X990600Y430200D02*
G01X896095Y430200D01*
G01X990600Y430200D02*
G01X1085105Y430200D01*
G01X990600Y976300D02*
G01X990600Y894019D01*
G01X990600Y976300D02*
G01X990600Y1058581D01*
G01X990600Y976300D02*
G01X1085105Y976300D01*
G01X990600Y1522400D02*
G01X990600Y1440119D01*
G01X990600Y1522400D02*
G01X990600Y1604681D01*
G01X990600Y1522400D02*
G01X896095Y1522400D01*
G01X990600Y1522400D02*
G01X1085105Y1522400D01*
G01X1032180Y2768600D02*
G01X1128334Y2768600D01*
G01X1032180Y2768600D02*
G01X1032180Y2861755D01*
G01X1032180Y2768600D02*
G01X1032180Y2675446D01*
G01X1116000Y2374900D02*
G01X1198281Y2374900D01*
G01X1116000Y2374900D02*
G01X1116000Y2469405D01*
G01X1116000Y2374900D02*
G01X1116000Y2280395D01*
G01X1320800Y430200D02*
G01X1320800Y526354D01*
G01X1320800Y430200D02*
G01X1227646Y430200D01*
G01X1320800Y430200D02*
G01X1413955Y430200D01*
G01X1320800Y976300D02*
G01X1320800Y1072454D01*
G01X1320800Y976300D02*
G01X1227646Y976300D01*
G01X1320800Y976300D02*
G01X1413955Y976300D01*
G01X1320800Y1522400D02*
G01X1320800Y1618554D01*
G01X1320800Y1522400D02*
G01X1227646Y1522400D01*
G01X1320800Y1522400D02*
G01X1413955Y1522400D01*
G01X1320800Y2068500D02*
G01X1320800Y2164654D01*
G01X1320800Y2068500D02*
G01X1413955Y2068500D01*
G01X1567264Y3635303D02*
G01X1567264Y3759507D01*
G01X1567264Y3635303D02*
G01X1567264Y3511100D01*
G01X1649400Y2374900D02*
G01X1567119Y2374900D01*
G01X1649400Y2374900D02*
G01X1731681Y2374900D01*
G01X1649400Y2374900D02*
G01X1649400Y2469405D01*
G01X1649400Y2374900D02*
G01X1649400Y2280395D01*
G01X1694264Y3635303D02*
G01X1694264Y3759507D01*
G01X1694264Y3635303D02*
G01X1694264Y3511100D01*
G01X1821264Y3635303D02*
G01X1877019Y3635303D01*
G01X1821264Y3635303D02*
G01X1821264Y3759507D01*
G01X1821264Y3635303D02*
G01X1821264Y3511100D01*
G01X2057400Y430200D02*
G01X2057400Y526354D01*
G01X2057400Y430200D02*
G01X1964246Y430200D01*
G01X2057400Y430200D02*
G01X2150555Y430200D01*
G01X2057400Y976300D02*
G01X2057400Y1072454D01*
G01X2057400Y976300D02*
G01X1964246Y976300D01*
G01X2057400Y976300D02*
G01X2150555Y976300D01*
G01X2057400Y1522400D02*
G01X2057400Y1618554D01*
G01X2057400Y1522400D02*
G01X2150555Y1522400D01*
G01X2057400Y2068500D02*
G01X2057400Y2164654D01*
G01X2057400Y2068500D02*
G01X2150555Y2068500D01*
G01X2387600Y1522400D02*
G01X2387600Y1440119D01*
G01X2387600Y1522400D02*
G01X2387600Y1604681D01*
G01X2387600Y1522400D02*
G01X2293095Y1522400D01*
G01X2387600Y976300D02*
G01X2387600Y894019D01*
G01X2387600Y976300D02*
G01X2387600Y1058581D01*
G01X2387600Y976300D02*
G01X2293095Y976300D01*
G01X2387600Y430200D02*
G01X2387600Y347919D01*
G01X2387600Y430200D02*
G01X2387600Y512481D01*
G01X2387600Y430200D02*
G01X2293095Y430200D01*
G01X2387600Y430200D02*
G01X2482105Y430200D01*
G01X2387600Y2068500D02*
G01X2387600Y1986219D01*
G01X2387600Y2068500D02*
G01X2387600Y2150781D01*
G01X2387600Y2068500D02*
G01X2293095Y2068500D01*
G01X2387600Y2068500D02*
G01X2482105Y2068500D01*
G01X2716200Y2616200D02*
G01X2633919Y2616200D01*
G01X2716200Y2616200D02*
G01X2798481Y2616200D01*
G01X2716200Y2616200D02*
G01X2716200Y2710705D01*
G01X2716200Y2616200D02*
G01X2716200Y2521695D01*
G01X635000Y2616200D02*
G01X519346Y2616200D01*
G01X635000Y2616200D02*
G01X750654Y2616200D01*
G01X635000Y2616200D02*
G01X635000Y2731854D01*
G01X635000Y2616200D02*
G01X635000Y2500546D01*
G01X3180080Y3302000D02*
G01X3180080Y3186346D01*
G01X3180080Y3302000D02*
G01X3180080Y3417654D01*
G01X3180080Y3302000D02*
G01X3064426Y3302000D01*
G01X3180080Y3302000D02*
G01X3295734Y3302000D01*
G04 Copper End*

G04 Pad Start*
G54D12*
G01X1320800Y2068500D03*
G01X1320800Y1868500D03*
G01X1320800Y1522400D03*
G01X1320800Y1322400D03*
G01X1320800Y976300D03*
G01X1320800Y776300D03*
G01X1320800Y430200D03*
G01X1320800Y230200D03*
G01X2057400Y2068500D03*
G01X2057400Y1868500D03*
G01X2057400Y1522400D03*
G01X2057400Y1322400D03*
G01X2057400Y976300D03*
G01X2057400Y776300D03*
G01X2057400Y430200D03*
G01X2057400Y230200D03*
G54D13*
G01X192100Y4267200D03*
G01X392100Y4267200D03*
G01X1032180Y2768600D03*
G01X832180Y2768600D03*
G54D14*
G01X203200Y2362200D03*
G54D16*
G01X203200Y2108200D03*
G54D14*
G01X203200Y1727200D03*
G54D16*
G01X203200Y1473200D03*
G54D14*
G01X203200Y1092200D03*
G54D16*
G01X203200Y838200D03*
G54D14*
G01X203200Y457200D03*
G54D16*
G01X203200Y203200D03*
G54D14*
G01X3225800Y2362200D03*
G54D16*
G01X3225800Y2108200D03*
G54D14*
G01X3225800Y1727200D03*
G54D16*
G01X3225800Y1473200D03*
G54D14*
G01X3225800Y1092200D03*
G54D16*
G01X3225800Y838200D03*
G54D14*
G01X3225800Y457200D03*
G54D16*
G01X3225800Y203200D03*
G54D14*
G01X3180080Y3556000D03*
G54D16*
G01X3180080Y3302000D03*
G54D17*
G01X660400Y2068500D03*
G01X660400Y1868500D03*
G01X660400Y1522400D03*
G01X660400Y1322400D03*
G01X660400Y976300D03*
G01X660400Y776300D03*
G01X660400Y430200D03*
G01X660400Y230200D03*
G01X2717800Y2068500D03*
G01X2717800Y1868500D03*
G01X2717800Y1522400D03*
G01X2717800Y1322400D03*
G01X2717800Y976300D03*
G01X2717800Y776300D03*
G01X2717800Y430200D03*
G01X2717800Y230200D03*
G01X990600Y2068500D03*
G01X990600Y1868500D03*
G01X990600Y1522400D03*
G01X990600Y1322400D03*
G01X990600Y976300D03*
G01X990600Y776300D03*
G01X990600Y430200D03*
G01X990600Y230200D03*
G01X2387600Y2068500D03*
G01X2387600Y1868500D03*
G01X2387600Y1522400D03*
G01X2387600Y1322400D03*
G01X2387600Y976300D03*
G01X2387600Y776300D03*
G01X2387600Y430200D03*
G01X2387600Y230200D03*
G01X292100Y3910000D03*
G01X292100Y3710000D03*
G54D18*
G01X1116000Y2374900D03*
G01X916000Y2374900D03*
G01X1649400Y2374900D03*
G01X1449400Y2374900D03*
G01X2716200Y2616200D03*
G01X2516200Y2616200D03*
G54D19*
G01X2671013Y4127501D03*
G01X2921000Y4127501D03*
G01X3171012Y4127501D03*
G54D20*
G01X3175000Y2971800D03*
G54D16*
G01X635000Y2362200D03*
G54D14*
G01X2159000Y2362200D03*
G01X635000Y2616200D03*
G01X2159000Y2616200D03*
G01X635000Y2870200D03*
G01X2159000Y2870200D03*
G01X635000Y3124200D03*
G01X2159000Y3124200D03*
G01X635000Y3378200D03*
G01X2159000Y3378200D03*
G01X635000Y3632200D03*
G01X2159000Y3632200D03*
G01X635000Y3886200D03*
G01X2159000Y3886200D03*
G01X635000Y4140200D03*
G01X2159000Y4140200D03*
G54D21*
G01X932264Y3635303D03*
G01X1059264Y3635303D03*
G01X1186264Y3635303D03*
G01X1313264Y3635303D03*
G01X1440264Y3635303D03*
G01X1567264Y3635303D03*
G01X1694264Y3635303D03*
G01X1821264Y3635303D03*
G01X932264Y3088187D03*
G01X1059264Y3088187D03*
G01X1186264Y3088187D03*
G01X1313264Y3088187D03*
G01X1440264Y3088187D03*
G01X1567264Y3088187D03*
G01X1694264Y3088187D03*
G01X1821264Y3088187D03*
G04 Pad End*

G04 Via Start*
G54D22*
G01X2387600Y2971800D03*
G54D23*
G01X2489205Y3073404D03*
G01X1821266Y2697535D03*
G01X1491067Y3746552D03*
G01X2024466Y2578155D03*
G01X2539995Y1478427D03*
G01X1465667Y2849935D03*
G01X1008468Y2392736D03*
G01X1389467Y3279703D03*
G01X1973666Y2695505D03*
G01X2565395Y1087778D03*
G01X1237068Y3295454D03*
G01X1770466Y2177856D03*
G01X1770466Y1977626D03*
G01X2158996Y1868496D03*
G01X1338667Y3447853D03*
G01X1922866Y2863655D03*
G01X1192198Y2273295D03*
G01X1319197Y2171696D03*
G01X1787627Y2259126D03*
G01X2041626Y2182926D03*
G01X2590795Y2017696D03*
G01X2590795Y1763696D03*
G01X2057396Y1154098D03*
G01X1389467Y2824535D03*
G01X660399Y1955806D03*
G01X660399Y863608D03*
G01X2539995Y1854196D03*
G01X1008468Y2976934D03*
G54D22*
G01X838200Y228600D03*
G01X1778000Y127000D03*
G01X2565400Y228600D03*
G01X431800Y1016000D03*
G01X2971800Y965200D03*
G01X431800Y1651000D03*
G01X2971800Y1651000D03*
G01X1651000Y1193800D03*
G01X1651000Y1854200D03*
G01X457200Y2997200D03*
G01X1092200Y2565400D03*
G01X2413000Y4343400D03*
G01X3276600Y3835400D03*
G01X558800Y4343400D03*
G04 Via End*

G04 Track Start*
G54D11*
G01X1186180Y3635248D02*
G01X1186180Y3774440D01*
G01X508000Y3774440D02*
G01X443484Y3709924D01*
G01X292100Y3709924D01*
G01X292100Y3910076D02*
G01X292100Y4051300D01*
G01X381000Y4140200D01*
G01X635000Y4140200D01*
G01X392176Y4267200D02*
G01X508000Y4267200D01*
G01X635000Y4140200D01*
G54D24*
G01X2387600Y2971800D02*
G01X3175000Y2971800D01*
G54D25*
G01X635000Y2870200D02*
G01X730504Y2870200D01*
G01X832104Y2768600D01*
G01X832104Y2988056D01*
G01X932180Y3088132D01*
G54D11*
G01X1186180Y3774440D02*
G01X762000Y3774440D01*
G01X746760Y3759200D01*
G01X523240Y3759200D01*
G01X508000Y3774440D01*
G01X203199Y203199D02*
G01X76200Y330199D01*
G01X76200Y506399D01*
G01X152400Y582599D01*
G01X507999Y582599D01*
G01X660399Y430199D01*
G01X3225804Y203199D02*
G01X3352803Y330199D01*
G01X3352803Y506399D01*
G01X3276604Y582599D01*
G01X2870204Y582599D01*
G01X2717805Y430199D01*
G01X2489205Y3073404D02*
G01X2387605Y3073404D01*
G01X2311405Y2997204D01*
G01X2311405Y2768614D01*
G01X2158996Y2616205D01*
G01X203199Y2108196D02*
G01X620699Y2108196D01*
G01X660399Y2068496D01*
G01X203199Y1473197D02*
G01X611199Y1473197D01*
G01X660399Y1522397D01*
G01X203199Y838198D02*
G01X522299Y838198D01*
G01X660399Y976298D01*
G01X3225804Y2108196D02*
G01X2757505Y2108196D01*
G01X2717805Y2068496D01*
G01X3225804Y1473197D02*
G01X2767004Y1473197D01*
G01X2717805Y1522397D01*
G01X3225804Y838198D02*
G01X2855904Y838198D01*
G01X2717805Y976298D01*
G01X1821266Y3088184D02*
G01X1821266Y2697535D01*
G01X2158996Y2362205D02*
G01X2262206Y2362205D01*
G01X2516205Y2616205D01*
G01X1440267Y3635303D02*
G01X1440267Y3695752D01*
G01X1491067Y3746552D01*
G01X2024466Y2578155D02*
G01X1948266Y2501955D01*
G01X1948266Y1435157D01*
G01X2057396Y1326027D01*
G01X2057396Y1322397D01*
G01X2057396Y1326027D02*
G01X2387595Y1326027D01*
G01X2387595Y1322397D01*
G01X2387595Y1326027D02*
G01X2539995Y1478427D01*
G01X1567267Y3088184D02*
G01X1567267Y2976934D01*
G01X1465667Y2875335D01*
G01X1465667Y2849935D01*
G01X1008468Y2392736D02*
G01X933838Y2392736D01*
G01X915998Y2374895D01*
G01X1059268Y3635303D02*
G01X1059268Y3609903D01*
G01X1389467Y3279703D01*
G01X1973666Y2695505D02*
G01X1973666Y2644705D01*
G01X1897466Y2568505D01*
G01X1897466Y1298507D01*
G01X1981196Y1214778D01*
G01X2311395Y1214778D01*
G01X2463795Y1062378D01*
G01X2489195Y1062378D01*
G01X2489195Y909978D01*
G01X2362195Y782978D01*
G01X2064076Y782978D01*
G01X2057396Y776298D01*
G01X2362195Y782978D02*
G01X2380915Y782978D01*
G01X2387595Y776298D01*
G01X2489195Y1062378D02*
G01X2539995Y1062378D01*
G01X2565395Y1087778D01*
G01X932268Y3635303D02*
G01X932268Y3600253D01*
G01X1237068Y3295454D01*
G01X1770466Y2177856D02*
G01X1770466Y1977626D01*
G01X2474795Y1955696D02*
G01X3301903Y1955696D01*
G01X3352803Y2006596D01*
G01X3352803Y2235195D01*
G01X3225804Y2362195D01*
G01X1313267Y3635303D02*
G01X1313267Y3473253D01*
G01X1338667Y3447853D01*
G01X1922866Y2863655D02*
G01X1904996Y2845785D01*
G01X1904996Y2635055D01*
G01X1854196Y2584255D01*
G01X1854196Y433399D01*
G01X2057396Y230199D01*
G01X2387595Y230199D01*
G01X2489195Y128600D01*
G01X2897204Y128600D01*
G01X3225804Y457199D01*
G01X1567267Y3635303D02*
G01X1694267Y3635303D01*
G01X1821266Y3635303D01*
G01X1567267Y3635303D02*
G01X1567267Y3295454D01*
G01X1516467Y3244654D01*
G01X1482827Y3244654D02*
G01X1457427Y3219254D01*
G01X1279628Y3219254D01*
G01X1254228Y3193854D01*
G01X1254228Y2990654D01*
G01X1032178Y2768605D01*
G01X1032178Y2458715D01*
G01X1115998Y2374895D01*
G01X990598Y2249495D02*
G01X990598Y2068496D01*
G01X1090598Y2349495D02*
G01X1115998Y2349495D01*
G01X1192198Y2273295D01*
G01X1319197Y2171696D02*
G01X1319197Y2070096D01*
G01X1320797Y2068496D01*
G01X1711427Y3244654D02*
G01X1762227Y3193854D01*
G01X1762227Y2590655D01*
G01X1660627Y2489055D01*
G01X1660627Y2386126D01*
G01X1649397Y2374895D01*
G01X1032178Y2768605D02*
G01X879778Y2616205D01*
G01X634999Y2616205D01*
G01X1660627Y2386126D02*
G01X1787627Y2259126D01*
G01X2057396Y2068496D02*
G01X2387595Y2068496D01*
G01X2463795Y1992296D01*
G01X2565395Y1992296D01*
G01X2590795Y2017696D01*
G01X2590795Y2490795D01*
G01X2716205Y2616205D01*
G01X2590795Y1763696D02*
G01X2590795Y1725596D01*
G01X2387595Y1522397D01*
G01X2057396Y1522397D01*
G01X1320797Y2068496D02*
G01X1422397Y1966896D01*
G01X1422397Y1623997D01*
G01X1320797Y1522397D01*
G01X990598Y1522397D01*
G01X1320797Y1522397D02*
G01X1422397Y1420797D01*
G01X1422397Y1077898D01*
G01X1320797Y976298D01*
G01X990598Y976298D01*
G01X1320797Y976298D02*
G01X1422397Y874698D01*
G01X1422397Y531799D01*
G01X1320797Y430199D01*
G01X990598Y430199D01*
G01X2057396Y1154098D02*
G01X2057396Y976298D01*
G01X2387595Y976298D01*
G01X2057396Y976298D02*
G01X1930396Y849298D01*
G01X1930396Y557199D01*
G01X2057396Y430199D01*
G01X2387595Y430199D01*
G01X1254228Y3193854D02*
G01X943309Y3504773D01*
G01X319530Y3504773D01*
G01X192100Y3632203D01*
G01X192100Y4267202D01*
G01X1694267Y3088184D02*
G01X1694267Y2976934D01*
G01X1465667Y2748335D01*
G01X1465667Y2391165D01*
G01X1449397Y2374895D01*
G01X1465667Y2748335D02*
G01X1389467Y2824535D01*
G01X1440267Y3088184D02*
G01X1440267Y2976934D01*
G01X1320797Y2857465D01*
G01X1320797Y2273266D01*
G01X1473197Y2120866D01*
G01X1473197Y382599D01*
G01X1320797Y230199D01*
G01X990598Y230199D01*
G01X888998Y128600D01*
G01X531799Y128600D01*
G01X203199Y457199D01*
G01X660399Y1701807D02*
G01X761998Y1600207D01*
G01X761998Y1423997D01*
G01X660399Y1322397D01*
G01X660399Y863608D02*
G01X660399Y776298D01*
G01X761998Y674699D01*
G01X761998Y331799D01*
G01X660399Y230199D01*
G01X2539995Y1854196D02*
G01X2703505Y1854196D01*
G01X2717805Y1868496D01*
G01X2717805Y1690697D01*
G01X2616205Y1589097D01*
G01X2616205Y1423997D01*
G01X2717805Y1322397D01*
G01X2717805Y1144598D01*
G01X2616205Y1042998D01*
G01X2616205Y877898D01*
G01X2717805Y776298D01*
G01X2616205Y674699D01*
G01X2616205Y331799D01*
G01X2717805Y230199D01*
G01X1313267Y3088184D02*
G01X1313267Y2911074D01*
G01X1269997Y2867805D01*
G01X1269997Y2232806D01*
G01X1193798Y2156606D01*
G01X1193798Y1995496D02*
G01X1320797Y1868496D01*
G01X1193798Y2029606D02*
G01X1151708Y2029606D01*
G01X990598Y1868496D01*
G01X761998Y2097096D01*
G01X761998Y2147896D01*
G01X685799Y2224096D01*
G01X341299Y2224096D01*
G01X203199Y2362195D01*
G01X1186268Y3088184D02*
G01X1186268Y3123234D01*
G01X1059268Y3250233D01*
G01X936031Y3250233D01*
G01X682031Y2996234D01*
G01X576669Y2996234D01*
G01X76200Y2495765D01*
G01X76200Y1854196D01*
G01X203199Y1727196D01*
G01X76200Y1600197D01*
G01X76200Y1371597D01*
G01X227000Y1220798D01*
G01X888998Y1220798D01*
G01X990598Y1322397D01*
G01X1320797Y1322397D01*
G01X1059268Y3088184D02*
G01X1059268Y3027734D01*
G01X1008468Y2976934D01*
G01X203199Y1092198D02*
G01X711198Y1092198D01*
G01X888998Y914398D01*
G01X888998Y888998D01*
G01X990598Y787398D01*
G01X990598Y776298D01*
G01X990598Y787398D02*
G01X1309697Y787398D01*
G01X1320797Y776298D01*
G01X1516467Y3244654D02*
G01X1711427Y3244654D01*
G01X1115998Y2374895D02*
G01X1090598Y2349495D01*
G01X990598Y2249495D01*
G01X660399Y1868496D02*
G01X660399Y1701807D01*
G01X1193798Y2156606D02*
G01X1193798Y2029606D01*
G01X1193798Y1995496D01*
G01X1516467Y3244654D02*
G01X1482827Y3244654D01*
G01X660399Y1955806D02*
G01X660399Y1868496D01*
G01X2158996Y1868496D02*
G01X2057396Y1868496D01*
G01X2387595Y1868496D02*
G01X2474795Y1955696D01*
G01X2158996Y1868496D02*
G01X2387595Y1868496D01*
G01X2041626Y2084266D02*
G01X2057396Y2068496D01*
G01X2041626Y2182926D02*
G01X2041626Y2084266D01*
G04 Track End*

M02*

