G04 Layer: TopLayer*
G04 EasyEDA Pro v3.2.149.88089769, 2026-09-20 21:47:13*
G04 Gerber Generator version 0.3*
G04 Scale: 100 percent, Rotated: No, Reflected: No*
G04 Dimensions in millimeters*
G04 Leading zeros omitted, absolute positions, 4 integers and 5 decimals*
G04 Generated by one-click*
G04 Object Configs: Pad,Via,Track,Text,Image,Dimension,BoardOutline,BoardCutout,CopperFilled,SolidRegion,FPCStiffener,Line,PlaneZone,ComponentProperty,ComponentSilkscreen,TearDrop*
G04 Layer Configs: 1,2,3,4,5,6,7,8,9,10,11,13,14,56*
G04 Copper Areas: 27*
%FSLAX45Y45*%
%MOMM*%
%ADD10C,0.2032*%
%ADD11C,0.254*%
%ADD12R,1.41X1.35001*%
%ADD13R,1.48501X1.72799*%
%ADD14C,1.8*%
%ADD15R,1.8X1.8*%
%ADD16C,1.524*%
%ADD17C,2.0*%
%ADD18C,0.6698*%
%ADD19C,0.6604*%
%ADD20C,0.61*%
%ADD21C,0.762*%
G75*


G04 Copper Start*
G36*
G01X787400Y3774440D02*
G01X1430902Y3774440D01*
G01X1425920Y3758936D01*
G01X1424866Y3742684D01*
G01X1427805Y3726667D01*
G01X1434559Y3711848D01*
G01X1444721Y3699122D01*
G01X1457678Y3689257D01*
G01X1472649Y3682847D01*
G01X1488731Y3680279D01*
G01X1986052Y3182958D01*
G01X1986052Y2883782D01*
G01X1979268Y2898531D01*
G01X1969103Y2911191D01*
G01X1956167Y2921001D01*
G01X1941235Y2927374D01*
G01X1925202Y2929927D01*
G01X1404940Y3450190D01*
G01X1402626Y3465371D01*
G01X1396881Y3479613D01*
G01X1388015Y3492152D01*
G01X1376503Y3502315D01*
G01X1362961Y3509557D01*
G01X1348117Y3513491D01*
G01X1332766Y3513904D01*
G01X1317731Y3510776D01*
G01X1303819Y3504273D01*
G01X1291776Y3494744D01*
G01X1282248Y3482701D01*
G01X1275745Y3468790D01*
G01X1272617Y3453755D01*
G01X1273030Y3438404D01*
G01X1276964Y3423560D01*
G01X1284206Y3410018D01*
G01X1294369Y3398505D01*
G01X1306908Y3389639D01*
G01X1321150Y3383895D01*
G01X1336331Y3381581D01*
G01X1373777Y3344134D01*
G01X1359716Y3338969D01*
G01X1347172Y3330779D01*
G01X1336787Y3319982D01*
G01X1329091Y3307130D01*
G01X1324475Y3292878D01*
G01X1323176Y3277954D01*
G01X1303340Y3297790D01*
G01X1301026Y3312971D01*
G01X1295282Y3327213D01*
G01X1286416Y3339752D01*
G01X1274903Y3349915D01*
G01X1261361Y3357157D01*
G01X1246517Y3361091D01*
G01X1231166Y3361504D01*
G01X1216132Y3358376D01*
G01X1202220Y3351873D01*
G01X1190177Y3342345D01*
G01X1180648Y3330302D01*
G01X1174145Y3316390D01*
G01X1171017Y3301355D01*
G01X1171430Y3286004D01*
G01X1175364Y3271160D01*
G01X1182606Y3257618D01*
G01X1192770Y3246106D01*
G01X1205308Y3237240D01*
G01X1219550Y3231495D01*
G01X1234731Y3229181D01*
G01X1671153Y2792760D01*
G01X1671153Y2228656D01*
G01X1672806Y2216100D01*
G01X1677652Y2204399D01*
G01X1685362Y2194351D01*
G01X1704194Y2175520D01*
G01X1705222Y2165993D01*
G01X1707613Y2156714D01*
G01X792616Y2156714D01*
G01X712944Y2236386D01*
G01X725000Y2236386D01*
G01X736067Y2238139D01*
G01X746051Y2243226D01*
G01X753974Y2251149D01*
G01X759061Y2261133D01*
G01X760814Y2272200D01*
G01X760814Y2452200D01*
G01X759061Y2463267D01*
G01X753974Y2473251D01*
G01X746051Y2481174D01*
G01X736067Y2486261D01*
G01X725000Y2488014D01*
G01X556513Y2488014D01*
G01X556513Y2517869D01*
G01X574572Y2505848D01*
G01X594428Y2497107D01*
G01X615491Y2491908D01*
G01X637133Y2490404D01*
G01X658712Y2492641D01*
G01X679586Y2498551D01*
G01X699135Y2507960D01*
G01X716776Y2520587D01*
G01X731986Y2536057D01*
G01X744312Y2553910D01*
G01X753388Y2573615D01*
G01X758943Y2594586D01*
G01X760814Y2616200D01*
G01X758943Y2637814D01*
G01X753388Y2658785D01*
G01X744312Y2678490D01*
G01X731986Y2696343D01*
G01X716776Y2711813D01*
G01X699135Y2724440D01*
G01X679586Y2733849D01*
G01X658712Y2739759D01*
G01X637133Y2741996D01*
G01X615491Y2740492D01*
G01X594428Y2735293D01*
G01X574572Y2726552D01*
G01X556513Y2714531D01*
G01X556513Y2723109D01*
G01X587217Y2753813D01*
G01X607346Y2747463D01*
G01X628253Y2744567D01*
G01X649351Y2745207D01*
G01X670044Y2749365D01*
G01X689751Y2756924D01*
G01X707917Y2767671D01*
G01X724031Y2781303D01*
G01X737639Y2797438D01*
G01X748359Y2815620D01*
G01X755888Y2835339D01*
G01X760014Y2856038D01*
G01X760622Y2877137D01*
G01X757695Y2898040D01*
G01X751314Y2918159D01*
G01X741660Y2936929D01*
G01X729004Y2953820D01*
G01X946313Y2953820D01*
G01X953643Y2939629D01*
G01X964153Y2927601D01*
G01X977235Y2918436D01*
G01X992129Y2912665D01*
G01X1007971Y2910622D01*
G01X1023841Y2912427D01*
G01X1038820Y2917974D01*
G01X1052038Y2926942D01*
G01X1062728Y2938811D01*
G01X1070270Y2952891D01*
G01X1074226Y2968366D01*
G01X1074367Y2984338D01*
G01X1070685Y2999881D01*
G01X1063394Y3014092D01*
G01X1052915Y3026148D01*
G01X1039858Y3035348D01*
G01X1024980Y3041160D01*
G01X1009144Y3043245D01*
G01X996649Y3048909D01*
G01X983068Y3050848D01*
G01X737219Y3050848D01*
G01X744857Y3062876D01*
G01X751086Y3075690D01*
G01X1069703Y3075690D01*
G01X1323194Y2822198D01*
G01X1325334Y2807668D01*
G01X1330619Y2793966D01*
G01X1338791Y2781762D01*
G01X1349448Y2771657D01*
G01X1362069Y2764145D01*
G01X1045601Y2447678D01*
G01X1032450Y2454561D01*
G01X1018098Y2458347D01*
G01X1003263Y2458845D01*
G01X988688Y2456031D01*
G01X975105Y2450046D01*
G01X963194Y2441189D01*
G01X953550Y2429905D01*
G01X946658Y2416759D01*
G01X942863Y2402409D01*
G01X942355Y2387574D01*
G01X945159Y2372998D01*
G01X951135Y2359411D01*
G01X959984Y2347494D01*
G01X971262Y2337843D01*
G01X984403Y2330942D01*
G01X998751Y2327137D01*
G01X1013585Y2326619D01*
G01X1028163Y2329414D01*
G01X1041754Y2335381D01*
G01X1053678Y2344222D01*
G01X1059268Y2344222D01*
G01X1071824Y2345875D01*
G01X1083525Y2350721D01*
G01X1093572Y2358431D01*
G01X1499972Y2764830D01*
G01X1507681Y2774878D01*
G01X1512528Y2786579D01*
G01X1514181Y2799135D01*
G01X1514181Y2804725D01*
G01X1523163Y2816893D01*
G01X1529155Y2830780D01*
G01X1531843Y2845664D01*
G01X1531090Y2860770D01*
G01X1526933Y2875312D01*
G01X1519590Y2888534D01*
G01X1509441Y2899748D01*
G01X1497015Y2908371D01*
G01X1482959Y2913954D01*
G01X1468004Y2916207D01*
G01X971703Y3412508D01*
G01X961655Y3420218D01*
G01X949955Y3425064D01*
G01X937398Y3426717D01*
G01X751083Y3426717D01*
G01X741092Y3445828D01*
G01X727985Y3462952D01*
G01X712147Y3477586D01*
G01X694042Y3489300D01*
G01X674202Y3497750D01*
G01X653211Y3502689D01*
G01X631685Y3503970D01*
G01X610256Y3501557D01*
G01X589555Y3495519D01*
G01X570188Y3486036D01*
G01X552725Y3473384D01*
G01X537679Y3457936D01*
G01X525493Y3440145D01*
G01X516523Y3420535D01*
G01X511034Y3399681D01*
G01X509186Y3378196D01*
G01X511035Y3356712D01*
G01X516525Y3335858D01*
G01X525496Y3316248D01*
G01X537684Y3298459D01*
G01X552730Y3283012D01*
G01X570194Y3270361D01*
G01X589561Y3260878D01*
G01X610263Y3254842D01*
G01X631692Y3252430D01*
G01X653218Y3253712D01*
G01X674209Y3258652D01*
G01X694048Y3267104D01*
G01X712153Y3278819D01*
G01X727990Y3293454D01*
G01X741096Y3310578D01*
G01X751085Y3329689D01*
G01X917303Y3329689D01*
G01X1074275Y3172718D01*
G01X751082Y3172718D01*
G01X740853Y3192202D01*
G01X727384Y3209607D01*
G01X711089Y3224398D01*
G01X692466Y3236123D01*
G01X672085Y3244424D01*
G01X650569Y3249047D01*
G01X628577Y3249850D01*
G01X606781Y3246808D01*
G01X585849Y3240016D01*
G01X566420Y3229680D01*
G01X549090Y3216116D01*
G01X534388Y3199741D01*
G01X522765Y3181054D01*
G01X514575Y3160628D01*
G01X510070Y3139087D01*
G01X509387Y3117090D01*
G01X512548Y3095312D01*
G01X519455Y3074417D01*
G01X529897Y3055045D01*
G01X543554Y3037789D01*
G01X542364Y3036639D01*
G01X288365Y2782639D01*
G01X280655Y2772592D01*
G01X275808Y2760891D01*
G01X274155Y2748335D01*
G01X274155Y2466096D01*
G01X255907Y2476441D01*
G01X236194Y2483611D01*
G01X215563Y2487405D01*
G01X194588Y2487719D01*
G01X173854Y2484543D01*
G01X153934Y2477967D01*
G01X135385Y2468173D01*
G01X118720Y2455432D01*
G01X104404Y2440100D01*
G01X92834Y2422603D01*
G01X84332Y2403426D01*
G01X79135Y2383104D01*
G01X77386Y2362200D01*
G01X79135Y2341296D01*
G01X84332Y2320974D01*
G01X92834Y2301797D01*
G01X104404Y2284300D01*
G01X118720Y2268968D01*
G01X135385Y2256227D01*
G01X153934Y2246433D01*
G01X173854Y2239857D01*
G01X194588Y2236681D01*
G01X215563Y2236995D01*
G01X236194Y2240789D01*
G01X255907Y2247959D01*
G01X274155Y2258304D01*
G01X274155Y2234014D01*
G01X113200Y2234014D01*
G01X102133Y2232261D01*
G01X92149Y2227174D01*
G01X84226Y2219251D01*
G01X79139Y2209267D01*
G01X77386Y2198200D01*
G01X77386Y2018200D01*
G01X79139Y2007133D01*
G01X84226Y1997149D01*
G01X92149Y1989226D01*
G01X102133Y1984139D01*
G01X113200Y1982386D01*
G01X274155Y1982386D01*
G01X274155Y1831096D01*
G01X255907Y1841441D01*
G01X236194Y1848611D01*
G01X215563Y1852405D01*
G01X194588Y1852719D01*
G01X173854Y1849543D01*
G01X153934Y1842967D01*
G01X135385Y1833173D01*
G01X118720Y1820432D01*
G01X104404Y1805100D01*
G01X92834Y1787603D01*
G01X84332Y1768426D01*
G01X79135Y1748104D01*
G01X77386Y1727200D01*
G01X79135Y1706296D01*
G01X84332Y1685974D01*
G01X92834Y1666797D01*
G01X104404Y1649300D01*
G01X118720Y1633968D01*
G01X135385Y1621227D01*
G01X153934Y1611433D01*
G01X173854Y1604857D01*
G01X194588Y1601681D01*
G01X215563Y1601995D01*
G01X236194Y1605789D01*
G01X255907Y1612959D01*
G01X274155Y1623304D01*
G01X274155Y1599014D01*
G01X113200Y1599014D01*
G01X102133Y1597261D01*
G01X92149Y1592174D01*
G01X84226Y1584251D01*
G01X79139Y1574267D01*
G01X77386Y1563200D01*
G01X77386Y1383200D01*
G01X79139Y1372133D01*
G01X84226Y1362149D01*
G01X92149Y1354226D01*
G01X102133Y1349139D01*
G01X113200Y1347386D01*
G01X274155Y1347386D01*
G01X274155Y1231763D01*
G01X250981Y1208588D01*
G01X230403Y1215038D01*
G01X209027Y1217879D01*
G01X187480Y1217028D01*
G01X166394Y1212510D01*
G01X146390Y1204457D01*
G01X128054Y1193107D01*
G01X111927Y1178793D01*
G01X98480Y1161934D01*
G01X88110Y1143027D01*
G01X81121Y1122627D01*
G01X77718Y1101333D01*
G01X78002Y1079771D01*
G01X81963Y1058573D01*
G01X89486Y1038364D01*
G01X100350Y1019736D01*
G01X114235Y1003237D01*
G01X130734Y989352D01*
G01X149361Y978487D01*
G01X169571Y970964D01*
G01X190768Y967002D01*
G01X212330Y966718D01*
G01X233624Y970120D01*
G01X254025Y977109D01*
G01X272932Y987479D01*
G01X289791Y1000925D01*
G01X304106Y1017052D01*
G01X315456Y1035387D01*
G01X323509Y1055392D01*
G01X328028Y1076477D01*
G01X328879Y1098024D01*
G01X326038Y1119401D01*
G01X319589Y1139978D01*
G01X356974Y1177363D01*
G01X364684Y1187411D01*
G01X369530Y1199111D01*
G01X371183Y1211668D01*
G01X371183Y2728240D01*
G01X509247Y2866303D01*
G01X511957Y2843943D01*
G01X518610Y2822425D01*
G01X473694Y2777509D01*
G01X465985Y2767462D01*
G01X461138Y2755761D01*
G01X459485Y2743205D01*
G01X459485Y2235206D01*
G01X461138Y2222649D01*
G01X465985Y2210949D01*
G01X473694Y2200901D01*
G01X611885Y2062711D01*
G01X611885Y2001016D01*
G01X603379Y1989663D01*
G01X597482Y1976760D01*
G01X594465Y1962899D01*
G01X594465Y1948713D01*
G01X597482Y1934852D01*
G01X603379Y1921949D01*
G01X611885Y1910596D01*
G01X611885Y908818D01*
G01X602787Y896447D01*
G01X596778Y882315D01*
G01X594181Y867179D01*
G01X595135Y851852D01*
G01X599589Y837156D01*
G01X607304Y823878D01*
G01X617867Y812730D01*
G01X630710Y804312D01*
G01X645145Y799073D01*
G01X660399Y797294D01*
G01X675652Y799073D01*
G01X690087Y804312D01*
G01X702931Y812730D01*
G01X713493Y823878D01*
G01X721208Y837156D01*
G01X725662Y851852D01*
G01X726616Y867179D01*
G01X724020Y882315D01*
G01X718011Y896447D01*
G01X708913Y908818D01*
G01X708913Y928200D01*
G01X3099986Y928200D01*
G01X3099986Y748200D01*
G01X3101739Y737133D01*
G01X3106826Y727149D01*
G01X3114749Y719226D01*
G01X3124733Y714139D01*
G01X3135800Y712386D01*
G01X3315800Y712386D01*
G01X3326867Y714139D01*
G01X3336851Y719226D01*
G01X3344774Y727149D01*
G01X3349861Y737133D01*
G01X3351614Y748200D01*
G01X3351614Y928200D01*
G01X3351614Y928200D01*
G01X3349861Y939267D01*
G01X3344774Y949251D01*
G01X3336851Y957174D01*
G01X3326867Y962261D01*
G01X3315800Y964014D01*
G01X3135800Y964014D01*
G01X3124733Y962261D01*
G01X3114749Y957174D01*
G01X3106826Y949251D01*
G01X3101739Y939267D01*
G01X3099986Y928200D01*
G01X708913Y928200D01*
G01X708913Y1087778D01*
G01X2499081Y1087778D01*
G01X2500859Y1072525D01*
G01X2506098Y1058089D01*
G01X2514517Y1045246D01*
G01X2525664Y1034683D01*
G01X2538942Y1026968D01*
G01X2553639Y1022514D01*
G01X2568966Y1021560D01*
G01X2584101Y1024157D01*
G01X2598233Y1030166D01*
G01X2610605Y1039264D01*
G01X3111665Y1039264D01*
G01X3122380Y1020553D01*
G01X3136132Y1003946D01*
G01X3152518Y989931D01*
G01X3171056Y978920D01*
G01X3191203Y971237D01*
G01X3212365Y967106D01*
G01X3233922Y966649D01*
G01X3255240Y969879D01*
G01X3275694Y976702D01*
G01X3294683Y986918D01*
G01X3311648Y1000226D01*
G01X3326092Y1016235D01*
G01X3337590Y1034475D01*
G01X3345804Y1054411D01*
G01X3350495Y1075456D01*
G01X3351522Y1096993D01*
G01X3348858Y1118390D01*
G01X3342579Y1139017D01*
G01X3332870Y1158270D01*
G01X3320016Y1175581D01*
G01X3304395Y1190444D01*
G01X3286466Y1202421D01*
G01X3266755Y1211161D01*
G01X3245841Y1216407D01*
G01X3224339Y1218005D01*
G01X3202879Y1215908D01*
G01X3182093Y1210178D01*
G01X3162590Y1200982D01*
G01X3144944Y1188592D01*
G01X3129672Y1173370D01*
G01X3117224Y1155764D01*
G01X3107965Y1136292D01*
G01X2610605Y1136292D01*
G01X2610605Y1136292D01*
G01X2598233Y1145390D01*
G01X2584101Y1151399D01*
G01X2568966Y1153996D01*
G01X2553639Y1153041D01*
G01X2538942Y1148587D01*
G01X2525664Y1140872D01*
G01X2514517Y1130310D01*
G01X2506098Y1117467D01*
G01X2500859Y1103031D01*
G01X2499081Y1087778D01*
G01X708913Y1087778D01*
G01X708913Y1478427D01*
G01X2473681Y1478427D01*
G01X2475459Y1463173D01*
G01X2480698Y1448738D01*
G01X2489117Y1435895D01*
G01X2500264Y1425332D01*
G01X2513542Y1417617D01*
G01X2528239Y1413163D01*
G01X2543566Y1412209D01*
G01X2558701Y1414806D01*
G01X2572833Y1420815D01*
G01X2585205Y1429913D01*
G01X2977034Y1429913D01*
G01X2989590Y1431566D01*
G01X3001291Y1436412D01*
G01X3011338Y1444122D01*
G01X3099986Y1532770D01*
G01X3099986Y1383200D01*
G01X3101739Y1372133D01*
G01X3106826Y1362149D01*
G01X3114749Y1354226D01*
G01X3124733Y1349139D01*
G01X3135800Y1347386D01*
G01X3315800Y1347386D01*
G01X3326867Y1349139D01*
G01X3336851Y1354226D01*
G01X3344774Y1362149D01*
G01X3349861Y1372133D01*
G01X3351614Y1383200D01*
G01X3351614Y1563200D01*
G01X3349861Y1574267D01*
G01X3344774Y1584251D01*
G01X3336851Y1592174D01*
G01X3326867Y1597261D01*
G01X3315800Y1599014D01*
G01X3166230Y1599014D01*
G01X3178026Y1610810D01*
G01X3198603Y1604361D01*
G01X3219980Y1601521D01*
G01X3241527Y1602373D01*
G01X3262612Y1606892D01*
G01X3282616Y1614946D01*
G01X3300951Y1626297D01*
G01X3317078Y1640612D01*
G01X3330524Y1657471D01*
G01X3340893Y1676379D01*
G01X3347881Y1696780D01*
G01X3351282Y1718074D01*
G01X3350998Y1739636D01*
G01X3347035Y1760833D01*
G01X3339511Y1781042D01*
G01X3328646Y1799669D01*
G01X3314760Y1816168D01*
G01X3298261Y1830052D01*
G01X3279632Y1840915D01*
G01X3259423Y1848438D01*
G01X3238225Y1852399D01*
G01X3216663Y1852682D01*
G01X3195369Y1849278D01*
G01X3174969Y1842288D01*
G01X3156063Y1831918D01*
G01X3139204Y1818471D01*
G01X3124890Y1802342D01*
G01X3113541Y1784007D01*
G01X3105489Y1764002D01*
G01X3100972Y1742916D01*
G01X3100121Y1721369D01*
G01X3102963Y1699993D01*
G01X3109414Y1679416D01*
G01X2956939Y1526941D01*
G01X2585205Y1526941D01*
G01X2585205Y1526941D01*
G01X2572833Y1536039D01*
G01X2558701Y1542048D01*
G01X2543566Y1544645D01*
G01X2528239Y1543690D01*
G01X2513542Y1539236D01*
G01X2500264Y1531521D01*
G01X2489117Y1520959D01*
G01X2480698Y1508116D01*
G01X2475459Y1493680D01*
G01X2473681Y1478427D01*
G01X708913Y1478427D01*
G01X708913Y1729492D01*
G01X2286144Y1729492D01*
G01X2295391Y1710077D01*
G01X2307587Y1692364D01*
G01X2322425Y1676799D01*
G01X2339535Y1663771D01*
G01X2358487Y1653606D01*
G01X2378805Y1646561D01*
G01X2399981Y1642811D01*
G01X2421483Y1642451D01*
G01X2442772Y1645489D01*
G01X2463315Y1651850D01*
G01X2482597Y1661373D01*
G01X2500133Y1673821D01*
G01X2515485Y1688881D01*
G01X2528267Y1706175D01*
G01X2538160Y1725270D01*
G01X2544914Y1745687D01*
G01X2548361Y1766914D01*
G01X2548414Y1788419D01*
G01X2562660Y1791876D01*
G01X2575799Y1798379D01*
G01X2587188Y1807609D01*
G01X2596271Y1819117D01*
G01X2602603Y1832339D01*
G01X2605876Y1846629D01*
G01X2605928Y1861289D01*
G01X2602759Y1875602D01*
G01X2600880Y1879600D01*
G01X2658186Y1879600D01*
G01X2660038Y1857246D01*
G01X2665545Y1835501D01*
G01X2674555Y1814960D01*
G01X2686824Y1796181D01*
G01X2702016Y1779678D01*
G01X2719717Y1765901D01*
G01X2739444Y1755225D01*
G01X2760660Y1747942D01*
G01X2782785Y1744250D01*
G01X2805215Y1744250D01*
G01X2827340Y1747942D01*
G01X2848556Y1755225D01*
G01X2868283Y1765901D01*
G01X2885984Y1779678D01*
G01X2901176Y1796181D01*
G01X2913445Y1814960D01*
G01X2922455Y1835501D01*
G01X2927962Y1857246D01*
G01X2929814Y1879600D01*
G01X2927962Y1901954D01*
G01X2922455Y1923699D01*
G01X2913445Y1944240D01*
G01X2901176Y1963019D01*
G01X2885984Y1979522D01*
G01X2868283Y1993299D01*
G01X2848556Y2003975D01*
G01X2827340Y2011258D01*
G01X2805215Y2014950D01*
G01X2782785Y2014950D01*
G01X2760660Y2011258D01*
G01X2739444Y2003975D01*
G01X2719717Y1993299D01*
G01X2702016Y1979522D01*
G01X2686824Y1963019D01*
G01X2674555Y1944240D01*
G01X2665545Y1923699D01*
G01X2660038Y1901954D01*
G01X2658186Y1879600D01*
G01X2658186Y1879600D01*
G01X2600880Y1879600D01*
G01X2596522Y1888869D01*
G01X2587523Y1900442D01*
G01X2576201Y1909754D01*
G01X2563109Y1916351D01*
G01X2563109Y2035691D01*
G01X2608504Y2081086D01*
G01X2713700Y2081086D01*
G01X2725056Y2082933D01*
G01X2735239Y2088286D01*
G01X2743200Y2096591D01*
G01X2751161Y2088286D01*
G01X2761344Y2082933D01*
G01X2772700Y2081086D01*
G01X2913700Y2081086D01*
G01X2924767Y2082838D01*
G01X2934751Y2087925D01*
G01X2942674Y2095849D01*
G01X2947761Y2105832D01*
G01X2949514Y2116900D01*
G01X2949514Y2198200D01*
G01X3099986Y2198200D01*
G01X3099986Y2018200D01*
G01X3101739Y2007133D01*
G01X3106826Y1997149D01*
G01X3114749Y1989226D01*
G01X3124733Y1984139D01*
G01X3135800Y1982386D01*
G01X3315800Y1982386D01*
G01X3326867Y1984139D01*
G01X3336851Y1989226D01*
G01X3344774Y1997149D01*
G01X3349861Y2007133D01*
G01X3351614Y2018200D01*
G01X3351614Y2198200D01*
G01X3351614Y2198200D01*
G01X3349861Y2209267D01*
G01X3344774Y2219251D01*
G01X3336851Y2227174D01*
G01X3326867Y2232261D01*
G01X3315800Y2234014D01*
G01X3135800Y2234014D01*
G01X3124733Y2232261D01*
G01X3114749Y2227174D01*
G01X3106826Y2219251D01*
G01X3101739Y2209267D01*
G01X3099986Y2198200D01*
G01X2949514Y2198200D01*
G01X2949514Y2251901D01*
G01X2947761Y2262968D01*
G01X2942674Y2272951D01*
G01X2934751Y2280875D01*
G01X2924767Y2285962D01*
G01X2913700Y2287715D01*
G01X2772700Y2287715D01*
G01X2761344Y2285867D01*
G01X2751161Y2280514D01*
G01X2743200Y2272209D01*
G01X2735239Y2280514D01*
G01X2725056Y2285867D01*
G01X2713700Y2287715D01*
G01X2691719Y2287715D01*
G01X2691719Y2362200D01*
G01X3099986Y2362200D01*
G01X3101898Y2340353D01*
G01X3107574Y2319169D01*
G01X3116842Y2299293D01*
G01X3129421Y2281328D01*
G01X3144928Y2265821D01*
G01X3162893Y2253242D01*
G01X3182769Y2243974D01*
G01X3203953Y2238298D01*
G01X3225800Y2236386D01*
G01X3225800Y2236386D01*
G01X3247647Y2238298D01*
G01X3268831Y2243974D01*
G01X3288707Y2253242D01*
G01X3306672Y2265821D01*
G01X3322179Y2281328D01*
G01X3334758Y2299293D01*
G01X3344026Y2319169D01*
G01X3349702Y2340353D01*
G01X3351614Y2362200D01*
G01X3349702Y2384047D01*
G01X3344026Y2405231D01*
G01X3334758Y2425107D01*
G01X3322179Y2443072D01*
G01X3306672Y2458579D01*
G01X3288707Y2471158D01*
G01X3268831Y2480426D01*
G01X3247647Y2486102D01*
G01X3225800Y2488014D01*
G01X3203953Y2486102D01*
G01X3182769Y2480426D01*
G01X3162893Y2471158D01*
G01X3144928Y2458579D01*
G01X3129421Y2443072D01*
G01X3116842Y2425107D01*
G01X3107574Y2405231D01*
G01X3101898Y2384047D01*
G01X3099986Y2362200D01*
G01X2691719Y2362200D01*
G01X2691719Y2385886D01*
G01X2713700Y2385886D01*
G01X2725056Y2387733D01*
G01X2735239Y2393086D01*
G01X2743200Y2401391D01*
G01X2751161Y2393086D01*
G01X2761344Y2387733D01*
G01X2772700Y2385886D01*
G01X2913700Y2385886D01*
G01X2924767Y2387638D01*
G01X2934751Y2392725D01*
G01X2942674Y2400649D01*
G01X2947761Y2410632D01*
G01X2949514Y2421700D01*
G01X2949514Y2556701D01*
G01X2947761Y2567768D01*
G01X2942674Y2577751D01*
G01X2934751Y2585675D01*
G01X2924767Y2590762D01*
G01X2913700Y2592515D01*
G01X2772700Y2592515D01*
G01X2761344Y2590667D01*
G01X2751161Y2585314D01*
G01X2743200Y2577009D01*
G01X2735239Y2585314D01*
G01X2725056Y2590667D01*
G01X2713700Y2592515D01*
G01X2572700Y2592515D01*
G01X2561633Y2590762D01*
G01X2551649Y2585675D01*
G01X2543726Y2577751D01*
G01X2538639Y2567768D01*
G01X2536886Y2556701D01*
G01X2536886Y2421700D01*
G01X2538639Y2410632D01*
G01X2543726Y2400649D01*
G01X2551649Y2392725D01*
G01X2561633Y2387638D01*
G01X2572700Y2385886D01*
G01X2594691Y2385886D01*
G01X2594691Y2287715D01*
G01X2572700Y2287715D01*
G01X2561633Y2285962D01*
G01X2551649Y2280875D01*
G01X2543726Y2272951D01*
G01X2538639Y2262968D01*
G01X2536886Y2251901D01*
G01X2536886Y2146686D01*
G01X2480290Y2090090D01*
G01X2472581Y2080043D01*
G01X2467734Y2068342D01*
G01X2466081Y2055786D01*
G01X2466081Y1903011D01*
G01X2445394Y1909894D01*
G01X2423872Y1913378D01*
G01X2402070Y1913374D01*
G01X2380550Y1909880D01*
G01X2359866Y1902989D01*
G01X2340551Y1892876D01*
G01X2323103Y1879804D01*
G01X2307972Y1864108D01*
G01X2295547Y1846193D01*
G01X2286149Y1826520D01*
G01X2210334Y1826520D01*
G01X2218099Y1838424D01*
G01X2223150Y1851709D01*
G01X2225253Y1865766D01*
G01X2224313Y1879948D01*
G01X2220373Y1893603D01*
G01X2213613Y1906106D01*
G01X2204344Y1916881D01*
G01X2192992Y1925433D01*
G01X2180079Y1931369D01*
G01X2166196Y1934418D01*
G01X2151984Y1934438D01*
G01X2138093Y1931430D01*
G01X2125162Y1925530D01*
G01X2113786Y1917010D01*
G01X2077491Y1917010D01*
G01X1985615Y2008886D01*
G01X2184400Y2008886D01*
G01X2198820Y2010306D01*
G01X2212686Y2014512D01*
G01X2225464Y2021343D01*
G01X2236665Y2030535D01*
G01X2439865Y2233735D01*
G01X2449057Y2244936D01*
G01X2455888Y2257714D01*
G01X2460094Y2271580D01*
G01X2461514Y2286000D01*
G01X2461514Y2770886D01*
G01X2473877Y2770886D01*
G01X2473877Y2758401D01*
G01X2475630Y2747333D01*
G01X2480717Y2737350D01*
G01X2488641Y2729426D01*
G01X2498624Y2724339D01*
G01X2509691Y2722587D01*
G01X2658193Y2722587D01*
G01X2669260Y2724339D01*
G01X2679243Y2729426D01*
G01X2687167Y2737350D01*
G01X2692254Y2747333D01*
G01X2694007Y2758401D01*
G01X2694007Y2931199D01*
G01X2792393Y2931199D01*
G01X2792393Y2758401D01*
G01X2792393Y2758401D01*
G01X2794146Y2747333D01*
G01X2799233Y2737350D01*
G01X2807157Y2729426D01*
G01X2817140Y2724339D01*
G01X2828207Y2722587D01*
G01X2976709Y2722587D01*
G01X2987776Y2724339D01*
G01X2997759Y2729426D01*
G01X3005683Y2737350D01*
G01X3010770Y2747333D01*
G01X3012523Y2758401D01*
G01X3012523Y2931199D01*
G01X3010770Y2942267D01*
G01X3005683Y2952250D01*
G01X2997759Y2960174D01*
G01X2987776Y2965261D01*
G01X2976709Y2967013D01*
G01X2828207Y2967013D01*
G01X2817140Y2965261D01*
G01X2807157Y2960174D01*
G01X2799233Y2952250D01*
G01X2794146Y2942267D01*
G01X2792393Y2931199D01*
G01X2694007Y2931199D01*
G01X2692254Y2942267D01*
G01X2687167Y2952250D01*
G01X2679243Y2960174D01*
G01X2669260Y2965261D01*
G01X2658193Y2967013D01*
G01X2509691Y2967013D01*
G01X2498624Y2965261D01*
G01X2488641Y2960174D01*
G01X2480717Y2952250D01*
G01X2475630Y2942267D01*
G01X2473877Y2931199D01*
G01X2473877Y2918714D01*
G01X2461514Y2918714D01*
G01X2461514Y3013148D01*
G01X2477008Y3008221D01*
G01X2493235Y3007212D01*
G01X2509220Y3010182D01*
G01X2524002Y3016953D01*
G01X2536692Y3027116D01*
G01X2546527Y3040062D01*
G01X2552918Y3055012D01*
G01X2555478Y3071067D01*
G01X2650509Y3166099D01*
G01X2658219Y3176147D01*
G01X2663066Y3187847D01*
G01X2664719Y3200404D01*
G01X2664719Y3388399D01*
G01X2721273Y3388399D01*
G01X2721273Y3215601D01*
G01X2721273Y3215601D01*
G01X2723026Y3204533D01*
G01X2728113Y3194550D01*
G01X2736037Y3186626D01*
G01X2746020Y3181539D01*
G01X2757087Y3179787D01*
G01X2905589Y3179787D01*
G01X2916656Y3181539D01*
G01X2926639Y3186626D01*
G01X2934563Y3194550D01*
G01X2939650Y3204533D01*
G01X2941403Y3215601D01*
G01X2941403Y3388399D01*
G01X2940832Y3392000D01*
G01X3054266Y3392000D01*
G01X3054266Y3212000D01*
G01X3056019Y3200933D01*
G01X3061106Y3190949D01*
G01X3069029Y3183026D01*
G01X3079013Y3177939D01*
G01X3090080Y3176186D01*
G01X3270080Y3176186D01*
G01X3281147Y3177939D01*
G01X3291131Y3183026D01*
G01X3299054Y3190949D01*
G01X3304141Y3200933D01*
G01X3305894Y3212000D01*
G01X3305894Y3392000D01*
G01X3305894Y3392000D01*
G01X3304141Y3403067D01*
G01X3299054Y3413051D01*
G01X3291131Y3420974D01*
G01X3281147Y3426061D01*
G01X3270080Y3427814D01*
G01X3090080Y3427814D01*
G01X3079013Y3426061D01*
G01X3069029Y3420974D01*
G01X3061106Y3413051D01*
G01X3056019Y3403067D01*
G01X3054266Y3392000D01*
G01X2940832Y3392000D01*
G01X2939650Y3399467D01*
G01X2934563Y3409450D01*
G01X2926639Y3417374D01*
G01X2916656Y3422461D01*
G01X2905589Y3424213D01*
G01X2757087Y3424213D01*
G01X2746020Y3422461D01*
G01X2736037Y3417374D01*
G01X2728113Y3409450D01*
G01X2723026Y3399467D01*
G01X2721273Y3388399D01*
G01X2664719Y3388399D01*
G01X2664719Y3485108D01*
G01X2741285Y3561674D01*
G01X3054394Y3561674D01*
G01X3055401Y3539138D01*
G01X3060417Y3517143D01*
G01X3069279Y3496398D01*
G01X3081704Y3477569D01*
G01X3097292Y3461262D01*
G01X3115542Y3448000D01*
G01X3135866Y3438211D01*
G01X3157612Y3432209D01*
G01X3180080Y3430186D01*
G01X3202548Y3432209D01*
G01X3224294Y3438211D01*
G01X3244618Y3448000D01*
G01X3262868Y3461262D01*
G01X3278456Y3477569D01*
G01X3290881Y3496398D01*
G01X3299743Y3517143D01*
G01X3304759Y3539138D01*
G01X3305766Y3561674D01*
G01X3302732Y3584028D01*
G01X3295755Y3605481D01*
G01X3285059Y3625344D01*
G01X3270988Y3642976D01*
G01X3253994Y3657813D01*
G01X3253994Y3708400D01*
G01X3252959Y3720727D01*
G01X3249882Y3732710D01*
G01X3244850Y3744011D01*
G01X3244850Y4043269D01*
G01X3259169Y4058396D01*
G01X3270440Y4075914D01*
G01X3278272Y4095215D01*
G01X3282396Y4115633D01*
G01X3282667Y4136461D01*
G01X3279078Y4156979D01*
G01X3271751Y4176478D01*
G01X3260941Y4194284D01*
G01X3247022Y4209780D01*
G01X3230473Y4222430D01*
G01X3211869Y4231798D01*
G01X3191852Y4237560D01*
G01X3171114Y4239515D01*
G01X3150372Y4237597D01*
G01X3130344Y4231872D01*
G01X3111723Y4222538D01*
G01X3095152Y4209917D01*
G01X3081204Y4194446D01*
G01X3070362Y4176661D01*
G01X3063000Y4157175D01*
G01X3059374Y4136663D01*
G01X3059607Y4115834D01*
G01X3063694Y4095409D01*
G01X3071491Y4076094D01*
G01X3082730Y4058556D01*
G01X3097022Y4043403D01*
G01X3097022Y3717544D01*
G01X3097022Y3717544D01*
G01X3098057Y3705217D01*
G01X3101134Y3693234D01*
G01X3106166Y3681933D01*
G01X3106166Y3657813D01*
G01X3089172Y3642976D01*
G01X3075101Y3625344D01*
G01X3064405Y3605481D01*
G01X3057428Y3584028D01*
G01X3054394Y3561674D01*
G01X2741285Y3561674D01*
G01X2764007Y3584396D01*
G01X2784905Y3577040D01*
G01X2806722Y3573179D01*
G01X2828876Y3572917D01*
G01X2850778Y3576260D01*
G01X2871844Y3583120D01*
G01X2891516Y3593314D01*
G01X2909268Y3606570D01*
G01X2924628Y3622537D01*
G01X2937188Y3640788D01*
G01X2946614Y3660838D01*
G01X2952654Y3682155D01*
G01X2955148Y3704169D01*
G01X2954030Y3726297D01*
G01X2949329Y3747948D01*
G01X2941170Y3768546D01*
G01X2929771Y3787544D01*
G01X2915434Y3804436D01*
G01X2898542Y3818772D01*
G01X2879544Y3830171D01*
G01X2858945Y3838329D01*
G01X2837294Y3843030D01*
G01X2815167Y3844148D01*
G01X2793152Y3841654D01*
G01X2771836Y3835613D01*
G01X2751786Y3826187D01*
G01X2733535Y3813626D01*
G01X2717569Y3798266D01*
G01X2704313Y3780513D01*
G01X2694119Y3760842D01*
G01X2687260Y3739775D01*
G01X2683917Y3717873D01*
G01X2684179Y3695719D01*
G01X2688040Y3673903D01*
G01X2695397Y3653004D01*
G01X2581900Y3539508D01*
G01X2574190Y3529460D01*
G01X2569344Y3517759D01*
G01X2567691Y3505203D01*
G01X2567691Y3424213D01*
G01X2461514Y3424213D01*
G01X2461514Y3715884D01*
G01X2596016Y3850386D01*
G01X2921000Y3850386D01*
G01X2937447Y3852239D01*
G01X2953070Y3857706D01*
G01X2967085Y3866512D01*
G01X2978788Y3878215D01*
G01X2987594Y3892230D01*
G01X2993061Y3907853D01*
G01X2994914Y3924300D01*
G01X2994914Y4043336D01*
G01X3009220Y4058476D01*
G01X3020474Y4076004D01*
G01X3028289Y4095312D01*
G01X3032394Y4115734D01*
G01X3032647Y4136562D01*
G01X3029039Y4157077D01*
G01X3021695Y4176569D01*
G01X3010869Y4194365D01*
G01X2996935Y4209848D01*
G01X2980375Y4222484D01*
G01X2961762Y4231835D01*
G01X2941740Y4237579D01*
G01X2921000Y4239515D01*
G01X2900260Y4237579D01*
G01X2880238Y4231835D01*
G01X2861625Y4222484D01*
G01X2845065Y4209848D01*
G01X2831131Y4194365D01*
G01X2820305Y4176569D01*
G01X2812961Y4157077D01*
G01X2809353Y4136562D01*
G01X2809606Y4115734D01*
G01X2813711Y4095312D01*
G01X2821526Y4076004D01*
G01X2832780Y4058476D01*
G01X2847086Y4043336D01*
G01X2847086Y3998214D01*
G01X2565400Y3998214D01*
G01X2550980Y3996794D01*
G01X2537114Y3992588D01*
G01X2524336Y3985757D01*
G01X2513135Y3976565D01*
G01X2335335Y3798765D01*
G01X2326143Y3787564D01*
G01X2319312Y3774786D01*
G01X2315106Y3760920D01*
G01X2313686Y3746500D01*
G01X2313686Y2316616D01*
G01X2153784Y2156714D01*
G01X1833320Y2156714D01*
G01X1836500Y2171765D01*
G01X1836127Y2187144D01*
G01X1832220Y2202023D01*
G01X1824989Y2215602D01*
G01X1814825Y2227149D01*
G01X1802274Y2236044D01*
G01X1788010Y2241807D01*
G01X1772803Y2244129D01*
G01X1768181Y2248751D01*
G01X1768181Y2657793D01*
G01X1778296Y2647027D01*
G01X1790544Y2638767D01*
G01X1804316Y2633424D01*
G01X1818930Y2631262D01*
G01X2041924Y2408268D01*
G01X2035777Y2387599D01*
G01X2033249Y2366184D01*
G01X2034416Y2344652D01*
G01X2039243Y2323635D01*
G01X2047587Y2303751D01*
G01X2059205Y2285584D01*
G01X2073754Y2269668D01*
G01X2090807Y2256470D01*
G01X2109863Y2246378D01*
G01X2130363Y2239689D01*
G01X2151705Y2236598D01*
G01X2173260Y2237197D01*
G01X2194397Y2241468D01*
G01X2214494Y2249286D01*
G01X2232960Y2260421D01*
G01X2249254Y2274546D01*
G01X2262897Y2291245D01*
G01X2273487Y2310029D01*
G01X2280715Y2330346D01*
G01X2284366Y2351598D01*
G01X2284335Y2373162D01*
G01X2280622Y2394404D01*
G01X2273337Y2414700D01*
G01X2262692Y2433453D01*
G01X2249002Y2450114D01*
G01X2232667Y2464191D01*
G01X2214169Y2475273D01*
G01X2194049Y2483033D01*
G01X2172901Y2487244D01*
G01X2151343Y2487781D01*
G01X2130011Y2484629D01*
G01X2109530Y2477880D01*
G01X2063131Y2524279D01*
G01X2068619Y2528677D01*
G01X2085398Y2514162D01*
G01X2104466Y2502819D01*
G01X2125230Y2495003D01*
G01X2147044Y2490956D01*
G01X2169229Y2490803D01*
G01X2191097Y2494549D01*
G01X2211966Y2502079D01*
G01X2231189Y2513157D01*
G01X2248167Y2527439D01*
G01X2262371Y2544482D01*
G01X2273362Y2563755D01*
G01X2280796Y2584659D01*
G01X2284443Y2606543D01*
G01X2284189Y2628728D01*
G01X2280042Y2650523D01*
G01X2272131Y2671251D01*
G01X2260702Y2690267D01*
G01X2246110Y2706980D01*
G01X2228810Y2720870D01*
G01X2209338Y2731505D01*
G01X2188302Y2738554D01*
G01X2166354Y2741799D01*
G01X2144178Y2741138D01*
G01X2122462Y2736592D01*
G01X2101883Y2728302D01*
G01X2083080Y2716526D01*
G01X2083080Y2769874D01*
G01X2101222Y2758438D01*
G01X2121042Y2750249D01*
G01X2141965Y2745545D01*
G01X2163383Y2744463D01*
G01X2184674Y2747034D01*
G01X2205219Y2753183D01*
G01X2224421Y2762733D01*
G01X2241722Y2775405D01*
G01X2256620Y2790831D01*
G01X2268681Y2808563D01*
G01X2277556Y2828086D01*
G01X2282986Y2848833D01*
G01X2284814Y2870200D01*
G01X2282986Y2891567D01*
G01X2277556Y2912314D01*
G01X2268681Y2931837D01*
G01X2256620Y2949569D01*
G01X2241722Y2964995D01*
G01X2224421Y2977667D01*
G01X2205219Y2987217D01*
G01X2184674Y2993366D01*
G01X2163383Y2995937D01*
G01X2141965Y2994855D01*
G01X2121042Y2990151D01*
G01X2101222Y2981962D01*
G01X2083080Y2970526D01*
G01X2083080Y3023874D01*
G01X2101382Y3012355D01*
G01X2121387Y3004140D01*
G01X2142503Y2999472D01*
G01X2164106Y2998490D01*
G01X2185558Y3001221D01*
G01X2206226Y3007586D01*
G01X2225498Y3017396D01*
G01X2242806Y3030362D01*
G01X2257638Y3046100D01*
G01X2269555Y3064145D01*
G01X2278207Y3083965D01*
G01X2283336Y3104973D01*
G01X2284792Y3126550D01*
G01X2282531Y3148057D01*
G01X2276621Y3168859D01*
G01X2267236Y3188342D01*
G01X2254652Y3205930D01*
G01X2239243Y3221103D01*
G01X2221463Y3233413D01*
G01X2201838Y3242496D01*
G01X2180947Y3248085D01*
G01X2159408Y3250013D01*
G01X2137856Y3248224D01*
G01X2116929Y3242771D01*
G01X2097246Y3233815D01*
G01X2079386Y3221621D01*
G01X2074903Y3230007D01*
G01X2068870Y3237358D01*
G01X1928028Y3378200D01*
G01X2033186Y3378200D01*
G01X2035098Y3356353D01*
G01X2040774Y3335169D01*
G01X2050042Y3315293D01*
G01X2062621Y3297328D01*
G01X2078128Y3281821D01*
G01X2096093Y3269242D01*
G01X2115969Y3259974D01*
G01X2137153Y3254298D01*
G01X2159000Y3252386D01*
G01X2180847Y3254298D01*
G01X2202031Y3259974D01*
G01X2221907Y3269242D01*
G01X2239872Y3281821D01*
G01X2255379Y3297328D01*
G01X2267958Y3315293D01*
G01X2277226Y3335169D01*
G01X2282902Y3356353D01*
G01X2284814Y3378200D01*
G01X2282902Y3400047D01*
G01X2277226Y3421231D01*
G01X2267958Y3441107D01*
G01X2255379Y3459072D01*
G01X2239872Y3474579D01*
G01X2221907Y3487158D01*
G01X2202031Y3496426D01*
G01X2180847Y3502102D01*
G01X2159000Y3504014D01*
G01X2137153Y3502102D01*
G01X2115969Y3496426D01*
G01X2096093Y3487158D01*
G01X2078128Y3474579D01*
G01X2062621Y3459072D01*
G01X2050042Y3441107D01*
G01X2040774Y3421231D01*
G01X2035098Y3400047D01*
G01X2033186Y3378200D01*
G01X2033186Y3378200D01*
G01X1928028Y3378200D01*
G01X1674028Y3632200D01*
G01X2033186Y3632200D01*
G01X2035098Y3610353D01*
G01X2040774Y3589169D01*
G01X2050042Y3569293D01*
G01X2062621Y3551328D01*
G01X2078128Y3535821D01*
G01X2096093Y3523242D01*
G01X2115969Y3513974D01*
G01X2137153Y3508298D01*
G01X2159000Y3506386D01*
G01X2180847Y3508298D01*
G01X2202031Y3513974D01*
G01X2221907Y3523242D01*
G01X2239872Y3535821D01*
G01X2255379Y3551328D01*
G01X2267958Y3569293D01*
G01X2277226Y3589169D01*
G01X2282902Y3610353D01*
G01X2284814Y3632200D01*
G01X2282902Y3654047D01*
G01X2277226Y3675231D01*
G01X2267958Y3695107D01*
G01X2255379Y3713072D01*
G01X2239872Y3728579D01*
G01X2221907Y3741158D01*
G01X2202031Y3750426D01*
G01X2180847Y3756102D01*
G01X2159000Y3758014D01*
G01X2137153Y3756102D01*
G01X2115969Y3750426D01*
G01X2096093Y3741158D01*
G01X2078128Y3728579D01*
G01X2062621Y3713072D01*
G01X2050042Y3695107D01*
G01X2040774Y3675231D01*
G01X2035098Y3654047D01*
G01X2033186Y3632200D01*
G01X2033186Y3632200D01*
G01X1674028Y3632200D01*
G01X1557340Y3748888D01*
G01X1555564Y3761970D01*
G01X1551232Y3774440D01*
G01X2006600Y3774440D01*
G01X2011680Y3775801D01*
G01X2015399Y3779520D01*
G01X2016760Y3784600D01*
G01X2016760Y3886200D01*
G01X2033186Y3886200D01*
G01X2035098Y3864353D01*
G01X2040774Y3843169D01*
G01X2050042Y3823293D01*
G01X2062621Y3805328D01*
G01X2078128Y3789821D01*
G01X2096093Y3777242D01*
G01X2115969Y3767974D01*
G01X2137153Y3762298D01*
G01X2159000Y3760386D01*
G01X2180847Y3762298D01*
G01X2202031Y3767974D01*
G01X2221907Y3777242D01*
G01X2239872Y3789821D01*
G01X2255379Y3805328D01*
G01X2267958Y3823293D01*
G01X2277226Y3843169D01*
G01X2282902Y3864353D01*
G01X2284814Y3886200D01*
G01X2282902Y3908047D01*
G01X2277226Y3929231D01*
G01X2267958Y3949107D01*
G01X2255379Y3967072D01*
G01X2239872Y3982579D01*
G01X2221907Y3995158D01*
G01X2202031Y4004426D01*
G01X2180847Y4010102D01*
G01X2159000Y4012014D01*
G01X2137153Y4010102D01*
G01X2115969Y4004426D01*
G01X2096093Y3995158D01*
G01X2078128Y3982579D01*
G01X2062621Y3967072D01*
G01X2050042Y3949107D01*
G01X2040774Y3929231D01*
G01X2035098Y3908047D01*
G01X2033186Y3886200D01*
G01X2033186Y3886200D01*
G01X2016760Y3886200D01*
G01X2016760Y4140200D01*
G01X2033186Y4140200D01*
G01X2035098Y4118353D01*
G01X2040774Y4097169D01*
G01X2050042Y4077293D01*
G01X2062621Y4059328D01*
G01X2078128Y4043821D01*
G01X2096093Y4031242D01*
G01X2115969Y4021974D01*
G01X2137153Y4016298D01*
G01X2159000Y4014386D01*
G01X2180847Y4016298D01*
G01X2202031Y4021974D01*
G01X2221907Y4031242D01*
G01X2239872Y4043821D01*
G01X2255379Y4059328D01*
G01X2267958Y4077293D01*
G01X2277226Y4097169D01*
G01X2282902Y4118353D01*
G01X2283703Y4127501D01*
G01X2558999Y4127501D01*
G01X2560906Y4106919D01*
G01X2566563Y4087037D01*
G01X2575777Y4068533D01*
G01X2588234Y4052038D01*
G01X2603510Y4038112D01*
G01X2621084Y4027230D01*
G01X2640359Y4019763D01*
G01X2660678Y4015965D01*
G01X2681349Y4015965D01*
G01X2701667Y4019763D01*
G01X2720942Y4027230D01*
G01X2738517Y4038112D01*
G01X2753793Y4052038D01*
G01X2766249Y4068533D01*
G01X2775463Y4087037D01*
G01X2781120Y4106919D01*
G01X2783027Y4127501D01*
G01X2781120Y4148084D01*
G01X2775463Y4167965D01*
G01X2766249Y4186469D01*
G01X2753793Y4202965D01*
G01X2738517Y4216890D01*
G01X2720942Y4227772D01*
G01X2701667Y4235239D01*
G01X2681349Y4239037D01*
G01X2660678Y4239037D01*
G01X2640359Y4235239D01*
G01X2621084Y4227772D01*
G01X2603510Y4216890D01*
G01X2588234Y4202965D01*
G01X2575777Y4186469D01*
G01X2566563Y4167965D01*
G01X2560906Y4148084D01*
G01X2558999Y4127501D01*
G01X2558999Y4127501D01*
G01X2283703Y4127501D01*
G01X2284814Y4140200D01*
G01X2282902Y4162047D01*
G01X2277226Y4183231D01*
G01X2267958Y4203107D01*
G01X2255379Y4221072D01*
G01X2239872Y4236579D01*
G01X2221907Y4249158D01*
G01X2202031Y4258426D01*
G01X2180847Y4264102D01*
G01X2159000Y4266014D01*
G01X2137153Y4264102D01*
G01X2115969Y4258426D01*
G01X2096093Y4249158D01*
G01X2078128Y4236579D01*
G01X2062621Y4221072D01*
G01X2050042Y4203107D01*
G01X2040774Y4183231D01*
G01X2035098Y4162047D01*
G01X2033186Y4140200D01*
G01X2033186Y4140200D01*
G01X2016760Y4140200D01*
G01X2016760Y4409186D01*
G01X3393186Y4409186D01*
G01X3393186Y35814D01*
G01X35814Y35814D01*
G01X35814Y293200D01*
G01X77386Y293200D01*
G01X77386Y113200D01*
G01X79139Y102133D01*
G01X84226Y92149D01*
G01X92149Y84226D01*
G01X102133Y79139D01*
G01X113200Y77386D01*
G01X293200Y77386D01*
G01X304267Y79139D01*
G01X314251Y84226D01*
G01X322174Y92149D01*
G01X327261Y102133D01*
G01X329014Y113200D01*
G01X329014Y293200D01*
G01X329014Y293200D01*
G01X3099986Y293200D01*
G01X3099986Y113200D01*
G01X3101739Y102133D01*
G01X3106826Y92149D01*
G01X3114749Y84226D01*
G01X3124733Y79139D01*
G01X3135800Y77386D01*
G01X3315800Y77386D01*
G01X3326867Y79139D01*
G01X3336851Y84226D01*
G01X3344774Y92149D01*
G01X3349861Y102133D01*
G01X3351614Y113200D01*
G01X3351614Y293200D01*
G01X3351614Y293200D01*
G01X3349861Y304267D01*
G01X3344774Y314251D01*
G01X3336851Y322174D01*
G01X3326867Y327261D01*
G01X3315800Y329014D01*
G01X3135800Y329014D01*
G01X3124733Y327261D01*
G01X3114749Y322174D01*
G01X3106826Y314251D01*
G01X3101739Y304267D01*
G01X3099986Y293200D01*
G01X329014Y293200D01*
G01X327261Y304267D01*
G01X322174Y314251D01*
G01X314251Y322174D01*
G01X304267Y327261D01*
G01X293200Y329014D01*
G01X113200Y329014D01*
G01X102133Y327261D01*
G01X92149Y322174D01*
G01X84226Y314251D01*
G01X79139Y304267D01*
G01X77386Y293200D01*
G01X35814Y293200D01*
G01X35814Y457200D01*
G01X77386Y457200D01*
G01X79298Y435353D01*
G01X84974Y414169D01*
G01X94242Y394293D01*
G01X106821Y376328D01*
G01X122328Y360821D01*
G01X140293Y348242D01*
G01X160169Y338974D01*
G01X181353Y333298D01*
G01X203200Y331386D01*
G01X203200Y331386D01*
G01X225047Y333298D01*
G01X246231Y338974D01*
G01X266107Y348242D01*
G01X284072Y360821D01*
G01X299579Y376328D01*
G01X312158Y394293D01*
G01X321426Y414169D01*
G01X327102Y435353D01*
G01X329014Y457200D01*
G01X3099986Y457200D01*
G01X3101898Y435353D01*
G01X3107574Y414169D01*
G01X3116842Y394293D01*
G01X3129421Y376328D01*
G01X3144928Y360821D01*
G01X3162893Y348242D01*
G01X3182769Y338974D01*
G01X3203953Y333298D01*
G01X3225800Y331386D01*
G01X3225800Y331386D01*
G01X3247647Y333298D01*
G01X3268831Y338974D01*
G01X3288707Y348242D01*
G01X3306672Y360821D01*
G01X3322179Y376328D01*
G01X3334758Y394293D01*
G01X3344026Y414169D01*
G01X3349702Y435353D01*
G01X3351614Y457200D01*
G01X3349702Y479047D01*
G01X3344026Y500231D01*
G01X3334758Y520107D01*
G01X3322179Y538072D01*
G01X3306672Y553579D01*
G01X3288707Y566158D01*
G01X3268831Y575426D01*
G01X3247647Y581102D01*
G01X3225800Y583014D01*
G01X3203953Y581102D01*
G01X3182769Y575426D01*
G01X3162893Y566158D01*
G01X3144928Y553579D01*
G01X3129421Y538072D01*
G01X3116842Y520107D01*
G01X3107574Y500231D01*
G01X3101898Y479047D01*
G01X3099986Y457200D01*
G01X329014Y457200D01*
G01X327102Y479047D01*
G01X321426Y500231D01*
G01X312158Y520107D01*
G01X299579Y538072D01*
G01X284072Y553579D01*
G01X266107Y566158D01*
G01X246231Y575426D01*
G01X225047Y581102D01*
G01X203200Y583014D01*
G01X181353Y581102D01*
G01X160169Y575426D01*
G01X140293Y566158D01*
G01X122328Y553579D01*
G01X106821Y538072D01*
G01X94242Y520107D01*
G01X84974Y500231D01*
G01X79298Y479047D01*
G01X77386Y457200D01*
G01X35814Y457200D01*
G01X35814Y928200D01*
G01X77386Y928200D01*
G01X77386Y748200D01*
G01X79139Y737133D01*
G01X84226Y727149D01*
G01X92149Y719226D01*
G01X102133Y714139D01*
G01X113200Y712386D01*
G01X293200Y712386D01*
G01X304267Y714139D01*
G01X314251Y719226D01*
G01X322174Y727149D01*
G01X327261Y737133D01*
G01X329014Y748200D01*
G01X329014Y928200D01*
G01X329014Y928200D01*
G01X327261Y939267D01*
G01X322174Y949251D01*
G01X314251Y957174D01*
G01X304267Y962261D01*
G01X293200Y964014D01*
G01X113200Y964014D01*
G01X102133Y962261D01*
G01X92149Y957174D01*
G01X84226Y949251D01*
G01X79139Y939267D01*
G01X77386Y928200D01*
G01X35814Y928200D01*
G01X35814Y3632200D01*
G01X509186Y3632200D01*
G01X511098Y3610353D01*
G01X516774Y3589169D01*
G01X526042Y3569293D01*
G01X538621Y3551328D01*
G01X554128Y3535821D01*
G01X572093Y3523242D01*
G01X591969Y3513974D01*
G01X613153Y3508298D01*
G01X635000Y3506386D01*
G01X656847Y3508298D01*
G01X678031Y3513974D01*
G01X697907Y3523242D01*
G01X715872Y3535821D01*
G01X731379Y3551328D01*
G01X743958Y3569293D01*
G01X753226Y3589169D01*
G01X758902Y3610353D01*
G01X760814Y3632200D01*
G01X758902Y3654047D01*
G01X753226Y3675231D01*
G01X743958Y3695107D01*
G01X731379Y3713072D01*
G01X715872Y3728579D01*
G01X697907Y3741158D01*
G01X678031Y3750426D01*
G01X656847Y3756102D01*
G01X635000Y3758014D01*
G01X613153Y3756102D01*
G01X591969Y3750426D01*
G01X572093Y3741158D01*
G01X554128Y3728579D01*
G01X538621Y3713072D01*
G01X526042Y3695107D01*
G01X516774Y3675231D01*
G01X511098Y3654047D01*
G01X509186Y3632200D01*
G01X509186Y3632200D01*
G01X35814Y3632200D01*
G01X35814Y3886200D01*
G01X509186Y3886200D01*
G01X511098Y3864353D01*
G01X516774Y3843169D01*
G01X526042Y3823293D01*
G01X538621Y3805328D01*
G01X554128Y3789821D01*
G01X572093Y3777242D01*
G01X591969Y3767974D01*
G01X613153Y3762298D01*
G01X635000Y3760386D01*
G01X656847Y3762298D01*
G01X678031Y3767974D01*
G01X697907Y3777242D01*
G01X715872Y3789821D01*
G01X731379Y3805328D01*
G01X743958Y3823293D01*
G01X753226Y3843169D01*
G01X758902Y3864353D01*
G01X760814Y3886200D01*
G01X758902Y3908047D01*
G01X753226Y3929231D01*
G01X743958Y3949107D01*
G01X731379Y3967072D01*
G01X715872Y3982579D01*
G01X697907Y3995158D01*
G01X678031Y4004426D01*
G01X656847Y4010102D01*
G01X635000Y4012014D01*
G01X613153Y4010102D01*
G01X591969Y4004426D01*
G01X572093Y3995158D01*
G01X554128Y3982579D01*
G01X538621Y3967072D01*
G01X526042Y3949107D01*
G01X516774Y3929231D01*
G01X511098Y3908047D01*
G01X509186Y3886200D01*
G01X509186Y3886200D01*
G01X35814Y3886200D01*
G01X35814Y4267200D01*
G01X92786Y4267200D01*
G01X94593Y4245118D01*
G01X99966Y4223624D01*
G01X108763Y4203290D01*
G01X120748Y4184656D01*
G01X135604Y4168219D01*
G01X152934Y4154416D01*
G01X172279Y4143615D01*
G01X193121Y4136102D01*
G01X214908Y4132078D01*
G01X237060Y4131650D01*
G01X258986Y4134829D01*
G01X280104Y4141530D01*
G01X299851Y4151576D01*
G01X317702Y4164699D01*
G01X333181Y4180550D01*
G01X345878Y4198707D01*
G01X355454Y4218686D01*
G01X487905Y4218686D01*
G01X518612Y4187979D01*
G01X512162Y4167402D01*
G01X509321Y4146026D01*
G01X510172Y4124478D01*
G01X514691Y4103393D01*
G01X522743Y4083389D01*
G01X534094Y4065053D01*
G01X548408Y4048926D01*
G01X565267Y4035479D01*
G01X584174Y4025109D01*
G01X604574Y4018121D01*
G01X625868Y4014718D01*
G01X647431Y4015002D01*
G01X668628Y4018964D01*
G01X688837Y4026487D01*
G01X707465Y4037351D01*
G01X723964Y4051236D01*
G01X737849Y4067735D01*
G01X748713Y4086363D01*
G01X756236Y4106572D01*
G01X760198Y4127769D01*
G01X760482Y4149332D01*
G01X757079Y4170626D01*
G01X750091Y4191026D01*
G01X739721Y4209933D01*
G01X726274Y4226792D01*
G01X710147Y4241106D01*
G01X691811Y4252457D01*
G01X671807Y4260509D01*
G01X650722Y4265028D01*
G01X629174Y4265879D01*
G01X607798Y4263038D01*
G01X587221Y4256588D01*
G01X542305Y4301505D01*
G01X532257Y4309214D01*
G01X520556Y4314061D01*
G01X508000Y4315714D01*
G01X355454Y4315714D01*
G01X345878Y4335693D01*
G01X333181Y4353850D01*
G01X317702Y4369701D01*
G01X299851Y4382824D01*
G01X280104Y4392870D01*
G01X258986Y4399571D01*
G01X237060Y4402750D01*
G01X214908Y4402322D01*
G01X193121Y4398298D01*
G01X172279Y4390785D01*
G01X152934Y4379984D01*
G01X135604Y4366181D01*
G01X120748Y4349744D01*
G01X108763Y4331110D01*
G01X99966Y4310776D01*
G01X94593Y4289282D01*
G01X92786Y4267200D01*
G01X92786Y4267200D01*
G01X35814Y4267200D01*
G01X35814Y4409186D01*
G01X777240Y4409186D01*
G01X777240Y3784600D01*
G01X778601Y3779520D01*
G01X782320Y3775801D01*
G01X787400Y3774440D01*
G37*
G36*
G01X708913Y1826520D02*
G01X708913Y1910596D01*
G01X717419Y1921949D01*
G01X723315Y1934852D01*
G01X726332Y1948713D01*
G01X726332Y1962899D01*
G01X723315Y1976760D01*
G01X717419Y1989663D01*
G01X708913Y2001016D01*
G01X708913Y2031357D01*
G01X709735Y2030535D01*
G01X720936Y2021343D01*
G01X733714Y2014512D01*
G01X747580Y2010306D01*
G01X762000Y2008886D01*
G01X1711983Y2008886D01*
G01X1706323Y1994453D01*
G01X1704169Y1979100D01*
G01X1705638Y1963667D01*
G01X1710651Y1948997D01*
G01X1718933Y1935891D01*
G01X1730031Y1925066D01*
G01X1743339Y1917114D01*
G01X1758130Y1912470D01*
G01X1773595Y1911386D01*
G01X1788889Y1913923D01*
G01X1803177Y1919941D01*
G01X1815676Y1929112D01*
G01X1928171Y1929112D01*
G01X2023091Y1834192D01*
G01X2033072Y1826520D01*
G01X708913Y1826520D01*
G37*
G54D10*
G01X787400Y3774440D02*
G01X1430902Y3774440D01*
G03X1488731Y3680279I60165J-27888D01*
G01X1986052Y3182958D01*
G01X1986052Y2883782D01*
G03X1925202Y2929927I-63186J-20127D01*
G01X1404940Y3450190D01*
G03X1291776Y3494744I-66273J-2336D01*
G03X1336331Y3381581I46891J-46891D01*
G01X1373777Y3344134D01*
G03X1336787Y3319982I15690J-64431D01*
G03X1323176Y3277954I52680J-40279D01*
G01X1303340Y3297790D01*
G03X1190177Y3342345I-66273J-2336D01*
G03X1234731Y3229181I46891J-46891D01*
G01X1671153Y2792760D01*
G01X1671153Y2228656D01*
G03X1685362Y2194351I48514J0D01*
G01X1704194Y2175520D01*
G03X1707613Y2156714I66273J2336D01*
G01X792616Y2156714D01*
G01X712944Y2236386D01*
G01X725000Y2236386D01*
G03X760814Y2272200I0J35814D01*
G01X760814Y2452200D01*
G03X725000Y2488014I-35814J0D01*
G01X556513Y2488014D01*
G01X556513Y2517869D01*
G03X760814Y2616200I78487J98331D01*
G03X556513Y2714531I-125814J0D01*
G01X556513Y2723109D01*
G01X587217Y2753813D01*
G03X737639Y2797438I47783J116387D01*
G03X729004Y2953820I-102639J72762D01*
G01X946313Y2953820D01*
G03X1062728Y2938811I62155J23114D01*
G03X1009144Y3043245I-54260J38124D01*
G03X983068Y3050848I-26076J-40910D01*
G01X737219Y3050848D01*
G03X751086Y3075690I-102219J73352D01*
G01X1069703Y3075690D01*
G01X1323194Y2822198D01*
G03X1362069Y2764145I66273J2336D01*
G01X1045601Y2447678D01*
G03X942355Y2387574I-37133J-54942D01*
G03X1053678Y2344222I66113J5161D01*
G01X1059268Y2344222D01*
G03X1093572Y2358431I0J48514D01*
G01X1499972Y2764830D01*
G03X1514181Y2799135I-34305J34305D01*
G01X1514181Y2804725D01*
G03X1526933Y2875312I-48514J45210D01*
G03X1468004Y2916207I-61266J-25377D01*
G01X971703Y3412508D01*
G03X937398Y3426717I-34305J-34305D01*
G01X751083Y3426717D01*
G03X509186Y3378196I-116083J-48517D01*
G03X751085Y3329689I125814J4D01*
G01X917303Y3329689D01*
G01X1074275Y3172718D01*
G01X751082Y3172718D01*
G03X566420Y3229680I-116082J-48518D01*
G03X543554Y3037789I68580J-105480D01*
G01X542364Y3036639D01*
G01X288365Y2782639D01*
G03X274155Y2748335I34305J-34305D01*
G01X274155Y2466096D01*
G03X77386Y2362200I-70955J-103896D01*
G03X274155Y2258304I125814J0D01*
G01X274155Y2234014D01*
G01X113200Y2234014D01*
G03X77386Y2198200I0J-35814D01*
G01X77386Y2018200D01*
G03X113200Y1982386I35814J0D01*
G01X274155Y1982386D01*
G01X274155Y1831096D01*
G03X77386Y1727200I-70955J-103896D01*
G03X274155Y1623304I125814J0D01*
G01X274155Y1599014D01*
G01X113200Y1599014D01*
G03X77386Y1563200I0J-35814D01*
G01X77386Y1383200D01*
G03X113200Y1347386I35814J0D01*
G01X274155Y1347386D01*
G01X274155Y1231763D01*
G01X250981Y1208588D01*
G03X114235Y1003237I-47781J-116388D01*
G03X319589Y1139978I88965J88963D01*
G01X356974Y1177363D01*
G03X371183Y1211668I-34305J34305D01*
G01X371183Y2728240D01*
G01X509247Y2866303D01*
G03X518610Y2822425I125753J3897D01*
G01X473694Y2777509D01*
G03X459485Y2743205I34305J-34305D01*
G01X459485Y2235206D01*
G03X473694Y2200901I48514J0D01*
G01X611885Y2062711D01*
G01X611885Y2001016D01*
G03X611885Y1910596I48514J-45210D01*
G01X611885Y908818D01*
G03X660399Y797294I48514J-45210D01*
G03X708913Y908818I0J66314D01*
G01X708913Y1729492D01*
G01X2286144Y1729492D01*
G03X2442772Y1645489I126856J48508D01*
G03X2548414Y1788419I-29772J132511D01*
G03X2605876Y1846629I-8419J65777D01*
G03X2563109Y1916351I-65881J7567D01*
G01X2563109Y2035691D01*
G01X2608504Y2081086D01*
G01X2713700Y2081086D01*
G03X2743200Y2096591I0J35814D01*
G03X2772700Y2081086I29500J20308D01*
G01X2913700Y2081086D01*
G03X2949514Y2116900I0J35814D01*
G01X2949514Y2251901D01*
G03X2913700Y2287715I-35814J0D01*
G01X2772700Y2287715D01*
G03X2743200Y2272209I0J-35814D01*
G03X2713700Y2287715I-29500J-20308D01*
G01X2691719Y2287715D01*
G01X2691719Y2385886D01*
G01X2713700Y2385886D01*
G03X2743200Y2401391I0J35814D01*
G03X2772700Y2385886I29500J20308D01*
G01X2913700Y2385886D01*
G03X2949514Y2421700I0J35814D01*
G01X2949514Y2556701D01*
G03X2913700Y2592515I-35814J0D01*
G01X2772700Y2592515D01*
G03X2743200Y2577009I0J-35814D01*
G03X2713700Y2592515I-29500J-20308D01*
G01X2572700Y2592515D01*
G03X2536886Y2556701I0J-35814D01*
G01X2536886Y2421700D01*
G03X2572700Y2385886I35814J0D01*
G01X2594691Y2385886D01*
G01X2594691Y2287715D01*
G01X2572700Y2287715D01*
G03X2536886Y2251901I0J-35814D01*
G01X2536886Y2146686D01*
G01X2480290Y2090090D01*
G03X2466081Y2055786I34305J-34305D01*
G01X2466081Y1903011D01*
G03X2286149Y1826520I-53081J-125011D01*
G01X2210334Y1826520D01*
G03X2204344Y1916881I-51338J41976D01*
G03X2113786Y1917010I-45349J-48384D01*
G01X2077491Y1917010D01*
G01X1985615Y2008886D01*
G01X2184400Y2008886D01*
G03X2236665Y2030535I0J73914D01*
G01X2439865Y2233735D01*
G03X2461514Y2286000I-52265J52265D01*
G01X2461514Y2770886D01*
G01X2473877Y2770886D01*
G01X2473877Y2758401D01*
G03X2509691Y2722587I35814J0D01*
G01X2658193Y2722587D01*
G03X2694007Y2758401I0J35814D01*
G01X2694007Y2931199D01*
G03X2658193Y2967013I-35814J0D01*
G01X2509691Y2967013D01*
G03X2473877Y2931199I0J-35814D01*
G01X2473877Y2918714D01*
G01X2461514Y2918714D01*
G01X2461514Y3013148D01*
G03X2555478Y3071067I27691J60256D01*
G01X2650509Y3166099D01*
G03X2664719Y3200404I-34305J34305D01*
G01X2664719Y3485108D01*
G01X2764007Y3584396D01*
G03X2915434Y3804436I55393J124004D01*
G03X2695397Y3653004I-96034J-96036D01*
G01X2581900Y3539508D01*
G03X2567691Y3505203I34305J-34305D01*
G01X2567691Y3424213D01*
G01X2461514Y3424213D01*
G01X2461514Y3715884D01*
G01X2596016Y3850386D01*
G01X2921000Y3850386D01*
G03X2994914Y3924300I0J73914D01*
G01X2994914Y4043336D01*
G03X2921000Y4239515I-73914J84166D01*
G03X2847086Y4043336I0J-112014D01*
G01X2847086Y3998214D01*
G01X2565400Y3998214D01*
G03X2513135Y3976565I0J-73914D01*
G01X2335335Y3798765D01*
G03X2313686Y3746500I52265J-52265D01*
G01X2313686Y2316616D01*
G01X2153784Y2156714D01*
G01X1833320Y2156714D01*
G03X1772803Y2244129I-62853J21142D01*
G01X1768181Y2248751D01*
G01X1768181Y2657793D01*
G03X1818930Y2631262I53086J39742D01*
G01X2041924Y2408268D01*
G03X2249254Y2274546I117076J-46068D01*
G03X2109530Y2477880I-90254J87654D01*
G01X2063131Y2524279D01*
G03X2068619Y2528677I-38665J53875D01*
G03X2284443Y2606543I90381J87523D01*
G03X2083080Y2716526I-125443J9657D01*
G01X2083080Y2769874D01*
G03X2284814Y2870200I75920J100326D01*
G03X2083080Y2970526I-125814J0D01*
G01X2083080Y3023874D01*
G03X2284792Y3126550I75920J100326D01*
G03X2079386Y3221621I-125792J-2350D01*
G03X2068870Y3237358I-44820J-18567D01*
G01X1557340Y3748888D01*
G03X1551232Y3774440I-66273J-2336D01*
G01X2006600Y3774440D01*
G03X2016760Y3784600I0J10160D01*
G01X2016760Y4409186D01*
G01X3393186Y4409186D01*
G01X3393186Y35814D01*
G01X35814Y35814D01*
G01X35814Y4409186D01*
G01X777240Y4409186D01*
G01X777240Y3784600D01*
G03X787400Y3774440I10160J0D01*
G01X203200Y331386D02*
G03X203200Y583014I0J125814D01*
G03X203200Y331386I0J-125814D01*
G01X329014Y293200D02*
G03X293200Y329014I-35814J0D01*
G01X113200Y329014D01*
G03X77386Y293200I0J-35814D01*
G01X77386Y113200D01*
G03X113200Y77386I35814J0D01*
G01X293200Y77386D01*
G03X329014Y113200I0J35814D01*
G01X329014Y293200D01*
G01X329014Y928200D02*
G03X293200Y964014I-35814J0D01*
G01X113200Y964014D01*
G03X77386Y928200I0J-35814D01*
G01X77386Y748200D01*
G03X113200Y712386I35814J0D01*
G01X293200Y712386D01*
G03X329014Y748200I0J35814D01*
G01X329014Y928200D01*
G01X92786Y4267200D02*
G03X355454Y4218686I135814J0D01*
G01X487905Y4218686D01*
G01X518612Y4187979D01*
G03X723964Y4051236I116388J-47779D01*
G03X587221Y4256588I-88964J88964D01*
G01X542305Y4301505D01*
G03X508000Y4315714I-34305J-34305D01*
G01X355454Y4315714D01*
G03X92786Y4267200I-126854J-48514D01*
G01X509186Y3886200D02*
G03X760814Y3886200I125814J0D01*
G03X509186Y3886200I-125814J0D01*
G01X509186Y3632200D02*
G03X760814Y3632200I125814J0D01*
G03X509186Y3632200I-125814J0D01*
G01X2033186Y4140200D02*
G03X2284814Y4140200I125814J0D01*
G03X2033186Y4140200I-125814J0D01*
G01X2033186Y3886200D02*
G03X2284814Y3886200I125814J0D01*
G03X2033186Y3886200I-125814J0D01*
G01X2033186Y3632200D02*
G03X2284814Y3632200I125814J0D01*
G03X2033186Y3632200I-125814J0D01*
G01X2033186Y3378200D02*
G03X2284814Y3378200I125814J0D01*
G03X2033186Y3378200I-125814J0D01*
G01X2585205Y1526941D02*
G03X2473681Y1478427I-45210J-48514D01*
G03X2585205Y1429913I66314J0D01*
G01X2977034Y1429913D01*
G03X3011338Y1444122I0J48514D01*
G01X3099986Y1532770D01*
G01X3099986Y1383200D01*
G03X3135800Y1347386I35814J0D01*
G01X3315800Y1347386D01*
G03X3351614Y1383200I0J35814D01*
G01X3351614Y1563200D01*
G03X3315800Y1599014I-35814J0D01*
G01X3166230Y1599014D01*
G01X3178026Y1610810D01*
G03X3314760Y1816168I47774J116390D01*
G03X3109414Y1679416I-88960J-88968D01*
G01X2956939Y1526941D01*
G01X2585205Y1526941D01*
G01X2610605Y1136292D02*
G03X2499081Y1087778I-45210J-48514D01*
G03X2610605Y1039264I66314J0D01*
G01X3111665Y1039264D01*
G03X3351522Y1096993I114135J52936D01*
G03X3107965Y1136292I-125722J-4793D01*
G01X2610605Y1136292D01*
G01X2558999Y4127501D02*
G03X2783027Y4127501I112014J0D01*
G03X2558999Y4127501I-112014J0D01*
G01X2658186Y1879600D02*
G03X2929814Y1879600I135814J0D01*
G03X2658186Y1879600I-135814J0D01*
G01X2721273Y3215601D02*
G03X2757087Y3179787I35814J0D01*
G01X2905589Y3179787D01*
G03X2941403Y3215601I0J35814D01*
G01X2941403Y3388399D01*
G03X2905589Y3424213I-35814J0D01*
G01X2757087Y3424213D01*
G03X2721273Y3388399I0J-35814D01*
G01X2721273Y3215601D01*
G01X2792393Y2758401D02*
G03X2828207Y2722587I35814J0D01*
G01X2976709Y2722587D01*
G03X3012523Y2758401I0J35814D01*
G01X3012523Y2931199D01*
G03X2976709Y2967013I-35814J0D01*
G01X2828207Y2967013D01*
G03X2792393Y2931199I0J-35814D01*
G01X2792393Y2758401D01*
G01X3097022Y3717544D02*
G03X3106166Y3681933I73914J0D01*
G01X3106166Y3657813D01*
G03X3180080Y3430186I73914J-101813D01*
G03X3253994Y3657813I0J125814D01*
G01X3253994Y3708400D01*
G03X3244850Y3744011I-73914J0D01*
G01X3244850Y4043269D01*
G03X3171114Y4239515I-73838J84233D01*
G03X3097022Y4043403I-101J-112014D01*
G01X3097022Y3717544D01*
G01X3305894Y3392000D02*
G03X3270080Y3427814I-35814J0D01*
G01X3090080Y3427814D01*
G03X3054266Y3392000I0J-35814D01*
G01X3054266Y3212000D01*
G03X3090080Y3176186I35814J0D01*
G01X3270080Y3176186D01*
G03X3305894Y3212000I0J35814D01*
G01X3305894Y3392000D01*
G01X3225800Y331386D02*
G03X3225800Y583014I0J125814D01*
G03X3225800Y331386I0J-125814D01*
G01X3351614Y293200D02*
G03X3315800Y329014I-35814J0D01*
G01X3135800Y329014D01*
G03X3099986Y293200I0J-35814D01*
G01X3099986Y113200D01*
G03X3135800Y77386I35814J0D01*
G01X3315800Y77386D01*
G03X3351614Y113200I0J35814D01*
G01X3351614Y293200D01*
G01X3351614Y928200D02*
G03X3315800Y964014I-35814J0D01*
G01X3135800Y964014D01*
G03X3099986Y928200I0J-35814D01*
G01X3099986Y748200D01*
G03X3135800Y712386I35814J0D01*
G01X3315800Y712386D01*
G03X3351614Y748200I0J35814D01*
G01X3351614Y928200D01*
G01X3225800Y2236386D02*
G03X3225800Y2488014I0J125814D01*
G03X3225800Y2236386I0J-125814D01*
G01X3351614Y2198200D02*
G03X3315800Y2234014I-35814J0D01*
G01X3135800Y2234014D01*
G03X3099986Y2198200I0J-35814D01*
G01X3099986Y2018200D01*
G03X3135800Y1982386I35814J0D01*
G01X3315800Y1982386D01*
G03X3351614Y2018200I0J35814D01*
G01X3351614Y2198200D01*
G01X708913Y1826520D02*
G01X708913Y1910596D01*
G03X708913Y2001016I-48514J45210D01*
G01X708913Y2031357D01*
G01X709735Y2030535D01*
G03X762000Y2008886I52265J52265D01*
G01X1711983Y2008886D01*
G03X1730031Y1925066I58484J-31260D01*
G03X1815676Y1929112I40435J52560D01*
G01X1928171Y1929112D01*
G01X2023091Y1834192D01*
G03X2033072Y1826520I34305J34305D01*
G01X708913Y1826520D01*
G54D11*
G01X2794000Y1879600D02*
G01X2668346Y1879600D01*
G01X2794000Y1879600D02*
G01X2919654Y1879600D01*
G01X2794000Y1879600D02*
G01X2794000Y2005254D01*
G01X2794000Y1879600D02*
G01X2794000Y1753946D01*
G01X2831338Y3302000D02*
G01X2731433Y3302000D01*
G01X2831338Y3302000D02*
G01X2931243Y3302000D01*
G01X2831338Y3302000D02*
G01X2831338Y3414053D01*
G01X2831338Y3302000D02*
G01X2831338Y3189947D01*
G01X2843200Y2489200D02*
G01X2939354Y2489200D01*
G01X2843200Y2489200D02*
G01X2843200Y2582355D01*
G01X2843200Y2489200D02*
G01X2843200Y2396046D01*
G01X2843200Y2184400D02*
G01X2939354Y2184400D01*
G01X2843200Y2184400D02*
G01X2843200Y2277555D01*
G01X2843200Y2184400D02*
G01X2843200Y2091246D01*
G01X2902458Y2844800D02*
G01X2802553Y2844800D01*
G01X2902458Y2844800D02*
G01X3002363Y2844800D01*
G01X2902458Y2844800D02*
G01X2902458Y2956853D01*
G01X2902458Y2844800D02*
G01X2902458Y2732747D01*
G01X635000Y2616200D02*
G01X750654Y2616200D01*
G01X635000Y2616200D02*
G01X635000Y2731854D01*
G01X635000Y2616200D02*
G01X635000Y2500546D01*
G01X3180080Y3302000D02*
G01X3180080Y3186346D01*
G01X3180080Y3302000D02*
G01X3180080Y3417654D01*
G01X3180080Y3302000D02*
G01X3064426Y3302000D01*
G01X3180080Y3302000D02*
G01X3295734Y3302000D01*
G04 Copper End*

G04 Pad Start*
G54D12*
G01X2843200Y2184400D03*
G01X2643200Y2184400D03*
G01X2843200Y2489200D03*
G01X2643200Y2489200D03*
G54D13*
G01X2902458Y2844800D03*
G01X2583942Y2844800D03*
G01X2831338Y3302000D03*
G01X2512822Y3302000D03*
G54D14*
G01X203200Y2362200D03*
G54D15*
G01X203200Y2108200D03*
G54D14*
G01X203200Y1727200D03*
G54D15*
G01X203200Y1473200D03*
G54D14*
G01X203200Y1092200D03*
G54D15*
G01X203200Y838200D03*
G54D14*
G01X203200Y457200D03*
G54D15*
G01X203200Y203200D03*
G54D14*
G01X3225800Y2362200D03*
G54D15*
G01X3225800Y2108200D03*
G54D14*
G01X3225800Y1727200D03*
G54D15*
G01X3225800Y1473200D03*
G54D14*
G01X3225800Y1092200D03*
G54D15*
G01X3225800Y838200D03*
G54D14*
G01X3225800Y457200D03*
G54D15*
G01X3225800Y203200D03*
G54D14*
G01X3180080Y3556000D03*
G54D15*
G01X3180080Y3302000D03*
G54D16*
G01X2671013Y4127501D03*
G01X2921000Y4127501D03*
G01X3171012Y4127501D03*
G54D17*
G01X2413000Y1778000D03*
G01X2794000Y1879600D03*
G01X228600Y4267200D03*
G01X2819400Y3708400D03*
G54D15*
G01X635000Y2362200D03*
G54D14*
G01X2159000Y2362200D03*
G01X635000Y2616200D03*
G01X2159000Y2616200D03*
G01X635000Y2870200D03*
G01X2159000Y2870200D03*
G01X635000Y3124200D03*
G01X2159000Y3124200D03*
G01X635000Y3378200D03*
G01X2159000Y3378200D03*
G01X635000Y3632200D03*
G01X2159000Y3632200D03*
G01X635000Y3886200D03*
G01X2159000Y3886200D03*
G01X635000Y4140200D03*
G01X2159000Y4140200D03*
G04 Pad End*

G04 Via Start*
G54D19*
G01X2387600Y2971800D03*
G54D20*
G01X2489205Y3073404D03*
G01X1821266Y2697535D03*
G01X1491067Y3746552D03*
G01X2024466Y2578155D03*
G01X2539995Y1478427D03*
G01X1465667Y2849935D03*
G01X1008468Y2392736D03*
G01X1389467Y3279703D03*
G01X1973666Y2695505D03*
G01X2565395Y1087778D03*
G01X1237068Y3295454D03*
G01X1770466Y2177856D03*
G01X1770466Y1977626D03*
G01X2158996Y1868496D03*
G01X1338667Y3447853D03*
G01X1922866Y2863655D03*
G01X1192198Y2273295D03*
G01X1319197Y2171696D03*
G01X1787627Y2259126D03*
G01X2041626Y2182926D03*
G01X2590795Y2017696D03*
G01X2590795Y1763696D03*
G01X2057396Y1154098D03*
G01X1389467Y2824535D03*
G01X660399Y1955806D03*
G01X660399Y863608D03*
G01X2539995Y1854196D03*
G01X1008468Y2976934D03*
G54D19*
G01X838200Y228600D03*
G01X1778000Y127000D03*
G01X2565400Y228600D03*
G01X431800Y1016000D03*
G01X2971800Y965200D03*
G01X431800Y1651000D03*
G01X2971800Y1651000D03*
G01X1651000Y1193800D03*
G01X1651000Y1854200D03*
G01X457200Y2997200D03*
G01X1092200Y2565400D03*
G01X2413000Y4343400D03*
G01X3276600Y3835400D03*
G01X558800Y4343400D03*
G04 Via End*

G04 Track Start*
G54D11*
G01X228600Y4267200D02*
G01X508000Y4267200D01*
G01X635000Y4140200D01*
G54D21*
G01X3180080Y3556000D02*
G01X3180080Y3708400D01*
G01X3170936Y3717544D01*
G01X3170936Y4127500D01*
G01X2921000Y4127500D02*
G01X2921000Y3924300D01*
G01X2387600Y2286000D02*
G01X2184400Y2082800D01*
G01X762000Y2082800D01*
G01X635000Y2209800D01*
G01X635000Y2362200D01*
G01X2512822Y3302000D02*
G01X2387600Y3302000D01*
G01X2583942Y2844800D02*
G01X2387600Y2844800D01*
G01X2387600Y2286000D01*
G01X2387600Y3302000D02*
G01X2387600Y2971800D01*
G01X2387600Y2844800D01*
G01X2921000Y3924300D02*
G01X2565400Y3924300D01*
G01X2387600Y3746500D01*
G01X2387600Y3302000D01*
G54D11*
G01X2819404Y3708403D02*
G01X2616205Y3505203D01*
G01X2616205Y3200404D01*
G01X2489205Y3073404D01*
G01X1821266Y2697535D02*
G01X2156596Y2362205D01*
G01X2158996Y2362205D01*
G01X1491067Y3746552D02*
G01X2034566Y3203053D01*
G01X2034566Y2588254D01*
G01X2024466Y2578155D01*
G01X2539995Y1478427D02*
G01X2977034Y1478427D01*
G01X3225804Y1727196D01*
G01X1465667Y2849935D02*
G01X1465667Y2799135D01*
G01X1059268Y2392736D01*
G01X1008468Y2392736D01*
G01X1465667Y2849935D02*
G01X937398Y3378203D01*
G01X634999Y3378203D01*
G01X1389467Y3279703D02*
G01X1973666Y2695505D01*
G01X2565395Y1087778D02*
G01X3221383Y1087778D01*
G01X3225804Y1092198D01*
G01X1237068Y3295454D02*
G01X1719667Y2812855D01*
G01X1719667Y2228656D01*
G01X1770466Y2177856D01*
G01X1770466Y1977626D02*
G01X1948266Y1977626D01*
G01X1338667Y3447853D02*
G01X1922866Y2863655D01*
G01X1192198Y2273295D02*
G01X1217598Y2273295D01*
G01X1319197Y2171696D01*
G01X2717795Y1890696D02*
G01X2782905Y1890696D01*
G01X2794004Y1879596D01*
G01X2641595Y1966896D02*
G01X2641595Y1982786D01*
G01X2843204Y2184396D01*
G01X2843204Y2489195D01*
G01X2843204Y2785544D01*
G01X2902464Y2844804D01*
G01X2902464Y3230884D01*
G01X2831344Y3302003D01*
G01X3180084Y3302003D01*
G01X2717795Y1890696D02*
G01X2590795Y1763696D01*
G01X2590795Y1687497D01*
G01X2057396Y1154098D01*
G01X1389467Y2824535D02*
G01X1089798Y3124204D01*
G01X634999Y3124204D01*
G01X634999Y2870204D02*
G01X507999Y2743205D01*
G01X507999Y2235206D01*
G01X660399Y2082806D01*
G01X660399Y1955806D01*
G01X660399Y1778006D02*
G01X2412985Y1778006D01*
G01X2412995Y1777996D02*
G01X2489195Y1854196D01*
G01X2539995Y1854196D01*
G01X2514595Y1879596D01*
G01X2514595Y2055786D01*
G01X2643205Y2184396D01*
G01X2643205Y2489195D01*
G01X1008468Y2976934D02*
G01X983068Y3002334D01*
G01X576669Y3002334D01*
G01X322669Y2748335D01*
G01X322669Y1211668D01*
G01X203199Y1092198D01*
G01X2590795Y2017696D02*
G01X2641595Y1966896D01*
G01X2717795Y1890696D01*
G01X660399Y1955806D02*
G01X660399Y1778006D01*
G01X660399Y863608D01*
G01X2057396Y1868496D02*
G01X2158996Y1868496D01*
G01X1948266Y1977626D02*
G01X2057396Y1868496D01*
G01X1965426Y2259126D02*
G01X2041626Y2182926D01*
G01X1787627Y2259126D02*
G01X1965426Y2259126D01*
G04 Track End*

M02*

