G04 Layer: DrillDrawingLayer*
G04 EasyEDA Pro v3.2.149.88089769, 2026-09-20 21:47:13*
G04 Gerber Generator version 0.3*
G04 Scale: 100 percent, Rotated: No, Reflected: No*
G04 Dimensions in millimeters*
G04 Leading zeros omitted, absolute positions, 4 integers and 5 decimals*
G04 Generated by one-click*
G04 Object Configs: Pad,Via,Track,Text,Image,Dimension,BoardOutline,BoardCutout,CopperFilled,SolidRegion,FPCStiffener,Line,PlaneZone,ComponentProperty,ComponentSilkscreen,TearDrop*
G04 Layer Configs: 1,2,3,4,5,6,7,8,9,10,11,13,14,56*
G04 Copper Areas: 0*
%FSLAX45Y45*%
%MOMM*%
%AMIconRect*4,1,4,0.28,-0.28,-0.28,-0.28,-0.28,0.28,0.28,0.28,0.28,-0.28,0*4,0,4,0.233333,-0.233333,0.233333,0.233333,-0.233333,0.233333,-0.233333,-0.233333,0.233333,-0.233333,0*%
%AMIconTriangle*4,1,3,-0.339593,0.240473,0.339593,0.240473,0,-0.37884,-0.339593,0.240473,0*4,0,3,-0.265673,0.19404,0,-0.27342,0.266233,0.19404,-0.265673,0.19404,0*%
%AMIconStar6*4,1,12,0.12068,0.20888,0.298527,0.172713,0.241313,0,0.298527,-0.17206,0.12068,-0.208227,0,-0.344073,-0.120073,-0.208227,-0.298573,-0.17206,-0.240707,0,-0.298573,0.17206,-0.120073,0.20888,0,0.344073,0.12068,0.20888,0*4,0,12,-0.000467,0.273467,-0.090067,0.171733,-0.237533,0.136733,-0.193667,-0.007467,-0.237533,-0.1372,-0.090067,-0.171733,-0.000467,-0.273933,0.090067,-0.171733,0.237533,-0.1372,0.194133,0.007,0.237533,0.1372,0.090067,0.171267,-0.000467,0.273467,0*%
%ADD10IconRect*%
%ADD11C,0.616X0.522667*%
%ADD12IconTriangle*%
%ADD13IconStar6*%
%ADD14C,0.2032*%
%ADD15C,0.254*%
G75*


G04 Drill Drawing Start*
G54D10*
G01X2671001Y4127501D03*
G01X2921000Y4127501D03*
G01X3171000Y4127501D03*
G54D11*
G01X635000Y2362200D03*
G01X635000Y2616200D03*
G01X635000Y2870200D03*
G01X635000Y3124200D03*
G01X635000Y3378200D03*
G01X635000Y3632200D03*
G01X635000Y3886200D03*
G01X635000Y4140200D03*
G01X2159000Y2362200D03*
G01X2159000Y2616200D03*
G01X2159000Y2870200D03*
G01X2159000Y3124200D03*
G01X2159000Y3378200D03*
G01X2159000Y3632200D03*
G01X2159000Y3886200D03*
G01X2159000Y4140200D03*
G54D12*
G01X203200Y203200D03*
G01X203200Y457200D03*
G01X203200Y838200D03*
G01X203200Y1092200D03*
G01X203200Y1473200D03*
G01X203200Y1727200D03*
G01X203200Y2108200D03*
G01X203200Y2362200D03*
G01X3180080Y3302000D03*
G01X3180080Y3556000D03*
G01X3225800Y203200D03*
G01X3225800Y457200D03*
G01X3225800Y838200D03*
G01X3225800Y1092200D03*
G01X3225800Y1473200D03*
G01X3225800Y1727200D03*
G01X3225800Y2108200D03*
G01X3225800Y2362200D03*
G54D13*
G01X431800Y1016000D03*
G01X431800Y1651000D03*
G01X457200Y2997200D03*
G01X558800Y4343400D03*
G01X660399Y863608D03*
G01X660399Y1955806D03*
G01X838200Y228600D03*
G01X1008468Y2392736D03*
G01X1008468Y2976934D03*
G01X1092200Y2565400D03*
G01X1192198Y2273295D03*
G01X1237068Y3295454D03*
G01X1319197Y2171696D03*
G01X1338667Y3447853D03*
G01X1389467Y2824535D03*
G01X1389467Y3279703D03*
G01X1465667Y2849935D03*
G01X1491067Y3746552D03*
G01X1651000Y1193800D03*
G01X1651000Y1854200D03*
G01X1770466Y1977626D03*
G01X1770466Y2177856D03*
G01X1778000Y127000D03*
G01X1787627Y2259126D03*
G01X1821266Y2697535D03*
G01X1922866Y2863655D03*
G01X1973666Y2695505D03*
G01X2024466Y2578155D03*
G01X2041626Y2182926D03*
G01X2057396Y1154098D03*
G01X2158996Y1868496D03*
G01X2387600Y2971800D03*
G01X2413000Y4343400D03*
G01X2489205Y3073404D03*
G01X2539995Y1478427D03*
G01X2539995Y1854196D03*
G01X2565395Y1087778D03*
G01X2565400Y228600D03*
G01X2590795Y1763696D03*
G01X2590795Y2017696D03*
G01X2971800Y965200D03*
G01X2971800Y1651000D03*
G01X3276600Y3835400D03*
G04 Drill Drawing End*

G04 Text Start*
G54D14*
G01X5729446Y4223294D02*
G01X5729446Y4103152D01*
G01X5729446Y4223294D02*
G01X5775166Y4103152D01*
G01X5820886Y4223294D02*
G01X5775166Y4103152D01*
G01X5820886Y4223294D02*
G01X5820886Y4103152D01*
G01X5937218Y4183162D02*
G01X5937218Y4103152D01*
G01X5937218Y4166144D02*
G01X5925788Y4177574D01*
G01X5914358Y4183162D01*
G01X5897340Y4183162D01*
G01X5885910Y4177574D01*
G01X5874480Y4166144D01*
G01X5868638Y4148872D01*
G01X5868638Y4137442D01*
G01X5874480Y4120424D01*
G01X5885910Y4108994D01*
G01X5897340Y4103152D01*
G01X5914358Y4103152D01*
G01X5925788Y4108994D01*
G01X5937218Y4120424D01*
G01X5984970Y4183162D02*
G01X5984970Y4103152D01*
G01X5984970Y4148872D02*
G01X5990812Y4166144D01*
G01X6002242Y4177574D01*
G01X6013672Y4183162D01*
G01X6030690Y4183162D01*
G01X6078442Y4223294D02*
G01X6078442Y4103152D01*
G01X6135592Y4183162D02*
G01X6078442Y4126012D01*
G01X6101302Y4148872D02*
G01X6141434Y4103152D01*
G01X7266726Y4194592D02*
G01X7260884Y4206022D01*
G01X7249454Y4217452D01*
G01X7238024Y4223294D01*
G01X7215164Y4223294D01*
G01X7203734Y4217452D01*
G01X7192304Y4206022D01*
G01X7186716Y4194592D01*
G01X7180874Y4177574D01*
G01X7180874Y4148872D01*
G01X7186716Y4131854D01*
G01X7192304Y4120424D01*
G01X7203734Y4108994D01*
G01X7215164Y4103152D01*
G01X7238024Y4103152D01*
G01X7249454Y4108994D01*
G01X7260884Y4120424D01*
G01X7266726Y4131854D01*
G01X7343180Y4183162D02*
G01X7331750Y4177574D01*
G01X7320320Y4166144D01*
G01X7314478Y4148872D01*
G01X7314478Y4137442D01*
G01X7320320Y4120424D01*
G01X7331750Y4108994D01*
G01X7343180Y4103152D01*
G01X7360198Y4103152D01*
G01X7371628Y4108994D01*
G01X7383058Y4120424D01*
G01X7388900Y4137442D01*
G01X7388900Y4148872D01*
G01X7383058Y4166144D01*
G01X7371628Y4177574D01*
G01X7360198Y4183162D01*
G01X7343180Y4183162D01*
G01X7436652Y4183162D02*
G01X7436652Y4126012D01*
G01X7442494Y4108994D01*
G01X7453924Y4103152D01*
G01X7470942Y4103152D01*
G01X7482372Y4108994D01*
G01X7499644Y4126012D01*
G01X7499644Y4183162D02*
G01X7499644Y4103152D01*
G01X7547396Y4183162D02*
G01X7547396Y4103152D01*
G01X7547396Y4160302D02*
G01X7564668Y4177574D01*
G01X7576098Y4183162D01*
G01X7593116Y4183162D01*
G01X7604546Y4177574D01*
G01X7610388Y4160302D01*
G01X7610388Y4103152D01*
G01X7675412Y4223294D02*
G01X7675412Y4126012D01*
G01X7681000Y4108994D01*
G01X7692430Y4103152D01*
G01X7703860Y4103152D01*
G01X7658140Y4183162D02*
G01X7698272Y4183162D01*
G01X8675047Y4206022D02*
G01X8663617Y4217452D01*
G01X8646599Y4223294D01*
G01X8623739Y4223294D01*
G01X8606467Y4217452D01*
G01X8595037Y4206022D01*
G01X8595037Y4194592D01*
G01X8600879Y4183162D01*
G01X8606467Y4177574D01*
G01X8617897Y4171732D01*
G01X8652187Y4160302D01*
G01X8663617Y4154714D01*
G01X8669459Y4148872D01*
G01X8675047Y4137442D01*
G01X8675047Y4120424D01*
G01X8663617Y4108994D01*
G01X8646599Y4103152D01*
G01X8623739Y4103152D01*
G01X8606467Y4108994D01*
G01X8595037Y4120424D01*
G01X8722799Y4223294D02*
G01X8728641Y4217452D01*
G01X8734229Y4223294D01*
G01X8728641Y4228882D01*
G01X8722799Y4223294D01*
G01X8728641Y4183162D02*
G01X8728641Y4103152D01*
G01X8844973Y4183162D02*
G01X8781981Y4103152D01*
G01X8781981Y4183162D02*
G01X8844973Y4183162D01*
G01X8781981Y4103152D02*
G01X8844973Y4103152D01*
G01X8892725Y4148872D02*
G01X8961305Y4148872D01*
G01X8961305Y4160302D01*
G01X8955717Y4171732D01*
G01X8949875Y4177574D01*
G01X8938445Y4183162D01*
G01X8921427Y4183162D01*
G01X8909997Y4177574D01*
G01X8898567Y4166144D01*
G01X8892725Y4148872D01*
G01X8892725Y4137442D01*
G01X8898567Y4120424D01*
G01X8909997Y4108994D01*
G01X8921427Y4103152D01*
G01X8938445Y4103152D01*
G01X8949875Y4108994D01*
G01X8961305Y4120424D01*
G01X12386387Y4223294D02*
G01X12386387Y4103152D01*
G01X12386387Y4223294D02*
G01X12437949Y4223294D01*
G01X12454967Y4217452D01*
G01X12460809Y4211864D01*
G01X12466397Y4200434D01*
G01X12466397Y4183162D01*
G01X12460809Y4171732D01*
G01X12454967Y4166144D01*
G01X12437949Y4160302D01*
G01X12386387Y4160302D01*
G01X12514149Y4223294D02*
G01X12514149Y4103152D01*
G01X12630481Y4183162D02*
G01X12630481Y4103152D01*
G01X12630481Y4166144D02*
G01X12619051Y4177574D01*
G01X12607621Y4183162D01*
G01X12590603Y4183162D01*
G01X12579173Y4177574D01*
G01X12567743Y4166144D01*
G01X12561901Y4148872D01*
G01X12561901Y4137442D01*
G01X12567743Y4120424D01*
G01X12579173Y4108994D01*
G01X12590603Y4103152D01*
G01X12607621Y4103152D01*
G01X12619051Y4108994D01*
G01X12630481Y4120424D01*
G01X12695505Y4223294D02*
G01X12695505Y4126012D01*
G01X12701093Y4108994D01*
G01X12712523Y4103152D01*
G01X12723953Y4103152D01*
G01X12678233Y4183162D02*
G01X12718365Y4183162D01*
G01X12771705Y4148872D02*
G01X12840285Y4148872D01*
G01X12840285Y4160302D01*
G01X12834697Y4171732D01*
G01X12828855Y4177574D01*
G01X12817425Y4183162D01*
G01X12800407Y4183162D01*
G01X12788977Y4177574D01*
G01X12777547Y4166144D01*
G01X12771705Y4148872D01*
G01X12771705Y4137442D01*
G01X12777547Y4120424D01*
G01X12788977Y4108994D01*
G01X12800407Y4103152D01*
G01X12817425Y4103152D01*
G01X12828855Y4108994D01*
G01X12840285Y4120424D01*
G01X12956617Y4223294D02*
G01X12956617Y4103152D01*
G01X12956617Y4166144D02*
G01X12945187Y4177574D01*
G01X12933757Y4183162D01*
G01X12916739Y4183162D01*
G01X12905309Y4177574D01*
G01X12893879Y4166144D01*
G01X12888037Y4148872D01*
G01X12888037Y4137442D01*
G01X12893879Y4120424D01*
G01X12905309Y4108994D01*
G01X12916739Y4103152D01*
G01X12933757Y4103152D01*
G01X12945187Y4108994D01*
G01X12956617Y4120424D01*
G01X13927804Y4206022D02*
G01X13916374Y4217452D01*
G01X13899356Y4223294D01*
G01X13876496Y4223294D01*
G01X13859224Y4217452D01*
G01X13847794Y4206022D01*
G01X13847794Y4194592D01*
G01X13853636Y4183162D01*
G01X13859224Y4177574D01*
G01X13870654Y4171732D01*
G01X13904944Y4160302D01*
G01X13916374Y4154714D01*
G01X13922216Y4148872D01*
G01X13927804Y4137442D01*
G01X13927804Y4120424D01*
G01X13916374Y4108994D01*
G01X13899356Y4103152D01*
G01X13876496Y4103152D01*
G01X13859224Y4108994D01*
G01X13847794Y4120424D01*
G01X13975556Y4223294D02*
G01X13975556Y4103152D01*
G01X13975556Y4160302D02*
G01X13992828Y4177574D01*
G01X14004258Y4183162D01*
G01X14021276Y4183162D01*
G01X14032706Y4177574D01*
G01X14038548Y4160302D01*
G01X14038548Y4103152D01*
G01X14154880Y4183162D02*
G01X14154880Y4103152D01*
G01X14154880Y4166144D02*
G01X14143450Y4177574D01*
G01X14132020Y4183162D01*
G01X14115002Y4183162D01*
G01X14103572Y4177574D01*
G01X14092142Y4166144D01*
G01X14086300Y4148872D01*
G01X14086300Y4137442D01*
G01X14092142Y4120424D01*
G01X14103572Y4108994D01*
G01X14115002Y4103152D01*
G01X14132020Y4103152D01*
G01X14143450Y4108994D01*
G01X14154880Y4120424D01*
G01X14202632Y4183162D02*
G01X14202632Y4063274D01*
G01X14202632Y4166144D02*
G01X14214062Y4177574D01*
G01X14225492Y4183162D01*
G01X14242764Y4183162D01*
G01X14254194Y4177574D01*
G01X14265624Y4166144D01*
G01X14271212Y4148872D01*
G01X14271212Y4137442D01*
G01X14265624Y4120424D01*
G01X14254194Y4108994D01*
G01X14242764Y4103152D01*
G01X14225492Y4103152D01*
G01X14214062Y4108994D01*
G01X14202632Y4120424D01*
G01X14318964Y4148872D02*
G01X14387544Y4148872D01*
G01X14387544Y4160302D01*
G01X14381956Y4171732D01*
G01X14376114Y4177574D01*
G01X14364684Y4183162D01*
G01X14347666Y4183162D01*
G01X14336236Y4177574D01*
G01X14324806Y4166144D01*
G01X14318964Y4148872D01*
G01X14318964Y4137442D01*
G01X14324806Y4120424D01*
G01X14336236Y4108994D01*
G01X14347666Y4103152D01*
G01X14364684Y4103152D01*
G01X14376114Y4108994D01*
G01X14387544Y4120424D01*
G01X15278975Y4223294D02*
G01X15324695Y4103152D01*
G01X15370415Y4223294D02*
G01X15324695Y4103152D01*
G01X15418167Y4223294D02*
G01X15424009Y4217452D01*
G01X15429597Y4223294D01*
G01X15424009Y4228882D01*
G01X15418167Y4223294D01*
G01X15424009Y4183162D02*
G01X15424009Y4103152D01*
G01X15545929Y4183162D02*
G01X15545929Y4103152D01*
G01X15545929Y4166144D02*
G01X15534499Y4177574D01*
G01X15523069Y4183162D01*
G01X15506051Y4183162D01*
G01X15494621Y4177574D01*
G01X15483191Y4166144D01*
G01X15477349Y4148872D01*
G01X15477349Y4137442D01*
G01X15483191Y4120424D01*
G01X15494621Y4108994D01*
G01X15506051Y4103152D01*
G01X15523069Y4103152D01*
G01X15534499Y4108994D01*
G01X15545929Y4120424D01*
G01X15696551Y4246154D02*
G01X15593681Y4063274D01*
G01X15744303Y4223294D02*
G01X15744303Y4103152D01*
G01X15744303Y4223294D02*
G01X15795865Y4223294D01*
G01X15812883Y4217452D01*
G01X15818725Y4211864D01*
G01X15824313Y4200434D01*
G01X15824313Y4183162D01*
G01X15818725Y4171732D01*
G01X15812883Y4166144D01*
G01X15795865Y4160302D01*
G01X15744303Y4160302D01*
G01X15940645Y4183162D02*
G01X15940645Y4103152D01*
G01X15940645Y4166144D02*
G01X15929215Y4177574D01*
G01X15917785Y4183162D01*
G01X15900767Y4183162D01*
G01X15889337Y4177574D01*
G01X15877907Y4166144D01*
G01X15872065Y4148872D01*
G01X15872065Y4137442D01*
G01X15877907Y4120424D01*
G01X15889337Y4108994D01*
G01X15900767Y4103152D01*
G01X15917785Y4103152D01*
G01X15929215Y4108994D01*
G01X15940645Y4120424D01*
G01X16056977Y4223294D02*
G01X16056977Y4103152D01*
G01X16056977Y4166144D02*
G01X16045547Y4177574D01*
G01X16034117Y4183162D01*
G01X16017099Y4183162D01*
G01X16005669Y4177574D01*
G01X15994239Y4166144D01*
G01X15988397Y4148872D01*
G01X15988397Y4137442D01*
G01X15994239Y4120424D01*
G01X16005669Y4108994D01*
G01X16017099Y4103152D01*
G01X16034117Y4103152D01*
G01X16045547Y4108994D01*
G01X16056977Y4120424D01*
G01X16948154Y4223294D02*
G01X16948154Y4103152D01*
G01X16948154Y4223294D02*
G01X16999716Y4223294D01*
G01X17016734Y4217452D01*
G01X17022576Y4211864D01*
G01X17028164Y4200434D01*
G01X17028164Y4183162D01*
G01X17022576Y4171732D01*
G01X17016734Y4166144D01*
G01X16999716Y4160302D01*
G01X16948154Y4160302D01*
G01X17144496Y4183162D02*
G01X17144496Y4103152D01*
G01X17144496Y4166144D02*
G01X17133066Y4177574D01*
G01X17121636Y4183162D01*
G01X17104618Y4183162D01*
G01X17093188Y4177574D01*
G01X17081758Y4166144D01*
G01X17075916Y4148872D01*
G01X17075916Y4137442D01*
G01X17081758Y4120424D01*
G01X17093188Y4108994D01*
G01X17104618Y4103152D01*
G01X17121636Y4103152D01*
G01X17133066Y4108994D01*
G01X17144496Y4120424D01*
G01X17260828Y4223294D02*
G01X17260828Y4103152D01*
G01X17260828Y4166144D02*
G01X17249398Y4177574D01*
G01X17237968Y4183162D01*
G01X17220950Y4183162D01*
G01X17209520Y4177574D01*
G01X17198090Y4166144D01*
G01X17192248Y4148872D01*
G01X17192248Y4137442D01*
G01X17198090Y4120424D01*
G01X17209520Y4108994D01*
G01X17220950Y4103152D01*
G01X17237968Y4103152D01*
G01X17249398Y4108994D01*
G01X17260828Y4120424D01*
G01X17516606Y4206022D02*
G01X17505176Y4217452D01*
G01X17488158Y4223294D01*
G01X17465298Y4223294D01*
G01X17448026Y4217452D01*
G01X17436596Y4206022D01*
G01X17436596Y4194592D01*
G01X17442438Y4183162D01*
G01X17448026Y4177574D01*
G01X17459456Y4171732D01*
G01X17493746Y4160302D01*
G01X17505176Y4154714D01*
G01X17511018Y4148872D01*
G01X17516606Y4137442D01*
G01X17516606Y4120424D01*
G01X17505176Y4108994D01*
G01X17488158Y4103152D01*
G01X17465298Y4103152D01*
G01X17448026Y4108994D01*
G01X17436596Y4120424D01*
G01X17564358Y4223294D02*
G01X17564358Y4103152D01*
G01X17564358Y4160302D02*
G01X17581630Y4177574D01*
G01X17593060Y4183162D01*
G01X17610078Y4183162D01*
G01X17621508Y4177574D01*
G01X17627350Y4160302D01*
G01X17627350Y4103152D01*
G01X17743682Y4183162D02*
G01X17743682Y4103152D01*
G01X17743682Y4166144D02*
G01X17732252Y4177574D01*
G01X17720822Y4183162D01*
G01X17703804Y4183162D01*
G01X17692374Y4177574D01*
G01X17680944Y4166144D01*
G01X17675102Y4148872D01*
G01X17675102Y4137442D01*
G01X17680944Y4120424D01*
G01X17692374Y4108994D01*
G01X17703804Y4103152D01*
G01X17720822Y4103152D01*
G01X17732252Y4108994D01*
G01X17743682Y4120424D01*
G01X17791434Y4183162D02*
G01X17791434Y4063274D01*
G01X17791434Y4166144D02*
G01X17802864Y4177574D01*
G01X17814294Y4183162D01*
G01X17831566Y4183162D01*
G01X17842996Y4177574D01*
G01X17854426Y4166144D01*
G01X17860014Y4148872D01*
G01X17860014Y4137442D01*
G01X17854426Y4120424D01*
G01X17842996Y4108994D01*
G01X17831566Y4103152D01*
G01X17814294Y4103152D01*
G01X17802864Y4108994D01*
G01X17791434Y4120424D01*
G01X17907766Y4148872D02*
G01X17976346Y4148872D01*
G01X17976346Y4160302D01*
G01X17970758Y4171732D01*
G01X17964916Y4177574D01*
G01X17953486Y4183162D01*
G01X17936468Y4183162D01*
G01X17925038Y4177574D01*
G01X17913608Y4166144D01*
G01X17907766Y4148872D01*
G01X17907766Y4137442D01*
G01X17913608Y4120424D01*
G01X17925038Y4108994D01*
G01X17936468Y4103152D01*
G01X17953486Y4103152D01*
G01X17964916Y4108994D01*
G01X17976346Y4120424D01*
G01X18867523Y4223294D02*
G01X18867523Y4103152D01*
G01X18867523Y4103152D02*
G01X18936103Y4103152D01*
G01X19052435Y4183162D02*
G01X19052435Y4103152D01*
G01X19052435Y4166144D02*
G01X19041005Y4177574D01*
G01X19029575Y4183162D01*
G01X19012557Y4183162D01*
G01X19001127Y4177574D01*
G01X18989697Y4166144D01*
G01X18983855Y4148872D01*
G01X18983855Y4137442D01*
G01X18989697Y4120424D01*
G01X19001127Y4108994D01*
G01X19012557Y4103152D01*
G01X19029575Y4103152D01*
G01X19041005Y4108994D01*
G01X19052435Y4120424D01*
G01X19106029Y4183162D02*
G01X19140319Y4103152D01*
G01X19174609Y4183162D02*
G01X19140319Y4103152D01*
G01X19128889Y4080292D01*
G01X19117459Y4068862D01*
G01X19106029Y4063274D01*
G01X19100187Y4063274D01*
G01X19222361Y4148872D02*
G01X19290941Y4148872D01*
G01X19290941Y4160302D01*
G01X19285353Y4171732D01*
G01X19279511Y4177574D01*
G01X19268081Y4183162D01*
G01X19251063Y4183162D01*
G01X19239633Y4177574D01*
G01X19228203Y4166144D01*
G01X19222361Y4148872D01*
G01X19222361Y4137442D01*
G01X19228203Y4120424D01*
G01X19239633Y4108994D01*
G01X19251063Y4103152D01*
G01X19268081Y4103152D01*
G01X19279511Y4108994D01*
G01X19290941Y4120424D01*
G01X19338693Y4183162D02*
G01X19338693Y4103152D01*
G01X19338693Y4148872D02*
G01X19344535Y4166144D01*
G01X19355965Y4177574D01*
G01X19367395Y4183162D01*
G01X19384413Y4183162D01*
G01X19560181Y4223294D02*
G01X19560181Y4103152D01*
G01X19560181Y4223294D02*
G01X19611743Y4223294D01*
G01X19628761Y4217452D01*
G01X19634603Y4211864D01*
G01X19640191Y4200434D01*
G01X19640191Y4183162D01*
G01X19634603Y4171732D01*
G01X19628761Y4166144D01*
G01X19611743Y4160302D01*
G01X19560181Y4160302D01*
G01X19756523Y4183162D02*
G01X19756523Y4103152D01*
G01X19756523Y4166144D02*
G01X19745093Y4177574D01*
G01X19733663Y4183162D01*
G01X19716645Y4183162D01*
G01X19705215Y4177574D01*
G01X19693785Y4166144D01*
G01X19687943Y4148872D01*
G01X19687943Y4137442D01*
G01X19693785Y4120424D01*
G01X19705215Y4108994D01*
G01X19716645Y4103152D01*
G01X19733663Y4103152D01*
G01X19745093Y4108994D01*
G01X19756523Y4120424D01*
G01X19804275Y4223294D02*
G01X19810117Y4217452D01*
G01X19815705Y4223294D01*
G01X19810117Y4228882D01*
G01X19804275Y4223294D01*
G01X19810117Y4183162D02*
G01X19810117Y4103152D01*
G01X19863457Y4183162D02*
G01X19863457Y4103152D01*
G01X19863457Y4148872D02*
G01X19869299Y4166144D01*
G01X19880729Y4177574D01*
G01X19892159Y4183162D01*
G01X19909177Y4183162D01*
G01X7192304Y3642723D02*
G01X7255296Y3642723D01*
G01X7221006Y3597003D01*
G01X7238024Y3597003D01*
G01X7249454Y3591161D01*
G01X7255296Y3585573D01*
G01X7260884Y3568301D01*
G01X7260884Y3556871D01*
G01X7255296Y3539853D01*
G01X7243866Y3528423D01*
G01X7226594Y3522581D01*
G01X7209576Y3522581D01*
G01X7192304Y3528423D01*
G01X7186716Y3534011D01*
G01X7180874Y3545441D01*
G01X8606467Y3642723D02*
G01X8669459Y3642723D01*
G01X8635169Y3597003D01*
G01X8652187Y3597003D01*
G01X8663617Y3591161D01*
G01X8669459Y3585573D01*
G01X8675047Y3568301D01*
G01X8675047Y3556871D01*
G01X8669459Y3539853D01*
G01X8658029Y3528423D01*
G01X8640757Y3522581D01*
G01X8623739Y3522581D01*
G01X8606467Y3528423D01*
G01X8600879Y3534011D01*
G01X8595037Y3545441D01*
G01X8791379Y3625451D02*
G01X8785791Y3636881D01*
G01X8768519Y3642723D01*
G01X8757089Y3642723D01*
G01X8740071Y3636881D01*
G01X8728641Y3619863D01*
G01X8722799Y3591161D01*
G01X8722799Y3562713D01*
G01X8728641Y3539853D01*
G01X8740071Y3528423D01*
G01X8757089Y3522581D01*
G01X8762931Y3522581D01*
G01X8779949Y3528423D01*
G01X8791379Y3539853D01*
G01X8797221Y3556871D01*
G01X8797221Y3562713D01*
G01X8791379Y3579731D01*
G01X8779949Y3591161D01*
G01X8762931Y3597003D01*
G01X8757089Y3597003D01*
G01X8740071Y3591161D01*
G01X8728641Y3579731D01*
G01X8722799Y3562713D01*
G01X8850815Y3551283D02*
G01X8844973Y3545441D01*
G01X8850815Y3539853D01*
G01X8856403Y3545441D01*
G01X8850815Y3551283D01*
G01X8938445Y3642723D02*
G01X8921427Y3636881D01*
G01X8909997Y3619863D01*
G01X8904155Y3591161D01*
G01X8904155Y3574143D01*
G01X8909997Y3545441D01*
G01X8921427Y3528423D01*
G01X8938445Y3522581D01*
G01X8949875Y3522581D01*
G01X8967147Y3528423D01*
G01X8978577Y3545441D01*
G01X8984165Y3574143D01*
G01X8984165Y3591161D01*
G01X8978577Y3619863D01*
G01X8967147Y3636881D01*
G01X8949875Y3642723D01*
G01X8938445Y3642723D01*
G01X9031917Y3602591D02*
G01X9094909Y3522581D01*
G01X9094909Y3602591D02*
G01X9031917Y3522581D01*
G01X9154091Y3642723D02*
G01X9217083Y3642723D01*
G01X9182793Y3597003D01*
G01X9199811Y3597003D01*
G01X9211241Y3591161D01*
G01X9217083Y3585573D01*
G01X9222671Y3568301D01*
G01X9222671Y3556871D01*
G01X9217083Y3539853D01*
G01X9205653Y3528423D01*
G01X9188381Y3522581D01*
G01X9171363Y3522581D01*
G01X9154091Y3528423D01*
G01X9148503Y3534011D01*
G01X9142661Y3545441D01*
G01X9339003Y3625451D02*
G01X9333415Y3636881D01*
G01X9316143Y3642723D01*
G01X9304713Y3642723D01*
G01X9287695Y3636881D01*
G01X9276265Y3619863D01*
G01X9270423Y3591161D01*
G01X9270423Y3562713D01*
G01X9276265Y3539853D01*
G01X9287695Y3528423D01*
G01X9304713Y3522581D01*
G01X9310555Y3522581D01*
G01X9327573Y3528423D01*
G01X9339003Y3539853D01*
G01X9344845Y3556871D01*
G01X9344845Y3562713D01*
G01X9339003Y3579731D01*
G01X9327573Y3591161D01*
G01X9310555Y3597003D01*
G01X9304713Y3597003D01*
G01X9287695Y3591161D01*
G01X9276265Y3579731D01*
G01X9270423Y3562713D01*
G01X9398439Y3551283D02*
G01X9392597Y3545441D01*
G01X9398439Y3539853D01*
G01X9404027Y3545441D01*
G01X9398439Y3551283D01*
G01X9486069Y3642723D02*
G01X9469051Y3636881D01*
G01X9457621Y3619863D01*
G01X9451779Y3591161D01*
G01X9451779Y3574143D01*
G01X9457621Y3545441D01*
G01X9469051Y3528423D01*
G01X9486069Y3522581D01*
G01X9497499Y3522581D01*
G01X9514771Y3528423D01*
G01X9526201Y3545441D01*
G01X9531789Y3574143D01*
G01X9531789Y3591161D01*
G01X9526201Y3619863D01*
G01X9514771Y3636881D01*
G01X9497499Y3642723D01*
G01X9486069Y3642723D01*
G01X9579541Y3602591D02*
G01X9579541Y3522581D01*
G01X9579541Y3579731D02*
G01X9596813Y3597003D01*
G01X9608243Y3602591D01*
G01X9625261Y3602591D01*
G01X9636691Y3597003D01*
G01X9642533Y3579731D01*
G01X9642533Y3522581D01*
G01X9642533Y3579731D02*
G01X9659551Y3597003D01*
G01X9670981Y3602591D01*
G01X9688253Y3602591D01*
G01X9699683Y3597003D01*
G01X9705271Y3579731D01*
G01X9705271Y3522581D01*
G01X9753023Y3642723D02*
G01X9758865Y3636881D01*
G01X9764453Y3642723D01*
G01X9758865Y3648311D01*
G01X9753023Y3642723D01*
G01X9758865Y3602591D02*
G01X9758865Y3522581D01*
G01X9812205Y3642723D02*
G01X9812205Y3522581D01*
G01X9900089Y3665583D02*
G01X9888659Y3654153D01*
G01X9877229Y3636881D01*
G01X9865799Y3614021D01*
G01X9859957Y3585573D01*
G01X9859957Y3562713D01*
G01X9865799Y3534011D01*
G01X9877229Y3511151D01*
G01X9888659Y3494133D01*
G01X9900089Y3482703D01*
G01X9982131Y3642723D02*
G01X9965113Y3636881D01*
G01X9953683Y3619863D01*
G01X9947841Y3591161D01*
G01X9947841Y3574143D01*
G01X9953683Y3545441D01*
G01X9965113Y3528423D01*
G01X9982131Y3522581D01*
G01X9993561Y3522581D01*
G01X10010833Y3528423D01*
G01X10022263Y3545441D01*
G01X10027851Y3574143D01*
G01X10027851Y3591161D01*
G01X10022263Y3619863D01*
G01X10010833Y3636881D01*
G01X9993561Y3642723D01*
G01X9982131Y3642723D01*
G01X10081445Y3551283D02*
G01X10075603Y3545441D01*
G01X10081445Y3539853D01*
G01X10087033Y3545441D01*
G01X10081445Y3551283D01*
G01X10209207Y3602591D02*
G01X10203365Y3585573D01*
G01X10191935Y3574143D01*
G01X10174917Y3568301D01*
G01X10169075Y3568301D01*
G01X10152057Y3574143D01*
G01X10140627Y3585573D01*
G01X10134785Y3602591D01*
G01X10134785Y3608433D01*
G01X10140627Y3625451D01*
G01X10152057Y3636881D01*
G01X10169075Y3642723D01*
G01X10174917Y3642723D01*
G01X10191935Y3636881D01*
G01X10203365Y3625451D01*
G01X10209207Y3602591D01*
G01X10209207Y3574143D01*
G01X10203365Y3545441D01*
G01X10191935Y3528423D01*
G01X10174917Y3522581D01*
G01X10163487Y3522581D01*
G01X10146215Y3528423D01*
G01X10140627Y3539853D01*
G01X10256959Y3619863D02*
G01X10268389Y3625451D01*
G01X10285661Y3642723D01*
G01X10285661Y3522581D01*
G01X10390563Y3642723D02*
G01X10333413Y3562713D01*
G01X10419265Y3562713D01*
G01X10390563Y3642723D02*
G01X10390563Y3522581D01*
G01X10467017Y3602591D02*
G01X10530009Y3522581D01*
G01X10530009Y3602591D02*
G01X10467017Y3522581D01*
G01X10612051Y3642723D02*
G01X10595033Y3636881D01*
G01X10583603Y3619863D01*
G01X10577761Y3591161D01*
G01X10577761Y3574143D01*
G01X10583603Y3545441D01*
G01X10595033Y3528423D01*
G01X10612051Y3522581D01*
G01X10623481Y3522581D01*
G01X10640753Y3528423D01*
G01X10652183Y3545441D01*
G01X10657771Y3574143D01*
G01X10657771Y3591161D01*
G01X10652183Y3619863D01*
G01X10640753Y3636881D01*
G01X10623481Y3642723D01*
G01X10612051Y3642723D01*
G01X10711365Y3551283D02*
G01X10705523Y3545441D01*
G01X10711365Y3539853D01*
G01X10716953Y3545441D01*
G01X10711365Y3551283D01*
G01X10839127Y3602591D02*
G01X10833285Y3585573D01*
G01X10821855Y3574143D01*
G01X10804837Y3568301D01*
G01X10798995Y3568301D01*
G01X10781977Y3574143D01*
G01X10770547Y3585573D01*
G01X10764705Y3602591D01*
G01X10764705Y3608433D01*
G01X10770547Y3625451D01*
G01X10781977Y3636881D01*
G01X10798995Y3642723D01*
G01X10804837Y3642723D01*
G01X10821855Y3636881D01*
G01X10833285Y3625451D01*
G01X10839127Y3602591D01*
G01X10839127Y3574143D01*
G01X10833285Y3545441D01*
G01X10821855Y3528423D01*
G01X10804837Y3522581D01*
G01X10793407Y3522581D01*
G01X10776135Y3528423D01*
G01X10770547Y3539853D01*
G01X10886879Y3619863D02*
G01X10898309Y3625451D01*
G01X10915581Y3642723D01*
G01X10915581Y3522581D01*
G01X11020483Y3642723D02*
G01X10963333Y3562713D01*
G01X11049185Y3562713D01*
G01X11020483Y3642723D02*
G01X11020483Y3522581D01*
G01X11096937Y3602591D02*
G01X11096937Y3522581D01*
G01X11096937Y3579731D02*
G01X11114209Y3597003D01*
G01X11125639Y3602591D01*
G01X11142657Y3602591D01*
G01X11154087Y3597003D01*
G01X11159929Y3579731D01*
G01X11159929Y3522581D01*
G01X11159929Y3579731D02*
G01X11176947Y3597003D01*
G01X11188377Y3602591D01*
G01X11205649Y3602591D01*
G01X11217079Y3597003D01*
G01X11222667Y3579731D01*
G01X11222667Y3522581D01*
G01X11270419Y3602591D02*
G01X11270419Y3522581D01*
G01X11270419Y3579731D02*
G01X11287691Y3597003D01*
G01X11299121Y3602591D01*
G01X11316139Y3602591D01*
G01X11327569Y3597003D01*
G01X11333411Y3579731D01*
G01X11333411Y3522581D01*
G01X11333411Y3579731D02*
G01X11350429Y3597003D01*
G01X11361859Y3602591D01*
G01X11379131Y3602591D01*
G01X11390561Y3597003D01*
G01X11396149Y3579731D01*
G01X11396149Y3522581D01*
G01X11443901Y3665583D02*
G01X11455331Y3654153D01*
G01X11466761Y3636881D01*
G01X11478191Y3614021D01*
G01X11484033Y3585573D01*
G01X11484033Y3562713D01*
G01X11478191Y3534011D01*
G01X11466761Y3511151D01*
G01X11455331Y3494133D01*
G01X11443901Y3482703D01*
G01X12386387Y3642723D02*
G01X12386387Y3522581D01*
G01X12386387Y3642723D02*
G01X12437949Y3642723D01*
G01X12454967Y3636881D01*
G01X12460809Y3631293D01*
G01X12466397Y3619863D01*
G01X12466397Y3602591D01*
G01X12460809Y3591161D01*
G01X12454967Y3585573D01*
G01X12437949Y3579731D01*
G01X12386387Y3579731D01*
G01X12554281Y3642723D02*
G01X12554281Y3522581D01*
G01X12514149Y3642723D02*
G01X12594159Y3642723D01*
G01X12641911Y3642723D02*
G01X12641911Y3522581D01*
G01X12721921Y3642723D02*
G01X12721921Y3522581D01*
G01X12641911Y3585573D02*
G01X12721921Y3585573D01*
G01X13847794Y3642723D02*
G01X13847794Y3522581D01*
G01X13847794Y3642723D02*
G01X13899356Y3642723D01*
G01X13916374Y3636881D01*
G01X13922216Y3631293D01*
G01X13927804Y3619863D01*
G01X13927804Y3608433D01*
G01X13922216Y3597003D01*
G01X13916374Y3591161D01*
G01X13899356Y3585573D01*
G01X13847794Y3585573D01*
G01X13887926Y3585573D02*
G01X13927804Y3522581D01*
G01X14004258Y3602591D02*
G01X13992828Y3597003D01*
G01X13981398Y3585573D01*
G01X13975556Y3568301D01*
G01X13975556Y3556871D01*
G01X13981398Y3539853D01*
G01X13992828Y3528423D01*
G01X14004258Y3522581D01*
G01X14021276Y3522581D01*
G01X14032706Y3528423D01*
G01X14044136Y3539853D01*
G01X14049978Y3556871D01*
G01X14049978Y3568301D01*
G01X14044136Y3585573D01*
G01X14032706Y3597003D01*
G01X14021276Y3602591D01*
G01X14004258Y3602591D01*
G01X14097730Y3602591D02*
G01X14097730Y3545441D01*
G01X14103572Y3528423D01*
G01X14115002Y3522581D01*
G01X14132020Y3522581D01*
G01X14143450Y3528423D01*
G01X14160722Y3545441D01*
G01X14160722Y3602591D02*
G01X14160722Y3522581D01*
G01X14208474Y3602591D02*
G01X14208474Y3522581D01*
G01X14208474Y3579731D02*
G01X14225746Y3597003D01*
G01X14237176Y3602591D01*
G01X14254194Y3602591D01*
G01X14265624Y3597003D01*
G01X14271466Y3579731D01*
G01X14271466Y3522581D01*
G01X14387798Y3642723D02*
G01X14387798Y3522581D01*
G01X14387798Y3585573D02*
G01X14376368Y3597003D01*
G01X14364938Y3602591D01*
G01X14347920Y3602591D01*
G01X14336490Y3597003D01*
G01X14325060Y3585573D01*
G01X14319218Y3568301D01*
G01X14319218Y3556871D01*
G01X14325060Y3539853D01*
G01X14336490Y3528423D01*
G01X14347920Y3522581D01*
G01X14364938Y3522581D01*
G01X14376368Y3528423D01*
G01X14387798Y3539853D01*
G01X15278975Y3642723D02*
G01X15278975Y3522581D01*
G01X15278975Y3642723D02*
G01X15330537Y3642723D01*
G01X15347555Y3636881D01*
G01X15353397Y3631293D01*
G01X15358985Y3619863D01*
G01X15358985Y3602591D01*
G01X15353397Y3591161D01*
G01X15347555Y3585573D01*
G01X15330537Y3579731D01*
G01X15278975Y3579731D01*
G01X15475317Y3602591D02*
G01X15475317Y3522581D01*
G01X15475317Y3585573D02*
G01X15463887Y3597003D01*
G01X15452457Y3602591D01*
G01X15435439Y3602591D01*
G01X15424009Y3597003D01*
G01X15412579Y3585573D01*
G01X15406737Y3568301D01*
G01X15406737Y3556871D01*
G01X15412579Y3539853D01*
G01X15424009Y3528423D01*
G01X15435439Y3522581D01*
G01X15452457Y3522581D01*
G01X15463887Y3528423D01*
G01X15475317Y3539853D01*
G01X15591649Y3642723D02*
G01X15591649Y3522581D01*
G01X15591649Y3585573D02*
G01X15580219Y3597003D01*
G01X15568789Y3602591D01*
G01X15551771Y3602591D01*
G01X15540341Y3597003D01*
G01X15528911Y3585573D01*
G01X15523069Y3568301D01*
G01X15523069Y3556871D01*
G01X15528911Y3539853D01*
G01X15540341Y3528423D01*
G01X15551771Y3522581D01*
G01X15568789Y3522581D01*
G01X15580219Y3528423D01*
G01X15591649Y3539853D01*
G01X16948154Y3642723D02*
G01X16948154Y3522581D01*
G01X16948154Y3642723D02*
G01X16999716Y3642723D01*
G01X17016734Y3636881D01*
G01X17022576Y3631293D01*
G01X17028164Y3619863D01*
G01X17028164Y3608433D01*
G01X17022576Y3597003D01*
G01X17016734Y3591161D01*
G01X16999716Y3585573D01*
G01X16948154Y3585573D01*
G01X16988286Y3585573D02*
G01X17028164Y3522581D01*
G01X17104618Y3602591D02*
G01X17093188Y3597003D01*
G01X17081758Y3585573D01*
G01X17075916Y3568301D01*
G01X17075916Y3556871D01*
G01X17081758Y3539853D01*
G01X17093188Y3528423D01*
G01X17104618Y3522581D01*
G01X17121636Y3522581D01*
G01X17133066Y3528423D01*
G01X17144496Y3539853D01*
G01X17150338Y3556871D01*
G01X17150338Y3568301D01*
G01X17144496Y3585573D01*
G01X17133066Y3597003D01*
G01X17121636Y3602591D01*
G01X17104618Y3602591D01*
G01X17198090Y3602591D02*
G01X17198090Y3545441D01*
G01X17203932Y3528423D01*
G01X17215362Y3522581D01*
G01X17232380Y3522581D01*
G01X17243810Y3528423D01*
G01X17261082Y3545441D01*
G01X17261082Y3602591D02*
G01X17261082Y3522581D01*
G01X17308834Y3602591D02*
G01X17308834Y3522581D01*
G01X17308834Y3579731D02*
G01X17326106Y3597003D01*
G01X17337536Y3602591D01*
G01X17354554Y3602591D01*
G01X17365984Y3597003D01*
G01X17371826Y3579731D01*
G01X17371826Y3522581D01*
G01X17488158Y3642723D02*
G01X17488158Y3522581D01*
G01X17488158Y3585573D02*
G01X17476728Y3597003D01*
G01X17465298Y3602591D01*
G01X17448280Y3602591D01*
G01X17436850Y3597003D01*
G01X17425420Y3585573D01*
G01X17419578Y3568301D01*
G01X17419578Y3556871D01*
G01X17425420Y3539853D01*
G01X17436850Y3528423D01*
G01X17448280Y3522581D01*
G01X17465298Y3522581D01*
G01X17476728Y3528423D01*
G01X17488158Y3539853D01*
G01X18907655Y3642723D02*
G01X18907655Y3522581D01*
G01X18867523Y3642723D02*
G01X18947533Y3642723D01*
G01X19023987Y3602591D02*
G01X19012557Y3597003D01*
G01X19001127Y3585573D01*
G01X18995285Y3568301D01*
G01X18995285Y3556871D01*
G01X19001127Y3539853D01*
G01X19012557Y3528423D01*
G01X19023987Y3522581D01*
G01X19041005Y3522581D01*
G01X19052435Y3528423D01*
G01X19063865Y3539853D01*
G01X19069707Y3556871D01*
G01X19069707Y3568301D01*
G01X19063865Y3585573D01*
G01X19052435Y3597003D01*
G01X19041005Y3602591D01*
G01X19023987Y3602591D01*
G01X19117459Y3602591D02*
G01X19117459Y3482703D01*
G01X19117459Y3585573D02*
G01X19128889Y3597003D01*
G01X19140319Y3602591D01*
G01X19157591Y3602591D01*
G01X19169021Y3597003D01*
G01X19180451Y3585573D01*
G01X19186039Y3568301D01*
G01X19186039Y3556871D01*
G01X19180451Y3539853D01*
G01X19169021Y3528423D01*
G01X19157591Y3522581D01*
G01X19140319Y3522581D01*
G01X19128889Y3528423D01*
G01X19117459Y3539853D01*
G01X19361807Y3642723D02*
G01X19361807Y3522581D01*
G01X19361807Y3522581D02*
G01X19430387Y3522581D01*
G01X19546719Y3602591D02*
G01X19546719Y3522581D01*
G01X19546719Y3585573D02*
G01X19535289Y3597003D01*
G01X19523859Y3602591D01*
G01X19506841Y3602591D01*
G01X19495411Y3597003D01*
G01X19483981Y3585573D01*
G01X19478139Y3568301D01*
G01X19478139Y3556871D01*
G01X19483981Y3539853D01*
G01X19495411Y3528423D01*
G01X19506841Y3522581D01*
G01X19523859Y3522581D01*
G01X19535289Y3528423D01*
G01X19546719Y3539853D01*
G01X19600313Y3602591D02*
G01X19634603Y3522581D01*
G01X19668893Y3602591D02*
G01X19634603Y3522581D01*
G01X19623173Y3499721D01*
G01X19611743Y3488291D01*
G01X19600313Y3482703D01*
G01X19594471Y3482703D01*
G01X19716645Y3568301D02*
G01X19785225Y3568301D01*
G01X19785225Y3579731D01*
G01X19779637Y3591161D01*
G01X19773795Y3597003D01*
G01X19762365Y3602591D01*
G01X19745347Y3602591D01*
G01X19733917Y3597003D01*
G01X19722487Y3585573D01*
G01X19716645Y3568301D01*
G01X19716645Y3556871D01*
G01X19722487Y3539853D01*
G01X19733917Y3528423D01*
G01X19745347Y3522581D01*
G01X19762365Y3522581D01*
G01X19773795Y3528423D01*
G01X19785225Y3539853D01*
G01X19832977Y3602591D02*
G01X19832977Y3522581D01*
G01X19832977Y3568301D02*
G01X19838819Y3585573D01*
G01X19850249Y3597003D01*
G01X19861679Y3602591D01*
G01X19878697Y3602591D01*
G01X19926449Y3574143D02*
G01X20029319Y3574143D01*
G01X20077071Y3642723D02*
G01X20077071Y3522581D01*
G01X20077071Y3642723D02*
G01X20128633Y3642723D01*
G01X20145651Y3636881D01*
G01X20151493Y3631293D01*
G01X20157081Y3619863D01*
G01X20157081Y3608433D01*
G01X20151493Y3597003D01*
G01X20145651Y3591161D01*
G01X20128633Y3585573D01*
G01X20077071Y3585573D02*
G01X20128633Y3585573D01*
G01X20145651Y3579731D01*
G01X20151493Y3574143D01*
G01X20157081Y3562713D01*
G01X20157081Y3545441D01*
G01X20151493Y3534011D01*
G01X20145651Y3528423D01*
G01X20128633Y3522581D01*
G01X20077071Y3522581D01*
G01X20233535Y3602591D02*
G01X20222105Y3597003D01*
G01X20210675Y3585573D01*
G01X20204833Y3568301D01*
G01X20204833Y3556871D01*
G01X20210675Y3539853D01*
G01X20222105Y3528423D01*
G01X20233535Y3522581D01*
G01X20250553Y3522581D01*
G01X20261983Y3528423D01*
G01X20273413Y3539853D01*
G01X20279255Y3556871D01*
G01X20279255Y3568301D01*
G01X20273413Y3585573D01*
G01X20261983Y3597003D01*
G01X20250553Y3602591D01*
G01X20233535Y3602591D01*
G01X20344279Y3642723D02*
G01X20344279Y3545441D01*
G01X20349867Y3528423D01*
G01X20361297Y3522581D01*
G01X20372727Y3522581D01*
G01X20327007Y3602591D02*
G01X20367139Y3602591D01*
G01X20437751Y3642723D02*
G01X20437751Y3545441D01*
G01X20443339Y3528423D01*
G01X20454769Y3522581D01*
G01X20466199Y3522581D01*
G01X20420479Y3602591D02*
G01X20460611Y3602591D01*
G01X20542653Y3602591D02*
G01X20531223Y3597003D01*
G01X20519793Y3585573D01*
G01X20513951Y3568301D01*
G01X20513951Y3556871D01*
G01X20519793Y3539853D01*
G01X20531223Y3528423D01*
G01X20542653Y3522581D01*
G01X20559671Y3522581D01*
G01X20571101Y3528423D01*
G01X20582531Y3539853D01*
G01X20588373Y3556871D01*
G01X20588373Y3568301D01*
G01X20582531Y3585573D01*
G01X20571101Y3597003D01*
G01X20559671Y3602591D01*
G01X20542653Y3602591D01*
G01X20636125Y3602591D02*
G01X20636125Y3522581D01*
G01X20636125Y3579731D02*
G01X20653397Y3597003D01*
G01X20664827Y3602591D01*
G01X20681845Y3602591D01*
G01X20693275Y3597003D01*
G01X20699117Y3579731D01*
G01X20699117Y3522581D01*
G01X20699117Y3579731D02*
G01X20716135Y3597003D01*
G01X20727565Y3602591D01*
G01X20744837Y3602591D01*
G01X20756267Y3597003D01*
G01X20761855Y3579731D01*
G01X20761855Y3522581D01*
G01X20937623Y3642723D02*
G01X20937623Y3522581D01*
G01X20937623Y3522581D02*
G01X21006203Y3522581D01*
G01X21122535Y3602591D02*
G01X21122535Y3522581D01*
G01X21122535Y3585573D02*
G01X21111105Y3597003D01*
G01X21099675Y3602591D01*
G01X21082657Y3602591D01*
G01X21071227Y3597003D01*
G01X21059797Y3585573D01*
G01X21053955Y3568301D01*
G01X21053955Y3556871D01*
G01X21059797Y3539853D01*
G01X21071227Y3528423D01*
G01X21082657Y3522581D01*
G01X21099675Y3522581D01*
G01X21111105Y3528423D01*
G01X21122535Y3539853D01*
G01X21176129Y3602591D02*
G01X21210419Y3522581D01*
G01X21244709Y3602591D02*
G01X21210419Y3522581D01*
G01X21198989Y3499721D01*
G01X21187559Y3488291D01*
G01X21176129Y3482703D01*
G01X21170287Y3482703D01*
G01X21292461Y3568301D02*
G01X21361041Y3568301D01*
G01X21361041Y3579731D01*
G01X21355453Y3591161D01*
G01X21349611Y3597003D01*
G01X21338181Y3602591D01*
G01X21321163Y3602591D01*
G01X21309733Y3597003D01*
G01X21298303Y3585573D01*
G01X21292461Y3568301D01*
G01X21292461Y3556871D01*
G01X21298303Y3539853D01*
G01X21309733Y3528423D01*
G01X21321163Y3522581D01*
G01X21338181Y3522581D01*
G01X21349611Y3528423D01*
G01X21361041Y3539853D01*
G01X21408793Y3602591D02*
G01X21408793Y3522581D01*
G01X21408793Y3568301D02*
G01X21414635Y3585573D01*
G01X21426065Y3597003D01*
G01X21437495Y3602591D01*
G01X21454513Y3602591D01*
G01X7180874Y3039291D02*
G01X7192304Y3044879D01*
G01X7209576Y3062151D01*
G01X7209576Y2942009D01*
G01X7325908Y3044879D02*
G01X7320320Y3056309D01*
G01X7303048Y3062151D01*
G01X7291618Y3062151D01*
G01X7274600Y3056309D01*
G01X7263170Y3039291D01*
G01X7257328Y3010589D01*
G01X7257328Y2982141D01*
G01X7263170Y2959281D01*
G01X7274600Y2947851D01*
G01X7291618Y2942009D01*
G01X7297460Y2942009D01*
G01X7314478Y2947851D01*
G01X7325908Y2959281D01*
G01X7331750Y2976299D01*
G01X7331750Y2982141D01*
G01X7325908Y2999159D01*
G01X7314478Y3010589D01*
G01X7297460Y3016431D01*
G01X7291618Y3016431D01*
G01X7274600Y3010589D01*
G01X7263170Y2999159D01*
G01X7257328Y2982141D01*
G01X8606467Y3062151D02*
G01X8669459Y3062151D01*
G01X8635169Y3016431D01*
G01X8652187Y3016431D01*
G01X8663617Y3010589D01*
G01X8669459Y3005001D01*
G01X8675047Y2987729D01*
G01X8675047Y2976299D01*
G01X8669459Y2959281D01*
G01X8658029Y2947851D01*
G01X8640757Y2942009D01*
G01X8623739Y2942009D01*
G01X8606467Y2947851D01*
G01X8600879Y2953439D01*
G01X8595037Y2964869D01*
G01X8797221Y3022019D02*
G01X8791379Y3005001D01*
G01X8779949Y2993571D01*
G01X8762931Y2987729D01*
G01X8757089Y2987729D01*
G01X8740071Y2993571D01*
G01X8728641Y3005001D01*
G01X8722799Y3022019D01*
G01X8722799Y3027861D01*
G01X8728641Y3044879D01*
G01X8740071Y3056309D01*
G01X8757089Y3062151D01*
G01X8762931Y3062151D01*
G01X8779949Y3056309D01*
G01X8791379Y3044879D01*
G01X8797221Y3022019D01*
G01X8797221Y2993571D01*
G01X8791379Y2964869D01*
G01X8779949Y2947851D01*
G01X8762931Y2942009D01*
G01X8751501Y2942009D01*
G01X8734229Y2947851D01*
G01X8728641Y2959281D01*
G01X8850815Y2970711D02*
G01X8844973Y2964869D01*
G01X8850815Y2959281D01*
G01X8856403Y2964869D01*
G01X8850815Y2970711D01*
G01X8961305Y3062151D02*
G01X8904155Y2982141D01*
G01X8990007Y2982141D01*
G01X8961305Y3062151D02*
G01X8961305Y2942009D01*
G01X9037759Y3022019D02*
G01X9100751Y2942009D01*
G01X9100751Y3022019D02*
G01X9037759Y2942009D01*
G01X9159933Y3062151D02*
G01X9222925Y3062151D01*
G01X9188635Y3016431D01*
G01X9205653Y3016431D01*
G01X9217083Y3010589D01*
G01X9222925Y3005001D01*
G01X9228513Y2987729D01*
G01X9228513Y2976299D01*
G01X9222925Y2959281D01*
G01X9211495Y2947851D01*
G01X9194223Y2942009D01*
G01X9177205Y2942009D01*
G01X9159933Y2947851D01*
G01X9154345Y2953439D01*
G01X9148503Y2964869D01*
G01X9350687Y3022019D02*
G01X9344845Y3005001D01*
G01X9333415Y2993571D01*
G01X9316397Y2987729D01*
G01X9310555Y2987729D01*
G01X9293537Y2993571D01*
G01X9282107Y3005001D01*
G01X9276265Y3022019D01*
G01X9276265Y3027861D01*
G01X9282107Y3044879D01*
G01X9293537Y3056309D01*
G01X9310555Y3062151D01*
G01X9316397Y3062151D01*
G01X9333415Y3056309D01*
G01X9344845Y3044879D01*
G01X9350687Y3022019D01*
G01X9350687Y2993571D01*
G01X9344845Y2964869D01*
G01X9333415Y2947851D01*
G01X9316397Y2942009D01*
G01X9304967Y2942009D01*
G01X9287695Y2947851D01*
G01X9282107Y2959281D01*
G01X9404281Y2970711D02*
G01X9398439Y2964869D01*
G01X9404281Y2959281D01*
G01X9409869Y2964869D01*
G01X9404281Y2970711D01*
G01X9514771Y3062151D02*
G01X9457621Y2982141D01*
G01X9543473Y2982141D01*
G01X9514771Y3062151D02*
G01X9514771Y2942009D01*
G01X9591225Y3022019D02*
G01X9591225Y2942009D01*
G01X9591225Y2999159D02*
G01X9608497Y3016431D01*
G01X9619927Y3022019D01*
G01X9636945Y3022019D01*
G01X9648375Y3016431D01*
G01X9654217Y2999159D01*
G01X9654217Y2942009D01*
G01X9654217Y2999159D02*
G01X9671235Y3016431D01*
G01X9682665Y3022019D01*
G01X9699937Y3022019D01*
G01X9711367Y3016431D01*
G01X9716955Y2999159D01*
G01X9716955Y2942009D01*
G01X9764707Y3062151D02*
G01X9770549Y3056309D01*
G01X9776137Y3062151D01*
G01X9770549Y3067739D01*
G01X9764707Y3062151D01*
G01X9770549Y3022019D02*
G01X9770549Y2942009D01*
G01X9823889Y3062151D02*
G01X9823889Y2942009D01*
G01X9911773Y3085011D02*
G01X9900343Y3073581D01*
G01X9888913Y3056309D01*
G01X9877483Y3033449D01*
G01X9871641Y3005001D01*
G01X9871641Y2982141D01*
G01X9877483Y2953439D01*
G01X9888913Y2930579D01*
G01X9900343Y2913561D01*
G01X9911773Y2902131D01*
G01X9959525Y3039291D02*
G01X9970955Y3044879D01*
G01X9988227Y3062151D01*
G01X9988227Y2942009D01*
G01X10041821Y2970711D02*
G01X10035979Y2964869D01*
G01X10041821Y2959281D01*
G01X10047409Y2964869D01*
G01X10041821Y2970711D01*
G01X10129451Y3062151D02*
G01X10112433Y3056309D01*
G01X10101003Y3039291D01*
G01X10095161Y3010589D01*
G01X10095161Y2993571D01*
G01X10101003Y2964869D01*
G01X10112433Y2947851D01*
G01X10129451Y2942009D01*
G01X10140881Y2942009D01*
G01X10158153Y2947851D01*
G01X10169583Y2964869D01*
G01X10175171Y2993571D01*
G01X10175171Y3010589D01*
G01X10169583Y3039291D01*
G01X10158153Y3056309D01*
G01X10140881Y3062151D01*
G01X10129451Y3062151D01*
G01X10257213Y3062151D02*
G01X10240195Y3056309D01*
G01X10228765Y3039291D01*
G01X10222923Y3010589D01*
G01X10222923Y2993571D01*
G01X10228765Y2964869D01*
G01X10240195Y2947851D01*
G01X10257213Y2942009D01*
G01X10268643Y2942009D01*
G01X10285915Y2947851D01*
G01X10297345Y2964869D01*
G01X10302933Y2993571D01*
G01X10302933Y3010589D01*
G01X10297345Y3039291D01*
G01X10285915Y3056309D01*
G01X10268643Y3062151D01*
G01X10257213Y3062151D01*
G01X10384975Y3062151D02*
G01X10367957Y3056309D01*
G01X10356527Y3039291D01*
G01X10350685Y3010589D01*
G01X10350685Y2993571D01*
G01X10356527Y2964869D01*
G01X10367957Y2947851D01*
G01X10384975Y2942009D01*
G01X10396405Y2942009D01*
G01X10413677Y2947851D01*
G01X10425107Y2964869D01*
G01X10430695Y2993571D01*
G01X10430695Y3010589D01*
G01X10425107Y3039291D01*
G01X10413677Y3056309D01*
G01X10396405Y3062151D01*
G01X10384975Y3062151D01*
G01X10478447Y3022019D02*
G01X10541439Y2942009D01*
G01X10541439Y3022019D02*
G01X10478447Y2942009D01*
G01X10589191Y3039291D02*
G01X10600621Y3044879D01*
G01X10617893Y3062151D01*
G01X10617893Y2942009D01*
G01X10671487Y2970711D02*
G01X10665645Y2964869D01*
G01X10671487Y2959281D01*
G01X10677075Y2964869D01*
G01X10671487Y2970711D01*
G01X10759117Y3062151D02*
G01X10742099Y3056309D01*
G01X10730669Y3039291D01*
G01X10724827Y3010589D01*
G01X10724827Y2993571D01*
G01X10730669Y2964869D01*
G01X10742099Y2947851D01*
G01X10759117Y2942009D01*
G01X10770547Y2942009D01*
G01X10787819Y2947851D01*
G01X10799249Y2964869D01*
G01X10804837Y2993571D01*
G01X10804837Y3010589D01*
G01X10799249Y3039291D01*
G01X10787819Y3056309D01*
G01X10770547Y3062151D01*
G01X10759117Y3062151D01*
G01X10886879Y3062151D02*
G01X10869861Y3056309D01*
G01X10858431Y3039291D01*
G01X10852589Y3010589D01*
G01X10852589Y2993571D01*
G01X10858431Y2964869D01*
G01X10869861Y2947851D01*
G01X10886879Y2942009D01*
G01X10898309Y2942009D01*
G01X10915581Y2947851D01*
G01X10927011Y2964869D01*
G01X10932599Y2993571D01*
G01X10932599Y3010589D01*
G01X10927011Y3039291D01*
G01X10915581Y3056309D01*
G01X10898309Y3062151D01*
G01X10886879Y3062151D01*
G01X11014641Y3062151D02*
G01X10997623Y3056309D01*
G01X10986193Y3039291D01*
G01X10980351Y3010589D01*
G01X10980351Y2993571D01*
G01X10986193Y2964869D01*
G01X10997623Y2947851D01*
G01X11014641Y2942009D01*
G01X11026071Y2942009D01*
G01X11043343Y2947851D01*
G01X11054773Y2964869D01*
G01X11060361Y2993571D01*
G01X11060361Y3010589D01*
G01X11054773Y3039291D01*
G01X11043343Y3056309D01*
G01X11026071Y3062151D01*
G01X11014641Y3062151D01*
G01X11108113Y3022019D02*
G01X11108113Y2942009D01*
G01X11108113Y2999159D02*
G01X11125385Y3016431D01*
G01X11136815Y3022019D01*
G01X11153833Y3022019D01*
G01X11165263Y3016431D01*
G01X11171105Y2999159D01*
G01X11171105Y2942009D01*
G01X11171105Y2999159D02*
G01X11188123Y3016431D01*
G01X11199553Y3022019D01*
G01X11216825Y3022019D01*
G01X11228255Y3016431D01*
G01X11233843Y2999159D01*
G01X11233843Y2942009D01*
G01X11281595Y3022019D02*
G01X11281595Y2942009D01*
G01X11281595Y2999159D02*
G01X11298867Y3016431D01*
G01X11310297Y3022019D01*
G01X11327315Y3022019D01*
G01X11338745Y3016431D01*
G01X11344587Y2999159D01*
G01X11344587Y2942009D01*
G01X11344587Y2999159D02*
G01X11361605Y3016431D01*
G01X11373035Y3022019D01*
G01X11390307Y3022019D01*
G01X11401737Y3016431D01*
G01X11407325Y2999159D01*
G01X11407325Y2942009D01*
G01X11455077Y3085011D02*
G01X11466507Y3073581D01*
G01X11477937Y3056309D01*
G01X11489367Y3033449D01*
G01X11495209Y3005001D01*
G01X11495209Y2982141D01*
G01X11489367Y2953439D01*
G01X11477937Y2930579D01*
G01X11466507Y2913561D01*
G01X11455077Y2902131D01*
G01X12386387Y3062151D02*
G01X12386387Y2942009D01*
G01X12386387Y3062151D02*
G01X12437949Y3062151D01*
G01X12454967Y3056309D01*
G01X12460809Y3050721D01*
G01X12466397Y3039291D01*
G01X12466397Y3022019D01*
G01X12460809Y3010589D01*
G01X12454967Y3005001D01*
G01X12437949Y2999159D01*
G01X12386387Y2999159D01*
G01X12554281Y3062151D02*
G01X12554281Y2942009D01*
G01X12514149Y3062151D02*
G01X12594159Y3062151D01*
G01X12641911Y3062151D02*
G01X12641911Y2942009D01*
G01X12721921Y3062151D02*
G01X12721921Y2942009D01*
G01X12641911Y3005001D02*
G01X12721921Y3005001D01*
G01X13847794Y3062151D02*
G01X13847794Y2942009D01*
G01X13847794Y3062151D02*
G01X13899356Y3062151D01*
G01X13916374Y3056309D01*
G01X13922216Y3050721D01*
G01X13927804Y3039291D01*
G01X13927804Y3027861D01*
G01X13922216Y3016431D01*
G01X13916374Y3010589D01*
G01X13899356Y3005001D01*
G01X13847794Y3005001D01*
G01X13887926Y3005001D02*
G01X13927804Y2942009D01*
G01X14004258Y3022019D02*
G01X13992828Y3016431D01*
G01X13981398Y3005001D01*
G01X13975556Y2987729D01*
G01X13975556Y2976299D01*
G01X13981398Y2959281D01*
G01X13992828Y2947851D01*
G01X14004258Y2942009D01*
G01X14021276Y2942009D01*
G01X14032706Y2947851D01*
G01X14044136Y2959281D01*
G01X14049978Y2976299D01*
G01X14049978Y2987729D01*
G01X14044136Y3005001D01*
G01X14032706Y3016431D01*
G01X14021276Y3022019D01*
G01X14004258Y3022019D01*
G01X14097730Y3022019D02*
G01X14097730Y2964869D01*
G01X14103572Y2947851D01*
G01X14115002Y2942009D01*
G01X14132020Y2942009D01*
G01X14143450Y2947851D01*
G01X14160722Y2964869D01*
G01X14160722Y3022019D02*
G01X14160722Y2942009D01*
G01X14208474Y3022019D02*
G01X14208474Y2942009D01*
G01X14208474Y2999159D02*
G01X14225746Y3016431D01*
G01X14237176Y3022019D01*
G01X14254194Y3022019D01*
G01X14265624Y3016431D01*
G01X14271466Y2999159D01*
G01X14271466Y2942009D01*
G01X14387798Y3062151D02*
G01X14387798Y2942009D01*
G01X14387798Y3005001D02*
G01X14376368Y3016431D01*
G01X14364938Y3022019D01*
G01X14347920Y3022019D01*
G01X14336490Y3016431D01*
G01X14325060Y3005001D01*
G01X14319218Y2987729D01*
G01X14319218Y2976299D01*
G01X14325060Y2959281D01*
G01X14336490Y2947851D01*
G01X14347920Y2942009D01*
G01X14364938Y2942009D01*
G01X14376368Y2947851D01*
G01X14387798Y2959281D01*
G01X15278975Y3062151D02*
G01X15278975Y2942009D01*
G01X15278975Y3062151D02*
G01X15330537Y3062151D01*
G01X15347555Y3056309D01*
G01X15353397Y3050721D01*
G01X15358985Y3039291D01*
G01X15358985Y3022019D01*
G01X15353397Y3010589D01*
G01X15347555Y3005001D01*
G01X15330537Y2999159D01*
G01X15278975Y2999159D01*
G01X15475317Y3022019D02*
G01X15475317Y2942009D01*
G01X15475317Y3005001D02*
G01X15463887Y3016431D01*
G01X15452457Y3022019D01*
G01X15435439Y3022019D01*
G01X15424009Y3016431D01*
G01X15412579Y3005001D01*
G01X15406737Y2987729D01*
G01X15406737Y2976299D01*
G01X15412579Y2959281D01*
G01X15424009Y2947851D01*
G01X15435439Y2942009D01*
G01X15452457Y2942009D01*
G01X15463887Y2947851D01*
G01X15475317Y2959281D01*
G01X15591649Y3062151D02*
G01X15591649Y2942009D01*
G01X15591649Y3005001D02*
G01X15580219Y3016431D01*
G01X15568789Y3022019D01*
G01X15551771Y3022019D01*
G01X15540341Y3016431D01*
G01X15528911Y3005001D01*
G01X15523069Y2987729D01*
G01X15523069Y2976299D01*
G01X15528911Y2959281D01*
G01X15540341Y2947851D01*
G01X15551771Y2942009D01*
G01X15568789Y2942009D01*
G01X15580219Y2947851D01*
G01X15591649Y2959281D01*
G01X16988286Y3085011D02*
G01X16976856Y3073581D01*
G01X16965426Y3056309D01*
G01X16953996Y3033449D01*
G01X16948154Y3005001D01*
G01X16948154Y2982141D01*
G01X16953996Y2953439D01*
G01X16965426Y2930579D01*
G01X16976856Y2913561D01*
G01X16988286Y2902131D01*
G01X17036038Y3062151D02*
G01X17036038Y2942009D01*
G01X17036038Y3062151D02*
G01X17081758Y2942009D01*
G01X17127478Y3062151D02*
G01X17081758Y2942009D01*
G01X17127478Y3062151D02*
G01X17127478Y2942009D01*
G01X17175230Y3062151D02*
G01X17181072Y3056309D01*
G01X17186660Y3062151D01*
G01X17181072Y3067739D01*
G01X17175230Y3062151D01*
G01X17181072Y3022019D02*
G01X17181072Y2942009D01*
G01X17234412Y3022019D02*
G01X17297404Y2942009D01*
G01X17297404Y3022019D02*
G01X17234412Y2942009D01*
G01X17345156Y2987729D02*
G01X17413736Y2987729D01*
G01X17413736Y2999159D01*
G01X17408148Y3010589D01*
G01X17402306Y3016431D01*
G01X17390876Y3022019D01*
G01X17373858Y3022019D01*
G01X17362428Y3016431D01*
G01X17350998Y3005001D01*
G01X17345156Y2987729D01*
G01X17345156Y2976299D01*
G01X17350998Y2959281D01*
G01X17362428Y2947851D01*
G01X17373858Y2942009D01*
G01X17390876Y2942009D01*
G01X17402306Y2947851D01*
G01X17413736Y2959281D01*
G01X17530068Y3062151D02*
G01X17530068Y2942009D01*
G01X17530068Y3005001D02*
G01X17518638Y3016431D01*
G01X17507208Y3022019D01*
G01X17490190Y3022019D01*
G01X17478760Y3016431D01*
G01X17467330Y3005001D01*
G01X17461488Y2987729D01*
G01X17461488Y2976299D01*
G01X17467330Y2959281D01*
G01X17478760Y2947851D01*
G01X17490190Y2942009D01*
G01X17507208Y2942009D01*
G01X17518638Y2947851D01*
G01X17530068Y2959281D01*
G01X17577820Y3085011D02*
G01X17589250Y3073581D01*
G01X17600680Y3056309D01*
G01X17612110Y3033449D01*
G01X17617952Y3005001D01*
G01X17617952Y2982141D01*
G01X17612110Y2953439D01*
G01X17600680Y2930579D01*
G01X17589250Y2913561D01*
G01X17577820Y2902131D01*
G01X18907655Y3062151D02*
G01X18907655Y2942009D01*
G01X18867523Y3062151D02*
G01X18947533Y3062151D01*
G01X19023987Y3022019D02*
G01X19012557Y3016431D01*
G01X19001127Y3005001D01*
G01X18995285Y2987729D01*
G01X18995285Y2976299D01*
G01X19001127Y2959281D01*
G01X19012557Y2947851D01*
G01X19023987Y2942009D01*
G01X19041005Y2942009D01*
G01X19052435Y2947851D01*
G01X19063865Y2959281D01*
G01X19069707Y2976299D01*
G01X19069707Y2987729D01*
G01X19063865Y3005001D01*
G01X19052435Y3016431D01*
G01X19041005Y3022019D01*
G01X19023987Y3022019D01*
G01X19117459Y3022019D02*
G01X19117459Y2902131D01*
G01X19117459Y3005001D02*
G01X19128889Y3016431D01*
G01X19140319Y3022019D01*
G01X19157591Y3022019D01*
G01X19169021Y3016431D01*
G01X19180451Y3005001D01*
G01X19186039Y2987729D01*
G01X19186039Y2976299D01*
G01X19180451Y2959281D01*
G01X19169021Y2947851D01*
G01X19157591Y2942009D01*
G01X19140319Y2942009D01*
G01X19128889Y2947851D01*
G01X19117459Y2959281D01*
G01X19361807Y3062151D02*
G01X19361807Y2942009D01*
G01X19361807Y2942009D02*
G01X19430387Y2942009D01*
G01X19546719Y3022019D02*
G01X19546719Y2942009D01*
G01X19546719Y3005001D02*
G01X19535289Y3016431D01*
G01X19523859Y3022019D01*
G01X19506841Y3022019D01*
G01X19495411Y3016431D01*
G01X19483981Y3005001D01*
G01X19478139Y2987729D01*
G01X19478139Y2976299D01*
G01X19483981Y2959281D01*
G01X19495411Y2947851D01*
G01X19506841Y2942009D01*
G01X19523859Y2942009D01*
G01X19535289Y2947851D01*
G01X19546719Y2959281D01*
G01X19600313Y3022019D02*
G01X19634603Y2942009D01*
G01X19668893Y3022019D02*
G01X19634603Y2942009D01*
G01X19623173Y2919149D01*
G01X19611743Y2907719D01*
G01X19600313Y2902131D01*
G01X19594471Y2902131D01*
G01X19716645Y2987729D02*
G01X19785225Y2987729D01*
G01X19785225Y2999159D01*
G01X19779637Y3010589D01*
G01X19773795Y3016431D01*
G01X19762365Y3022019D01*
G01X19745347Y3022019D01*
G01X19733917Y3016431D01*
G01X19722487Y3005001D01*
G01X19716645Y2987729D01*
G01X19716645Y2976299D01*
G01X19722487Y2959281D01*
G01X19733917Y2947851D01*
G01X19745347Y2942009D01*
G01X19762365Y2942009D01*
G01X19773795Y2947851D01*
G01X19785225Y2959281D01*
G01X19832977Y3022019D02*
G01X19832977Y2942009D01*
G01X19832977Y2987729D02*
G01X19838819Y3005001D01*
G01X19850249Y3016431D01*
G01X19861679Y3022019D01*
G01X19878697Y3022019D01*
G01X19926449Y2993571D02*
G01X20029319Y2993571D01*
G01X20077071Y3062151D02*
G01X20077071Y2942009D01*
G01X20077071Y3062151D02*
G01X20128633Y3062151D01*
G01X20145651Y3056309D01*
G01X20151493Y3050721D01*
G01X20157081Y3039291D01*
G01X20157081Y3027861D01*
G01X20151493Y3016431D01*
G01X20145651Y3010589D01*
G01X20128633Y3005001D01*
G01X20077071Y3005001D02*
G01X20128633Y3005001D01*
G01X20145651Y2999159D01*
G01X20151493Y2993571D01*
G01X20157081Y2982141D01*
G01X20157081Y2964869D01*
G01X20151493Y2953439D01*
G01X20145651Y2947851D01*
G01X20128633Y2942009D01*
G01X20077071Y2942009D01*
G01X20233535Y3022019D02*
G01X20222105Y3016431D01*
G01X20210675Y3005001D01*
G01X20204833Y2987729D01*
G01X20204833Y2976299D01*
G01X20210675Y2959281D01*
G01X20222105Y2947851D01*
G01X20233535Y2942009D01*
G01X20250553Y2942009D01*
G01X20261983Y2947851D01*
G01X20273413Y2959281D01*
G01X20279255Y2976299D01*
G01X20279255Y2987729D01*
G01X20273413Y3005001D01*
G01X20261983Y3016431D01*
G01X20250553Y3022019D01*
G01X20233535Y3022019D01*
G01X20344279Y3062151D02*
G01X20344279Y2964869D01*
G01X20349867Y2947851D01*
G01X20361297Y2942009D01*
G01X20372727Y2942009D01*
G01X20327007Y3022019D02*
G01X20367139Y3022019D01*
G01X20437751Y3062151D02*
G01X20437751Y2964869D01*
G01X20443339Y2947851D01*
G01X20454769Y2942009D01*
G01X20466199Y2942009D01*
G01X20420479Y3022019D02*
G01X20460611Y3022019D01*
G01X20542653Y3022019D02*
G01X20531223Y3016431D01*
G01X20519793Y3005001D01*
G01X20513951Y2987729D01*
G01X20513951Y2976299D01*
G01X20519793Y2959281D01*
G01X20531223Y2947851D01*
G01X20542653Y2942009D01*
G01X20559671Y2942009D01*
G01X20571101Y2947851D01*
G01X20582531Y2959281D01*
G01X20588373Y2976299D01*
G01X20588373Y2987729D01*
G01X20582531Y3005001D01*
G01X20571101Y3016431D01*
G01X20559671Y3022019D01*
G01X20542653Y3022019D01*
G01X20636125Y3022019D02*
G01X20636125Y2942009D01*
G01X20636125Y2999159D02*
G01X20653397Y3016431D01*
G01X20664827Y3022019D01*
G01X20681845Y3022019D01*
G01X20693275Y3016431D01*
G01X20699117Y2999159D01*
G01X20699117Y2942009D01*
G01X20699117Y2999159D02*
G01X20716135Y3016431D01*
G01X20727565Y3022019D01*
G01X20744837Y3022019D01*
G01X20756267Y3016431D01*
G01X20761855Y2999159D01*
G01X20761855Y2942009D01*
G01X20937623Y3062151D02*
G01X20937623Y2942009D01*
G01X20937623Y2942009D02*
G01X21006203Y2942009D01*
G01X21122535Y3022019D02*
G01X21122535Y2942009D01*
G01X21122535Y3005001D02*
G01X21111105Y3016431D01*
G01X21099675Y3022019D01*
G01X21082657Y3022019D01*
G01X21071227Y3016431D01*
G01X21059797Y3005001D01*
G01X21053955Y2987729D01*
G01X21053955Y2976299D01*
G01X21059797Y2959281D01*
G01X21071227Y2947851D01*
G01X21082657Y2942009D01*
G01X21099675Y2942009D01*
G01X21111105Y2947851D01*
G01X21122535Y2959281D01*
G01X21176129Y3022019D02*
G01X21210419Y2942009D01*
G01X21244709Y3022019D02*
G01X21210419Y2942009D01*
G01X21198989Y2919149D01*
G01X21187559Y2907719D01*
G01X21176129Y2902131D01*
G01X21170287Y2902131D01*
G01X21292461Y2987729D02*
G01X21361041Y2987729D01*
G01X21361041Y2999159D01*
G01X21355453Y3010589D01*
G01X21349611Y3016431D01*
G01X21338181Y3022019D01*
G01X21321163Y3022019D01*
G01X21309733Y3016431D01*
G01X21298303Y3005001D01*
G01X21292461Y2987729D01*
G01X21292461Y2976299D01*
G01X21298303Y2959281D01*
G01X21309733Y2947851D01*
G01X21321163Y2942009D01*
G01X21338181Y2942009D01*
G01X21349611Y2947851D01*
G01X21361041Y2959281D01*
G01X21408793Y3022019D02*
G01X21408793Y2942009D01*
G01X21408793Y2987729D02*
G01X21414635Y3005001D01*
G01X21426065Y3016431D01*
G01X21437495Y3022019D01*
G01X21454513Y3022019D01*
G01X7180874Y2458720D02*
G01X7192304Y2464308D01*
G01X7209576Y2481580D01*
G01X7209576Y2361438D01*
G01X7286030Y2481580D02*
G01X7268758Y2475738D01*
G01X7263170Y2464308D01*
G01X7263170Y2452878D01*
G01X7268758Y2441448D01*
G01X7280188Y2435860D01*
G01X7303048Y2430018D01*
G01X7320320Y2424430D01*
G01X7331750Y2413000D01*
G01X7337338Y2401570D01*
G01X7337338Y2384298D01*
G01X7331750Y2372868D01*
G01X7325908Y2367280D01*
G01X7308890Y2361438D01*
G01X7286030Y2361438D01*
G01X7268758Y2367280D01*
G01X7263170Y2372868D01*
G01X7257328Y2384298D01*
G01X7257328Y2401570D01*
G01X7263170Y2413000D01*
G01X7274600Y2424430D01*
G01X7291618Y2430018D01*
G01X7314478Y2435860D01*
G01X7325908Y2441448D01*
G01X7331750Y2452878D01*
G01X7331750Y2464308D01*
G01X7325908Y2475738D01*
G01X7308890Y2481580D01*
G01X7286030Y2481580D01*
G01X8652187Y2481580D02*
G01X8595037Y2401570D01*
G01X8680889Y2401570D01*
G01X8652187Y2481580D02*
G01X8652187Y2361438D01*
G01X8740071Y2481580D02*
G01X8803063Y2481580D01*
G01X8768773Y2435860D01*
G01X8785791Y2435860D01*
G01X8797221Y2430018D01*
G01X8803063Y2424430D01*
G01X8808651Y2407158D01*
G01X8808651Y2395728D01*
G01X8803063Y2378710D01*
G01X8791633Y2367280D01*
G01X8774361Y2361438D01*
G01X8757343Y2361438D01*
G01X8740071Y2367280D01*
G01X8734483Y2372868D01*
G01X8728641Y2384298D01*
G01X8862245Y2390140D02*
G01X8856403Y2384298D01*
G01X8862245Y2378710D01*
G01X8867833Y2384298D01*
G01X8862245Y2390140D01*
G01X8927015Y2481580D02*
G01X8990007Y2481580D01*
G01X8955717Y2435860D01*
G01X8972735Y2435860D01*
G01X8984165Y2430018D01*
G01X8990007Y2424430D01*
G01X8995595Y2407158D01*
G01X8995595Y2395728D01*
G01X8990007Y2378710D01*
G01X8978577Y2367280D01*
G01X8961305Y2361438D01*
G01X8944287Y2361438D01*
G01X8927015Y2367280D01*
G01X8921427Y2372868D01*
G01X8915585Y2384298D01*
G01X9043347Y2441448D02*
G01X9106339Y2361438D01*
G01X9106339Y2441448D02*
G01X9043347Y2361438D01*
G01X9211241Y2481580D02*
G01X9154091Y2401570D01*
G01X9239943Y2401570D01*
G01X9211241Y2481580D02*
G01X9211241Y2361438D01*
G01X9299125Y2481580D02*
G01X9362117Y2481580D01*
G01X9327827Y2435860D01*
G01X9344845Y2435860D01*
G01X9356275Y2430018D01*
G01X9362117Y2424430D01*
G01X9367705Y2407158D01*
G01X9367705Y2395728D01*
G01X9362117Y2378710D01*
G01X9350687Y2367280D01*
G01X9333415Y2361438D01*
G01X9316397Y2361438D01*
G01X9299125Y2367280D01*
G01X9293537Y2372868D01*
G01X9287695Y2384298D01*
G01X9421299Y2390140D02*
G01X9415457Y2384298D01*
G01X9421299Y2378710D01*
G01X9426887Y2384298D01*
G01X9421299Y2390140D01*
G01X9486069Y2481580D02*
G01X9549061Y2481580D01*
G01X9514771Y2435860D01*
G01X9531789Y2435860D01*
G01X9543219Y2430018D01*
G01X9549061Y2424430D01*
G01X9554649Y2407158D01*
G01X9554649Y2395728D01*
G01X9549061Y2378710D01*
G01X9537631Y2367280D01*
G01X9520359Y2361438D01*
G01X9503341Y2361438D01*
G01X9486069Y2367280D01*
G01X9480481Y2372868D01*
G01X9474639Y2384298D01*
G01X9602401Y2441448D02*
G01X9602401Y2361438D01*
G01X9602401Y2418588D02*
G01X9619673Y2435860D01*
G01X9631103Y2441448D01*
G01X9648121Y2441448D01*
G01X9659551Y2435860D01*
G01X9665393Y2418588D01*
G01X9665393Y2361438D01*
G01X9665393Y2418588D02*
G01X9682411Y2435860D01*
G01X9693841Y2441448D01*
G01X9711113Y2441448D01*
G01X9722543Y2435860D01*
G01X9728131Y2418588D01*
G01X9728131Y2361438D01*
G01X9775883Y2481580D02*
G01X9781725Y2475738D01*
G01X9787313Y2481580D01*
G01X9781725Y2487168D01*
G01X9775883Y2481580D01*
G01X9781725Y2441448D02*
G01X9781725Y2361438D01*
G01X9835065Y2481580D02*
G01X9835065Y2361438D01*
G01X9922949Y2504440D02*
G01X9911519Y2493010D01*
G01X9900089Y2475738D01*
G01X9888659Y2452878D01*
G01X9882817Y2424430D01*
G01X9882817Y2401570D01*
G01X9888659Y2372868D01*
G01X9900089Y2350008D01*
G01X9911519Y2332990D01*
G01X9922949Y2321560D01*
G01X9970701Y2458720D02*
G01X9982131Y2464308D01*
G01X9999403Y2481580D01*
G01X9999403Y2361438D01*
G01X10052997Y2390140D02*
G01X10047155Y2384298D01*
G01X10052997Y2378710D01*
G01X10058585Y2384298D01*
G01X10052997Y2390140D01*
G01X10106337Y2458720D02*
G01X10117767Y2464308D01*
G01X10135039Y2481580D01*
G01X10135039Y2361438D01*
G01X10217081Y2481580D02*
G01X10200063Y2475738D01*
G01X10188633Y2458720D01*
G01X10182791Y2430018D01*
G01X10182791Y2413000D01*
G01X10188633Y2384298D01*
G01X10200063Y2367280D01*
G01X10217081Y2361438D01*
G01X10228511Y2361438D01*
G01X10245783Y2367280D01*
G01X10257213Y2384298D01*
G01X10262801Y2413000D01*
G01X10262801Y2430018D01*
G01X10257213Y2458720D01*
G01X10245783Y2475738D01*
G01X10228511Y2481580D01*
G01X10217081Y2481580D01*
G01X10344843Y2481580D02*
G01X10327825Y2475738D01*
G01X10316395Y2458720D01*
G01X10310553Y2430018D01*
G01X10310553Y2413000D01*
G01X10316395Y2384298D01*
G01X10327825Y2367280D01*
G01X10344843Y2361438D01*
G01X10356273Y2361438D01*
G01X10373545Y2367280D01*
G01X10384975Y2384298D01*
G01X10390563Y2413000D01*
G01X10390563Y2430018D01*
G01X10384975Y2458720D01*
G01X10373545Y2475738D01*
G01X10356273Y2481580D01*
G01X10344843Y2481580D01*
G01X10438315Y2441448D02*
G01X10501307Y2361438D01*
G01X10501307Y2441448D02*
G01X10438315Y2361438D01*
G01X10549059Y2458720D02*
G01X10560489Y2464308D01*
G01X10577761Y2481580D01*
G01X10577761Y2361438D01*
G01X10631355Y2390140D02*
G01X10625513Y2384298D01*
G01X10631355Y2378710D01*
G01X10636943Y2384298D01*
G01X10631355Y2390140D01*
G01X10684695Y2458720D02*
G01X10696125Y2464308D01*
G01X10713397Y2481580D01*
G01X10713397Y2361438D01*
G01X10795439Y2481580D02*
G01X10778421Y2475738D01*
G01X10766991Y2458720D01*
G01X10761149Y2430018D01*
G01X10761149Y2413000D01*
G01X10766991Y2384298D01*
G01X10778421Y2367280D01*
G01X10795439Y2361438D01*
G01X10806869Y2361438D01*
G01X10824141Y2367280D01*
G01X10835571Y2384298D01*
G01X10841159Y2413000D01*
G01X10841159Y2430018D01*
G01X10835571Y2458720D01*
G01X10824141Y2475738D01*
G01X10806869Y2481580D01*
G01X10795439Y2481580D01*
G01X10923201Y2481580D02*
G01X10906183Y2475738D01*
G01X10894753Y2458720D01*
G01X10888911Y2430018D01*
G01X10888911Y2413000D01*
G01X10894753Y2384298D01*
G01X10906183Y2367280D01*
G01X10923201Y2361438D01*
G01X10934631Y2361438D01*
G01X10951903Y2367280D01*
G01X10963333Y2384298D01*
G01X10968921Y2413000D01*
G01X10968921Y2430018D01*
G01X10963333Y2458720D01*
G01X10951903Y2475738D01*
G01X10934631Y2481580D01*
G01X10923201Y2481580D01*
G01X11016673Y2441448D02*
G01X11016673Y2361438D01*
G01X11016673Y2418588D02*
G01X11033945Y2435860D01*
G01X11045375Y2441448D01*
G01X11062393Y2441448D01*
G01X11073823Y2435860D01*
G01X11079665Y2418588D01*
G01X11079665Y2361438D01*
G01X11079665Y2418588D02*
G01X11096683Y2435860D01*
G01X11108113Y2441448D01*
G01X11125385Y2441448D01*
G01X11136815Y2435860D01*
G01X11142403Y2418588D01*
G01X11142403Y2361438D01*
G01X11190155Y2441448D02*
G01X11190155Y2361438D01*
G01X11190155Y2418588D02*
G01X11207427Y2435860D01*
G01X11218857Y2441448D01*
G01X11235875Y2441448D01*
G01X11247305Y2435860D01*
G01X11253147Y2418588D01*
G01X11253147Y2361438D01*
G01X11253147Y2418588D02*
G01X11270165Y2435860D01*
G01X11281595Y2441448D01*
G01X11298867Y2441448D01*
G01X11310297Y2435860D01*
G01X11315885Y2418588D01*
G01X11315885Y2361438D01*
G01X11363637Y2504440D02*
G01X11375067Y2493010D01*
G01X11386497Y2475738D01*
G01X11397927Y2452878D01*
G01X11403769Y2424430D01*
G01X11403769Y2401570D01*
G01X11397927Y2372868D01*
G01X11386497Y2350008D01*
G01X11375067Y2332990D01*
G01X11363637Y2321560D01*
G01X12386387Y2481580D02*
G01X12386387Y2361438D01*
G01X12386387Y2481580D02*
G01X12437949Y2481580D01*
G01X12454967Y2475738D01*
G01X12460809Y2470150D01*
G01X12466397Y2458720D01*
G01X12466397Y2441448D01*
G01X12460809Y2430018D01*
G01X12454967Y2424430D01*
G01X12437949Y2418588D01*
G01X12386387Y2418588D01*
G01X12554281Y2481580D02*
G01X12554281Y2361438D01*
G01X12514149Y2481580D02*
G01X12594159Y2481580D01*
G01X12641911Y2481580D02*
G01X12641911Y2361438D01*
G01X12721921Y2481580D02*
G01X12721921Y2361438D01*
G01X12641911Y2424430D02*
G01X12721921Y2424430D01*
G01X13847794Y2481580D02*
G01X13847794Y2361438D01*
G01X13847794Y2481580D02*
G01X13899356Y2481580D01*
G01X13916374Y2475738D01*
G01X13922216Y2470150D01*
G01X13927804Y2458720D01*
G01X13927804Y2447290D01*
G01X13922216Y2435860D01*
G01X13916374Y2430018D01*
G01X13899356Y2424430D01*
G01X13847794Y2424430D01*
G01X13887926Y2424430D02*
G01X13927804Y2361438D01*
G01X14004258Y2441448D02*
G01X13992828Y2435860D01*
G01X13981398Y2424430D01*
G01X13975556Y2407158D01*
G01X13975556Y2395728D01*
G01X13981398Y2378710D01*
G01X13992828Y2367280D01*
G01X14004258Y2361438D01*
G01X14021276Y2361438D01*
G01X14032706Y2367280D01*
G01X14044136Y2378710D01*
G01X14049978Y2395728D01*
G01X14049978Y2407158D01*
G01X14044136Y2424430D01*
G01X14032706Y2435860D01*
G01X14021276Y2441448D01*
G01X14004258Y2441448D01*
G01X14097730Y2441448D02*
G01X14097730Y2384298D01*
G01X14103572Y2367280D01*
G01X14115002Y2361438D01*
G01X14132020Y2361438D01*
G01X14143450Y2367280D01*
G01X14160722Y2384298D01*
G01X14160722Y2441448D02*
G01X14160722Y2361438D01*
G01X14208474Y2441448D02*
G01X14208474Y2361438D01*
G01X14208474Y2418588D02*
G01X14225746Y2435860D01*
G01X14237176Y2441448D01*
G01X14254194Y2441448D01*
G01X14265624Y2435860D01*
G01X14271466Y2418588D01*
G01X14271466Y2361438D01*
G01X14387798Y2481580D02*
G01X14387798Y2361438D01*
G01X14387798Y2424430D02*
G01X14376368Y2435860D01*
G01X14364938Y2441448D01*
G01X14347920Y2441448D01*
G01X14336490Y2435860D01*
G01X14325060Y2424430D01*
G01X14319218Y2407158D01*
G01X14319218Y2395728D01*
G01X14325060Y2378710D01*
G01X14336490Y2367280D01*
G01X14347920Y2361438D01*
G01X14364938Y2361438D01*
G01X14376368Y2367280D01*
G01X14387798Y2378710D01*
G01X15278975Y2481580D02*
G01X15278975Y2361438D01*
G01X15278975Y2481580D02*
G01X15330537Y2481580D01*
G01X15347555Y2475738D01*
G01X15353397Y2470150D01*
G01X15358985Y2458720D01*
G01X15358985Y2441448D01*
G01X15353397Y2430018D01*
G01X15347555Y2424430D01*
G01X15330537Y2418588D01*
G01X15278975Y2418588D01*
G01X15475317Y2441448D02*
G01X15475317Y2361438D01*
G01X15475317Y2424430D02*
G01X15463887Y2435860D01*
G01X15452457Y2441448D01*
G01X15435439Y2441448D01*
G01X15424009Y2435860D01*
G01X15412579Y2424430D01*
G01X15406737Y2407158D01*
G01X15406737Y2395728D01*
G01X15412579Y2378710D01*
G01X15424009Y2367280D01*
G01X15435439Y2361438D01*
G01X15452457Y2361438D01*
G01X15463887Y2367280D01*
G01X15475317Y2378710D01*
G01X15591649Y2481580D02*
G01X15591649Y2361438D01*
G01X15591649Y2424430D02*
G01X15580219Y2435860D01*
G01X15568789Y2441448D01*
G01X15551771Y2441448D01*
G01X15540341Y2435860D01*
G01X15528911Y2424430D01*
G01X15523069Y2407158D01*
G01X15523069Y2395728D01*
G01X15528911Y2378710D01*
G01X15540341Y2367280D01*
G01X15551771Y2361438D01*
G01X15568789Y2361438D01*
G01X15580219Y2367280D01*
G01X15591649Y2378710D01*
G01X16988286Y2504440D02*
G01X16976856Y2493010D01*
G01X16965426Y2475738D01*
G01X16953996Y2452878D01*
G01X16948154Y2424430D01*
G01X16948154Y2401570D01*
G01X16953996Y2372868D01*
G01X16965426Y2350008D01*
G01X16976856Y2332990D01*
G01X16988286Y2321560D01*
G01X17036038Y2481580D02*
G01X17036038Y2361438D01*
G01X17036038Y2481580D02*
G01X17081758Y2361438D01*
G01X17127478Y2481580D02*
G01X17081758Y2361438D01*
G01X17127478Y2481580D02*
G01X17127478Y2361438D01*
G01X17175230Y2481580D02*
G01X17181072Y2475738D01*
G01X17186660Y2481580D01*
G01X17181072Y2487168D01*
G01X17175230Y2481580D01*
G01X17181072Y2441448D02*
G01X17181072Y2361438D01*
G01X17234412Y2441448D02*
G01X17297404Y2361438D01*
G01X17297404Y2441448D02*
G01X17234412Y2361438D01*
G01X17345156Y2407158D02*
G01X17413736Y2407158D01*
G01X17413736Y2418588D01*
G01X17408148Y2430018D01*
G01X17402306Y2435860D01*
G01X17390876Y2441448D01*
G01X17373858Y2441448D01*
G01X17362428Y2435860D01*
G01X17350998Y2424430D01*
G01X17345156Y2407158D01*
G01X17345156Y2395728D01*
G01X17350998Y2378710D01*
G01X17362428Y2367280D01*
G01X17373858Y2361438D01*
G01X17390876Y2361438D01*
G01X17402306Y2367280D01*
G01X17413736Y2378710D01*
G01X17530068Y2481580D02*
G01X17530068Y2361438D01*
G01X17530068Y2424430D02*
G01X17518638Y2435860D01*
G01X17507208Y2441448D01*
G01X17490190Y2441448D01*
G01X17478760Y2435860D01*
G01X17467330Y2424430D01*
G01X17461488Y2407158D01*
G01X17461488Y2395728D01*
G01X17467330Y2378710D01*
G01X17478760Y2367280D01*
G01X17490190Y2361438D01*
G01X17507208Y2361438D01*
G01X17518638Y2367280D01*
G01X17530068Y2378710D01*
G01X17577820Y2504440D02*
G01X17589250Y2493010D01*
G01X17600680Y2475738D01*
G01X17612110Y2452878D01*
G01X17617952Y2424430D01*
G01X17617952Y2401570D01*
G01X17612110Y2372868D01*
G01X17600680Y2350008D01*
G01X17589250Y2332990D01*
G01X17577820Y2321560D01*
G01X18907655Y2481580D02*
G01X18907655Y2361438D01*
G01X18867523Y2481580D02*
G01X18947533Y2481580D01*
G01X19023987Y2441448D02*
G01X19012557Y2435860D01*
G01X19001127Y2424430D01*
G01X18995285Y2407158D01*
G01X18995285Y2395728D01*
G01X19001127Y2378710D01*
G01X19012557Y2367280D01*
G01X19023987Y2361438D01*
G01X19041005Y2361438D01*
G01X19052435Y2367280D01*
G01X19063865Y2378710D01*
G01X19069707Y2395728D01*
G01X19069707Y2407158D01*
G01X19063865Y2424430D01*
G01X19052435Y2435860D01*
G01X19041005Y2441448D01*
G01X19023987Y2441448D01*
G01X19117459Y2441448D02*
G01X19117459Y2321560D01*
G01X19117459Y2424430D02*
G01X19128889Y2435860D01*
G01X19140319Y2441448D01*
G01X19157591Y2441448D01*
G01X19169021Y2435860D01*
G01X19180451Y2424430D01*
G01X19186039Y2407158D01*
G01X19186039Y2395728D01*
G01X19180451Y2378710D01*
G01X19169021Y2367280D01*
G01X19157591Y2361438D01*
G01X19140319Y2361438D01*
G01X19128889Y2367280D01*
G01X19117459Y2378710D01*
G01X19361807Y2481580D02*
G01X19361807Y2361438D01*
G01X19361807Y2361438D02*
G01X19430387Y2361438D01*
G01X19546719Y2441448D02*
G01X19546719Y2361438D01*
G01X19546719Y2424430D02*
G01X19535289Y2435860D01*
G01X19523859Y2441448D01*
G01X19506841Y2441448D01*
G01X19495411Y2435860D01*
G01X19483981Y2424430D01*
G01X19478139Y2407158D01*
G01X19478139Y2395728D01*
G01X19483981Y2378710D01*
G01X19495411Y2367280D01*
G01X19506841Y2361438D01*
G01X19523859Y2361438D01*
G01X19535289Y2367280D01*
G01X19546719Y2378710D01*
G01X19600313Y2441448D02*
G01X19634603Y2361438D01*
G01X19668893Y2441448D02*
G01X19634603Y2361438D01*
G01X19623173Y2338578D01*
G01X19611743Y2327148D01*
G01X19600313Y2321560D01*
G01X19594471Y2321560D01*
G01X19716645Y2407158D02*
G01X19785225Y2407158D01*
G01X19785225Y2418588D01*
G01X19779637Y2430018D01*
G01X19773795Y2435860D01*
G01X19762365Y2441448D01*
G01X19745347Y2441448D01*
G01X19733917Y2435860D01*
G01X19722487Y2424430D01*
G01X19716645Y2407158D01*
G01X19716645Y2395728D01*
G01X19722487Y2378710D01*
G01X19733917Y2367280D01*
G01X19745347Y2361438D01*
G01X19762365Y2361438D01*
G01X19773795Y2367280D01*
G01X19785225Y2378710D01*
G01X19832977Y2441448D02*
G01X19832977Y2361438D01*
G01X19832977Y2407158D02*
G01X19838819Y2424430D01*
G01X19850249Y2435860D01*
G01X19861679Y2441448D01*
G01X19878697Y2441448D01*
G01X19926449Y2413000D02*
G01X20029319Y2413000D01*
G01X20077071Y2481580D02*
G01X20077071Y2361438D01*
G01X20077071Y2481580D02*
G01X20128633Y2481580D01*
G01X20145651Y2475738D01*
G01X20151493Y2470150D01*
G01X20157081Y2458720D01*
G01X20157081Y2447290D01*
G01X20151493Y2435860D01*
G01X20145651Y2430018D01*
G01X20128633Y2424430D01*
G01X20077071Y2424430D02*
G01X20128633Y2424430D01*
G01X20145651Y2418588D01*
G01X20151493Y2413000D01*
G01X20157081Y2401570D01*
G01X20157081Y2384298D01*
G01X20151493Y2372868D01*
G01X20145651Y2367280D01*
G01X20128633Y2361438D01*
G01X20077071Y2361438D01*
G01X20233535Y2441448D02*
G01X20222105Y2435860D01*
G01X20210675Y2424430D01*
G01X20204833Y2407158D01*
G01X20204833Y2395728D01*
G01X20210675Y2378710D01*
G01X20222105Y2367280D01*
G01X20233535Y2361438D01*
G01X20250553Y2361438D01*
G01X20261983Y2367280D01*
G01X20273413Y2378710D01*
G01X20279255Y2395728D01*
G01X20279255Y2407158D01*
G01X20273413Y2424430D01*
G01X20261983Y2435860D01*
G01X20250553Y2441448D01*
G01X20233535Y2441448D01*
G01X20344279Y2481580D02*
G01X20344279Y2384298D01*
G01X20349867Y2367280D01*
G01X20361297Y2361438D01*
G01X20372727Y2361438D01*
G01X20327007Y2441448D02*
G01X20367139Y2441448D01*
G01X20437751Y2481580D02*
G01X20437751Y2384298D01*
G01X20443339Y2367280D01*
G01X20454769Y2361438D01*
G01X20466199Y2361438D01*
G01X20420479Y2441448D02*
G01X20460611Y2441448D01*
G01X20542653Y2441448D02*
G01X20531223Y2435860D01*
G01X20519793Y2424430D01*
G01X20513951Y2407158D01*
G01X20513951Y2395728D01*
G01X20519793Y2378710D01*
G01X20531223Y2367280D01*
G01X20542653Y2361438D01*
G01X20559671Y2361438D01*
G01X20571101Y2367280D01*
G01X20582531Y2378710D01*
G01X20588373Y2395728D01*
G01X20588373Y2407158D01*
G01X20582531Y2424430D01*
G01X20571101Y2435860D01*
G01X20559671Y2441448D01*
G01X20542653Y2441448D01*
G01X20636125Y2441448D02*
G01X20636125Y2361438D01*
G01X20636125Y2418588D02*
G01X20653397Y2435860D01*
G01X20664827Y2441448D01*
G01X20681845Y2441448D01*
G01X20693275Y2435860D01*
G01X20699117Y2418588D01*
G01X20699117Y2361438D01*
G01X20699117Y2418588D02*
G01X20716135Y2435860D01*
G01X20727565Y2441448D01*
G01X20744837Y2441448D01*
G01X20756267Y2435860D01*
G01X20761855Y2418588D01*
G01X20761855Y2361438D01*
G01X20937623Y2481580D02*
G01X20937623Y2361438D01*
G01X20937623Y2361438D02*
G01X21006203Y2361438D01*
G01X21122535Y2441448D02*
G01X21122535Y2361438D01*
G01X21122535Y2424430D02*
G01X21111105Y2435860D01*
G01X21099675Y2441448D01*
G01X21082657Y2441448D01*
G01X21071227Y2435860D01*
G01X21059797Y2424430D01*
G01X21053955Y2407158D01*
G01X21053955Y2395728D01*
G01X21059797Y2378710D01*
G01X21071227Y2367280D01*
G01X21082657Y2361438D01*
G01X21099675Y2361438D01*
G01X21111105Y2367280D01*
G01X21122535Y2378710D01*
G01X21176129Y2441448D02*
G01X21210419Y2361438D01*
G01X21244709Y2441448D02*
G01X21210419Y2361438D01*
G01X21198989Y2338578D01*
G01X21187559Y2327148D01*
G01X21176129Y2321560D01*
G01X21170287Y2321560D01*
G01X21292461Y2407158D02*
G01X21361041Y2407158D01*
G01X21361041Y2418588D01*
G01X21355453Y2430018D01*
G01X21349611Y2435860D01*
G01X21338181Y2441448D01*
G01X21321163Y2441448D01*
G01X21309733Y2435860D01*
G01X21298303Y2424430D01*
G01X21292461Y2407158D01*
G01X21292461Y2395728D01*
G01X21298303Y2378710D01*
G01X21309733Y2367280D01*
G01X21321163Y2361438D01*
G01X21338181Y2361438D01*
G01X21349611Y2367280D01*
G01X21361041Y2378710D01*
G01X21408793Y2441448D02*
G01X21408793Y2361438D01*
G01X21408793Y2407158D02*
G01X21414635Y2424430D01*
G01X21426065Y2435860D01*
G01X21437495Y2441448D01*
G01X21454513Y2441448D01*
G01X7238024Y1901009D02*
G01X7180874Y1820999D01*
G01X7266726Y1820999D01*
G01X7238024Y1901009D02*
G01X7238024Y1780867D01*
G01X7325908Y1901009D02*
G01X7388900Y1901009D01*
G01X7354610Y1855289D01*
G01X7371628Y1855289D01*
G01X7383058Y1849447D01*
G01X7388900Y1843859D01*
G01X7394488Y1826587D01*
G01X7394488Y1815157D01*
G01X7388900Y1798139D01*
G01X7377470Y1786709D01*
G01X7360198Y1780867D01*
G01X7343180Y1780867D01*
G01X7325908Y1786709D01*
G01X7320320Y1792297D01*
G01X7314478Y1803727D01*
G01X8595037Y1878149D02*
G01X8606467Y1883737D01*
G01X8623739Y1901009D01*
G01X8623739Y1780867D01*
G01X8677333Y1872307D02*
G01X8677333Y1878149D01*
G01X8682921Y1889579D01*
G01X8688763Y1895167D01*
G01X8700193Y1901009D01*
G01X8723053Y1901009D01*
G01X8734483Y1895167D01*
G01X8740071Y1889579D01*
G01X8745913Y1878149D01*
G01X8745913Y1866719D01*
G01X8740071Y1855289D01*
G01X8728641Y1838017D01*
G01X8671491Y1780867D01*
G01X8751501Y1780867D01*
G01X8805095Y1809569D02*
G01X8799253Y1803727D01*
G01X8805095Y1798139D01*
G01X8810683Y1803727D01*
G01X8805095Y1809569D01*
G01X8892725Y1901009D02*
G01X8875707Y1895167D01*
G01X8864277Y1878149D01*
G01X8858435Y1849447D01*
G01X8858435Y1832429D01*
G01X8864277Y1803727D01*
G01X8875707Y1786709D01*
G01X8892725Y1780867D01*
G01X8904155Y1780867D01*
G01X8921427Y1786709D01*
G01X8932857Y1803727D01*
G01X8938445Y1832429D01*
G01X8938445Y1849447D01*
G01X8932857Y1878149D01*
G01X8921427Y1895167D01*
G01X8904155Y1901009D01*
G01X8892725Y1901009D01*
G01X8986197Y1860877D02*
G01X8986197Y1780867D01*
G01X8986197Y1838017D02*
G01X9003469Y1855289D01*
G01X9014899Y1860877D01*
G01X9031917Y1860877D01*
G01X9043347Y1855289D01*
G01X9049189Y1838017D01*
G01X9049189Y1780867D01*
G01X9049189Y1838017D02*
G01X9066207Y1855289D01*
G01X9077637Y1860877D01*
G01X9094909Y1860877D01*
G01X9106339Y1855289D01*
G01X9111927Y1838017D01*
G01X9111927Y1780867D01*
G01X9159679Y1901009D02*
G01X9165521Y1895167D01*
G01X9171109Y1901009D01*
G01X9165521Y1906597D01*
G01X9159679Y1901009D01*
G01X9165521Y1860877D02*
G01X9165521Y1780867D01*
G01X9218861Y1901009D02*
G01X9218861Y1780867D01*
G01X9306745Y1923869D02*
G01X9295315Y1912439D01*
G01X9283885Y1895167D01*
G01X9272455Y1872307D01*
G01X9266613Y1843859D01*
G01X9266613Y1820999D01*
G01X9272455Y1792297D01*
G01X9283885Y1769437D01*
G01X9295315Y1752419D01*
G01X9306745Y1740989D01*
G01X9388787Y1901009D02*
G01X9371769Y1895167D01*
G01X9360339Y1878149D01*
G01X9354497Y1849447D01*
G01X9354497Y1832429D01*
G01X9360339Y1803727D01*
G01X9371769Y1786709D01*
G01X9388787Y1780867D01*
G01X9400217Y1780867D01*
G01X9417489Y1786709D01*
G01X9428919Y1803727D01*
G01X9434507Y1832429D01*
G01X9434507Y1849447D01*
G01X9428919Y1878149D01*
G01X9417489Y1895167D01*
G01X9400217Y1901009D01*
G01X9388787Y1901009D01*
G01X9488101Y1809569D02*
G01X9482259Y1803727D01*
G01X9488101Y1798139D01*
G01X9493689Y1803727D01*
G01X9488101Y1809569D01*
G01X9552871Y1901009D02*
G01X9615863Y1901009D01*
G01X9581573Y1855289D01*
G01X9598591Y1855289D01*
G01X9610021Y1849447D01*
G01X9615863Y1843859D01*
G01X9621451Y1826587D01*
G01X9621451Y1815157D01*
G01X9615863Y1798139D01*
G01X9604433Y1786709D01*
G01X9587161Y1780867D01*
G01X9570143Y1780867D01*
G01X9552871Y1786709D01*
G01X9547283Y1792297D01*
G01X9541441Y1803727D01*
G01X9703493Y1901009D02*
G01X9686475Y1895167D01*
G01X9675045Y1878149D01*
G01X9669203Y1849447D01*
G01X9669203Y1832429D01*
G01X9675045Y1803727D01*
G01X9686475Y1786709D01*
G01X9703493Y1780867D01*
G01X9714923Y1780867D01*
G01X9732195Y1786709D01*
G01X9743625Y1803727D01*
G01X9749213Y1832429D01*
G01X9749213Y1849447D01*
G01X9743625Y1878149D01*
G01X9732195Y1895167D01*
G01X9714923Y1901009D01*
G01X9703493Y1901009D01*
G01X9865545Y1901009D02*
G01X9808395Y1901009D01*
G01X9802807Y1849447D01*
G01X9808395Y1855289D01*
G01X9825667Y1860877D01*
G01X9842685Y1860877D01*
G01X9859957Y1855289D01*
G01X9871387Y1843859D01*
G01X9876975Y1826587D01*
G01X9876975Y1815157D01*
G01X9871387Y1798139D01*
G01X9859957Y1786709D01*
G01X9842685Y1780867D01*
G01X9825667Y1780867D01*
G01X9808395Y1786709D01*
G01X9802807Y1792297D01*
G01X9796965Y1803727D01*
G01X9924727Y1860877D02*
G01X9924727Y1780867D01*
G01X9924727Y1838017D02*
G01X9941999Y1855289D01*
G01X9953429Y1860877D01*
G01X9970447Y1860877D01*
G01X9981877Y1855289D01*
G01X9987719Y1838017D01*
G01X9987719Y1780867D01*
G01X9987719Y1838017D02*
G01X10004737Y1855289D01*
G01X10016167Y1860877D01*
G01X10033439Y1860877D01*
G01X10044869Y1855289D01*
G01X10050457Y1838017D01*
G01X10050457Y1780867D01*
G01X10098209Y1860877D02*
G01X10098209Y1780867D01*
G01X10098209Y1838017D02*
G01X10115481Y1855289D01*
G01X10126911Y1860877D01*
G01X10143929Y1860877D01*
G01X10155359Y1855289D01*
G01X10161201Y1838017D01*
G01X10161201Y1780867D01*
G01X10161201Y1838017D02*
G01X10178219Y1855289D01*
G01X10189649Y1860877D01*
G01X10206921Y1860877D01*
G01X10218351Y1855289D01*
G01X10223939Y1838017D01*
G01X10223939Y1780867D01*
G01X10271691Y1923869D02*
G01X10283121Y1912439D01*
G01X10294551Y1895167D01*
G01X10305981Y1872307D01*
G01X10311823Y1843859D01*
G01X10311823Y1820999D01*
G01X10305981Y1792297D01*
G01X10294551Y1769437D01*
G01X10283121Y1752419D01*
G01X10271691Y1740989D01*
G01X12386387Y1901009D02*
G01X12386387Y1780867D01*
G01X12386387Y1901009D02*
G01X12437949Y1901009D01*
G01X12454967Y1895167D01*
G01X12460809Y1889579D01*
G01X12466397Y1878149D01*
G01X12466397Y1860877D01*
G01X12460809Y1849447D01*
G01X12454967Y1843859D01*
G01X12437949Y1838017D01*
G01X12386387Y1838017D01*
G01X12554281Y1901009D02*
G01X12554281Y1780867D01*
G01X12514149Y1901009D02*
G01X12594159Y1901009D01*
G01X12641911Y1901009D02*
G01X12641911Y1780867D01*
G01X12721921Y1901009D02*
G01X12721921Y1780867D01*
G01X12641911Y1843859D02*
G01X12721921Y1843859D01*
G01X13847794Y1901009D02*
G01X13847794Y1780867D01*
G01X13847794Y1901009D02*
G01X13899356Y1901009D01*
G01X13916374Y1895167D01*
G01X13922216Y1889579D01*
G01X13927804Y1878149D01*
G01X13927804Y1866719D01*
G01X13922216Y1855289D01*
G01X13916374Y1849447D01*
G01X13899356Y1843859D01*
G01X13847794Y1843859D01*
G01X13887926Y1843859D02*
G01X13927804Y1780867D01*
G01X14004258Y1860877D02*
G01X13992828Y1855289D01*
G01X13981398Y1843859D01*
G01X13975556Y1826587D01*
G01X13975556Y1815157D01*
G01X13981398Y1798139D01*
G01X13992828Y1786709D01*
G01X14004258Y1780867D01*
G01X14021276Y1780867D01*
G01X14032706Y1786709D01*
G01X14044136Y1798139D01*
G01X14049978Y1815157D01*
G01X14049978Y1826587D01*
G01X14044136Y1843859D01*
G01X14032706Y1855289D01*
G01X14021276Y1860877D01*
G01X14004258Y1860877D01*
G01X14097730Y1860877D02*
G01X14097730Y1803727D01*
G01X14103572Y1786709D01*
G01X14115002Y1780867D01*
G01X14132020Y1780867D01*
G01X14143450Y1786709D01*
G01X14160722Y1803727D01*
G01X14160722Y1860877D02*
G01X14160722Y1780867D01*
G01X14208474Y1860877D02*
G01X14208474Y1780867D01*
G01X14208474Y1838017D02*
G01X14225746Y1855289D01*
G01X14237176Y1860877D01*
G01X14254194Y1860877D01*
G01X14265624Y1855289D01*
G01X14271466Y1838017D01*
G01X14271466Y1780867D01*
G01X14387798Y1901009D02*
G01X14387798Y1780867D01*
G01X14387798Y1843859D02*
G01X14376368Y1855289D01*
G01X14364938Y1860877D01*
G01X14347920Y1860877D01*
G01X14336490Y1855289D01*
G01X14325060Y1843859D01*
G01X14319218Y1826587D01*
G01X14319218Y1815157D01*
G01X14325060Y1798139D01*
G01X14336490Y1786709D01*
G01X14347920Y1780867D01*
G01X14364938Y1780867D01*
G01X14376368Y1786709D01*
G01X14387798Y1798139D01*
G01X15278975Y1901009D02*
G01X15324695Y1780867D01*
G01X15370415Y1901009D02*
G01X15324695Y1780867D01*
G01X15418167Y1901009D02*
G01X15424009Y1895167D01*
G01X15429597Y1901009D01*
G01X15424009Y1906597D01*
G01X15418167Y1901009D01*
G01X15424009Y1860877D02*
G01X15424009Y1780867D01*
G01X15545929Y1860877D02*
G01X15545929Y1780867D01*
G01X15545929Y1843859D02*
G01X15534499Y1855289D01*
G01X15523069Y1860877D01*
G01X15506051Y1860877D01*
G01X15494621Y1855289D01*
G01X15483191Y1843859D01*
G01X15477349Y1826587D01*
G01X15477349Y1815157D01*
G01X15483191Y1798139D01*
G01X15494621Y1786709D01*
G01X15506051Y1780867D01*
G01X15523069Y1780867D01*
G01X15534499Y1786709D01*
G01X15545929Y1798139D01*
G01X18907655Y1901009D02*
G01X18907655Y1780867D01*
G01X18867523Y1901009D02*
G01X18947533Y1901009D01*
G01X19023987Y1860877D02*
G01X19012557Y1855289D01*
G01X19001127Y1843859D01*
G01X18995285Y1826587D01*
G01X18995285Y1815157D01*
G01X19001127Y1798139D01*
G01X19012557Y1786709D01*
G01X19023987Y1780867D01*
G01X19041005Y1780867D01*
G01X19052435Y1786709D01*
G01X19063865Y1798139D01*
G01X19069707Y1815157D01*
G01X19069707Y1826587D01*
G01X19063865Y1843859D01*
G01X19052435Y1855289D01*
G01X19041005Y1860877D01*
G01X19023987Y1860877D01*
G01X19117459Y1860877D02*
G01X19117459Y1740989D01*
G01X19117459Y1843859D02*
G01X19128889Y1855289D01*
G01X19140319Y1860877D01*
G01X19157591Y1860877D01*
G01X19169021Y1855289D01*
G01X19180451Y1843859D01*
G01X19186039Y1826587D01*
G01X19186039Y1815157D01*
G01X19180451Y1798139D01*
G01X19169021Y1786709D01*
G01X19157591Y1780867D01*
G01X19140319Y1780867D01*
G01X19128889Y1786709D01*
G01X19117459Y1798139D01*
G01X19361807Y1901009D02*
G01X19361807Y1780867D01*
G01X19361807Y1780867D02*
G01X19430387Y1780867D01*
G01X19546719Y1860877D02*
G01X19546719Y1780867D01*
G01X19546719Y1843859D02*
G01X19535289Y1855289D01*
G01X19523859Y1860877D01*
G01X19506841Y1860877D01*
G01X19495411Y1855289D01*
G01X19483981Y1843859D01*
G01X19478139Y1826587D01*
G01X19478139Y1815157D01*
G01X19483981Y1798139D01*
G01X19495411Y1786709D01*
G01X19506841Y1780867D01*
G01X19523859Y1780867D01*
G01X19535289Y1786709D01*
G01X19546719Y1798139D01*
G01X19600313Y1860877D02*
G01X19634603Y1780867D01*
G01X19668893Y1860877D02*
G01X19634603Y1780867D01*
G01X19623173Y1758007D01*
G01X19611743Y1746577D01*
G01X19600313Y1740989D01*
G01X19594471Y1740989D01*
G01X19716645Y1826587D02*
G01X19785225Y1826587D01*
G01X19785225Y1838017D01*
G01X19779637Y1849447D01*
G01X19773795Y1855289D01*
G01X19762365Y1860877D01*
G01X19745347Y1860877D01*
G01X19733917Y1855289D01*
G01X19722487Y1843859D01*
G01X19716645Y1826587D01*
G01X19716645Y1815157D01*
G01X19722487Y1798139D01*
G01X19733917Y1786709D01*
G01X19745347Y1780867D01*
G01X19762365Y1780867D01*
G01X19773795Y1786709D01*
G01X19785225Y1798139D01*
G01X19832977Y1860877D02*
G01X19832977Y1780867D01*
G01X19832977Y1826587D02*
G01X19838819Y1843859D01*
G01X19850249Y1855289D01*
G01X19861679Y1860877D01*
G01X19878697Y1860877D01*
G01X19926449Y1832429D02*
G01X20029319Y1832429D01*
G01X20077071Y1901009D02*
G01X20077071Y1780867D01*
G01X20077071Y1901009D02*
G01X20128633Y1901009D01*
G01X20145651Y1895167D01*
G01X20151493Y1889579D01*
G01X20157081Y1878149D01*
G01X20157081Y1866719D01*
G01X20151493Y1855289D01*
G01X20145651Y1849447D01*
G01X20128633Y1843859D01*
G01X20077071Y1843859D02*
G01X20128633Y1843859D01*
G01X20145651Y1838017D01*
G01X20151493Y1832429D01*
G01X20157081Y1820999D01*
G01X20157081Y1803727D01*
G01X20151493Y1792297D01*
G01X20145651Y1786709D01*
G01X20128633Y1780867D01*
G01X20077071Y1780867D01*
G01X20233535Y1860877D02*
G01X20222105Y1855289D01*
G01X20210675Y1843859D01*
G01X20204833Y1826587D01*
G01X20204833Y1815157D01*
G01X20210675Y1798139D01*
G01X20222105Y1786709D01*
G01X20233535Y1780867D01*
G01X20250553Y1780867D01*
G01X20261983Y1786709D01*
G01X20273413Y1798139D01*
G01X20279255Y1815157D01*
G01X20279255Y1826587D01*
G01X20273413Y1843859D01*
G01X20261983Y1855289D01*
G01X20250553Y1860877D01*
G01X20233535Y1860877D01*
G01X20344279Y1901009D02*
G01X20344279Y1803727D01*
G01X20349867Y1786709D01*
G01X20361297Y1780867D01*
G01X20372727Y1780867D01*
G01X20327007Y1860877D02*
G01X20367139Y1860877D01*
G01X20437751Y1901009D02*
G01X20437751Y1803727D01*
G01X20443339Y1786709D01*
G01X20454769Y1780867D01*
G01X20466199Y1780867D01*
G01X20420479Y1860877D02*
G01X20460611Y1860877D01*
G01X20542653Y1860877D02*
G01X20531223Y1855289D01*
G01X20519793Y1843859D01*
G01X20513951Y1826587D01*
G01X20513951Y1815157D01*
G01X20519793Y1798139D01*
G01X20531223Y1786709D01*
G01X20542653Y1780867D01*
G01X20559671Y1780867D01*
G01X20571101Y1786709D01*
G01X20582531Y1798139D01*
G01X20588373Y1815157D01*
G01X20588373Y1826587D01*
G01X20582531Y1843859D01*
G01X20571101Y1855289D01*
G01X20559671Y1860877D01*
G01X20542653Y1860877D01*
G01X20636125Y1860877D02*
G01X20636125Y1780867D01*
G01X20636125Y1838017D02*
G01X20653397Y1855289D01*
G01X20664827Y1860877D01*
G01X20681845Y1860877D01*
G01X20693275Y1855289D01*
G01X20699117Y1838017D01*
G01X20699117Y1780867D01*
G01X20699117Y1838017D02*
G01X20716135Y1855289D01*
G01X20727565Y1860877D01*
G01X20744837Y1860877D01*
G01X20756267Y1855289D01*
G01X20761855Y1838017D01*
G01X20761855Y1780867D01*
G01X20937623Y1901009D02*
G01X20937623Y1780867D01*
G01X20937623Y1780867D02*
G01X21006203Y1780867D01*
G01X21122535Y1860877D02*
G01X21122535Y1780867D01*
G01X21122535Y1843859D02*
G01X21111105Y1855289D01*
G01X21099675Y1860877D01*
G01X21082657Y1860877D01*
G01X21071227Y1855289D01*
G01X21059797Y1843859D01*
G01X21053955Y1826587D01*
G01X21053955Y1815157D01*
G01X21059797Y1798139D01*
G01X21071227Y1786709D01*
G01X21082657Y1780867D01*
G01X21099675Y1780867D01*
G01X21111105Y1786709D01*
G01X21122535Y1798139D01*
G01X21176129Y1860877D02*
G01X21210419Y1780867D01*
G01X21244709Y1860877D02*
G01X21210419Y1780867D01*
G01X21198989Y1758007D01*
G01X21187559Y1746577D01*
G01X21176129Y1740989D01*
G01X21170287Y1740989D01*
G01X21292461Y1826587D02*
G01X21361041Y1826587D01*
G01X21361041Y1838017D01*
G01X21355453Y1849447D01*
G01X21349611Y1855289D01*
G01X21338181Y1860877D01*
G01X21321163Y1860877D01*
G01X21309733Y1855289D01*
G01X21298303Y1843859D01*
G01X21292461Y1826587D01*
G01X21292461Y1815157D01*
G01X21298303Y1798139D01*
G01X21309733Y1786709D01*
G01X21321163Y1780867D01*
G01X21338181Y1780867D01*
G01X21349611Y1786709D01*
G01X21361041Y1798139D01*
G01X21408793Y1860877D02*
G01X21408793Y1780867D01*
G01X21408793Y1826587D02*
G01X21414635Y1843859D01*
G01X21426065Y1855289D01*
G01X21437495Y1860877D01*
G01X21454513Y1860877D01*

G04 Image Start*
G36*
G01X6016263Y1720396D02*
G01X5910649Y1731877D01*
G01X5867774Y1634671D01*
G01X5824899Y1731877D01*
G01X5719286Y1720396D01*
G01X5782049Y1806121D01*
G01X5742327Y1860376D01*
G01X5773820Y1860376D01*
G01X5813520Y1806121D01*
G01X5773820Y1751867D01*
G01X5840647Y1759131D01*
G01X5840647Y1759131D01*
G01X5867774Y1697638D01*
G01X5894901Y1759131D01*
G01X5961729Y1751867D01*
G01X5922029Y1806121D01*
G01X5961703Y1860350D01*
G01X5894876Y1853086D01*
G01X5867774Y1914605D01*
G01X5840647Y1853111D01*
G01X5773820Y1860376D01*
G01X5742327Y1860376D01*
G01X5719286Y1891846D01*
G01X5824924Y1880366D01*
G01X5867774Y1977571D01*
G01X5910649Y1880366D01*
G01X6016263Y1891846D01*
G01X5953499Y1806121D01*
G01X6016263Y1720396D01*
G37*
G36*
G01X5887269Y2834701D02*
G01X5879529Y2834113D01*
G01X5871686Y2833914D01*
G01X5863843Y2834113D01*
G01X5856102Y2834701D01*
G01X5848475Y2835670D01*
G01X5840970Y2837010D01*
G01X5826364Y2840765D01*
G01X5812362Y2845890D01*
G01X5799040Y2852307D01*
G01X5786474Y2859940D01*
G01X5774742Y2868713D01*
G01X5763920Y2878548D01*
G01X5754084Y2889371D01*
G01X5745311Y2901103D01*
G01X5737678Y2913668D01*
G01X5731261Y2926990D01*
G01X5726137Y2940992D01*
G01X5722382Y2955598D01*
G01X5721042Y2963104D01*
G01X5720072Y2970731D01*
G01X5719484Y2978471D01*
G01X5719286Y2986314D01*
G01X5744686Y2986314D01*
G01X5745343Y2973348D01*
G01X5747270Y2960752D01*
G01X5750405Y2948590D01*
G01X5754682Y2936928D01*
G01X5760037Y2925828D01*
G01X5766405Y2915357D01*
G01X5773723Y2905577D01*
G01X5781925Y2896554D01*
G01X5790949Y2888351D01*
G01X5800728Y2881034D01*
G01X5811200Y2874665D01*
G01X5822299Y2869310D01*
G01X5833962Y2865034D01*
G01X5846123Y2861899D01*
G01X5846123Y2861899D01*
G01X5858719Y2859971D01*
G01X5871686Y2859314D01*
G01X5884652Y2859971D01*
G01X5897248Y2861899D01*
G01X5909410Y2865034D01*
G01X5921072Y2869310D01*
G01X5932172Y2874665D01*
G01X5942643Y2881034D01*
G01X5952423Y2888351D01*
G01X5961446Y2896554D01*
G01X5969649Y2905577D01*
G01X5976966Y2915357D01*
G01X5983335Y2925828D01*
G01X5988690Y2936928D01*
G01X5992966Y2948590D01*
G01X5996101Y2960752D01*
G01X5998029Y2973348D01*
G01X5998686Y2986314D01*
G01X5998029Y2999281D01*
G01X5996101Y3011877D01*
G01X5992966Y3024038D01*
G01X5988690Y3035701D01*
G01X5983335Y3046800D01*
G01X5976966Y3057272D01*
G01X5969649Y3067051D01*
G01X5961446Y3076075D01*
G01X5952423Y3084277D01*
G01X5942643Y3091595D01*
G01X5932172Y3097963D01*
G01X5921072Y3103318D01*
G01X5909410Y3107595D01*
G01X5897248Y3110729D01*
G01X5884652Y3112657D01*
G01X5871686Y3113314D01*
G01X5858719Y3112657D01*
G01X5846123Y3110729D01*
G01X5833962Y3107595D01*
G01X5822299Y3103318D01*
G01X5811200Y3097963D01*
G01X5800728Y3091595D01*
G01X5790949Y3084277D01*
G01X5781925Y3076075D01*
G01X5773723Y3067051D01*
G01X5766405Y3057272D01*
G01X5760037Y3046800D01*
G01X5754682Y3035701D01*
G01X5750405Y3024038D01*
G01X5747270Y3011877D01*
G01X5745343Y2999281D01*
G01X5744686Y2986314D01*
G01X5719286Y2986314D01*
G01X5719484Y2994157D01*
G01X5720072Y3001898D01*
G01X5721042Y3009525D01*
G01X5722382Y3017030D01*
G01X5726137Y3031636D01*
G01X5731261Y3045638D01*
G01X5737678Y3058960D01*
G01X5745311Y3071526D01*
G01X5754084Y3083258D01*
G01X5763920Y3094080D01*
G01X5774742Y3103916D01*
G01X5786474Y3112689D01*
G01X5799040Y3120322D01*
G01X5812362Y3126739D01*
G01X5826364Y3131863D01*
G01X5840970Y3135618D01*
G01X5848475Y3136958D01*
G01X5856102Y3137928D01*
G01X5863843Y3138516D01*
G01X5871686Y3138714D01*
G01X5879529Y3138516D01*
G01X5887269Y3137928D01*
G01X5894896Y3136958D01*
G01X5902402Y3135618D01*
G01X5917008Y3131863D01*
G01X5931010Y3126739D01*
G01X5944332Y3120322D01*
G01X5956897Y3112689D01*
G01X5968629Y3103916D01*
G01X5979452Y3094080D01*
G01X5989287Y3083258D01*
G01X5998060Y3071526D01*
G01X6005693Y3058960D01*
G01X6012110Y3045638D01*
G01X6017235Y3031636D01*
G01X6020990Y3017030D01*
G01X6022330Y3009525D01*
G01X6023299Y3001898D01*
G01X6023887Y2994157D01*
G01X6024086Y2986314D01*
G01X6023887Y2978471D01*
G01X6023299Y2970731D01*
G01X6022330Y2963104D01*
G01X6020990Y2955598D01*
G01X6017235Y2940992D01*
G01X6012110Y2926990D01*
G01X6005693Y2913668D01*
G01X5998060Y2901103D01*
G01X5989287Y2889371D01*
G01X5979452Y2878548D01*
G01X5968629Y2868713D01*
G01X5956897Y2859940D01*
G01X5944332Y2852307D01*
G01X5931010Y2845890D01*
G01X5917008Y2840765D01*
G01X5902402Y2837010D01*
G01X5894896Y2835670D01*
G01X5887269Y2834701D01*
G37*
G36*
G01X5719286Y2558143D02*
G01X6024086Y2558143D01*
G01X5871686Y2294186D01*
G01X5733951Y2532743D01*
G01X5763279Y2532743D01*
G01X5871686Y2344986D01*
G01X5980093Y2532743D01*
G01X5980093Y2532743D01*
G01X5763279Y2532743D01*
G01X5733951Y2532743D01*
G01X5719286Y2558143D01*
G37*
G36*
G01X5719286Y3719286D02*
G01X5998686Y3719286D01*
G01X5998686Y3439886D01*
G01X5719286Y3439886D01*
G01X5719286Y3693886D01*
G01X5744686Y3693886D01*
G01X5744686Y3465286D01*
G01X5973286Y3465286D01*
G01X5973286Y3693886D01*
G01X5973286Y3693886D01*
G01X5744686Y3693886D01*
G01X5719286Y3693886D01*
G01X5719286Y3719286D01*
G37*

G04 PolygonModel Start*
G54D15*
G01X5429000Y1542143D02*
G01X22045245Y1542143D01*
G01X5429000Y2122714D02*
G01X22045245Y2122714D01*
G01X5429000Y2703286D02*
G01X22045245Y2703286D01*
G01X5429000Y3283857D02*
G01X22045245Y3283857D01*
G01X5429000Y3864429D02*
G01X22045245Y3864429D01*
G01X5429000Y4445000D02*
G01X22045245Y4445000D01*
G01X5429000Y4445000D02*
G01X5429000Y1567543D01*
G01X6880429Y4445000D02*
G01X6880429Y1567543D01*
G01X8294592Y4445000D02*
G01X8294592Y1567543D01*
G01X12085941Y4445000D02*
G01X12085941Y1567543D01*
G01X13547348Y4445000D02*
G01X13547348Y1567543D01*
G01X14978529Y4445000D02*
G01X14978529Y1567543D01*
G01X16647708Y4445000D02*
G01X16647708Y1567543D01*
G01X18567077Y4445000D02*
G01X18567077Y1567543D01*
G01X22045245Y4445000D02*
G01X22045245Y1567543D01*

M02*

